<svg width="23.9716mm" height="3.8651mm" viewBox="0 0 114.58 18.48" fill="none" xmlns="http://www.w3.org/2000/svg">
<path fill-rule="evenodd" clip-rule="evenodd" d="M85.73 2.43c3.25,0 5.7,0.54 7.33,1.63 1.63,1.09 2.45,2.81 2.45,5.16 0,2.36 -0.81,4.09 -2.44,5.18 -1.63,1.09 -4.07,1.63 -7.34,1.63 -3.28,0 -5.73,-0.54 -7.35,-1.63 -1.62,-1.09 -2.43,-2.81 -2.43,-5.18 0,-2.35 0.81,-4.07 2.44,-5.16 1.63,-1.09 4.07,-1.63 7.34,-1.63zm0 10.18l0 0c1.87,0 4.58,0.05 5.36,-1.66 0.4,-0.89 0.4,-2.56 0,-3.45 -0.77,-1.69 -3.51,-1.64 -5.36,-1.64 -1.86,0 -4.59,-0.04 -5.36,1.64 -0.4,0.89 -0.4,2.56 0,3.45 0.78,1.71 3.49,1.66 5.36,1.66zm-12 -0.02l0 0 -9.52 0 0 -10.16 -4.14 0 0 13.6 16.16 0 -2.51 -3.44zm-30.3 3.44l0 0 2.5 -3.44 2.56 0c0.4,0 0.82,0 1.25,0 0.43,0 0.81,0.01 1.13,0.04 -0.19,-0.24 -0.4,-0.54 -0.65,-0.91 -0.25,-0.37 -0.48,-0.71 -0.71,-1.03l-2.4 -3.54 -6.28 8.88 -4.9 0 8.58 -12.1c0.28,-0.39 0.63,-0.73 1.06,-1.04 0.43,-0.31 0.97,-0.46 1.62,-0.46 0.63,0 1.15,0.14 1.57,0.43 0.42,0.29 0.78,0.64 1.07,1.07l8.36 12.1 -14.76 0zm-14.33 -4.91l0 0 -6.36 -9.38 -6.51 -1.75 12.69 18.47 13.11 -18.48 -6.3 1.75 -6.63 9.38zm-14.42 4.91l0 0 -14.68 0 8.36 -12.1c0.29,-0.43 0.65,-0.78 1.07,-1.07 0.42,-0.29 0.94,-0.43 1.57,-0.43 0.65,0 1.19,0.15 1.62,0.46 0.43,0.31 0.78,0.65 1.06,1.04l8.58 12.1 -4.9 0 -6.28 -8.88 -2.4 3.54c-0.23,0.32 -0.46,0.66 -0.71,1.03 -0.25,0.37 -0.46,0.67 -0.65,0.91 0.32,-0.03 0.7,-0.04 1.13,-0.04 0.43,0 0.85,0 1.25,0l2.47 0 2.5 3.44zm97.5 -0l0 0c-0.28,0 -0.56,-0.04 -0.84,-0.13 -0.28,-0.09 -0.58,-0.28 -0.92,-0.58l-8.67 -7.25 0 7.95 -3.98 0 0 -11.14c0,-0.43 0.07,-0.81 0.2,-1.12 0.13,-0.32 0.31,-0.57 0.53,-0.77 0.22,-0.2 0.47,-0.34 0.76,-0.43 0.29,-0.09 0.59,-0.14 0.9,-0.14 0.27,0 0.54,0.04 0.81,0.13 0.27,0.09 0.59,0.28 0.94,0.58l8.67 7.25 0 -7.95 4 0 0 11.12c0,0.43 -0.07,0.81 -0.2,1.12 -0.13,0.32 -0.31,0.57 -0.53,0.78 -0.22,0.2 -0.48,0.35 -0.77,0.44 -0.3,0.09 -0.6,0.14 -0.91,0.14z" fill="currentColor" />
</svg>