<svg width="104" height="104" viewBox="0 0 104 104" fill="none" xmlns="http://www.w3.org/2000/svg">
<path d="M10.1502 60.2672C8.01986 50.895 11.5287 44.5929 15.8968 41.5227" stroke="black" stroke-width="2" stroke-miterlimit="10" stroke-linecap="round" stroke-linejoin="round"/>
<path d="M10.1502 60.2672C8.01986 50.895 11.5287 44.5929 15.8968 41.5227" stroke="black" stroke-width="2" stroke-miterlimit="10" stroke-linecap="round" stroke-linejoin="round" id="svg_1"/><path d="M42.30515,28.45999L42.00725,27.37597L42.00388,27.37698L42.30515,28.45999zM69.55383,55.18301L70.66842,55.32938L70.66865,55.32814L69.55383,55.18301zM44.69993,88.00151L44.81594,86.88332L44.8156,86.88332L44.69993,88.00151zM27.07081,88.00151L26.96087,86.88276L26.95828,86.88298L27.07081,88.00151zM11.49438,78.41432L10.53972,79.00799L10.54125,79.01035L11.49438,78.41432zM2.21691,55.18301L1.10231,55.32927L1.10233,55.32938L2.21691,55.18301zM29.46558,28.45999L29.16779,29.54389L29.1697,29.54445L29.46558,28.45999zM48.46402,4.31609C49.01902,4.03787 49.24328,3.36237 48.96494,2.80737C48.68672,2.25238 48.01122,2.02811 47.45622,2.30634L48.46402,4.31609zM35.88537,27.53155L34.76122,27.53155L34.76122,27.53155L35.88537,27.53155zM36.9116,17.72235L37.44647,18.71104C37.9692,18.42831 38.18155,17.78755 37.93109,17.24863L36.9116,17.72235zM21.39555,20.00302L21.77169,18.94373L21.76989,18.94306L21.39555,20.00302zM11.41378,8.98288L10.83703,8.01791C10.37264,8.29546 10.17181,8.8644 10.35907,9.37195L11.41378,8.98288zM26.08459,6.7021L25.70744,7.76116L25.71126,7.76239L26.08459,6.7021zM35.88537,30.674C37.86353,30.674 39.80685,30.3218 42.60642,29.54299L42.00388,27.37698C39.28929,28.13207 37.57002,28.4257 35.88537,28.4257L35.88537,30.674zM62.09994,33.63826C66.92467,38.11946 69.67929,45.50848 68.43913,55.03789L70.66865,55.32814C71.98424,45.2189 69.08529,37.05781 63.63002,31.99094L62.09994,33.63826zM68.43924,55.03665C67.24427,64.13348 62.80501,72.21914 59.32183,77.82066L61.23109,79.00787C64.75113,73.34711 69.40825,64.92263 70.66842,55.32938L68.43924,55.03665zM59.32183,77.82066C55.90892,83.3092 50.59788,87.48328 44.81594,86.88332L44.58391,89.1197C51.64165,89.85186 57.64056,84.78184 61.23109,79.00787L59.32183,77.82066zM44.8156,86.88332C42.91365,86.68671 41.46114,86.40297 40.08181,86.15802C38.70788,85.91397 37.39869,85.70667 35.88537,85.70667L35.88537,87.95497C37.18949,87.95497 38.33556,88.13124 39.68858,88.37158C41.0361,88.61102 42.58214,88.91263 44.58436,89.1197L44.8156,86.88332zM35.88537,85.70667C34.3699,85.70667 33.0587,85.9197 31.68701,86.16589C30.30993,86.41309 28.8591,86.69626 26.96087,86.88276L27.18075,89.12026C29.18668,88.9232 30.73441,88.62114 32.08417,88.37889C33.43944,88.13562 34.58338,87.95497 35.88537,87.95497L35.88537,85.70667zM26.95828,86.88298C21.17319,87.46507 15.8807,83.30774 12.44744,77.81819L10.54125,79.01035C14.15165,84.7833 20.12897,89.82971 27.18333,89.12004L26.95828,86.88298zM12.44901,77.82066C8.96575,72.21914 4.52649,64.13348 3.33148,55.03665L1.10233,55.32938C2.36253,64.92263 7.0196,73.34711 10.53972,79.00787L12.44901,77.82066zM3.33151,55.03676C2.08164,45.50803 4.83611,38.11957 9.66311,33.63849C14.48912,29.1582 21.53179,27.44567 29.16779,29.54389L29.76348,27.37597C21.46075,25.09451 13.59115,26.92406 8.13345,31.99071C2.67677,37.05646 -0.22378,45.21935 1.10231,55.32927L3.33151,55.03676zM29.1697,29.54445C31.93837,30.29988 33.88382,30.674 35.88537,30.674L35.88537,28.4257C34.18397,28.4257 32.46683,28.11364 29.76157,27.37541L29.1697,29.54445zM48.2866,4.20918C49.00146,3.50366 47.45566,2.30668 47.45499,2.30701C47.45476,2.30713 47.45409,2.30746 47.45353,2.30769C47.45251,2.30825 47.45117,2.30893 47.44982,2.3096C47.44689,2.31106 47.4433,2.31286 47.43902,2.31511C47.43037,2.31949 47.41879,2.32545 47.40451,2.33298C47.37585,2.34793 47.33594,2.36907 47.2858,2.39661C47.1853,2.45147 47.0431,2.53151 46.86503,2.63774C46.50913,2.8502 46.00945,3.168 45.41398,3.59922C44.22407,4.46111 42.64543,5.78119 41.06814,7.62682C37.90333,11.32988 34.76122,17.13206 34.76122,25.51314L37.00951,25.51314C37.00951,17.74753 39.90476,12.44863 42.77729,9.08754C44.21868,7.40098 45.65871,6.19803 46.73284,5.42001C47.26939,5.03139 47.71309,4.7499 48.01751,4.56824C48.16961,4.47741 48.28686,4.41153 48.3633,4.36983C48.40141,4.34903 48.4294,4.33419 48.44649,4.3252C48.45503,4.32081 48.46076,4.31778 48.46369,4.31632C48.46526,4.31553 48.46593,4.31519 48.46605,4.31508C48.46605,4.31508 48.46593,4.31519 48.4656,4.31531C48.46537,4.31542 48.547,4.39704 48.46492,4.31564C48.38284,4.23424 47.57174,4.9147 48.2866,4.20918zM34.76122,25.51314L34.76122,27.53155L37.00951,27.53155L37.00951,25.51314L34.76122,25.51314zM36.9116,17.72235C36.37673,16.73355 36.37696,16.73343 36.37718,16.73332C36.37718,16.73332 36.37741,16.73321 36.37741,16.73321C36.37752,16.73321 36.37752,16.73321 36.37729,16.73332C36.37696,16.73343 36.37606,16.73388 36.37471,16.73467C36.3719,16.73613 36.36706,16.73872 36.36021,16.74231C36.34649,16.74962 36.3248,16.76109 36.29523,16.77638C36.2361,16.80707 36.14594,16.85304 36.02735,16.9115C35.79004,17.02864 35.43953,17.19546 34.99617,17.38926C34.10798,17.77777 32.85522,18.27116 31.40035,18.6908C28.45137,19.54144 24.85028,20.03663 21.77169,18.94373L21.01941,21.06242C24.76304,22.3915 28.92003,21.74624 32.02347,20.85108C33.5948,20.39782 34.94198,19.86688 35.89706,19.44926C36.37527,19.24006 36.75726,19.0584 37.02211,18.92777C37.15453,18.86246 37.25784,18.80974 37.32945,18.77264C37.3652,18.75409 37.39307,18.73948 37.41275,18.72913C37.42253,18.72396 37.43028,18.7198 37.4359,18.71677C37.43871,18.71531 37.44096,18.71407 37.44276,18.71306C37.44366,18.71261 37.44445,18.71216 37.44501,18.71182C37.44535,18.71171 37.44568,18.71149 37.4458,18.71137C37.44613,18.71126 37.44647,18.71104 36.9116,17.72235zM21.76989,18.94306C18.70209,17.85983 16.3769,15.3378 14.78769,12.96641C14.00191,11.79404 13.41791,10.69091 13.03098,9.88198C12.83785,9.47818 12.69486,9.14982 12.60122,8.92521C12.55434,8.81291 12.51995,8.7268 12.4978,8.67026C12.48678,8.64204 12.4788,8.62124 12.47397,8.60832C12.47149,8.60191 12.46981,8.59741 12.46891,8.59494C12.46835,8.5937 12.46812,8.59303 12.46801,8.5928C12.46801,8.59269 12.46801,8.59269 12.46812,8.59291C12.46812,8.59291 12.46823,8.59314 12.46823,8.59325C12.46835,8.59348 12.46835,8.5937 11.41378,8.98288C10.35907,9.37195 10.35921,9.37229 10.35934,9.37262C10.35941,9.37285 10.35956,9.37319 10.35968,9.37364C10.35994,9.37431 10.36023,9.3751 10.36059,9.376C10.36129,9.37791 10.36219,9.38027 10.36328,9.38319C10.36547,9.38904 10.36845,9.39702 10.37221,9.40691C10.37976,9.42681 10.39047,9.45469 10.40437,9.4901C10.43214,9.56103 10.47268,9.66243 10.5261,9.79047C10.63289,10.04655 10.79143,10.41021 11.00272,10.852C11.42458,11.73401 12.06062,12.93572 12.92003,14.21804C14.6212,16.75637 17.2869,19.74447 21.0212,21.06309L21.76989,18.94306zM11.41378,8.98288C11.99047,9.94774 11.99013,9.94796 11.98991,9.94808C11.98991,9.94808 11.98968,9.94819 11.98968,9.9483C11.98946,9.9483 11.98946,9.9483 11.98957,9.9483C11.9898,9.94819 11.99036,9.94785 11.99148,9.94718C11.99373,9.94583 11.99789,9.94335 12.00385,9.93987C12.01565,9.93301 12.03488,9.92188 12.06118,9.90682C12.11368,9.87692 12.19428,9.8315 12.30096,9.77372C12.51432,9.65805 12.83111,9.49268 13.23389,9.30023C14.04114,8.91476 15.18586,8.42474 16.53102,8.00802C19.25146,7.16513 22.63975,6.66882 25.70744,7.76116L26.46163,5.64304C22.72732,4.31339 18.7801,4.95742 15.86564,5.86045C14.39334,6.31663 13.14576,6.85082 12.2651,7.27148C11.82398,7.48214 11.4728,7.66527 11.22931,7.79724C11.10751,7.86334 11.01246,7.91663 10.94638,7.9544C10.91335,7.97328 10.88754,7.98824 10.86921,7.99891C10.86006,8.00431 10.85278,8.00858 10.8474,8.01173C10.84472,8.0133 10.8425,8.01465 10.84077,8.01566C10.83991,8.01611 10.83916,8.01656 10.83855,8.01701C10.83823,8.01713 10.83785,8.01735 10.83769,8.01746C10.83735,8.01769 10.83703,8.01791 11.41378,8.98288zM25.71126,7.76239C28.81369,8.85473 31.35539,11.40182 33.15942,13.79041C34.05087,14.97077 34.73862,16.08087 35.20267,16.89497C35.43436,17.30135 35.60939,17.63219 35.72518,17.85882C35.78307,17.97213 35.82624,18.05937 35.85412,18.11681C35.86805,18.14548 35.87828,18.16672 35.88458,18.1801C35.88784,18.18673 35.88998,18.19145 35.89132,18.19415C35.89189,18.1955 35.89234,18.19629 35.89245,18.19663C35.89256,18.19685 35.89256,18.19685 35.89245,18.19674C35.89245,18.19674 35.89234,18.19651 35.89234,18.19651C35.89222,18.19629 35.89211,18.19606 36.9116,17.72235C37.93109,17.24863 37.93098,17.24829 37.93075,17.24796C37.93075,17.24784 37.93053,17.24739 37.93042,17.24717C37.93008,17.2465 37.92974,17.24571 37.92929,17.24481C37.92851,17.24312 37.92738,17.24076 37.92615,17.23795C37.92345,17.23233 37.91985,17.22469 37.91524,17.21491C37.90602,17.19557 37.89287,17.16814 37.87578,17.13307C37.84172,17.06315 37.79215,16.96276 37.72717,16.83573C37.59744,16.58179 37.40623,16.22049 37.15588,15.78139C36.65586,14.90444 35.91594,13.70981 34.95345,12.43537C33.04948,9.91435 30.17773,6.95132 26.45792,5.64169L25.71126,7.76239zM34.76122,27.53155L34.76122,29.54985L37.00951,29.54985L37.00951,27.53155L34.76122,27.53155z" stroke-width="2" stroke-miterlimit="10" stroke-linecap="round" stroke-linejoin="round" fill="#00D372"/>
</svg>