<svg width="104" height="104" viewBox="0 0 104 104" fill="none" xmlns="http://www.w3.org/2000/svg">
<path d="M9.17509 60.4889C9.2975 61.0274 9.83331 61.3648 10.3719 61.2424C10.9104 61.12 11.2478 60.5841 11.1253 60.0456L9.17509 60.4889ZM16.4718 42.3408C16.9237 42.0232 17.0325 41.3995 16.7149 40.9477C16.3973 40.4958 15.7736 40.387 15.3217 40.7046L16.4718 42.3408ZM11.1253 60.0456C9.08012 51.0479 12.453 45.1655 16.4718 42.3408L15.3217 40.7046C10.6043 44.0203 6.9596 50.7421 9.17509 60.4889L11.1253 60.0456Z" fill="black" stroke-width="2" stroke-linecap="round" stroke-linejoin="round" />
<path d="M37.7196 35.1668L37.4546 34.2026L37.4516 34.2034L37.7196 35.1668ZM61.959 58.9387L62.9505 59.0689L62.9507 59.0677L61.959 58.9387ZM39.8499 88.1328L39.9531 87.1381L39.9528 87.1381L39.8499 88.1328ZM24.1677 88.1328L24.0699 87.1375L24.0676 87.1378L24.1677 88.1328ZM10.3115 79.6043L9.46227 80.1324L9.46363 80.1346L10.3115 79.6043ZM2.05861 58.9387L1.0671 59.0687L1.06712 59.0689L2.05861 58.9387ZM26.298 35.1668L26.0331 36.1311L26.0348 36.1316L26.298 35.1668ZM43.1973 13.6893C43.691 13.4417 43.8905 12.8408 43.643 12.3471C43.3954 11.8535 42.7945 11.6539 42.3008 11.9015L43.1973 13.6893ZM31.0078 34.3409C31.0078 34.8931 31.4555 35.3409 32.0078 35.3409C32.5601 35.3409 33.0078 34.8931 33.0078 34.3409H31.0078ZM32.9222 25.6149L33.398 26.4944C33.863 26.2429 34.0518 25.6729 33.8291 25.1935L32.9222 25.6149ZM19.1197 27.6437L19.4542 26.7014L19.4526 26.7008L19.1197 27.6437ZM10.2402 17.8406L9.72722 16.9822C9.31412 17.2291 9.13547 17.7352 9.30205 18.1867L10.2402 17.8406ZM23.2909 15.8117L22.9554 16.7538L22.9588 16.755L23.2909 15.8117ZM32.0088 37.1364C33.7685 37.1364 35.4972 36.8231 37.9876 36.1303L37.4516 34.2034C35.0368 34.8752 33.5074 35.1364 32.0088 35.1364V37.1364ZM37.9846 36.1311C44.7772 34.2645 51.0375 35.788 55.3283 39.7732C59.6202 43.7596 62.0706 50.3326 60.9674 58.8096L62.9507 59.0677C64.121 50.075 61.5409 42.814 56.6894 38.3078C51.8366 33.8006 44.8404 32.173 37.4546 34.2026L37.9846 36.1311ZM60.9675 58.8084C59.9045 66.9006 55.9555 74.0933 52.857 79.0763L54.5554 80.1324C57.6867 75.0967 61.8295 67.6026 62.9505 59.0689L60.9675 58.8084ZM52.857 79.0763C49.821 83.9586 45.0965 87.6717 39.9531 87.1381L39.7467 89.1274C46.025 89.7788 51.3614 85.2687 54.5554 80.1324L52.857 79.0763ZM39.9528 87.1381C38.2609 86.9631 36.9688 86.7108 35.7418 86.4928C34.5196 86.2757 33.355 86.0914 32.0088 86.0914V88.0914C33.1689 88.0914 34.1884 88.2482 35.392 88.462C36.5907 88.6749 37.966 88.9433 39.7471 89.1274L39.9528 87.1381ZM32.0088 86.0914C30.6607 86.0914 29.4943 86.2809 28.2741 86.4999C27.0491 86.7197 25.7585 86.9717 24.0699 87.1375L24.2655 89.128C26.0499 88.9527 27.4267 88.6839 28.6274 88.4684C29.833 88.252 30.8506 88.0914 32.0088 88.0914V86.0914ZM24.0676 87.1378C18.9214 87.6555 14.2134 83.9574 11.1593 79.0741L9.46363 80.1346C12.6753 85.27 17.9925 89.7591 24.2678 89.1277L24.0676 87.1378ZM11.1607 79.0763C8.06212 74.0933 4.11312 66.9006 3.05009 58.8084L1.06712 59.0689C2.18815 67.6026 6.3309 75.0967 9.46227 80.1324L11.1607 79.0763ZM3.05011 58.8086C1.93828 50.3322 4.38855 43.7597 8.68247 39.7734C12.9755 35.788 19.2404 34.2645 26.0331 36.1311L26.563 34.2026C19.1772 32.173 12.1767 33.8006 7.32174 38.3077C2.46768 42.8139 -0.112538 50.0754 1.0671 59.0687L3.05011 58.8086ZM26.0348 36.1316C28.4977 36.8036 30.2283 37.1364 32.0088 37.1364V35.1364C30.4953 35.1364 28.9678 34.8587 26.5613 34.2021L26.0348 36.1316ZM42.7491 12.7954C42.3008 11.9015 42.3003 11.9018 42.2998 11.902C42.2995 11.9022 42.2989 11.9025 42.2985 11.9027C42.2975 11.9032 42.2964 11.9037 42.2951 11.9044C42.2926 11.9057 42.2893 11.9073 42.2855 11.9093C42.2778 11.9132 42.2675 11.9185 42.2548 11.9252C42.2293 11.9385 42.1939 11.9573 42.1492 11.9817C42.0598 12.0305 41.9333 12.1017 41.7749 12.1963C41.4583 12.3853 41.0138 12.6679 40.4841 13.0516C39.4256 13.8183 38.0214 14.9926 36.6182 16.6344C33.8029 19.9285 31.0078 25.0899 31.0078 32.5454H33.0078C33.0078 25.6373 35.5833 20.9237 38.1386 17.9337C39.4208 16.4335 40.7019 15.3634 41.6574 14.6713C42.1347 14.3256 42.5293 14.0752 42.8001 13.9135C42.9355 13.8327 43.0397 13.7742 43.1077 13.7371C43.1417 13.7185 43.1666 13.7053 43.1817 13.6974C43.1893 13.6934 43.1945 13.6908 43.1971 13.6895C43.1984 13.6888 43.1991 13.6884 43.1991 13.6884C43.1991 13.6884 43.199 13.6885 43.1987 13.6886C43.1986 13.6887 43.1982 13.6889 43.1981 13.6889C43.1978 13.6891 43.1973 13.6893 42.7491 12.7954ZM31.0078 32.5454V34.3409H33.0078V32.5454H31.0078ZM32.9222 25.6149C32.4464 24.7353 32.4466 24.7352 32.4468 24.7351C32.4468 24.7351 32.447 24.735 32.447 24.735C32.4471 24.735 32.447 24.735 32.4469 24.7351C32.4466 24.7352 32.4458 24.7356 32.4446 24.7363C32.4421 24.7376 32.4378 24.7399 32.4317 24.7431C32.4195 24.7496 32.4001 24.7598 32.3738 24.7734C32.3212 24.8007 32.2411 24.8416 32.1356 24.8936C31.9245 24.9978 31.6127 25.1462 31.2183 25.3187C30.4282 25.6642 29.3138 26.1031 28.0196 26.4764C25.3963 27.2332 22.1929 27.6737 19.4542 26.7014L18.7851 28.5861C22.1153 29.7684 25.8131 29.1945 28.5739 28.3981C29.9717 27.9949 31.17 27.5226 32.0196 27.1511C32.4451 26.965 32.7849 26.8035 33.0205 26.6872C33.1383 26.6291 33.2302 26.5822 33.2939 26.5492C33.3257 26.5328 33.3505 26.5197 33.3679 26.5105C33.3767 26.5059 33.3835 26.5022 33.3886 26.4995C33.3911 26.4982 33.3931 26.4971 33.3947 26.4962C33.3955 26.4958 33.3961 26.4954 33.3967 26.4951C33.397 26.495 33.3973 26.4948 33.3974 26.4947C33.3977 26.4946 33.398 26.4944 32.9222 25.6149ZM19.4526 26.7008C16.7236 25.7372 14.6553 23.4937 13.2416 21.3842C12.5426 20.3413 12.0231 19.36 11.6789 18.6404C11.5071 18.2812 11.3799 17.9891 11.2966 17.7893C11.2549 17.6894 11.2243 17.6128 11.2046 17.5625C11.1948 17.5374 11.1877 17.5189 11.1833 17.5074C11.1811 17.5017 11.1796 17.4977 11.1788 17.4955C11.1784 17.4944 11.1782 17.4938 11.1781 17.4936C11.1781 17.4935 11.1781 17.4935 11.1781 17.4937C11.1782 17.4937 11.1782 17.4939 11.1782 17.494C11.1783 17.4942 11.1784 17.4944 10.2402 17.8406C9.30205 18.1867 9.30216 18.187 9.30229 18.1873C9.30234 18.1875 9.30248 18.1879 9.30259 18.1882C9.30281 18.1888 9.30308 18.1895 9.30339 18.1903C9.30402 18.192 9.30481 18.1941 9.30579 18.1967C9.30773 18.2019 9.31038 18.209 9.31374 18.2178C9.32045 18.2355 9.32997 18.2603 9.34233 18.2918C9.36705 18.3549 9.40311 18.4451 9.45063 18.5591C9.54563 18.7869 9.68665 19.1103 9.87461 19.5033C10.2499 20.2879 10.8156 21.3569 11.5802 22.4977C13.0934 24.7557 15.4648 27.4137 18.7867 28.5867L19.4526 26.7008ZM10.2402 17.8406C10.7532 18.6989 10.753 18.6991 10.7528 18.6992C10.7528 18.6992 10.7526 18.6993 10.7525 18.6994C10.7524 18.6994 10.7524 18.6995 10.7525 18.6994C10.7526 18.6993 10.7532 18.699 10.7542 18.6984C10.7562 18.6972 10.7599 18.695 10.7651 18.692C10.7757 18.6858 10.7928 18.6759 10.8161 18.6625C10.8629 18.6359 10.9346 18.5955 11.0295 18.5441C11.2193 18.4412 11.5011 18.2941 11.8594 18.123C12.5775 17.78 13.5958 17.3441 14.7924 16.9734C17.2124 16.2236 20.2265 15.7821 22.9554 16.7538L23.6263 14.8696C20.3043 13.6868 16.7931 14.2597 14.2005 15.063C12.8908 15.4688 11.781 15.9441 10.9976 16.3182C10.6052 16.5056 10.2928 16.6685 10.0762 16.7859C9.96783 16.8447 9.88328 16.8921 9.8245 16.9257C9.79511 16.9425 9.77214 16.9558 9.75585 16.9653C9.74771 16.9701 9.74123 16.9739 9.73644 16.9767C9.73405 16.9781 9.73209 16.9793 9.73055 16.9802C9.72978 16.9807 9.72912 16.9811 9.72856 16.9814C9.72828 16.9815 9.72795 16.9817 9.72781 16.9818C9.7275 16.982 9.72722 16.9822 10.2402 17.8406ZM22.9588 16.755C25.7186 17.7266 27.9796 19.9924 29.5843 22.1172C30.3774 23.1672 30.9891 24.1548 31.402 24.8789C31.6081 25.2404 31.7637 25.5347 31.8668 25.7364C31.9183 25.8372 31.9566 25.9147 31.9815 25.9658C31.9939 25.9913 32.003 26.0102 32.0086 26.0221C32.0114 26.0281 32.0134 26.0322 32.0145 26.0346C32.0151 26.0358 32.0154 26.0366 32.0156 26.0368C32.0156 26.037 32.0156 26.037 32.0156 26.0369C32.0156 26.0369 32.0155 26.0367 32.0155 26.0367C32.0154 26.0365 32.0153 26.0363 32.9222 25.6149C33.8291 25.1935 33.8289 25.1932 33.8288 25.1929C33.8287 25.1928 33.8286 25.1924 33.8285 25.1922C33.8282 25.1916 33.8279 25.1909 33.8275 25.1901C33.8268 25.1886 33.8258 25.1865 33.8246 25.184C33.8223 25.179 33.8191 25.1722 33.815 25.1635C33.8068 25.1463 33.7951 25.1219 33.7799 25.0908C33.7496 25.0285 33.7055 24.9392 33.6477 24.8262C33.5323 24.6003 33.3622 24.2789 33.1395 23.8883C32.6947 23.1082 32.0365 22.0455 31.1803 20.9118C29.4866 18.6692 26.9319 16.0334 23.6229 14.8684L22.9588 16.755Z" fill="currentColor" stroke-width="2" stroke-linecap="round" stroke-linejoin="round" />
</svg>
