<svg width="104" height="104" viewBox="0 0 104 104" fill="currentColor" xmlns="http://www.w3.org/2000/svg">
<path fill-rule="evenodd" class="svg-line" clip-rule="evenodd" d="M26.0607 34.0606C26.0607 33.5083 26.5084 33.0606 27.0607 33.0606H46.6061C47.1584 33.0606 47.6061 33.5083 47.6061 34.0606V53.6061C47.6061 54.1583 47.1584 54.6061 46.6061 54.6061H27.0607C26.5084 54.6061 26.0607 54.1583 26.0607 53.6061V34.0606ZM28.0607 35.0606V52.6061H45.6061V35.0606H28.0607Z" fill="black"/>
<path fill-rule="evenodd" clip-rule="evenodd" d="M27.0606 7C27.6129 7 28.0606 7.44772 28.0606 8V16.7727H45.6061V8C45.6061 7.44772 46.0538 7 46.6061 7C47.1584 7 47.6061 7.44772 47.6061 8V16.7727H56.3788C60.5293 16.7727 63.8939 20.1374 63.8939 24.2879V33.0606H72.6667C73.219 33.0606 73.6667 33.5083 73.6667 34.0606C73.6667 34.6129 73.219 35.0606 72.6667 35.0606H63.8939V49.3485H72.6667C73.219 49.3485 73.6667 49.7962 73.6667 50.3485C73.6667 50.9008 73.219 51.3485 72.6667 51.3485H63.8939V63.3788C63.8939 67.5293 60.5293 70.8939 56.3788 70.8939H47.6061V79.6667C47.6061 80.219 47.1584 80.6667 46.6061 80.6667C46.0538 80.6667 45.6061 80.219 45.6061 79.6667V70.8939H28.0606V79.6667C28.0606 80.219 27.6129 80.6667 27.0606 80.6667C26.5083 80.6667 26.0606 80.219 26.0606 79.6667V70.8939H17.2879C13.1374 70.8939 9.77273 67.5293 9.77273 63.3788V51.3485H1C0.447715 51.3485 0 50.9008 0 50.3485C0 49.7962 0.447715 49.3485 1 49.3485H9.77273V35.0606H1C0.447715 35.0606 0 34.6129 0 34.0606C0 33.5083 0.447715 33.0606 1 33.0606H9.77273V24.2879C9.77273 20.1374 13.1374 16.7727 17.2879 16.7727H26.0606V8C26.0606 7.44772 26.5083 7 27.0606 7ZM17.2879 18.7727C14.242 18.7727 11.7727 21.2419 11.7727 24.2879V63.3788C11.7727 66.4247 14.242 68.8939 17.2879 68.8939H56.3788C59.4247 68.8939 61.8939 66.4247 61.8939 63.3788V24.2879C61.8939 21.2419 59.4247 18.7727 56.3788 18.7727H17.2879Z" fill="#00D372"/>
</svg>
