<svg width="104" height="104" viewBox="0 0 104 104" fill="none" xmlns="http://www.w3.org/2000/svg">
<path fill-rule="evenodd" fill="currentColor" clip-rule="evenodd" d="M52.1692 10.1567C51.6799 9.93526 51.1275 9.89619 50.6119 10.0465L29.8973 16.0855L17.5218 39.7854L39.0721 56.637C39.3204 56.8311 39.6066 56.9709 39.9124 57.0473L63.4574 62.9336C63.8343 63.0278 64.2292 63.0228 64.6037 62.9191C64.9781 62.8154 65.3193 62.6165 65.5941 62.3417L79.7154 48.2204L63.3842 36.3431L58.7751 39.8C56.3517 41.6175 53.4043 42.6 50.3751 42.6C47.3459 42.6 44.3984 41.6175 41.9751 39.8L39.7729 38.1484C39.2858 37.783 38.8828 37.3173 38.5914 36.7826C38.2999 36.248 38.1268 35.657 38.0836 35.0496C38.0404 34.4423 38.1283 33.8327 38.3412 33.2622C38.5541 32.6918 38.8871 32.1737 39.3177 31.7432L55.2161 15.8448C55.6107 15.4501 56.0792 15.1371 56.5949 14.9235C57.1105 14.7099 57.6631 14.6 58.2213 14.6L61.9892 14.6L52.1692 10.1567ZM66.8407 14.6L52.9937 8.33452C52.0694 7.91631 51.0261 7.8425 50.0522 8.12643L50.3321 9.08647L50.0522 8.12643L29.4325 14.1378L19.5535 9.19827L19.109 10.0874L19.5535 9.19827C18.5569 8.69997 17.4045 8.61299 16.3444 8.95603C15.2843 9.29908 14.4013 10.0447 13.8856 11.0324L3.89468 30.1656C3.63343 30.6659 3.47445 31.2132 3.42702 31.7756C3.37959 32.338 3.44466 32.9042 3.61842 33.4412C3.79219 33.9782 4.07118 34.4752 4.4391 34.9032C4.80702 35.3312 5.25651 35.6817 5.76133 35.9341L6.19412 35.0685L5.76133 35.9341L15.7131 40.91L37.8401 58.2125C38.309 58.5791 38.8498 58.8432 39.4273 58.9876L62.9723 64.8739C63.6843 65.0519 64.4302 65.0424 65.1375 64.8465C65.8448 64.6506 66.4893 64.2749 67.0083 63.756L81.9571 48.8071C81.9755 48.7887 81.9932 48.7696 82.0101 48.7498L88.3785 41.2996L98.2388 36.3695C98.7436 36.1171 99.1931 35.7667 99.561 35.3386C99.9289 34.9106 100.208 34.4136 100.382 33.8766C100.555 33.3396 100.62 32.7734 100.573 32.211C100.526 31.6486 100.367 31.1013 100.105 30.601L90.1145 11.4678C89.5988 10.4801 88.7158 9.7345 87.6557 9.39146C86.5956 9.04841 85.4432 9.13541 84.4466 9.6337L74.5139 14.6L66.8407 14.6ZM66.6024 16.6C66.6171 16.6003 66.6317 16.6003 66.6463 16.6L74.1441 16.6L86.5508 40.3597L81.0905 46.7475L63.9632 34.2913C63.6082 34.0331 63.1263 34.0366 62.7751 34.3L57.5751 38.2C55.4979 39.7579 52.9715 40.6 50.3751 40.6C47.7786 40.6 45.2522 39.7579 43.1751 38.2L40.9729 36.5484C40.715 36.355 40.5017 36.1084 40.3474 35.8253C40.1931 35.5423 40.1014 35.2294 40.0786 34.9079C40.0557 34.5863 40.1022 34.2636 40.2149 33.9616C40.3277 33.6596 40.504 33.3853 40.7319 33.1574L56.6303 17.259C56.8392 17.0501 57.0872 16.8843 57.3602 16.7713C57.6332 16.6582 57.9258 16.6 58.2213 16.6L66.6024 16.6ZM88.1816 39.162L97.3443 34.5806C97.6116 34.447 97.8496 34.2615 98.0443 34.0349C98.2391 33.8083 98.3868 33.5452 98.4788 33.2609C98.5708 32.9766 98.6052 32.6768 98.5801 32.3791C98.555 32.0813 98.4709 31.7916 98.3326 31.5267L88.3417 12.3936C88.0686 11.8707 87.6012 11.4759 87.0399 11.2943C86.4787 11.1127 85.8686 11.1588 85.341 11.4226L76.1075 16.0393L88.1816 39.162ZM15.8185 38.7266L27.8926 15.6039L18.6591 10.9871C18.1315 10.7233 17.5214 10.6773 16.9601 10.8589C16.3989 11.0405 15.9314 11.4353 15.6584 11.9581L14.772 11.4953L15.6584 11.9582L5.66753 31.0913C5.52922 31.3562 5.44506 31.6459 5.41995 31.9437C5.39484 32.2414 5.42928 32.5412 5.52128 32.8255C5.61327 33.1098 5.76097 33.3729 5.95575 33.5995C6.15053 33.8261 6.3885 34.0116 6.65576 34.1452L6.20854 35.0397L6.65576 34.1452L15.8185 38.7266Z" fill="white"/>
<path fill-rule="evenodd" class="svg-line" clip-rule="evenodd" d="M21.9953 60.094C22.3576 59.6771 22.9892 59.633 23.406 59.9953L32.568 67.9591L31.9525 68.6673L32.568 67.9591C32.8356 68.1918 33.1544 68.3578 33.4984 68.4438L45.7425 71.5049C46.2783 71.6388 46.6041 72.1817 46.4701 72.7175C46.3362 73.2533 45.7933 73.5791 45.2575 73.4451L33.0133 70.3841C32.3636 70.2217 31.7614 69.908 31.2559 69.4686L22.094 61.5047C21.6771 61.1424 21.633 60.5108 21.9953 60.094Z" fill="black"/>
</svg>
