<svg width="104" height="104" viewBox="0 0 104 104" fill="none" xmlns="http://www.w3.org/2000/svg">
<path d="M97.7915 35.4751L87.75 40.4958L74.75 15.6L84.8938 10.5281C85.6559 10.1471 86.5371 10.0806 87.3478 10.3429C88.1585 10.6052 88.8337 11.1754 89.2281 11.9307L99.219 31.0639C99.4188 31.4464 99.5403 31.865 99.5766 32.2951C99.6129 32.7251 99.5631 33.1581 99.4302 33.5688C99.2974 33.9794 99.084 34.3595 98.8027 34.6868C98.5213 35.0141 98.1776 35.2821 97.7915 35.4751V35.4751Z" stroke="white" stroke-width="2" stroke-linecap="round" stroke-linejoin="round"/>
<path d="M16.2501 40.0604L6.20854 35.0397C5.8225 34.8467 5.47878 34.5787 5.19743 34.2514C4.91607 33.9241 4.70273 33.544 4.56985 33.1334C4.43697 32.7227 4.38721 32.2897 4.42348 31.8597C4.45975 31.4296 4.58133 31.011 4.7811 30.6285L14.772 11.4953C15.1664 10.74 15.8416 10.1698 16.6523 9.90747C17.4629 9.64514 18.3442 9.71166 19.1063 10.0927L29.2501 15.1646L16.2501 40.0604Z" stroke="white" stroke-width="2" stroke-linecap="round" stroke-linejoin="round"/>
<path d="M87.75 40.4958L81.25 48.1L66.3012 63.0489C65.9043 63.4457 65.4115 63.733 64.8706 63.8828C64.3297 64.0326 63.7593 64.0398 63.2148 63.9037L39.6698 58.0175C39.2282 57.9071 38.8147 57.7051 38.4561 57.4247L16.25 40.0604" stroke="white" stroke-width="2" stroke-linecap="round" stroke-linejoin="round"/>
<path d="M81.25 48.1L63.375 35.1L58.175 39C55.9248 40.6877 53.1879 41.6 50.375 41.6C47.5622 41.6 44.8253 40.6877 42.5751 39L40.3729 37.3484C40.0004 37.069 39.6922 36.7128 39.4694 36.304C39.2465 35.8952 39.1141 35.4432 39.0811 34.9788C39.048 34.5143 39.1152 34.0482 39.278 33.6119C39.4409 33.1757 39.6955 32.7795 40.0248 32.4503L55.9231 16.5519C56.2249 16.2501 56.5832 16.0107 56.9775 15.8474C57.3718 15.6841 57.7944 15.6 58.2212 15.6H74.75" stroke="white" stroke-width="2" stroke-linecap="round" stroke-linejoin="round"/>
<path d="M29.4833 15.1646L50.332 9.08646C51.0768 8.86934 51.8746 8.92578 52.5814 9.24559L66.6249 15.6" stroke="white" stroke-width="2" stroke-linecap="round" stroke-linejoin="round"/>
<path d="M45.5 72.475L33.2559 69.414C32.759 69.2898 32.2985 69.0499 31.912 68.7139L22.75 60.75" stroke="black" stroke-width="2" stroke-linecap="round" stroke-linejoin="round"/>
</svg>
