<svg width="104" height="104" viewBox="0 0 104 104" fill="currentColor" xmlns="http://www.w3.org/2000/svg">
<path fill-rule="evenodd" clip-rule="evenodd" d="M2.66178 44.0995L1.66674 44C0.671707 43.9005 0.67174 43.9002 0.671787 43.8997L0.67252 43.8925L0.674664 43.8715L0.683029 43.7919C0.690445 43.7222 0.701577 43.6198 0.716644 43.4869C0.746775 43.221 0.792652 42.8329 0.856028 42.34C0.982759 41.3543 1.17958 39.9486 1.46056 38.2627C2.02195 34.8943 2.92189 30.3917 4.27558 25.8794C5.62522 21.3806 7.44547 16.8045 9.87563 13.3328C12.3009 9.86823 15.4619 7.33337 19.5001 7.33337C23.4302 7.33337 26.479 9.19382 28.8234 12.013C31.1453 14.8052 32.8095 18.5698 34.052 22.5231C35.8276 28.1729 36.8079 34.4718 37.5385 39.1659C37.8243 41.0026 38.0719 42.5936 38.314 43.8039C39.2073 48.2705 40.9757 57.1008 44.0577 64.8057C45.5999 68.6612 47.4454 72.1676 49.6263 74.6943C51.8032 77.2163 54.2255 78.6667 56.9501 78.6667C59.5398 78.6667 61.8417 76.819 63.8763 73.5638C65.89 70.3418 67.4754 65.9925 68.6921 61.5682C69.9049 57.1579 70.734 52.7388 71.26 49.4166C71.5228 47.757 71.7094 46.3747 71.8301 45.4085C71.8905 44.9256 71.9344 44.5468 71.9631 44.2896C71.9775 44.161 71.988 44.0629 71.995 43.9973L72.0026 43.9236L72.0049 43.9015C72.0599 43.3519 72.55 42.95 73.0995 43.005C73.6491 43.0599 74.05 43.55 73.9951 44.0995L73 44C73.9951 44.0995 73.9951 44.0991 73.9951 44.0995L73.9948 44.1018L73.9943 44.1074L73.9922 44.1281L73.9839 44.2074C73.9766 44.2768 73.9656 44.3789 73.9508 44.5116C73.9211 44.7768 73.8762 45.1643 73.8147 45.6566C73.6916 46.641 73.5021 48.0451 73.2354 49.7293C72.7026 53.0946 71.8597 57.5921 70.6205 62.0985C69.3851 66.5909 67.7382 71.1582 65.5723 74.6238C63.4271 78.056 60.602 80.6667 56.9501 80.6667C53.433 80.6667 50.5052 78.7733 48.1123 76.0011C45.7234 73.2335 43.7794 69.495 42.2007 65.5485C39.0458 57.6611 37.2482 48.6731 36.3568 44.2161L36.3528 44.1961C36.0851 42.8577 35.8233 41.1738 35.5271 39.2685C34.8024 34.6068 33.8716 28.6197 32.144 23.1228C30.9344 19.274 29.3662 15.7938 27.2856 13.2918C25.2274 10.8167 22.7033 9.33337 19.5001 9.33337C16.4049 9.33337 13.7701 11.2569 11.5141 14.4798C9.26301 17.6956 7.5166 22.0362 6.19124 26.454C4.86993 30.8584 3.98653 35.2724 3.43335 38.5915C3.15704 40.2494 2.96375 41.6302 2.8397 42.595C2.77768 43.0773 2.733 43.4555 2.70392 43.7121C2.68938 43.8404 2.67874 43.9383 2.67179 44.0036L2.6641 44.0768L2.66228 44.0946L2.66178 44.0995ZM1.56724 44.9951C1.0177 44.9401 0.616832 44.4493 0.671787 43.8997L1.66674 44L2.66178 44.0995C2.60683 44.6491 2.11678 45.05 1.56724 44.9951Z" fill="#00D372"/>
<path fill-rule="evenodd" class="svg-line" clip-rule="evenodd" d="M13.15 44C13.15 43.4477 13.5977 43 14.15 43H24.85C25.4023 43 25.85 43.4477 25.85 44C25.85 44.5523 25.4023 45 24.85 45H14.15C13.5977 45 13.15 44.5523 13.15 44ZM48.8167 44C48.8167 43.4477 49.2644 43 49.8167 43H60.5167C61.069 43 61.5167 43.4477 61.5167 44C61.5167 44.5523 61.069 45 60.5167 45H49.8167C49.2644 45 48.8167 44.5523 48.8167 44Z" fill="black"/>
</svg>
