<svg width="104" height="104" viewBox="0 0 104 104" fill="none" xmlns="http://www.w3.org/2000/svg">
<path d="M50.15 77.8713C50.15 77.8713 26.9667 79.6546 14.4833 65.388C2 51.1213 2 8.32136 2 8.32136C2 8.32136 44.8 6.53802 59.0667 17.238C73.3333 27.938 69.7667 58.2546 69.7667 58.2546" stroke="#00D372" stroke-width="2" stroke-linecap="round" stroke-linejoin="round"/>
<path fill-rule="evenodd" clip-rule="evenodd" d="M23.0075 23.4516C23.5153 23.2348 24.1028 23.4708 24.3197 23.9786L24.3202 23.9797L24.3226 23.9855L24.3338 24.0114C24.3441 24.0349 24.3598 24.071 24.3812 24.1192C24.4239 24.2157 24.4888 24.3608 24.5762 24.5513C24.7511 24.9322 25.0158 25.4947 25.372 26.2131C26.0843 27.6502 27.162 29.7105 28.6177 32.19C31.2732 36.7131 35.1815 42.6228 40.4177 48.687L42.0196 27.8613C42.062 27.3106 42.5427 26.8986 43.0934 26.9409C43.6441 26.9833 44.0561 27.464 44.0138 28.0147L42.2635 50.7686C48.2625 57.3567 56.0958 64.3166 62.487 69.6716C65.7301 72.3889 68.5943 74.6866 70.6473 76.3047C71.6737 77.1137 72.497 77.7526 73.0633 78.1888C73.3464 78.4069 73.5652 78.5744 73.713 78.6871L73.8805 78.8146L73.9331 78.8545L73.9356 78.8564C73.9357 78.8564 73.9363 78.8569 73.3334 79.6547C72.7305 80.4525 72.7303 80.4524 72.7301 80.4522L72.6712 80.4075L72.5001 80.2773C72.3498 80.1627 72.1285 79.9933 71.8427 79.7732C71.2711 79.3329 70.4419 78.6894 69.4092 77.8755C67.3441 76.2478 64.4639 73.9373 61.2025 71.2046C54.7789 65.8225 46.8467 58.7784 40.7509 52.0781L23.3005 50.333C22.751 50.2781 22.35 49.788 22.405 49.2385C22.46 48.689 22.95 48.288 23.4995 48.343L38.7995 49.873C33.5193 43.7396 29.577 37.7743 26.893 33.2026C25.4108 30.6779 24.3109 28.5758 23.58 27.1014C23.2146 26.3641 22.9413 25.7836 22.7586 25.3856C22.6672 25.1865 22.5985 25.0331 22.5522 24.9284C22.529 24.8761 22.5115 24.8359 22.4995 24.8084L22.4857 24.7766L22.482 24.7678L22.4809 24.7653C22.4808 24.765 22.4803 24.7639 23.4 24.3714L22.4803 24.7639C22.2635 24.256 22.4995 23.6684 23.0075 23.4516ZM73.3334 79.6547L72.7301 80.4522C73.1707 80.7852 73.7982 80.6982 74.1312 80.2576C74.4642 79.817 74.3762 79.1893 73.9356 78.8564L73.3334 79.6547Z" fill="black"/>
</svg>
