<svg width="104" height="104" viewBox="0 0 104 104" fill="none" xmlns="http://www.w3.org/2000/svg">
<g opacity="0.4">
<path d="M20.7142 51.5455V32.8723H12V51.5455H20.7142Z" stroke="currentColor" stroke-width="2" stroke-linecap="round" stroke-linejoin="round"/>
<path d="M41.4637 51.805C44.6632 51.805 45.7752 49.6377 45.9843 48.4728V34.5811C45.9843 30.5436 42.7112 27.2705 38.6737 27.2705H32.6672H30.6253C28.8505 27.2705 27.1363 27.9162 25.8025 29.087L20.7137 33.5541V51.805H41.4637Z" stroke="currentColor" stroke-width="2" stroke-linecap="round" stroke-linejoin="round"/>
<path d="M28.9075 24L26.9387 17H41.8773L39.6898 24" stroke="black" stroke-width="2" stroke-linecap="round" stroke-linejoin="round"/>
<path d="M22.332 56C19.0572 60.8476 16.3569 65.9934 16.3569 69.7822C16.3569 79.4075 24.1598 87.2105 33.7852 87.2105C43.4106 87.2105 51.2135 79.4075 51.2135 69.7822C51.2135 65.9934 48.5132 60.8476 45.2384 56" stroke="black" stroke-width="2" stroke-linecap="round"/>
<path d="M92.3979 66V40H81.3979V66H92.3979Z" stroke="currentColor" stroke-width="2" stroke-linecap="round" stroke-linejoin="round"/>
<path d="M81.3979 66V41.5L69.139 19.6568C68.2181 18.0159 66.483 17 64.6014 17V17C61.7276 17 59.3979 19.3296 59.3979 22.2034V58C59.3979 62.4183 62.9797 66 67.3979 66H81.3979Z" stroke="currentColor" stroke-width="2" stroke-linecap="round" stroke-linejoin="round"/>
<path d="M70.3979 53V48.5C70.3979 45.4624 67.9355 43 64.8979 43V43C61.8604 43 59.3979 45.4624 59.3979 48.5V53" stroke="currentColor" stroke-width="2" stroke-linecap="round" stroke-linejoin="round"/>
</g>
</svg>
