<svg width="104" height="104" viewBox="0 0 104 104" fill="none" xmlns="http://www.w3.org/2000/svg">
<g clip-path="url(#clip0_2754_3193)">
<path d="M2 38.3757L1.60608 37.4565C1.2384 37.6141 1 37.9756 1 38.3757C1 38.7757 1.2384 39.1372 1.60608 39.2948L2 38.3757ZM40.3757 21.9289L40.7696 21.0098C40.5181 20.902 40.2333 20.902 39.9818 21.0098L40.3757 21.9289ZM78.7514 38.3757L79.1453 39.2948C79.513 39.1372 79.7514 38.7757 79.7514 38.3757C79.7514 37.9756 79.513 37.6141 79.1453 37.4565L78.7514 38.3757ZM40.3757 54.8224L39.9818 55.7415C40.2333 55.8493 40.5181 55.8493 40.7696 55.7415L40.3757 54.8224ZM15.7056 44.2495L15.3117 45.1686L15.7056 44.2495ZM34.8934 70.2691C34.3412 70.2691 33.8934 70.7168 33.8934 71.2691C33.8934 71.8214 34.3412 72.2691 34.8934 72.2691L34.8934 70.2691ZM2.39392 39.2948L40.7696 22.8481L39.9818 21.0098L1.60608 37.4565L2.39392 39.2948ZM39.9818 22.8481L78.3574 39.2948L79.1453 37.4565L40.7696 21.0098L39.9818 22.8481ZM78.3574 37.4565L63.1961 43.9542L63.9839 45.7925L79.1453 39.2948L78.3574 37.4565ZM63.1961 43.9542L39.9818 53.9032L40.7696 55.7415L63.9839 45.7925L63.1961 43.9542ZM62.59 44.8734L62.59 55.2691L64.59 55.2691L64.59 44.8734H62.59ZM40.7696 53.9032L16.0995 43.3304L15.3117 45.1686L39.9818 55.7415L40.7696 53.9032ZM16.0995 43.3304L2.39392 37.4565L1.60608 39.2948L15.3117 45.1686L16.0995 43.3304ZM47.5898 70.2691C42.7623 70.2691 38.2138 70.2691 34.8934 70.2691L34.8934 72.2691C38.2138 72.2691 42.7623 72.2691 47.5898 72.2691L47.5898 70.2691ZM62.59 55.2691C62.59 63.5534 55.8741 70.2691 47.5898 70.2691L47.5898 72.2691C56.9786 72.2691 64.59 64.658 64.59 55.2691L62.59 55.2691Z" fill="currentColor"/>
<path d="M24 83.7158V84.7158C24.5523 84.7158 25 84.268 25 83.7158H24ZM7 83.7158H6C6 84.268 6.44772 84.7158 7 84.7158V83.7158ZM16.5 50.7158C16.5 50.1635 16.0523 49.7158 15.5 49.7158C14.9477 49.7158 14.5 50.1635 14.5 50.7158H16.5ZM23 69.7158V83.7158H25V69.7158H23ZM24 82.7158H7V84.7158H24V82.7158ZM8 83.7158V69.7158H6V83.7158H8ZM15 62.7158H15.5V60.7158H15V62.7158ZM15.5 62.7158H16V60.7158H15.5V62.7158ZM14.5 50.7158V61.7158H16.5V50.7158H14.5ZM25 69.7158C25 64.7452 20.9706 60.7158 16 60.7158V62.7158C19.866 62.7158 23 65.8498 23 69.7158H25ZM8 69.7158C8 65.8498 11.134 62.7158 15 62.7158V60.7158C10.0294 60.7158 6 64.7452 6 69.7158H8Z" fill="black"/>
</g>
<defs>
<clipPath id="clip0_2754_3193">
<rect width="104" height="104" fill="white"/>
</clipPath>
</defs>
</svg>
