<svg width="105" height="104" viewBox="0 0 105 104" fill="currentColor" xmlns="http://www.w3.org/2000/svg">
<path fill-rule="evenodd" class="svg-line" clip-rule="evenodd" d="M37 25C29.8203 25 24 30.8203 24 38C24 45.1797 29.8203 51 37 51C44.1797 51 50 45.1797 50 38C50 30.8203 44.1797 25 37 25ZM22 38C22 29.7157 28.7157 23 37 23C45.2843 23 52 29.7157 52 38C52 46.2843 45.2843 53 37 53C28.7157 53 22 46.2843 22 38Z" fill="black"/>
<path fill-rule="evenodd" clip-rule="evenodd" d="M4.5 9.25C3.25736 9.25 2.25 10.2574 2.25 11.5V76.5C2.25 77.7426 3.25736 78.75 4.5 78.75H7.68813C9.31924 72.3818 12.9827 66.71 18.1334 62.6021C23.4928 58.3278 30.1448 56 37 56C43.8552 56 50.5072 58.3278 55.8667 62.6021C61.0174 66.71 64.6808 72.3818 66.3119 78.75H69.5C70.7426 78.75 71.75 77.7426 71.75 76.5V11.5C71.75 10.2574 70.7426 9.25 69.5 9.25H4.5ZM65.5403 80.75H69.5C71.8472 80.75 73.75 78.8472 73.75 76.5V11.5C73.75 9.15279 71.8472 7.25 69.5 7.25H4.5C2.15279 7.25 0.25 9.15279 0.25 11.5V76.5C0.25 78.8472 2.15279 80.75 4.5 80.75H8.45976C8.47045 80.7502 8.48111 80.7502 8.49175 80.75H65.5083C65.5189 80.7502 65.5296 80.7502 65.5403 80.75ZM64.2425 78.75C62.6592 73.0046 59.2957 67.8951 54.6196 64.1657C49.6144 60.1739 43.4021 58 37 58C30.598 58 24.3856 60.1739 19.3804 64.1657C14.7044 67.8951 11.3409 73.0046 9.75751 78.75H64.2425Z" fill="#00D372"/>
</svg>
