<?xml version="1.0" encoding="UTF-8"?>
<svg fill="none" viewBox="0 0 1338 608" xmlns="http://www.w3.org/2000/svg">
<path d="m1 321h456" stroke="#000" stroke-linecap="round" stroke-width="2"/>
<path d="m881 321h456v83h-328" stroke="#000" stroke-linecap="round" stroke-width="2"/>
<path d="m1 1h1336" opacity=".6" stroke="#000"/>
<path d="m1 205h1336" opacity=".6" stroke="#000"/>
<path d="m1 452h1336" opacity=".6" stroke="#000"/>
<rect x="449" y="77" width="440" height="80" rx="8" fill="#00D372"/>
<rect x="449" y="281" width="440" height="80" rx="8" fill="#00D372"/>
<rect x="449" y="528" width="440" height="80" rx="8" fill="#00D372"/>
<path d="m3.555 32 1.204-2.499-3.549-7.581h1.393l2.807 6.251 2.87-6.251h1.33l-4.704 10.08h-1.351zm10.128 0.21c-0.7094 0-1.3067-0.175-1.792-0.525-0.4854-0.3547-0.854-0.833-1.106-1.435-0.2474-0.6067-0.371-1.2857-0.371-2.037 0-0.7607 0.1236-1.442 0.371-2.044 0.252-0.602 0.6206-1.0757 1.106-1.421 0.49-0.3453 1.0896-0.518 1.799-0.518 0.7 0 1.302 0.175 1.806 0.525 0.5086 0.3453 0.8983 0.819 1.169 1.421 0.2706 0.602 0.406 1.281 0.406 2.037s-0.1354 1.435-0.406 2.037c-0.2707 0.602-0.6604 1.0803-1.169 1.435-0.504 0.35-1.1084 0.525-1.813 0.525zm-3.479 3.15v-10.92h1.113v5.565h0.14v5.355h-1.253zm3.325-4.291c0.4993 0 0.9123-0.126 1.239-0.378 0.3266-0.252 0.5716-0.5927 0.735-1.022 0.1633-0.434 0.245-0.9193 0.245-1.456 0-0.532-0.0817-1.0127-0.245-1.442-0.1587-0.4293-0.406-0.77-0.742-1.022-0.3314-0.252-0.7537-0.378-1.267-0.378-0.49 0-0.896 0.1213-1.218 0.364-0.322 0.238-0.5624 0.5717-0.721 1.001-0.1587 0.4247-0.238 0.917-0.238 1.477 0 0.5507 0.077 1.043 0.231 1.477 0.1586 0.4293 0.4013 0.7677 0.728 1.015 0.3266 0.2427 0.7443 0.364 1.253 0.364zm8.2965 1.141c-0.7513 0-1.4-0.1703-1.946-0.511-0.5413-0.3407-0.959-0.812-1.253-1.414s-0.441-1.2927-0.441-2.072c0-0.7933 0.1493-1.4887 0.448-2.086s0.721-1.0617 1.267-1.393c0.546-0.336 1.1877-0.504 1.925-0.504 0.756 0 1.407 0.1703 1.953 0.511 0.546 0.336 0.9637 0.805 1.253 1.407 0.294 0.5973 0.441 1.2857 0.441 2.065 0 0.7887-0.147 1.484-0.441 2.086-0.294 0.5973-0.714 1.0663-1.26 1.407-0.546 0.336-1.1947 0.504-1.946 0.504zm0-1.183c0.784 0 1.3673-0.2613 1.75-0.784s0.574-1.1993 0.574-2.03c0-0.854-0.1937-1.533-0.581-2.037-0.3873-0.5087-0.9683-0.763-1.743-0.763-0.5273 0-0.9613 0.119-1.302 0.357s-0.595 0.567-0.763 0.987-0.252 0.9053-0.252 1.456c0 0.8493 0.196 1.5307 0.588 2.044s0.9683 0.77 1.729 0.77zm5.1812 0.973v-7.56h3.22c0.1913 0 0.3967 0.0117 0.616 0.035 0.224 0.0187 0.427 0.0537 0.609 0.105 0.406 0.1073 0.7397 0.329 1.001 0.665 0.266 0.3313 0.399 0.7513 0.399 1.26 0 0.2847-0.0443 0.532-0.133 0.742-0.084 0.21-0.2053 0.392-0.364 0.546-0.07 0.07-0.147 0.133-0.231 0.189s-0.168 0.1003-0.252 0.133c0.1633 0.028 0.329 0.091 0.497 0.189 0.266 0.1447 0.4737 0.3477 0.623 0.609 0.154 0.2613 0.231 0.595 0.231 1.001 0 0.5133-0.1237 0.938-0.371 1.274-0.2473 0.3313-0.588 0.56-1.022 0.686-0.182 0.0513-0.3827 0.0863-0.602 0.105-0.2193 0.014-0.4317 0.021-0.637 0.021h-3.584zm1.26-1.015h2.254c0.098 0 0.2147-0.0093 0.35-0.028 0.14-0.0187 0.2637-0.042 0.371-0.07 0.2427-0.07 0.4177-0.2007 0.525-0.392 0.112-0.1913 0.168-0.399 0.168-0.623 0-0.2987-0.084-0.5413-0.252-0.728-0.1633-0.1867-0.3803-0.3033-0.651-0.35-0.098-0.028-0.2053-0.0443-0.322-0.049-0.112-0.0047-0.2123-7e-3 -0.301-7e-3h-2.142v2.247zm0-3.276h1.876c0.1307 0 0.2683-7e-3 0.413-0.021 0.1447-0.0187 0.2707-0.049 0.378-0.091 0.2147-0.0793 0.371-0.21 0.469-0.392 0.1027-0.1867 0.154-0.3897 0.154-0.609 0-0.2427-0.056-0.455-0.168-0.637-0.1073-0.1867-0.273-0.315-0.497-0.385-0.1493-0.056-0.3173-0.0863-0.504-0.091-0.182-0.0093-0.2987-0.014-0.35-0.014h-1.771v2.24zm9.6382 4.501c-0.742 0-1.3906-0.1633-1.946-0.49-0.5506-0.3313-0.98-0.791-1.288-1.379-0.308-0.5927-0.462-1.2833-0.462-2.072 0-0.826 0.1517-1.54 0.455-2.142 0.3034-0.6067 0.7257-1.0733 1.267-1.4 0.546-0.3313 1.1854-0.497 1.918-0.497 0.7607 0 1.407 0.175 1.939 0.525 0.5367 0.35 0.938 0.8493 1.204 1.498 0.2707 0.6487 0.3874 1.421 0.35 2.317h-1.26v-0.448c-0.014-0.9287-0.203-1.6217-0.567-2.079-0.364-0.462-0.9053-0.693-1.624-0.693-0.77 0-1.3556 0.2473-1.757 0.742-0.4013 0.4947-0.602 1.204-0.602 2.128 0 0.8913 0.2007 1.582 0.602 2.072 0.4014 0.49 0.973 0.735 1.715 0.735 0.4994 0 0.9334-0.1143 1.302-0.343 0.3687-0.2287 0.658-0.5577 0.868-0.987l1.197 0.413c-0.294 0.6673-0.7373 1.1853-1.33 1.554-0.588 0.364-1.2483 0.546-1.981 0.546zm-2.793-3.64v-1.001h5.586v1.001h-5.586zm7.7815 3.43v-7.56h1.246v3.185h3.976v-3.185h1.246v7.56h-1.246v-3.192h-3.976v3.192h-1.246zm8.4289 0-7e-3 -7.56h1.253v2.737h1.631c0.2193 0 0.4433 0.0047 0.672 0.014s0.427 0.0303 0.595 0.063c0.392 0.0747 0.735 0.2053 1.029 0.392s0.5227 0.441 0.686 0.763c0.1633 0.3173 0.245 0.7117 0.245 1.183 0 0.6533-0.1703 1.1713-0.511 1.554-0.336 0.378-0.777 0.63-1.323 0.756-0.1867 0.042-0.4013 0.07-0.644 0.084-0.238 0.0093-0.4643 0.014-0.679 0.014h-2.947zm1.246-1.029h1.722c0.14 0 0.2963-0.0047 0.469-0.014s0.3267-0.0327 0.462-0.07c0.238-0.07 0.4503-0.2077 0.637-0.413 0.1913-0.2053 0.287-0.4993 0.287-0.882 0-0.3873-0.0933-0.686-0.28-0.896-0.182-0.21-0.4223-0.3477-0.721-0.413-0.1353-0.0327-0.2777-0.0537-0.427-0.063s-0.2917-0.014-0.427-0.014h-1.722v2.765zm11.348 1.239c-0.5647 0-1.0383-0.1027-1.421-0.308-0.378-0.21-0.665-0.4853-0.861-0.826-0.1913-0.3407-0.287-0.714-0.287-1.12 0-0.3967 0.0747-0.7397 0.224-1.029 0.154-0.294 0.3687-0.5367 0.644-0.728 0.2753-0.196 0.6043-0.35 0.987-0.462 0.3593-0.098 0.7607-0.182 1.204-0.252 0.448-0.0747 0.9007-0.1423 1.358-0.203s0.8843-0.119 1.281-0.175l-0.448 0.259c0.014-0.672-0.1213-1.169-0.406-1.491-0.28-0.322-0.7653-0.483-1.456-0.483-0.4573 0-0.8587 0.105-1.204 0.315-0.3407 0.2053-0.581 0.5413-0.721 1.008l-1.183-0.357c0.182-0.6627 0.5343-1.183 1.057-1.561s1.211-0.567 2.065-0.567c0.686 0 1.274 0.1237 1.764 0.371 0.4947 0.2427 0.8493 0.6113 1.064 1.106 0.1073 0.2333 0.175 0.4877 0.203 0.763 0.028 0.2707 0.042 0.5553 0.042 0.854v4.676h-1.106v-1.813l0.259 0.168c-0.2847 0.6113-0.6837 1.0733-1.197 1.386-0.5087 0.3127-1.1293 0.469-1.862 0.469zm0.189-1.043c0.448 0 0.8353-0.0793 1.162-0.238 0.3313-0.1633 0.5973-0.3757 0.798-0.637 0.2007-0.266 0.3313-0.5553 0.392-0.868 0.07-0.2333 0.1073-0.4923 0.112-0.777 0.0093-0.2893 0.014-0.511 0.014-0.665l0.434 0.189c-0.406 0.056-0.805 0.1097-1.197 0.161s-0.763 0.1073-1.113 0.168c-0.35 0.056-0.665 0.1237-0.945 0.203-0.2053 0.0653-0.399 0.1493-0.581 0.252-0.1773 0.1027-0.322 0.2357-0.434 0.399-0.1073 0.1587-0.161 0.357-0.161 0.595 0 0.2053 0.0513 0.4013 0.154 0.588 0.1073 0.1867 0.2707 0.3383 0.49 0.455 0.224 0.1167 0.5157 0.175 0.875 0.175zm5.53 0.833 7e-3 -7.56h1.26v3.64l3.171-3.64h1.617l-3.339 3.78 3.731 3.78h-1.743l-3.437-3.64v3.64h-1.267zm13.584 1.4v-1.4h-6.447v-7.56h1.246v6.377h3.703v-6.377h1.246v6.426h1.498v2.534h-1.246zm8.5527-8.96v7.56h-1.204v-5.572l-3.962 5.572h-1.029v-7.56h1.204v5.495l3.969-5.495h1.022zm5.1805 7.77c-0.7514 0-1.4-0.1703-1.946-0.511-0.5414-0.3407-0.959-0.812-1.253-1.414s-0.441-1.2927-0.441-2.072c0-0.7933 0.1493-1.4887 0.448-2.086 0.2986-0.5973 0.721-1.0617 1.267-1.393 0.546-0.336 1.1876-0.504 1.925-0.504 0.756 0 1.407 0.1703 1.953 0.511 0.546 0.336 0.9636 0.805 1.253 1.407 0.294 0.5973 0.441 1.2857 0.441 2.065 0 0.7887-0.147 1.484-0.441 2.086-0.294 0.5973-0.714 1.0663-1.26 1.407-0.546 0.336-1.1947 0.504-1.946 0.504zm0-1.183c0.784 0 1.3673-0.2613 1.75-0.784 0.3826-0.5227 0.574-1.1993 0.574-2.03 0-0.854-0.1937-1.533-0.581-2.037-0.3874-0.5087-0.9684-0.763-1.743-0.763-0.5274 0-0.9614 0.119-1.302 0.357-0.3407 0.238-0.595 0.567-0.763 0.987s-0.252 0.9053-0.252 1.456c0 0.8493 0.196 1.5307 0.588 2.044s0.9683 0.77 1.729 0.77zm5.181 0.973v-7.56h1.246v3.185h3.976v-3.185h1.246v7.56h-1.246v-3.192h-3.976v3.192h-1.246zm11.705 0.21c-0.742 0-1.391-0.1633-1.946-0.49-0.551-0.3313-0.98-0.791-1.288-1.379-0.308-0.5927-0.462-1.2833-0.462-2.072 0-0.826 0.152-1.54 0.455-2.142 0.303-0.6067 0.726-1.0733 1.267-1.4 0.546-0.3313 1.185-0.497 1.918-0.497 0.761 0 1.407 0.175 1.939 0.525 0.537 0.35 0.938 0.8493 1.204 1.498 0.271 0.6487 0.387 1.421 0.35 2.317h-1.26v-0.448c-0.014-0.9287-0.203-1.6217-0.567-2.079-0.364-0.462-0.905-0.693-1.624-0.693-0.77 0-1.356 0.2473-1.757 0.742s-0.602 1.204-0.602 2.128c0 0.8913 0.201 1.582 0.602 2.072s0.973 0.735 1.715 0.735c0.499 0 0.933-0.1143 1.302-0.343s0.658-0.5577 0.868-0.987l1.197 0.413c-0.294 0.6673-0.737 1.1853-1.33 1.554-0.588 0.364-1.248 0.546-1.981 0.546zm-2.793-3.64v-1.001h5.586v1.001h-5.586zm11.261 3.64c-0.71 0-1.307-0.175-1.792-0.525-0.486-0.3547-0.854-0.833-1.106-1.435-0.248-0.6067-0.371-1.2857-0.371-2.037 0-0.7607 0.123-1.442 0.371-2.044 0.252-0.602 0.62-1.0757 1.106-1.421 0.49-0.3453 1.089-0.518 1.799-0.518 0.7 0 1.302 0.175 1.806 0.525 0.508 0.3453 0.898 0.819 1.169 1.421 0.27 0.602 0.406 1.281 0.406 2.037s-0.136 1.435-0.406 2.037c-0.271 0.602-0.661 1.0803-1.169 1.435-0.504 0.35-1.109 0.525-1.813 0.525zm-3.479 3.15v-10.92h1.113v5.565h0.14v5.355h-1.253zm3.325-4.291c0.499 0 0.912-0.126 1.239-0.378 0.326-0.252 0.571-0.5927 0.735-1.022 0.163-0.434 0.245-0.9193 0.245-1.456 0-0.532-0.082-1.0127-0.245-1.442-0.159-0.4293-0.406-0.77-0.742-1.022-0.332-0.252-0.754-0.378-1.267-0.378-0.49 0-0.896 0.1213-1.218 0.364-0.322 0.238-0.563 0.5717-0.721 1.001-0.159 0.4247-0.238 0.917-0.238 1.477 0 0.5507 0.077 1.043 0.231 1.477 0.158 0.4293 0.401 0.7677 0.728 1.015 0.326 0.2427 0.744 0.364 1.253 0.364zm8.296 1.141c-0.751 0-1.4-0.1703-1.946-0.511-0.541-0.3407-0.959-0.812-1.253-1.414s-0.441-1.2927-0.441-2.072c0-0.7933 0.149-1.4887 0.448-2.086s0.721-1.0617 1.267-1.393c0.546-0.336 1.188-0.504 1.925-0.504 0.756 0 1.407 0.1703 1.953 0.511 0.546 0.336 0.964 0.805 1.253 1.407 0.294 0.5973 0.441 1.2857 0.441 2.065 0 0.7887-0.147 1.484-0.441 2.086-0.294 0.5973-0.714 1.0663-1.26 1.407-0.546 0.336-1.195 0.504-1.946 0.504zm0-1.183c0.784 0 1.367-0.2613 1.75-0.784s0.574-1.1993 0.574-2.03c0-0.854-0.194-1.533-0.581-2.037-0.387-0.5087-0.968-0.763-1.743-0.763-0.527 0-0.961 0.119-1.302 0.357s-0.595 0.567-0.763 0.987-0.252 0.9053-0.252 1.456c0 0.8493 0.196 1.5307 0.588 2.044s0.968 0.77 1.729 0.77zm5.181 0.973v-7.56h3.22c0.192 0 0.397 0.0117 0.616 0.035 0.224 0.0187 0.427 0.0537 0.609 0.105 0.406 0.1073 0.74 0.329 1.001 0.665 0.266 0.3313 0.399 0.7513 0.399 1.26 0 0.2847-0.044 0.532-0.133 0.742-0.084 0.21-0.205 0.392-0.364 0.546-0.07 0.07-0.147 0.133-0.231 0.189s-0.168 0.1003-0.252 0.133c0.164 0.028 0.329 0.091 0.497 0.189 0.266 0.1447 0.474 0.3477 0.623 0.609 0.154 0.2613 0.231 0.595 0.231 1.001 0 0.5133-0.123 0.938-0.371 1.274-0.247 0.3313-0.588 0.56-1.022 0.686-0.182 0.0513-0.382 0.0863-0.602 0.105-0.219 0.014-0.431 0.021-0.637 0.021h-3.584zm1.26-1.015h2.254c0.098 0 0.215-0.0093 0.35-0.028 0.14-0.0187 0.264-0.042 0.371-0.07 0.243-0.07 0.418-0.2007 0.525-0.392 0.112-0.1913 0.168-0.399 0.168-0.623 0-0.2987-0.084-0.5413-0.252-0.728-0.163-0.1867-0.38-0.3033-0.651-0.35-0.098-0.028-0.205-0.0443-0.322-0.049-0.112-0.0047-0.212-7e-3 -0.301-7e-3h-2.142v2.247zm0-3.276h1.876c0.131 0 0.269-7e-3 0.413-0.021 0.145-0.0187 0.271-0.049 0.378-0.091 0.215-0.0793 0.371-0.21 0.469-0.392 0.103-0.1867 0.154-0.3897 0.154-0.609 0-0.2427-0.056-0.455-0.168-0.637-0.107-0.1867-0.273-0.315-0.497-0.385-0.149-0.056-0.317-0.0863-0.504-0.091-0.182-0.0093-0.298-0.014-0.35-0.014h-1.771v2.24z" fill="#000"/>
<path d="m489.78 126.36c-1.72 0-3.18-0.38-4.38-1.14s-2.116-1.816-2.748-3.168c-0.624-1.352-0.936-2.916-0.936-4.692s0.312-3.34 0.936-4.692c0.632-1.352 1.548-2.408 2.748-3.168s2.66-1.14 4.38-1.14c1.728 0 3.192 0.38 4.392 1.14s2.112 1.816 2.736 3.168 0.936 2.916 0.936 4.692-0.312 3.34-0.936 4.692-1.536 2.408-2.736 3.168-2.664 1.14-4.392 1.14zm0-2.04c1.288 8e-3 2.36-0.28 3.216-0.864 0.864-0.592 1.508-1.412 1.932-2.46 0.432-1.048 0.648-2.26 0.648-3.636 0-1.384-0.216-2.596-0.648-3.636-0.424-1.04-1.068-1.852-1.932-2.436-0.856-0.584-1.928-0.88-3.216-0.888s-2.36 0.28-3.216 0.864c-0.848 0.584-1.488 1.4-1.92 2.448s-0.652 2.264-0.66 3.648c-8e-3 1.376 0.204 2.584 0.636 3.624s1.076 1.856 1.932 2.448c0.864 0.584 1.94 0.88 3.228 0.888zm15.742 2.052c-1.224-8e-3 -2.268-0.272-3.132-0.792-0.864-0.528-1.536-1.3-2.016-2.316s-0.748-2.26-0.804-3.732c-0.032-0.68-0.024-1.428 0.024-2.244 0.056-0.816 0.144-1.6 0.264-2.352 0.128-0.752 0.288-1.372 0.48-1.86 0.216-0.584 0.52-1.124 0.912-1.62 0.4-0.504 0.848-0.92 1.344-1.248 0.504-0.344 1.068-0.612 1.692-0.804s1.276-0.34 1.956-0.444c0.688-0.112 1.376-0.208 2.064-0.288 0.688-0.088 1.344-0.192 1.968-0.312l0.216 1.92c-0.44 0.096-0.96 0.18-1.56 0.252-0.6 0.064-1.224 0.14-1.872 0.228-0.64 0.088-1.256 0.212-1.848 0.372-0.584 0.152-1.088 0.364-1.512 0.636-0.624 0.376-1.104 0.94-1.44 1.692-0.328 0.744-0.528 1.58-0.6 2.508 0.496-0.768 1.14-1.332 1.932-1.692s1.636-0.54 2.532-0.54c1.16 0 2.16 0.272 3 0.816 0.84 0.536 1.484 1.276 1.932 2.22 0.456 0.944 0.684 2.02 0.684 3.228 0 1.28-0.256 2.4-0.768 3.36s-1.236 1.704-2.172 2.232c-0.928 0.528-2.02 0.788-3.276 0.78zm0.132-2.028c1.256 0 2.208-0.388 2.856-1.164 0.648-0.784 0.972-1.824 0.972-3.12 0-1.328-0.336-2.372-1.008-3.132-0.672-0.768-1.616-1.152-2.832-1.152-1.232 0-2.176 0.384-2.832 1.152-0.648 0.76-0.972 1.804-0.972 3.132 0 1.336 0.328 2.384 0.984 3.144s1.6 1.14 2.832 1.14zm23.229 4.056v-2.4h-14.508v-12.96h2.064v11.016h4.464v-11.016h2.064v11.016h4.452v-11.016h2.064v11.016h1.536v4.344h-2.136zm9.682-2.04c-1.272 0-2.384-0.28-3.336-0.84-0.944-0.568-1.68-1.356-2.208-2.364-0.528-1.016-0.792-2.2-0.792-3.552 0-1.416 0.26-2.64 0.78-3.672 0.52-1.04 1.244-1.84 2.172-2.4 0.936-0.568 2.032-0.852 3.288-0.852 1.304 0 2.412 0.3 3.324 0.9 0.92 0.6 1.608 1.456 2.064 2.568 0.464 1.112 0.664 2.436 0.6 3.972h-2.16v-0.768c-0.024-1.592-0.348-2.78-0.972-3.564-0.624-0.792-1.552-1.188-2.784-1.188-1.32 0-2.324 0.424-3.012 1.272s-1.032 2.064-1.032 3.648c0 1.528 0.344 2.712 1.032 3.552s1.668 1.26 2.94 1.26c0.856 0 1.6-0.196 2.232-0.588s1.128-0.956 1.488-1.692l2.052 0.708c-0.504 1.144-1.264 2.032-2.28 2.664-1.008 0.624-2.14 0.936-3.396 0.936zm-4.788-6.24v-1.716h9.576v1.716h-9.576zm18.968 6.24c-1.272 0-2.384-0.28-3.336-0.84-0.944-0.568-1.68-1.356-2.208-2.364-0.528-1.016-0.792-2.2-0.792-3.552 0-1.416 0.26-2.64 0.78-3.672 0.52-1.04 1.244-1.84 2.172-2.4 0.936-0.568 2.032-0.852 3.288-0.852 1.304 0 2.412 0.3 3.324 0.9 0.92 0.6 1.608 1.456 2.064 2.568 0.464 1.112 0.664 2.436 0.6 3.972h-2.16v-0.768c-0.024-1.592-0.348-2.78-0.972-3.564-0.624-0.792-1.552-1.188-2.784-1.188-1.32 0-2.324 0.424-3.012 1.272s-1.032 2.064-1.032 3.648c0 1.528 0.344 2.712 1.032 3.552s1.668 1.26 2.94 1.26c0.856 0 1.6-0.196 2.232-0.588s1.128-0.956 1.488-1.692l2.052 0.708c-0.504 1.144-1.264 2.032-2.28 2.664-1.008 0.624-2.14 0.936-3.396 0.936zm-4.788-6.24v-1.716h9.576v1.716h-9.576zm23.617 6.24c-1.312 0-2.428-0.292-3.348-0.876-0.912-0.592-1.608-1.404-2.088-2.436s-0.728-2.208-0.744-3.528c0.016-1.352 0.268-2.54 0.756-3.564 0.496-1.032 1.204-1.836 2.124-2.412s2.028-0.864 3.324-0.864c1.368 0 2.544 0.336 3.528 1.008 0.992 0.672 1.656 1.592 1.992 2.76l-2.112 0.636c-0.272-0.752-0.716-1.336-1.332-1.752-0.608-0.416-1.308-0.624-2.1-0.624-0.888 0-1.62 0.208-2.196 0.624-0.576 0.408-1.004 0.976-1.284 1.704-0.28 0.72-0.424 1.548-0.432 2.484 0.016 1.44 0.348 2.604 0.996 3.492 0.656 0.88 1.628 1.32 2.916 1.32 0.848 0 1.552-0.192 2.112-0.576 0.56-0.392 0.984-0.956 1.272-1.692l2.16 0.564c-0.448 1.208-1.148 2.132-2.1 2.772s-2.1 0.96-3.444 0.96zm13.161 0c-1.288 0-2.4-0.292-3.336-0.876-0.928-0.584-1.644-1.392-2.148-2.424s-0.756-2.216-0.756-3.552c0-1.36 0.256-2.552 0.768-3.576s1.236-1.82 2.172-2.388c0.936-0.576 2.036-0.864 3.3-0.864 1.296 0 2.412 0.292 3.348 0.876 0.936 0.576 1.652 1.38 2.148 2.412 0.504 1.024 0.756 2.204 0.756 3.54 0 1.352-0.252 2.544-0.756 3.576-0.504 1.024-1.224 1.828-2.16 2.412-0.936 0.576-2.048 0.864-3.336 0.864zm0-2.028c1.344 0 2.344-0.448 3-1.344s0.984-2.056 0.984-3.48c0-1.464-0.332-2.628-0.996-3.492-0.664-0.872-1.66-1.308-2.988-1.308-0.904 0-1.648 0.204-2.232 0.612s-1.02 0.972-1.308 1.692-0.432 1.552-0.432 2.496c0 1.456 0.336 2.624 1.008 3.504s1.66 1.32 2.964 1.32zm14.162 2.04c-1.224-8e-3 -2.268-0.272-3.132-0.792-0.864-0.528-1.536-1.3-2.016-2.316s-0.748-2.26-0.804-3.732c-0.032-0.68-0.024-1.428 0.024-2.244 0.056-0.816 0.144-1.6 0.264-2.352 0.128-0.752 0.288-1.372 0.48-1.86 0.216-0.584 0.52-1.124 0.912-1.62 0.4-0.504 0.848-0.92 1.344-1.248 0.504-0.344 1.068-0.612 1.692-0.804s1.276-0.34 1.956-0.444c0.688-0.112 1.376-0.208 2.064-0.288 0.688-0.088 1.344-0.192 1.968-0.312l0.216 1.92c-0.44 0.096-0.96 0.18-1.56 0.252-0.6 0.064-1.224 0.14-1.872 0.228-0.64 0.088-1.256 0.212-1.848 0.372-0.584 0.152-1.088 0.364-1.512 0.636-0.624 0.376-1.104 0.94-1.44 1.692-0.328 0.744-0.528 1.58-0.6 2.508 0.496-0.768 1.14-1.332 1.932-1.692s1.636-0.54 2.532-0.54c1.16 0 2.16 0.272 3 0.816 0.84 0.536 1.484 1.276 1.932 2.22 0.456 0.944 0.684 2.02 0.684 3.228 0 1.28-0.256 2.4-0.768 3.36s-1.236 1.704-2.172 2.232c-0.928 0.528-2.02 0.788-3.276 0.78zm0.132-2.028c1.256 0 2.208-0.388 2.856-1.164 0.648-0.784 0.972-1.824 0.972-3.12 0-1.328-0.336-2.372-1.008-3.132-0.672-0.768-1.616-1.152-2.832-1.152-1.232 0-2.176 0.384-2.832 1.152-0.648 0.76-0.972 1.804-0.972 3.132 0 1.336 0.328 2.384 0.984 3.144s1.6 1.14 2.832 1.14zm14.685 2.016c-1.216 0-2.24-0.3-3.072-0.9-0.832-0.608-1.464-1.428-1.896-2.46-0.424-1.04-0.636-2.204-0.636-3.492 0-1.304 0.212-2.472 0.636-3.504 0.432-1.032 1.064-1.844 1.896-2.436 0.84-0.592 1.868-0.888 3.084-0.888 1.2 0 2.232 0.3 3.096 0.9 0.872 0.592 1.54 1.404 2.004 2.436s0.696 2.196 0.696 3.492-0.232 2.46-0.696 3.492-1.132 1.852-2.004 2.46c-0.864 0.6-1.9 0.9-3.108 0.9zm-5.964 5.4v-18.72h1.908v9.54h0.24v9.18h-2.148zm5.7-7.356c0.856 0 1.564-0.216 2.124-0.648s0.98-1.016 1.26-1.752c0.28-0.744 0.42-1.576 0.42-2.496 0-0.912-0.14-1.736-0.42-2.472-0.272-0.736-0.696-1.32-1.272-1.752-0.568-0.432-1.292-0.648-2.172-0.648-0.84 0-1.536 0.208-2.088 0.624-0.552 0.408-0.964 0.98-1.236 1.716-0.272 0.728-0.408 1.572-0.408 2.532 0 0.944 0.132 1.788 0.396 2.532 0.272 0.736 0.688 1.316 1.248 1.74 0.56 0.416 1.276 0.624 2.148 0.624zm12.387 1.956c-0.968 0-1.78-0.176-2.436-0.528-0.648-0.36-1.14-0.832-1.476-1.416-0.328-0.584-0.492-1.224-0.492-1.92 0-0.68 0.128-1.268 0.384-1.764 0.264-0.504 0.632-0.92 1.104-1.248 0.472-0.336 1.036-0.6 1.692-0.792 0.616-0.168 1.304-0.312 2.064-0.432 0.768-0.128 1.544-0.244 2.328-0.348s1.516-0.204 2.196-0.3l-0.768 0.444c0.024-1.152-0.208-2.004-0.696-2.556-0.48-0.552-1.312-0.828-2.496-0.828-0.784 0-1.472 0.18-2.064 0.54-0.584 0.352-0.996 0.928-1.236 1.728l-2.028-0.612c0.312-1.136 0.916-2.028 1.812-2.676s2.076-0.972 3.54-0.972c1.176 0 2.184 0.212 3.024 0.636 0.848 0.416 1.456 1.048 1.824 1.896 0.184 0.4 0.3 0.836 0.348 1.308 0.048 0.464 0.072 0.952 0.072 1.464v8.016h-1.896v-3.108l0.444 0.288c-0.488 1.048-1.172 1.84-2.052 2.376-0.872 0.536-1.936 0.804-3.192 0.804zm0.324-1.788c0.768 0 1.432-0.136 1.992-0.408 0.568-0.28 1.024-0.644 1.368-1.092 0.344-0.456 0.568-0.952 0.672-1.488 0.12-0.4 0.184-0.844 0.192-1.332 0.016-0.496 0.024-0.876 0.024-1.14l0.744 0.324c-0.696 0.096-1.38 0.188-2.052 0.276s-1.308 0.184-1.908 0.288c-0.6 0.096-1.14 0.212-1.62 0.348-0.352 0.112-0.684 0.256-0.996 0.432-0.304 0.176-0.552 0.404-0.744 0.684-0.184 0.272-0.276 0.612-0.276 1.02 0 0.352 0.088 0.688 0.264 1.008 0.184 0.32 0.464 0.58 0.84 0.78 0.384 0.2 0.884 0.3 1.5 0.3zm9.48 1.428v-12.96h2.136v5.46h6.816v-5.46h2.136v12.96h-2.136v-5.472h-6.816v5.472h-2.136zm25.057-12.96v12.96h-2.064v-9.552l-6.792 9.552h-1.764v-12.96h2.064v9.42l6.804-9.42h1.752zm8.977 13.32c-1.272 0-2.384-0.28-3.336-0.84-0.944-0.568-1.68-1.356-2.208-2.364-0.528-1.016-0.792-2.2-0.792-3.552 0-1.416 0.26-2.64 0.78-3.672 0.52-1.04 1.244-1.84 2.172-2.4 0.936-0.568 2.032-0.852 3.288-0.852 1.304 0 2.412 0.3 3.324 0.9 0.92 0.6 1.608 1.456 2.064 2.568 0.464 1.112 0.664 2.436 0.6 3.972h-2.16v-0.768c-0.024-1.592-0.348-2.78-0.972-3.564-0.624-0.792-1.552-1.188-2.784-1.188-1.32 0-2.324 0.424-3.012 1.272s-1.032 2.064-1.032 3.648c0 1.528 0.344 2.712 1.032 3.552s1.668 1.26 2.94 1.26c0.856 0 1.6-0.196 2.232-0.588s1.128-0.956 1.488-1.692l2.052 0.708c-0.504 1.144-1.264 2.032-2.28 2.664-1.008 0.624-2.14 0.936-3.396 0.936zm-4.788-6.24v-1.716h9.576v1.716h-9.576zm19.956 11.64 2.508-6.816 0.036 2.016-5.664-13.92h2.244l4.44 11.196h-0.768l4.164-11.196h2.172l-7.056 18.72h-2.076zm18.914-5.76v-4.668c-0.432 0.216-0.956 0.4-1.572 0.552-0.608 0.152-1.26 0.228-1.956 0.228-1.32 0-2.384-0.296-3.192-0.888s-1.336-1.444-1.584-2.556c-0.072-0.336-0.124-0.684-0.156-1.044-0.024-0.36-0.04-0.688-0.048-0.984s-0.012-0.512-0.012-0.648v-2.952h2.16v2.952c0 0.232 8e-3 0.52 0.024 0.864 0.016 0.336 0.056 0.664 0.12 0.984 0.16 0.792 0.492 1.388 0.996 1.788 0.512 0.4 1.232 0.6 2.16 0.6 0.624 0 1.2-0.08 1.728-0.24s0.972-0.372 1.332-0.636v-6.312h2.148v12.96h-2.148zm9.197 0.36c-0.968 0-1.78-0.176-2.436-0.528-0.648-0.36-1.14-0.832-1.476-1.416-0.328-0.584-0.492-1.224-0.492-1.92 0-0.68 0.128-1.268 0.384-1.764 0.264-0.504 0.632-0.92 1.104-1.248 0.472-0.336 1.036-0.6 1.692-0.792 0.616-0.168 1.304-0.312 2.064-0.432 0.768-0.128 1.544-0.244 2.328-0.348s1.516-0.204 2.196-0.3l-0.768 0.444c0.024-1.152-0.208-2.004-0.696-2.556-0.48-0.552-1.312-0.828-2.496-0.828-0.784 0-1.472 0.18-2.064 0.54-0.584 0.352-0.996 0.928-1.236 1.728l-2.028-0.612c0.312-1.136 0.916-2.028 1.812-2.676s2.076-0.972 3.54-0.972c1.176 0 2.184 0.212 3.024 0.636 0.848 0.416 1.456 1.048 1.824 1.896 0.184 0.4 0.3 0.836 0.348 1.308 0.048 0.464 0.072 0.952 0.072 1.464v8.016h-1.896v-3.108l0.444 0.288c-0.488 1.048-1.172 1.84-2.052 2.376-0.872 0.536-1.936 0.804-3.192 0.804zm0.324-1.788c0.768 0 1.432-0.136 1.992-0.408 0.568-0.28 1.024-0.644 1.368-1.092 0.344-0.456 0.568-0.952 0.672-1.488 0.12-0.4 0.184-0.844 0.192-1.332 0.016-0.496 0.024-0.876 0.024-1.14l0.744 0.324c-0.696 0.096-1.38 0.188-2.052 0.276s-1.308 0.184-1.908 0.288c-0.6 0.096-1.14 0.212-1.62 0.348-0.352 0.112-0.684 0.256-0.996 0.432-0.304 0.176-0.552 0.404-0.744 0.684-0.184 0.272-0.276 0.612-0.276 1.02 0 0.352 0.088 0.688 0.264 1.008 0.184 0.32 0.464 0.58 0.84 0.78 0.384 0.2 0.884 0.3 1.5 0.3zm14.952 1.788c-1.312 0-2.428-0.292-3.348-0.876-0.912-0.592-1.608-1.404-2.088-2.436s-0.728-2.208-0.744-3.528c0.016-1.352 0.268-2.54 0.756-3.564 0.496-1.032 1.204-1.836 2.124-2.412s2.028-0.864 3.324-0.864c1.368 0 2.544 0.336 3.528 1.008 0.992 0.672 1.656 1.592 1.992 2.76l-2.112 0.636c-0.272-0.752-0.716-1.336-1.332-1.752-0.608-0.416-1.308-0.624-2.1-0.624-0.888 0-1.62 0.208-2.196 0.624-0.576 0.408-1.004 0.976-1.284 1.704-0.28 0.72-0.424 1.548-0.432 2.484 0.016 1.44 0.348 2.604 0.996 3.492 0.656 0.88 1.628 1.32 2.916 1.32 0.848 0 1.552-0.192 2.112-0.576 0.56-0.392 0.984-0.956 1.272-1.692l2.16 0.564c-0.448 1.208-1.148 2.132-2.1 2.772s-2.1 0.96-3.444 0.96zm11.191-0.36v-11.016h-4.512v-1.944h11.16v1.944h-4.512v11.016h-2.136zm8.907 0v-12.96h2.136v5.46h6.816v-5.46h2.136v12.96h-2.136v-5.472h-6.816v5.472h-2.136zm25.058-12.96v12.96h-2.064v-9.552l-6.792 9.552h-1.764v-12.96h2.064v9.42l6.804-9.42h1.752zm3.348 12.96 0.012-12.96h2.16v6.24l5.436-6.24h2.772l-5.724 6.48 6.396 6.48h-2.988l-5.892-6.24v6.24h-2.172zm17.532 0.36c-1.288 0-2.4-0.292-3.336-0.876-0.928-0.584-1.644-1.392-2.148-2.424s-0.756-2.216-0.756-3.552c0-1.36 0.256-2.552 0.768-3.576s1.236-1.82 2.172-2.388c0.936-0.576 2.036-0.864 3.3-0.864 1.296 0 2.412 0.292 3.348 0.876 0.936 0.576 1.652 1.38 2.148 2.412 0.504 1.024 0.756 2.204 0.756 3.54 0 1.352-0.252 2.544-0.756 3.576-0.504 1.024-1.224 1.828-2.16 2.412-0.936 0.576-2.048 0.864-3.336 0.864zm0-2.028c1.344 0 2.344-0.448 3-1.344s0.984-2.056 0.984-3.48c0-1.464-0.332-2.628-0.996-3.492-0.664-0.872-1.66-1.308-2.988-1.308-0.904 0-1.648 0.204-2.232 0.612s-1.02 0.972-1.308 1.692-0.432 1.552-0.432 2.496c0 1.456 0.336 2.624 1.008 3.504s1.66 1.32 2.964 1.32zm8.882 1.668v-12.96h5.52c0.328 0 0.68 0.02 1.056 0.06 0.384 0.032 0.732 0.092 1.044 0.18 0.696 0.184 1.268 0.564 1.716 1.14 0.456 0.568 0.684 1.288 0.684 2.16 0 0.488-0.076 0.912-0.228 1.272-0.144 0.36-0.352 0.672-0.624 0.936-0.12 0.12-0.252 0.228-0.396 0.324s-0.288 0.172-0.432 0.228c0.28 0.048 0.564 0.156 0.852 0.324 0.456 0.248 0.812 0.596 1.068 1.044 0.264 0.448 0.396 1.02 0.396 1.716 0 0.88-0.212 1.608-0.636 2.184-0.424 0.568-1.008 0.96-1.752 1.176-0.312 0.088-0.656 0.148-1.032 0.18-0.376 0.024-0.74 0.036-1.092 0.036h-6.144zm2.16-1.74h3.864c0.168 0 0.368-0.016 0.6-0.048 0.24-0.032 0.452-0.072 0.636-0.12 0.416-0.12 0.716-0.344 0.9-0.672 0.192-0.328 0.288-0.684 0.288-1.068 0-0.512-0.144-0.928-0.432-1.248-0.28-0.32-0.652-0.52-1.116-0.6-0.168-0.048-0.352-0.076-0.552-0.084-0.192-8e-3 -0.364-0.012-0.516-0.012h-3.672v3.852zm0-5.616h3.216c0.224 0 0.46-0.012 0.708-0.036 0.248-0.032 0.464-0.084 0.648-0.156 0.368-0.136 0.636-0.36 0.804-0.672 0.176-0.32 0.264-0.668 0.264-1.044 0-0.416-0.096-0.78-0.288-1.092-0.184-0.32-0.468-0.54-0.852-0.66-0.256-0.096-0.544-0.148-0.864-0.156-0.312-0.016-0.512-0.024-0.6-0.024h-3.036v3.84z" fill="#fff"/>
<path d="m482.68 330v-17.28h2.136v7.62h9.096v-7.62h2.136v17.28h-2.136v-7.632h-9.096v7.632h-2.136zm20.418 0.36c-0.968 0-1.78-0.176-2.436-0.528-0.648-0.36-1.14-0.832-1.476-1.416-0.328-0.584-0.492-1.224-0.492-1.92 0-0.68 0.128-1.268 0.384-1.764 0.264-0.504 0.632-0.92 1.104-1.248 0.472-0.336 1.036-0.6 1.692-0.792 0.616-0.168 1.304-0.312 2.064-0.432 0.768-0.128 1.544-0.244 2.328-0.348s1.516-0.204 2.196-0.3l-0.768 0.444c0.024-1.152-0.208-2.004-0.696-2.556-0.48-0.552-1.312-0.828-2.496-0.828-0.784 0-1.472 0.18-2.064 0.54-0.584 0.352-0.996 0.928-1.236 1.728l-2.028-0.612c0.312-1.136 0.916-2.028 1.812-2.676s2.076-0.972 3.54-0.972c1.176 0 2.184 0.212 3.024 0.636 0.848 0.416 1.456 1.048 1.824 1.896 0.184 0.4 0.3 0.836 0.348 1.308 0.048 0.464 0.072 0.952 0.072 1.464v8.016h-1.896v-3.108l0.444 0.288c-0.488 1.048-1.172 1.84-2.052 2.376-0.872 0.536-1.936 0.804-3.192 0.804zm0.324-1.788c0.768 0 1.432-0.136 1.992-0.408 0.568-0.28 1.024-0.644 1.368-1.092 0.344-0.456 0.568-0.952 0.672-1.488 0.12-0.4 0.184-0.844 0.192-1.332 0.016-0.496 0.024-0.876 0.024-1.14l0.744 0.324c-0.696 0.096-1.38 0.188-2.052 0.276s-1.308 0.184-1.908 0.288c-0.6 0.096-1.14 0.212-1.62 0.348-0.352 0.112-0.684 0.256-0.996 0.432-0.304 0.176-0.552 0.404-0.744 0.684-0.184 0.272-0.276 0.612-0.276 1.02 0 0.352 0.088 0.688 0.264 1.008 0.184 0.32 0.464 0.58 0.84 0.78 0.384 0.2 0.884 0.3 1.5 0.3zm14.76 1.8c-1.224-8e-3 -2.268-0.272-3.132-0.792-0.864-0.528-1.536-1.3-2.016-2.316s-0.748-2.26-0.804-3.732c-0.032-0.68-0.024-1.428 0.024-2.244 0.056-0.816 0.144-1.6 0.264-2.352 0.128-0.752 0.288-1.372 0.48-1.86 0.216-0.584 0.52-1.124 0.912-1.62 0.4-0.504 0.848-0.92 1.344-1.248 0.504-0.344 1.068-0.612 1.692-0.804s1.276-0.34 1.956-0.444c0.688-0.112 1.376-0.208 2.064-0.288 0.688-0.088 1.344-0.192 1.968-0.312l0.216 1.92c-0.44 0.096-0.96 0.18-1.56 0.252-0.6 0.064-1.224 0.14-1.872 0.228-0.64 0.088-1.256 0.212-1.848 0.372-0.584 0.152-1.088 0.364-1.512 0.636-0.624 0.376-1.104 0.94-1.44 1.692-0.328 0.744-0.528 1.58-0.6 2.508 0.496-0.768 1.14-1.332 1.932-1.692s1.636-0.54 2.532-0.54c1.16 0 2.16 0.272 3 0.816 0.84 0.536 1.484 1.276 1.932 2.22 0.456 0.944 0.684 2.02 0.684 3.228 0 1.28-0.256 2.4-0.768 3.36s-1.236 1.704-2.172 2.232c-0.928 0.528-2.02 0.788-3.276 0.78zm0.132-2.028c1.256 0 2.208-0.388 2.856-1.164 0.648-0.784 0.972-1.824 0.972-3.12 0-1.328-0.336-2.372-1.008-3.132-0.672-0.768-1.616-1.152-2.832-1.152-1.232 0-2.176 0.384-2.832 1.152-0.648 0.76-0.972 1.804-0.972 3.132 0 1.336 0.328 2.384 0.984 3.144s1.6 1.14 2.832 1.14zm7.533 1.656v-1.836c0.48 0.088 0.844 0.072 1.092-0.048 0.256-0.128 0.444-0.348 0.564-0.66 0.128-0.32 0.232-0.72 0.312-1.2 0.136-0.76 0.252-1.608 0.348-2.544 0.104-0.936 0.196-1.96 0.276-3.072 0.088-1.12 0.168-2.32 0.24-3.6h9.06v12.96h-2.136v-10.932h-4.98c-0.048 0.736-0.108 1.492-0.18 2.268-0.064 0.776-0.132 1.532-0.204 2.268-0.072 0.728-0.152 1.408-0.24 2.04-0.08 0.624-0.168 1.164-0.264 1.62-0.152 0.784-0.364 1.412-0.636 1.884-0.272 0.464-0.664 0.764-1.176 0.9-0.512 0.144-1.204 0.128-2.076-0.048zm25.835 0.36c-1.104 0-2.08-0.236-2.928-0.708-0.84-0.472-1.516-1.14-2.028-2.004s-0.832-1.884-0.96-3.06h-2.532v5.412h-2.136v-12.96h2.136v5.412h2.52c0.128-1.2 0.452-2.232 0.972-3.096s1.204-1.524 2.052-1.98c0.848-0.464 1.824-0.696 2.928-0.696 1.288 0 2.396 0.292 3.324 0.876 0.936 0.584 1.652 1.388 2.148 2.412 0.504 1.024 0.756 2.2 0.756 3.528 0 1.352-0.256 2.544-0.768 3.576-0.504 1.032-1.224 1.84-2.16 2.424-0.928 0.576-2.036 0.864-3.324 0.864zm-0.036-2.028c1.36 0 2.368-0.444 3.024-1.332 0.664-0.896 0.996-2.06 0.996-3.492 0-1.472-0.336-2.64-1.008-3.504-0.664-0.864-1.664-1.296-3-1.296-1.288 0-2.268 0.428-2.94 1.284s-1.008 2.024-1.008 3.504c0 1.464 0.332 2.636 0.996 3.516 0.672 0.88 1.652 1.32 2.94 1.32zm7.957 4.548v-4.644c0.728 0 1.248-0.236 1.56-0.708 0.312-0.48 0.564-1.268 0.756-2.364 0.128-0.688 0.232-1.424 0.312-2.208s0.148-1.656 0.204-2.616c0.064-0.968 0.124-2.068 0.18-3.3h8.928v11.196h1.26v4.644h-2.04v-2.88h-9.12v2.88h-2.04zm3.288-4.644h6.516v-9.432h-4.86c-0.024 0.568-0.056 1.164-0.096 1.788-0.04 0.616-0.088 1.232-0.144 1.848-0.048 0.616-0.108 1.2-0.18 1.752-0.064 0.544-0.14 1.032-0.228 1.464-0.104 0.6-0.224 1.108-0.36 1.524s-0.352 0.768-0.648 1.056zm16.004 2.124c-0.968 0-1.78-0.176-2.436-0.528-0.648-0.36-1.14-0.832-1.476-1.416-0.328-0.584-0.492-1.224-0.492-1.92 0-0.68 0.128-1.268 0.384-1.764 0.264-0.504 0.632-0.92 1.104-1.248 0.472-0.336 1.036-0.6 1.692-0.792 0.616-0.168 1.304-0.312 2.064-0.432 0.768-0.128 1.544-0.244 2.328-0.348s1.516-0.204 2.196-0.3l-0.768 0.444c0.024-1.152-0.208-2.004-0.696-2.556-0.48-0.552-1.312-0.828-2.496-0.828-0.784 0-1.472 0.18-2.064 0.54-0.584 0.352-0.996 0.928-1.236 1.728l-2.028-0.612c0.312-1.136 0.916-2.028 1.812-2.676s2.076-0.972 3.54-0.972c1.176 0 2.184 0.212 3.024 0.636 0.848 0.416 1.456 1.048 1.824 1.896 0.184 0.4 0.3 0.836 0.348 1.308 0.048 0.464 0.072 0.952 0.072 1.464v8.016h-1.896v-3.108l0.444 0.288c-0.488 1.048-1.172 1.84-2.052 2.376-0.872 0.536-1.936 0.804-3.192 0.804zm0.324-1.788c0.768 0 1.432-0.136 1.992-0.408 0.568-0.28 1.024-0.644 1.368-1.092 0.344-0.456 0.568-0.952 0.672-1.488 0.12-0.4 0.184-0.844 0.192-1.332 0.016-0.496 0.024-0.876 0.024-1.14l0.744 0.324c-0.696 0.096-1.38 0.188-2.052 0.276s-1.308 0.184-1.908 0.288c-0.6 0.096-1.14 0.212-1.62 0.348-0.352 0.112-0.684 0.256-0.996 0.432-0.304 0.176-0.552 0.404-0.744 0.684-0.184 0.272-0.276 0.612-0.276 1.02 0 0.352 0.088 0.688 0.264 1.008 0.184 0.32 0.464 0.58 0.84 0.78 0.384 0.2 0.884 0.3 1.5 0.3zm12.924 1.428v-11.016h-4.512v-1.944h11.16v1.944h-4.512v11.016h-2.136zm14.536 0.36c-1.272 0-2.384-0.28-3.336-0.84-0.944-0.568-1.68-1.356-2.208-2.364-0.528-1.016-0.792-2.2-0.792-3.552 0-1.416 0.26-2.64 0.78-3.672 0.52-1.04 1.244-1.84 2.172-2.4 0.936-0.568 2.032-0.852 3.288-0.852 1.304 0 2.412 0.3 3.324 0.9 0.92 0.6 1.608 1.456 2.064 2.568 0.464 1.112 0.664 2.436 0.6 3.972h-2.16v-0.768c-0.024-1.592-0.348-2.78-0.972-3.564-0.624-0.792-1.552-1.188-2.784-1.188-1.32 0-2.324 0.424-3.012 1.272s-1.032 2.064-1.032 3.648c0 1.528 0.344 2.712 1.032 3.552s1.668 1.26 2.94 1.26c0.856 0 1.6-0.196 2.232-0.588s1.128-0.956 1.488-1.692l2.052 0.708c-0.504 1.144-1.264 2.032-2.28 2.664-1.008 0.624-2.14 0.936-3.396 0.936zm-4.788-6.24v-1.716h9.576v1.716h-9.576zm12.152 5.88v-1.836c0.48 0.088 0.844 0.072 1.092-0.048 0.256-0.128 0.444-0.348 0.564-0.66 0.128-0.32 0.232-0.72 0.312-1.2 0.136-0.76 0.252-1.608 0.348-2.544 0.104-0.936 0.196-1.96 0.276-3.072 0.088-1.12 0.168-2.32 0.24-3.6h9.06v12.96h-2.136v-10.932h-4.98c-0.048 0.736-0.108 1.492-0.18 2.268-0.064 0.776-0.132 1.532-0.204 2.268-0.072 0.728-0.152 1.408-0.24 2.04-0.08 0.624-0.168 1.164-0.264 1.62-0.152 0.784-0.364 1.412-0.636 1.884-0.272 0.464-0.664 0.764-1.176 0.9-0.512 0.144-1.204 0.128-2.076-0.048zm15.262 0-0.012-12.96h2.148v4.692h2.796c0.376 0 0.76 8e-3 1.152 0.024s0.732 0.052 1.02 0.108c0.672 0.128 1.26 0.352 1.764 0.672s0.896 0.756 1.176 1.308c0.28 0.544 0.42 1.22 0.42 2.028 0 1.12-0.292 2.008-0.876 2.664-0.576 0.648-1.332 1.08-2.268 1.296-0.32 0.072-0.688 0.12-1.104 0.144-0.408 0.016-0.796 0.024-1.164 0.024h-5.052zm2.136-1.764h2.952c0.24 0 0.508-8e-3 0.804-0.024s0.56-0.056 0.792-0.12c0.408-0.12 0.772-0.356 1.092-0.708 0.328-0.352 0.492-0.856 0.492-1.512 0-0.664-0.16-1.176-0.48-1.536-0.312-0.36-0.724-0.596-1.236-0.708-0.232-0.056-0.476-0.092-0.732-0.108s-0.5-0.024-0.732-0.024h-2.952v4.74zm10.602 1.764v-12.96h2.136v5.46h6.816v-5.46h2.136v12.96h-2.136v-5.472h-6.816v5.472h-2.136zm14.45 0-0.012-12.96h2.148v4.692h1.98c0.376 0 0.76 8e-3 1.152 0.024s0.732 0.052 1.02 0.108c0.672 0.136 1.26 0.364 1.764 0.684s0.896 0.752 1.176 1.296 0.42 1.22 0.42 2.028c0 1.12-0.292 2.008-0.876 2.664-0.576 0.648-1.332 1.08-2.268 1.296-0.32 0.072-0.688 0.12-1.104 0.144-0.408 0.016-0.796 0.024-1.164 0.024h-4.236zm2.136-1.764h2.136c0.24 0 0.508-8e-3 0.804-0.024s0.56-0.056 0.792-0.12c0.408-0.12 0.772-0.356 1.092-0.708 0.328-0.352 0.492-0.856 0.492-1.512 0-0.664-0.16-1.176-0.48-1.536-0.312-0.36-0.724-0.596-1.236-0.708-0.232-0.056-0.476-0.092-0.732-0.108s-0.5-0.024-0.732-0.024h-2.136v4.74zm9 1.764v-12.96h2.136v12.96h-2.136zm11.084-14.472c-0.6 0-1.148-0.148-1.644-0.444s-0.892-0.688-1.188-1.176c-0.296-0.496-0.444-1.048-0.444-1.656h1.728c0 0.424 0.152 0.788 0.456 1.092s0.668 0.456 1.092 0.456c0.432 0 0.796-0.152 1.092-0.456 0.304-0.304 0.456-0.668 0.456-1.092h1.728c0 0.608-0.148 1.16-0.444 1.656-0.288 0.488-0.684 0.88-1.188 1.176-0.496 0.296-1.044 0.444-1.644 0.444zm5.028 1.512v12.96h-2.064v-9.552l-6.792 9.552h-1.764v-12.96h2.064v9.42l6.804-9.42h1.752zm13.626 13.32c-1.312 0-2.428-0.292-3.348-0.876-0.912-0.592-1.608-1.404-2.088-2.436s-0.728-2.208-0.744-3.528c0.016-1.352 0.268-2.54 0.756-3.564 0.496-1.032 1.204-1.836 2.124-2.412s2.028-0.864 3.324-0.864c1.368 0 2.544 0.336 3.528 1.008 0.992 0.672 1.656 1.592 1.992 2.76l-2.112 0.636c-0.272-0.752-0.716-1.336-1.332-1.752-0.608-0.416-1.308-0.624-2.1-0.624-0.888 0-1.62 0.208-2.196 0.624-0.576 0.408-1.004 0.976-1.284 1.704-0.28 0.72-0.424 1.548-0.432 2.484 0.016 1.44 0.348 2.604 0.996 3.492 0.656 0.88 1.628 1.32 2.916 1.32 0.848 0 1.552-0.192 2.112-0.576 0.56-0.392 0.984-0.956 1.272-1.692l2.16 0.564c-0.448 1.208-1.148 2.132-2.1 2.772s-2.1 0.96-3.444 0.96zm13.161 0c-1.288 0-2.4-0.292-3.336-0.876-0.928-0.584-1.644-1.392-2.148-2.424s-0.756-2.216-0.756-3.552c0-1.36 0.256-2.552 0.768-3.576s1.236-1.82 2.172-2.388c0.936-0.576 2.036-0.864 3.3-0.864 1.296 0 2.412 0.292 3.348 0.876 0.936 0.576 1.652 1.38 2.148 2.412 0.504 1.024 0.756 2.204 0.756 3.54 0 1.352-0.252 2.544-0.756 3.576-0.504 1.024-1.224 1.828-2.16 2.412-0.936 0.576-2.048 0.864-3.336 0.864zm0-2.028c1.344 0 2.344-0.448 3-1.344s0.984-2.056 0.984-3.48c0-1.464-0.332-2.628-0.996-3.492-0.664-0.872-1.66-1.308-2.988-1.308-0.904 0-1.648 0.204-2.232 0.612s-1.02 0.972-1.308 1.692-0.432 1.552-0.432 2.496c0 1.456 0.336 2.624 1.008 3.504s1.66 1.32 2.964 1.32zm8.882 1.668v-12.96h5.52c0.328 0 0.68 0.02 1.056 0.06 0.384 0.032 0.732 0.092 1.044 0.18 0.696 0.184 1.268 0.564 1.716 1.14 0.456 0.568 0.684 1.288 0.684 2.16 0 0.488-0.076 0.912-0.228 1.272-0.144 0.36-0.352 0.672-0.624 0.936-0.12 0.12-0.252 0.228-0.396 0.324s-0.288 0.172-0.432 0.228c0.28 0.048 0.564 0.156 0.852 0.324 0.456 0.248 0.812 0.596 1.068 1.044 0.264 0.448 0.396 1.02 0.396 1.716 0 0.88-0.212 1.608-0.636 2.184-0.424 0.568-1.008 0.96-1.752 1.176-0.312 0.088-0.656 0.148-1.032 0.18-0.376 0.024-0.74 0.036-1.092 0.036h-6.144zm2.16-1.74h3.864c0.168 0 0.368-0.016 0.6-0.048 0.24-0.032 0.452-0.072 0.636-0.12 0.416-0.12 0.716-0.344 0.9-0.672 0.192-0.328 0.288-0.684 0.288-1.068 0-0.512-0.144-0.928-0.432-1.248-0.28-0.32-0.652-0.52-1.116-0.6-0.168-0.048-0.352-0.076-0.552-0.084-0.192-8e-3 -0.364-0.012-0.516-0.012h-3.672v3.852zm0-5.616h3.216c0.224 0 0.46-0.012 0.708-0.036 0.248-0.032 0.464-0.084 0.648-0.156 0.368-0.136 0.636-0.36 0.804-0.672 0.176-0.32 0.264-0.668 0.264-1.044 0-0.416-0.096-0.78-0.288-1.092-0.184-0.32-0.468-0.54-0.852-0.66-0.256-0.096-0.544-0.148-0.864-0.156-0.312-0.016-0.512-0.024-0.6-0.024h-3.036v3.84zm16.523 7.716c-1.272 0-2.384-0.28-3.336-0.84-0.944-0.568-1.68-1.356-2.208-2.364-0.528-1.016-0.792-2.2-0.792-3.552 0-1.416 0.26-2.64 0.78-3.672 0.52-1.04 1.244-1.84 2.172-2.4 0.936-0.568 2.032-0.852 3.288-0.852 1.304 0 2.412 0.3 3.324 0.9 0.92 0.6 1.608 1.456 2.064 2.568 0.464 1.112 0.664 2.436 0.6 3.972h-2.16v-0.768c-0.024-1.592-0.348-2.78-0.972-3.564-0.624-0.792-1.552-1.188-2.784-1.188-1.32 0-2.324 0.424-3.012 1.272s-1.032 2.064-1.032 3.648c0 1.528 0.344 2.712 1.032 3.552s1.668 1.26 2.94 1.26c0.856 0 1.6-0.196 2.232-0.588s1.128-0.956 1.488-1.692l2.052 0.708c-0.504 1.144-1.264 2.032-2.28 2.664-1.008 0.624-2.14 0.936-3.396 0.936zm-4.788-6.24v-1.716h9.576v1.716h-9.576zm16.549 5.88v-11.016h-4.512v-1.944h11.16v1.944h-4.512v11.016h-2.136z" fill="#fff"/>
<path d="m2.12 308v-11.52h1.424v5.408l5.04-5.408h1.792l-5.232 5.592 5.64 5.928h-1.84l-5.4-5.632v5.632h-1.424zm12.821 0.24c-0.8586 0-1.6-0.195-2.224-0.584-0.6186-0.389-1.096-0.928-1.432-1.616s-0.504-1.477-0.504-2.368c0-0.907 0.1707-1.701 0.512-2.384 0.3414-0.683 0.824-1.213 1.448-1.592 0.624-0.384 1.3574-0.576 2.2-0.576 0.864 0 1.608 0.195 2.232 0.584 0.624 0.384 1.1014 0.92 1.432 1.608 0.336 0.683 0.504 1.469 0.504 2.36 0 0.901-0.168 1.696-0.504 2.384-0.336 0.683-0.816 1.219-1.44 1.608-0.624 0.384-1.3653 0.576-2.224 0.576zm0-1.352c0.896 0 1.5627-0.299 2-0.896 0.4374-0.597 0.656-1.371 0.656-2.32 0-0.976-0.2213-1.752-0.664-2.328-0.4426-0.581-1.1066-0.872-1.992-0.872-0.6026 0-1.0986 0.136-1.488 0.408-0.3893 0.272-0.68 0.648-0.872 1.128s-0.288 1.035-0.288 1.664c0 0.971 0.224 1.749 0.672 2.336s1.1067 0.88 1.976 0.88zm5.9214 1.112v-8.64h1.224l3.28 6.704 3.28-6.704h1.224v8.64h-1.376v-5.672l-2.752 5.672h-0.752l-2.752-5.672v5.672h-1.376zm18.314-8.64v8.64h-1.376v-6.368l-4.528 6.368h-1.176v-8.64h1.376v6.28l4.536-6.28h1.168zm4.5285 8.64v-7.344h-3.008v-1.296h7.44v1.296h-3.008v7.344h-1.424zm9.6904 0.24c-0.848 0-1.5894-0.187-2.224-0.56-0.6294-0.379-1.12-0.904-1.472-1.576-0.352-0.677-0.528-1.467-0.528-2.368 0-0.944 0.1733-1.76 0.52-2.448 0.3466-0.693 0.8293-1.227 1.448-1.6 0.624-0.379 1.3546-0.568 2.192-0.568 0.8693 0 1.608 0.2 2.216 0.6 0.6133 0.4 1.072 0.971 1.376 1.712 0.3093 0.741 0.4426 1.624 0.4 2.648h-1.44v-0.512c-0.016-1.061-0.232-1.853-0.648-2.376-0.416-0.528-1.0347-0.792-1.856-0.792-0.88 0-1.5494 0.283-2.008 0.848-0.4587 0.565-0.688 1.376-0.688 2.432 0 1.019 0.2293 1.808 0.688 2.368 0.4586 0.56 1.112 0.84 1.96 0.84 0.5706 0 1.0666-0.131 1.488-0.392 0.4213-0.261 0.752-0.637 0.992-1.128l1.368 0.472c-0.336 0.763-0.8427 1.355-1.52 1.776-0.672 0.416-1.4267 0.624-2.264 0.624zm-3.192-4.16v-1.144h6.384v1.144h-6.384zm11.033 3.92v-7.344h-3.008v-1.296h7.44v1.296h-3.008v7.344h-1.424zm9.1415 0v-8.64h7.08v8.64h-1.424v-7.288h-4.232v7.288h-1.424zm13 0.24c-0.8586 0-1.6-0.195-2.224-0.584-0.6186-0.389-1.096-0.928-1.432-1.616s-0.504-1.477-0.504-2.368c0-0.907 0.1707-1.701 0.512-2.384 0.3414-0.683 0.824-1.213 1.448-1.592 0.624-0.384 1.3574-0.576 2.2-0.576 0.864 0 1.608 0.195 2.232 0.584 0.624 0.384 1.1014 0.92 1.432 1.608 0.336 0.683 0.504 1.469 0.504 2.36 0 0.901-0.168 1.696-0.504 2.384-0.336 0.683-0.816 1.219-1.44 1.608-0.624 0.384-1.3653 0.576-2.224 0.576zm0-1.352c0.896 0 1.5627-0.299 2-0.896 0.4374-0.597 0.656-1.371 0.656-2.32 0-0.976-0.2213-1.752-0.664-2.328-0.4426-0.581-1.1066-0.872-1.992-0.872-0.6026 0-1.0986 0.136-1.488 0.408-0.3893 0.272-0.68 0.648-0.872 1.128s-0.288 1.035-0.288 1.664c0 0.971 0.224 1.749 0.672 2.336s1.1067 0.88 1.976 0.88zm9.1245 1.112v-8.64h1.424v3.64h4.544v-3.64h1.424v8.64h-1.424v-3.648h-4.544v3.648h-1.424zm13.313 0.24c-0.859 0-1.6-0.195-2.224-0.584-0.619-0.389-1.096-0.928-1.432-1.616s-0.504-1.477-0.504-2.368c0-0.907 0.17-1.701 0.512-2.384 0.341-0.683 0.824-1.213 1.448-1.592 0.624-0.384 1.357-0.576 2.2-0.576 0.864 0 1.608 0.195 2.232 0.584 0.624 0.384 1.101 0.92 1.432 1.608 0.336 0.683 0.504 1.469 0.504 2.36 0 0.901-0.168 1.696-0.504 2.384-0.336 0.683-0.816 1.219-1.44 1.608-0.624 0.384-1.366 0.576-2.224 0.576zm0-1.352c0.896 0 1.562-0.299 2-0.896 0.437-0.597 0.656-1.371 0.656-2.32 0-0.976-0.222-1.752-0.664-2.328-0.443-0.581-1.107-0.872-1.992-0.872-0.603 0-1.099 0.136-1.488 0.408-0.39 0.272-0.68 0.648-0.872 1.128s-0.288 1.035-0.288 1.664c0 0.971 0.224 1.749 0.672 2.336s1.106 0.88 1.976 0.88zm5.921 1.112v-8.64h1.224l3.28 6.704 3.28-6.704h1.224v8.64h-1.376v-5.672l-2.752 5.672h-0.752l-2.752-5.672v5.672h-1.376zm18.314-8.64v8.64h-1.376v-6.368l-4.528 6.368h-1.176v-8.64h1.376v6.28l4.536-6.28h1.168zm2.233 8.64v-8.64h1.424v3.64h4.544v-3.64h1.424v8.64h-1.424v-3.648h-4.544v3.648h-1.424zm12.089 0.24c-0.645 0-1.187-0.117-1.624-0.352-0.432-0.24-0.76-0.555-0.984-0.944-0.219-0.389-0.328-0.816-0.328-1.28 0-0.453 0.085-0.845 0.256-1.176 0.176-0.336 0.421-0.613 0.736-0.832 0.315-0.224 0.691-0.4 1.128-0.528 0.411-0.112 0.869-0.208 1.376-0.288 0.512-0.085 1.029-0.163 1.552-0.232s1.011-0.136 1.464-0.2l-0.512 0.296c0.016-0.768-0.139-1.336-0.464-1.704-0.32-0.368-0.875-0.552-1.664-0.552-0.523 0-0.981 0.12-1.376 0.36-0.389 0.235-0.664 0.619-0.824 1.152l-1.352-0.408c0.208-0.757 0.611-1.352 1.208-1.784s1.384-0.648 2.36-0.648c0.784 0 1.456 0.141 2.016 0.424 0.565 0.277 0.971 0.699 1.216 1.264 0.123 0.267 0.2 0.557 0.232 0.872 0.032 0.309 0.048 0.635 0.048 0.976v5.344h-1.264v-2.072l0.296 0.192c-0.325 0.699-0.781 1.227-1.368 1.584-0.581 0.357-1.291 0.536-2.128 0.536zm0.216-1.192c0.512 0 0.955-0.091 1.328-0.272 0.379-0.187 0.683-0.429 0.912-0.728 0.229-0.304 0.379-0.635 0.448-0.992 0.08-0.267 0.123-0.563 0.128-0.888 0.011-0.331 0.016-0.584 0.016-0.76l0.496 0.216c-0.464 0.064-0.92 0.125-1.368 0.184s-0.872 0.123-1.272 0.192c-0.4 0.064-0.76 0.141-1.08 0.232-0.235 0.075-0.456 0.171-0.664 0.288-0.203 0.117-0.368 0.269-0.496 0.456-0.123 0.181-0.184 0.408-0.184 0.68 0 0.235 0.059 0.459 0.176 0.672 0.123 0.213 0.309 0.387 0.56 0.52 0.256 0.133 0.589 0.2 1 0.2zm13.688 2.552v-1.6h-7.368v-8.64h1.424v7.288h4.232v-7.288h1.424v7.344h1.712v2.896h-1.424zm9.774-10.24v8.64h-1.376v-6.368l-4.528 6.368h-1.176v-8.64h1.376v6.28l4.536-6.28h1.168zm7.577 8.64v-3.128h-1.864c-0.219 0-0.461-8e-3 -0.728-0.024-0.261-0.021-0.507-0.051-0.736-0.088-0.624-0.117-1.152-0.392-1.584-0.824-0.427-0.432-0.64-1.029-0.64-1.792 0-0.741 0.2-1.336 0.6-1.784 0.405-0.453 0.904-0.747 1.496-0.88 0.267-0.064 0.536-0.099 0.808-0.104 0.277-0.011 0.512-0.016 0.704-0.016h3.368l8e-3 8.64h-1.432zm-5.816 0 2.296-3.52h1.536l-2.296 3.52h-1.536zm3.848-4.304h1.968v-3.16h-1.968c-0.123 0-0.285 5e-3 -0.488 0.016-0.197 0.011-0.387 0.043-0.568 0.096-0.171 0.048-0.339 0.136-0.504 0.264-0.16 0.128-0.293 0.293-0.4 0.496s-0.16 0.443-0.16 0.72c0 0.4 0.112 0.725 0.336 0.976 0.224 0.245 0.496 0.411 0.816 0.496 0.176 0.043 0.349 0.069 0.52 0.08 0.176 0.011 0.325 0.016 0.448 0.016zm5.64 4.304v-8.64h1.224l3.28 6.704 3.28-6.704h1.224v8.64h-1.376v-5.672l-2.752 5.672h-0.752l-2.752-5.672v5.672h-1.376zm21.517-8.64v8.64h-1.376v-6.368l-4.528 6.368h-1.176v-8.64h1.376v6.28l4.536-6.28h1.168zm5.436 8.64v-8.64h3.68c0.218 0 0.453 0.013 0.704 0.04 0.256 0.021 0.488 0.061 0.696 0.12 0.464 0.123 0.845 0.376 1.144 0.76 0.304 0.379 0.456 0.859 0.456 1.44 0 0.325-0.051 0.608-0.152 0.848-0.096 0.24-0.235 0.448-0.416 0.624-0.08 0.08-0.168 0.152-0.264 0.216s-0.192 0.115-0.288 0.152c0.186 0.032 0.376 0.104 0.568 0.216 0.304 0.165 0.541 0.397 0.712 0.696 0.176 0.299 0.264 0.68 0.264 1.144 0 0.587-0.142 1.072-0.424 1.456-0.283 0.379-0.672 0.64-1.168 0.784-0.208 0.059-0.438 0.099-0.688 0.12-0.251 0.016-0.494 0.024-0.728 0.024h-4.096zm1.44-1.16h2.576c0.112 0 0.245-0.011 0.4-0.032 0.16-0.021 0.301-0.048 0.424-0.08 0.277-0.08 0.477-0.229 0.6-0.448 0.128-0.219 0.192-0.456 0.192-0.712 0-0.341-0.096-0.619-0.288-0.832-0.187-0.213-0.435-0.347-0.744-0.4-0.112-0.032-0.235-0.051-0.368-0.056-0.128-5e-3 -0.243-8e-3 -0.344-8e-3h-2.448v2.568zm0-3.744h2.144c0.149 0 0.306-8e-3 0.472-0.024 0.165-0.021 0.309-0.056 0.432-0.104 0.245-0.091 0.424-0.24 0.536-0.448 0.117-0.213 0.176-0.445 0.176-0.696 0-0.277-0.064-0.52-0.192-0.728-0.123-0.213-0.312-0.36-0.568-0.44-0.171-0.064-0.363-0.099-0.576-0.104-0.208-0.011-0.342-0.016-0.4-0.016h-2.024v2.56zm10.951 5.144c-0.859 0-1.6-0.195-2.224-0.584-0.619-0.389-1.096-0.928-1.432-1.616s-0.504-1.477-0.504-2.368c0-0.907 0.17-1.701 0.512-2.384 0.341-0.683 0.824-1.213 1.448-1.592 0.624-0.384 1.357-0.576 2.2-0.576 0.864 0 1.608 0.195 2.232 0.584 0.624 0.384 1.101 0.92 1.432 1.608 0.336 0.683 0.504 1.469 0.504 2.36 0 0.901-0.168 1.696-0.504 2.384-0.336 0.683-0.816 1.219-1.44 1.608-0.624 0.384-1.366 0.576-2.224 0.576zm0-1.352c0.896 0 1.562-0.299 2-0.896 0.437-0.597 0.656-1.371 0.656-2.32 0-0.976-0.222-1.752-0.664-2.328-0.443-0.581-1.107-0.872-1.992-0.872-0.603 0-1.099 0.136-1.488 0.408-0.39 0.272-0.68 0.648-0.872 1.128s-0.288 1.035-0.288 1.664c0 0.971 0.224 1.749 0.672 2.336s1.106 0.88 1.976 0.88zm8.822 1.352c-0.853 0-1.608-0.184-2.264-0.552-0.656-0.373-1.173-0.885-1.552-1.536l1.136-0.736c0.315 0.475 0.691 0.84 1.128 1.096 0.437 0.251 0.936 0.376 1.496 0.376 0.587 0 1.053-0.133 1.4-0.4 0.347-0.272 0.52-0.637 0.52-1.096 0-0.341-0.085-0.603-0.256-0.784s-0.416-0.307-0.736-0.376-0.701-0.104-1.144-0.104h-0.896v-1.176h0.888c0.56 0 1.016-0.091 1.368-0.272s0.528-0.491 0.528-0.928c0-0.448-0.165-0.773-0.496-0.976-0.325-0.208-0.715-0.312-1.168-0.312-0.48 0-0.939 0.101-1.376 0.304-0.437 0.197-0.813 0.448-1.128 0.752l-0.864-0.968c0.448-0.459 0.963-0.811 1.544-1.056 0.587-0.251 1.224-0.376 1.912-0.376 0.555 0 1.061 0.099 1.52 0.296 0.464 0.192 0.832 0.477 1.104 0.856 0.277 0.373 0.416 0.829 0.416 1.368 0 0.459-0.107 0.867-0.32 1.224s-0.528 0.669-0.944 0.936l-0.056-0.504c0.352 0.085 0.643 0.243 0.872 0.472 0.235 0.224 0.408 0.491 0.52 0.8s0.168 0.632 0.168 0.968c0 0.565-0.149 1.051-0.448 1.456-0.293 0.4-0.691 0.709-1.192 0.928-0.501 0.213-1.061 0.32-1.68 0.32zm5.068-0.24v-8.64h1.424v3.64h4.544v-3.64h1.424v8.64h-1.424v-3.648h-4.544v3.648h-1.424zm12.089 0.24c-0.645 0-1.187-0.117-1.624-0.352-0.432-0.24-0.76-0.555-0.984-0.944-0.219-0.389-0.328-0.816-0.328-1.28 0-0.453 0.085-0.845 0.256-1.176 0.176-0.336 0.421-0.613 0.736-0.832 0.315-0.224 0.691-0.4 1.128-0.528 0.411-0.112 0.869-0.208 1.376-0.288 0.512-0.085 1.029-0.163 1.552-0.232s1.011-0.136 1.464-0.2l-0.512 0.296c0.016-0.768-0.139-1.336-0.464-1.704-0.32-0.368-0.875-0.552-1.664-0.552-0.523 0-0.981 0.12-1.376 0.36-0.389 0.235-0.664 0.619-0.824 1.152l-1.352-0.408c0.208-0.757 0.611-1.352 1.208-1.784s1.384-0.648 2.36-0.648c0.784 0 1.456 0.141 2.016 0.424 0.565 0.277 0.971 0.699 1.216 1.264 0.123 0.267 0.2 0.557 0.232 0.872 0.032 0.309 0.048 0.635 0.048 0.976v5.344h-1.264v-2.072l0.296 0.192c-0.325 0.699-0.781 1.227-1.368 1.584-0.581 0.357-1.291 0.536-2.128 0.536zm0.216-1.192c0.512 0 0.955-0.091 1.328-0.272 0.379-0.187 0.683-0.429 0.912-0.728 0.229-0.304 0.379-0.635 0.448-0.992 0.08-0.267 0.123-0.563 0.128-0.888 0.011-0.331 0.016-0.584 0.016-0.76l0.496 0.216c-0.464 0.064-0.92 0.125-1.368 0.184s-0.872 0.123-1.272 0.192c-0.4 0.064-0.76 0.141-1.08 0.232-0.235 0.075-0.456 0.171-0.664 0.288-0.203 0.117-0.368 0.269-0.496 0.456-0.123 0.181-0.184 0.408-0.184 0.68 0 0.235 0.059 0.459 0.176 0.672 0.123 0.213 0.309 0.387 0.56 0.52 0.256 0.133 0.589 0.2 1 0.2zm6.328 0.952v-8.64h6v1.352h-4.576v7.288h-1.424zm11.484 0.24c-0.811 0-1.494-0.2-2.048-0.6-0.555-0.405-0.976-0.952-1.264-1.64-0.283-0.693-0.424-1.469-0.424-2.328 0-0.869 0.141-1.648 0.424-2.336 0.288-0.688 0.709-1.229 1.264-1.624 0.56-0.395 1.245-0.592 2.056-0.592 0.8 0 1.488 0.2 2.064 0.6 0.581 0.395 1.026 0.936 1.336 1.624 0.309 0.688 0.464 1.464 0.464 2.328s-0.155 1.64-0.464 2.328c-0.31 0.688-0.755 1.235-1.336 1.64-0.576 0.4-1.267 0.6-2.072 0.6zm-3.976 3.6v-12.48h1.272v6.36h0.16v6.12h-1.432zm3.8-4.904c0.57 0 1.042-0.144 1.416-0.432 0.373-0.288 0.653-0.677 0.84-1.168 0.186-0.496 0.28-1.051 0.28-1.664 0-0.608-0.094-1.157-0.28-1.648-0.182-0.491-0.464-0.88-0.848-1.168-0.379-0.288-0.862-0.432-1.448-0.432-0.56 0-1.024 0.139-1.392 0.416-0.368 0.272-0.643 0.653-0.824 1.144-0.182 0.485-0.272 1.048-0.272 1.688 0 0.629 0.088 1.192 0.264 1.688 0.181 0.491 0.458 0.877 0.832 1.16 0.373 0.277 0.85 0.416 1.432 0.416zm8.257 1.304c-0.645 0-1.186-0.117-1.624-0.352-0.432-0.24-0.76-0.555-0.984-0.944-0.218-0.389-0.328-0.816-0.328-1.28 0-0.453 0.086-0.845 0.256-1.176 0.176-0.336 0.422-0.613 0.736-0.832 0.315-0.224 0.691-0.4 1.128-0.528 0.411-0.112 0.87-0.208 1.376-0.288 0.512-0.085 1.03-0.163 1.552-0.232 0.523-0.069 1.011-0.136 1.464-0.2l-0.512 0.296c0.016-0.768-0.138-1.336-0.464-1.704-0.32-0.368-0.874-0.552-1.664-0.552-0.522 0-0.981 0.12-1.376 0.36-0.389 0.235-0.664 0.619-0.824 1.152l-1.352-0.408c0.208-0.757 0.611-1.352 1.208-1.784 0.598-0.432 1.384-0.648 2.36-0.648 0.784 0 1.456 0.141 2.016 0.424 0.566 0.277 0.971 0.699 1.216 1.264 0.123 0.267 0.2 0.557 0.232 0.872 0.032 0.309 0.048 0.635 0.048 0.976v5.344h-1.264v-2.072l0.296 0.192c-0.325 0.699-0.781 1.227-1.368 1.584-0.581 0.357-1.29 0.536-2.128 0.536zm0.216-1.192c0.512 0 0.955-0.091 1.328-0.272 0.379-0.187 0.683-0.429 0.912-0.728 0.23-0.304 0.379-0.635 0.448-0.992 0.08-0.267 0.123-0.563 0.128-0.888 0.011-0.331 0.016-0.584 0.016-0.76l0.496 0.216c-0.464 0.064-0.92 0.125-1.368 0.184s-0.872 0.123-1.272 0.192c-0.4 0.064-0.76 0.141-1.08 0.232-0.234 0.075-0.456 0.171-0.664 0.288-0.202 0.117-0.368 0.269-0.496 0.456-0.122 0.181-0.184 0.408-0.184 0.68 0 0.235 0.059 0.459 0.176 0.672 0.123 0.213 0.31 0.387 0.56 0.52 0.256 0.133 0.59 0.2 1 0.2zm5.368 0.952 3.488-4.32-3.32-4.32h1.584l3.208 4.24v-4.24h1.296v4.24l3.208-4.24h1.584l-3.32 4.32 3.488 4.32h-1.656l-3.304-4.24v4.24h-1.296v-4.24l-3.304 4.24h-1.656zm11.539 1.92v-3.096c0.485 0 0.832-0.157 1.04-0.472 0.208-0.32 0.376-0.845 0.504-1.576 0.085-0.459 0.155-0.949 0.208-1.472s0.099-1.104 0.136-1.744c0.043-0.645 0.083-1.379 0.12-2.2h5.952v7.464h0.84v3.096h-1.36v-1.92h-6.08v1.92h-1.36zm2.192-3.096h4.344v-6.288h-3.24c-0.016 0.379-0.037 0.776-0.064 1.192-0.027 0.411-0.059 0.821-0.096 1.232-0.032 0.411-0.072 0.8-0.12 1.168-0.043 0.363-0.093 0.688-0.152 0.976-0.069 0.4-0.149 0.739-0.24 1.016s-0.235 0.512-0.432 0.704zm11.958 1.416c-0.848 0-1.59-0.187-2.224-0.56-0.63-0.379-1.12-0.904-1.472-1.576-0.352-0.677-0.528-1.467-0.528-2.368 0-0.944 0.173-1.76 0.52-2.448 0.346-0.693 0.829-1.227 1.448-1.6 0.624-0.379 1.354-0.568 2.192-0.568 0.869 0 1.608 0.2 2.216 0.6 0.613 0.4 1.072 0.971 1.376 1.712 0.309 0.741 0.442 1.624 0.4 2.648h-1.44v-0.512c-0.016-1.061-0.232-1.853-0.648-2.376-0.416-0.528-1.035-0.792-1.856-0.792-0.88 0-1.55 0.283-2.008 0.848-0.459 0.565-0.688 1.376-0.688 2.432 0 1.019 0.229 1.808 0.688 2.368 0.458 0.56 1.112 0.84 1.96 0.84 0.57 0 1.066-0.131 1.488-0.392 0.421-0.261 0.752-0.637 0.992-1.128l1.368 0.472c-0.336 0.763-0.843 1.355-1.52 1.776-0.672 0.416-1.427 0.624-2.264 0.624zm-3.192-4.16v-1.144h6.384v1.144h-6.384zm8.893 3.92v-8.64h1.424v3.64h4.544v-3.64h1.424v8.64h-1.424v-3.648h-4.544v3.648h-1.424zm16.705-8.64v8.64h-1.376v-6.368l-4.528 6.368h-1.176v-8.64h1.376v6.28l4.536-6.28h1.168zm7.576 8.64v-3.128h-1.864c-0.218 0-0.461-8e-3 -0.728-0.024-0.261-0.021-0.506-0.051-0.736-0.088-0.624-0.117-1.152-0.392-1.584-0.824-0.426-0.432-0.64-1.029-0.64-1.792 0-0.741 0.2-1.336 0.6-1.784 0.406-0.453 0.904-0.747 1.496-0.88 0.267-0.064 0.536-0.099 0.808-0.104 0.278-0.011 0.512-0.016 0.704-0.016h3.368l8e-3 8.64h-1.432zm-5.816 0 2.296-3.52h1.536l-2.296 3.52h-1.536zm3.848-4.304h1.968v-3.16h-1.968c-0.122 0-0.285 5e-3 -0.488 0.016-0.197 0.011-0.386 0.043-0.568 0.096-0.17 0.048-0.338 0.136-0.504 0.264-0.16 0.128-0.293 0.293-0.4 0.496-0.106 0.203-0.16 0.443-0.16 0.72 0 0.4 0.112 0.725 0.336 0.976 0.224 0.245 0.496 0.411 0.816 0.496 0.176 0.043 0.35 0.069 0.52 0.08 0.176 0.011 0.326 0.016 0.448 0.016zm5.64 4.304v-8.64h1.224l3.28 6.704 3.28-6.704h1.224v8.64h-1.376v-5.672l-2.752 5.672h-0.752l-2.752-5.672v5.672h-1.376z" fill="#000"/>
<path d="m1010.1 308v-11.52h1.42v5.408l5.04-5.408h1.8l-5.24 5.592 5.64 5.928h-1.84l-5.4-5.632v5.632h-1.42zm12.82 0.24c-0.86 0-1.6-0.195-2.22-0.584s-1.1-0.928-1.44-1.616c-0.33-0.688-0.5-1.477-0.5-2.368 0-0.907 0.17-1.701 0.51-2.384s0.83-1.213 1.45-1.592c0.62-0.384 1.36-0.576 2.2-0.576 0.86 0 1.61 0.195 2.23 0.584 0.63 0.384 1.1 0.92 1.43 1.608 0.34 0.683 0.51 1.469 0.51 2.36 0 0.901-0.17 1.696-0.51 2.384-0.33 0.683-0.81 1.219-1.44 1.608-0.62 0.384-1.36 0.576-2.22 0.576zm0-1.352c0.9 0 1.56-0.299 2-0.896s0.66-1.371 0.66-2.32c0-0.976-0.22-1.752-0.67-2.328-0.44-0.581-1.1-0.872-1.99-0.872-0.6 0-1.1 0.136-1.49 0.408s-0.68 0.648-0.87 1.128-0.29 1.035-0.29 1.664c0 0.971 0.23 1.749 0.67 2.336 0.45 0.587 1.11 0.88 1.98 0.88zm5.92 1.112v-8.64h1.23l3.28 6.704 3.28-6.704h1.22v8.64h-1.38v-5.672l-2.75 5.672h-0.75l-2.75-5.672v5.672h-1.38zm18.32-8.64v8.64h-1.38v-6.368l-4.53 6.368h-1.17v-8.64h1.37v6.28l4.54-6.28h1.17zm4.52 8.64v-7.344h-3v-1.296h7.44v1.296h-3.01v7.344h-1.43zm9.7 0.24c-0.85 0-1.59-0.187-2.23-0.56-0.63-0.379-1.12-0.904-1.47-1.576-0.35-0.677-0.53-1.467-0.53-2.368 0-0.944 0.17-1.76 0.52-2.448 0.35-0.693 0.83-1.227 1.45-1.6 0.62-0.379 1.35-0.568 2.19-0.568 0.87 0 1.61 0.2 2.22 0.6s1.07 0.971 1.37 1.712c0.31 0.741 0.45 1.624 0.4 2.648h-1.44v-0.512c-0.01-1.061-0.23-1.853-0.64-2.376-0.42-0.528-1.04-0.792-1.86-0.792-0.88 0-1.55 0.283-2.01 0.848s-0.69 1.376-0.69 2.432c0 1.019 0.23 1.808 0.69 2.368s1.11 0.84 1.96 0.84c0.57 0 1.07-0.131 1.49-0.392s0.75-0.637 0.99-1.128l1.37 0.472c-0.34 0.763-0.84 1.355-1.52 1.776-0.67 0.416-1.43 0.624-2.26 0.624zm-3.2-4.16v-1.144h6.39v1.144h-6.39zm11.04 3.92v-7.344h-3.01v-1.296h7.44v1.296h-3.01v7.344h-1.42zm9.14 0v-8.64h7.08v8.64h-1.43v-7.288h-4.23v7.288h-1.42zm13 0.24c-0.86 0-1.6-0.195-2.23-0.584-0.61-0.389-1.09-0.928-1.43-1.616-0.33-0.688-0.5-1.477-0.5-2.368 0-0.907 0.17-1.701 0.51-2.384s0.82-1.213 1.45-1.592c0.62-0.384 1.36-0.576 2.2-0.576 0.86 0 1.61 0.195 2.23 0.584 0.62 0.384 1.1 0.92 1.43 1.608 0.34 0.683 0.51 1.469 0.51 2.36 0 0.901-0.17 1.696-0.51 2.384-0.33 0.683-0.81 1.219-1.44 1.608-0.62 0.384-1.36 0.576-2.22 0.576zm0-1.352c0.89 0 1.56-0.299 2-0.896s0.65-1.371 0.65-2.32c0-0.976-0.22-1.752-0.66-2.328-0.44-0.581-1.11-0.872-1.99-0.872-0.6 0-1.1 0.136-1.49 0.408s-0.68 0.648-0.87 1.128-0.29 1.035-0.29 1.664c0 0.971 0.22 1.749 0.67 2.336s1.11 0.88 1.98 0.88zm11.59 1.352c-0.65 0-1.19-0.117-1.63-0.352-0.43-0.24-0.76-0.555-0.98-0.944s-0.33-0.816-0.33-1.28c0-0.453 0.09-0.845 0.26-1.176 0.17-0.336 0.42-0.613 0.73-0.832 0.32-0.224 0.69-0.4 1.13-0.528 0.41-0.112 0.87-0.208 1.38-0.288 0.51-0.085 1.03-0.163 1.55-0.232s1.01-0.136 1.46-0.2l-0.51 0.296c0.02-0.768-0.14-1.336-0.46-1.704s-0.88-0.552-1.67-0.552c-0.52 0-0.98 0.12-1.37 0.36-0.39 0.235-0.67 0.619-0.83 1.152l-1.35-0.408c0.21-0.757 0.61-1.352 1.21-1.784s1.38-0.648 2.36-0.648c0.78 0 1.45 0.141 2.01 0.424 0.57 0.277 0.98 0.699 1.22 1.264 0.12 0.267 0.2 0.557 0.23 0.872 0.03 0.309 0.05 0.635 0.05 0.976v5.344h-1.26v-2.072l0.29 0.192c-0.32 0.699-0.78 1.227-1.37 1.584-0.58 0.357-1.29 0.536-2.12 0.536zm0.21-1.192c0.51 0 0.96-0.091 1.33-0.272 0.38-0.187 0.68-0.429 0.91-0.728 0.23-0.304 0.38-0.635 0.45-0.992 0.08-0.267 0.12-0.563 0.13-0.888 0.01-0.331 0.01-0.584 0.01-0.76l0.5 0.216c-0.46 0.064-0.92 0.125-1.37 0.184s-0.87 0.123-1.27 0.192c-0.4 0.064-0.76 0.141-1.08 0.232-0.23 0.075-0.46 0.171-0.66 0.288-0.21 0.117-0.37 0.269-0.5 0.456-0.12 0.181-0.18 0.408-0.18 0.68 0 0.235 0.06 0.459 0.17 0.672 0.13 0.213 0.31 0.387 0.56 0.52 0.26 0.133 0.59 0.2 1 0.2zm7.05 4.792 1.67-4.544 0.02 1.344-3.77-9.28h1.49l2.96 7.464h-0.51l2.78-7.464h1.44l-4.7 12.48h-1.38zm6.45-1.92v-3.096c0.49 0 0.84-0.157 1.04-0.472 0.21-0.32 0.38-0.845 0.51-1.576 0.08-0.459 0.15-0.949 0.21-1.472 0.05-0.523 0.09-1.104 0.13-1.744 0.04-0.645 0.08-1.379 0.12-2.2h5.95v7.464h0.84v3.096h-1.36v-1.92h-6.08v1.92h-1.36zm2.2-3.096h4.34v-6.288h-3.24c-0.02 0.379-0.04 0.776-0.06 1.192-0.03 0.411-0.06 0.821-0.1 1.232-0.03 0.411-0.07 0.8-0.12 1.168-0.04 0.363-0.09 0.688-0.15 0.976-0.07 0.4-0.15 0.739-0.24 1.016s-0.24 0.512-0.43 0.704zm15.28-7.464v8.64h-1.38v-6.368l-4.52 6.368h-1.18v-8.64h1.38v6.28l4.53-6.28h1.17zm4.53 8.64v-7.344h-3.01v-1.296h7.44v1.296h-3.01v7.344h-1.42zm6.99 3.84 1.67-4.544 0.03 1.344-3.78-9.28h1.5l2.96 7.464h-0.52l2.78-7.464h1.45l-4.71 12.48h-1.38z" fill="#000"/>
<path d="m1014.9 391.24c-1.15 0-2.12-0.253-2.92-0.76s-1.41-1.211-1.84-2.112c-0.41-0.901-0.62-1.944-0.62-3.128s0.21-2.227 0.62-3.128c0.43-0.901 1.04-1.605 1.84-2.112s1.77-0.76 2.92-0.76c1.33 0 2.43 0.339 3.28 1.016 0.87 0.677 1.46 1.589 1.79 2.736l-1.45 0.384c-0.23-0.859-0.65-1.536-1.26-2.032-0.6-0.496-1.39-0.744-2.36-0.744-0.86 0-1.58 0.195-2.15 0.584s-1 0.933-1.29 1.632c-0.28 0.693-0.43 1.501-0.44 2.424 0 0.917 0.14 1.725 0.43 2.424 0.29 0.693 0.72 1.237 1.29 1.632 0.58 0.389 1.3 0.584 2.16 0.584 0.97 0 1.76-0.248 2.36-0.744 0.61-0.501 1.03-1.179 1.26-2.032l1.45 0.384c-0.33 1.141-0.92 2.053-1.79 2.736-0.85 0.677-1.95 1.016-3.28 1.016zm6.02-0.24v-1.224c0.32 0.059 0.57 0.048 0.73-0.032 0.17-0.085 0.3-0.232 0.38-0.44 0.08-0.213 0.15-0.48 0.2-0.8 0.1-0.507 0.17-1.072 0.24-1.696s0.13-1.307 0.18-2.048c0.06-0.747 0.11-1.547 0.16-2.4h6.04v8.64h-1.42v-7.288h-3.32c-0.04 0.491-0.08 0.995-0.12 1.512-0.05 0.517-0.09 1.021-0.14 1.512-0.05 0.485-0.1 0.939-0.16 1.36-0.05 0.416-0.11 0.776-0.18 1.08-0.1 0.523-0.24 0.941-0.42 1.256-0.18 0.309-0.44 0.509-0.78 0.6-0.34 0.096-0.81 0.085-1.39-0.032zm11.38 3.84 1.67-4.544 0.02 1.344-3.77-9.28h1.49l2.96 7.464h-0.51l2.78-7.464h1.45l-4.71 12.48h-1.38zm6.45-3.84 3.48-4.32-3.32-4.32h1.59l3.21 4.24v-4.24h1.29v4.24l3.21-4.24h1.58l-3.32 4.32 3.49 4.32h-1.65l-3.31-4.24v4.24h-1.29v-4.24l-3.31 4.24h-1.65zm16 0.248c-0.82-5e-3 -1.51-0.181-2.09-0.528-0.57-0.352-1.02-0.867-1.34-1.544s-0.5-1.507-0.54-2.488c-0.02-0.453-0.01-0.952 0.02-1.496 0.04-0.544 0.09-1.067 0.17-1.568 0.09-0.501 0.2-0.915 0.32-1.24 0.15-0.389 0.35-0.749 0.61-1.08 0.27-0.336 0.57-0.613 0.9-0.832 0.33-0.229 0.71-0.408 1.13-0.536 0.41-0.128 0.85-0.227 1.3-0.296 0.46-0.075 0.92-0.139 1.38-0.192 0.45-0.059 0.89-0.128 1.31-0.208l0.14 1.28c-0.29 0.064-0.64 0.12-1.04 0.168-0.4 0.043-0.81 0.093-1.25 0.152-0.42 0.059-0.83 0.141-1.23 0.248-0.39 0.101-0.72 0.243-1.01 0.424-0.41 0.251-0.73 0.627-0.96 1.128-0.21 0.496-0.35 1.053-0.4 1.672 0.33-0.512 0.76-0.888 1.29-1.128s1.09-0.36 1.69-0.36c0.77 0 1.44 0.181 2 0.544 0.56 0.357 0.99 0.851 1.29 1.48s0.45 1.347 0.45 2.152c0 0.853-0.17 1.6-0.51 2.24s-0.82 1.136-1.45 1.488c-0.61 0.352-1.34 0.525-2.18 0.52zm0.09-1.352c0.84 0 1.47-0.259 1.9-0.776 0.43-0.523 0.65-1.216 0.65-2.08 0-0.885-0.22-1.581-0.67-2.088-0.45-0.512-1.08-0.768-1.89-0.768-0.82 0-1.45 0.256-1.89 0.768-0.43 0.507-0.65 1.203-0.65 2.088 0 0.891 0.22 1.589 0.66 2.096s1.07 0.76 1.89 0.76zm8.28 1.344c-0.65 0-1.19-0.117-1.63-0.352-0.43-0.24-0.76-0.555-0.98-0.944s-0.33-0.816-0.33-1.28c0-0.453 0.09-0.845 0.26-1.176 0.17-0.336 0.42-0.613 0.73-0.832 0.32-0.224 0.69-0.4 1.13-0.528 0.41-0.112 0.87-0.208 1.38-0.288 0.51-0.085 1.03-0.163 1.55-0.232s1.01-0.136 1.46-0.2l-0.51 0.296c0.02-0.768-0.14-1.336-0.46-1.704s-0.88-0.552-1.67-0.552c-0.52 0-0.98 0.12-1.37 0.36-0.39 0.235-0.67 0.619-0.83 1.152l-1.35-0.408c0.21-0.757 0.61-1.352 1.21-1.784s1.38-0.648 2.36-0.648c0.78 0 1.45 0.141 2.01 0.424 0.57 0.277 0.97 0.699 1.22 1.264 0.12 0.267 0.2 0.557 0.23 0.872 0.03 0.309 0.05 0.635 0.05 0.976v5.344h-1.26v-2.072l0.29 0.192c-0.32 0.699-0.78 1.227-1.37 1.584-0.58 0.357-1.29 0.536-2.12 0.536zm0.21-1.192c0.51 0 0.96-0.091 1.33-0.272 0.38-0.187 0.68-0.429 0.91-0.728 0.23-0.304 0.38-0.635 0.45-0.992 0.08-0.267 0.12-0.563 0.13-0.888 0.01-0.331 0.01-0.584 0.01-0.76l0.5 0.216c-0.46 0.064-0.92 0.125-1.37 0.184s-0.87 0.123-1.27 0.192c-0.4 0.064-0.76 0.141-1.08 0.232-0.23 0.075-0.46 0.171-0.66 0.288-0.21 0.117-0.37 0.269-0.5 0.456-0.12 0.181-0.18 0.408-0.18 0.68 0 0.235 0.05 0.459 0.17 0.672s0.31 0.387 0.56 0.52c0.26 0.133 0.59 0.2 1 0.2zm9.53 0.952v-8.64h3.68c0.21 0 0.45 0.013 0.7 0.04 0.26 0.021 0.49 0.061 0.7 0.12 0.46 0.123 0.84 0.376 1.14 0.76 0.3 0.379 0.46 0.859 0.46 1.44 0 0.325-0.06 0.608-0.16 0.848-0.09 0.24-0.23 0.448-0.41 0.624-0.08 0.08-0.17 0.152-0.27 0.216-0.09 0.064-0.19 0.115-0.28 0.152 0.18 0.032 0.37 0.104 0.56 0.216 0.31 0.165 0.54 0.397 0.72 0.696 0.17 0.299 0.26 0.68 0.26 1.144 0 0.587-0.14 1.072-0.42 1.456-0.29 0.379-0.68 0.64-1.17 0.784-0.21 0.059-0.44 0.099-0.69 0.12-0.25 0.016-0.49 0.024-0.73 0.024h-4.09zm1.44-1.16h2.57c0.11 0 0.25-0.011 0.4-0.032 0.16-0.021 0.3-0.048 0.43-0.08 0.27-0.08 0.47-0.229 0.6-0.448 0.12-0.219 0.19-0.456 0.19-0.712 0-0.341-0.1-0.619-0.29-0.832s-0.44-0.347-0.74-0.4c-0.12-0.032-0.24-0.051-0.37-0.056s-0.25-8e-3 -0.35-8e-3h-2.44v2.568zm0-3.744h2.14c0.15 0 0.31-8e-3 0.47-0.024 0.17-0.021 0.31-0.056 0.43-0.104 0.25-0.091 0.43-0.24 0.54-0.448 0.12-0.213 0.18-0.445 0.18-0.696 0-0.277-0.07-0.52-0.2-0.728-0.12-0.213-0.31-0.36-0.56-0.44-0.18-0.064-0.37-0.099-0.58-0.104-0.21-0.011-0.34-0.016-0.4-0.016h-2.02v2.56zm7.26 4.904v-8.64h1.42v3.64h4.55v-3.64h1.42v8.64h-1.42v-3.648h-4.55v3.648h-1.42zm10.83 3.84 1.67-4.544 0.03 1.344-3.78-9.28h1.5l2.96 7.464h-0.51l2.77-7.464h1.45l-4.7 12.48h-1.39zm9.7-3.84v-7.344h-3.01v-1.296h7.44v1.296h-3.01v7.344h-1.42zm9.91 0.24c-0.81 0-1.49-0.2-2.04-0.6-0.56-0.405-0.98-0.952-1.27-1.64-0.28-0.693-0.42-1.469-0.42-2.328 0-0.869 0.14-1.648 0.42-2.336 0.29-0.688 0.71-1.229 1.27-1.624s1.24-0.592 2.05-0.592c0.8 0 1.49 0.2 2.07 0.6 0.58 0.395 1.02 0.936 1.33 1.624s0.47 1.464 0.47 2.328-0.16 1.64-0.47 2.328-0.75 1.235-1.33 1.64c-0.58 0.4-1.27 0.6-2.08 0.6zm-3.97 3.6v-12.48h1.27v6.36h0.16v6.12h-1.43zm3.8-4.904c0.57 0 1.04-0.144 1.41-0.432 0.38-0.288 0.66-0.677 0.84-1.168 0.19-0.496 0.28-1.051 0.28-1.664 0-0.608-0.09-1.157-0.28-1.648-0.18-0.491-0.46-0.88-0.84-1.168s-0.87-0.432-1.45-0.432c-0.56 0-1.03 0.139-1.39 0.416-0.37 0.272-0.65 0.653-0.83 1.144-0.18 0.485-0.27 1.048-0.27 1.688 0 0.629 0.09 1.192 0.26 1.688 0.18 0.491 0.46 0.877 0.84 1.16 0.37 0.277 0.85 0.416 1.43 0.416zm9.54 1.304c-0.85 0-1.59-0.187-2.22-0.56-0.63-0.379-1.12-0.904-1.47-1.576-0.36-0.677-0.53-1.467-0.53-2.368 0-0.944 0.17-1.76 0.52-2.448 0.35-0.693 0.83-1.227 1.45-1.6 0.62-0.379 1.35-0.568 2.19-0.568 0.87 0 1.61 0.2 2.21 0.6 0.62 0.4 1.08 0.971 1.38 1.712 0.31 0.741 0.44 1.624 0.4 2.648h-1.44v-0.512c-0.02-1.061-0.23-1.853-0.65-2.376-0.41-0.528-1.03-0.792-1.85-0.792-0.88 0-1.55 0.283-2.01 0.848s-0.69 1.376-0.69 2.432c0 1.019 0.23 1.808 0.69 2.368s1.11 0.84 1.96 0.84c0.57 0 1.07-0.131 1.49-0.392s0.75-0.637 0.99-1.128l1.37 0.472c-0.34 0.763-0.85 1.355-1.52 1.776-0.68 0.416-1.43 0.624-2.27 0.624zm-3.19-4.16v-1.144h6.38v1.144h-6.38zm8.89 3.92v-8.64h1.43v3.64h4.54v-3.64h1.43v8.64h-1.43v-3.648h-4.54v3.648h-1.43zm9.63 0v-8.64h1.42v3.64h4.55v-3.64h1.42v8.64h-1.42v-3.648h-4.55v3.648h-1.42zm13.38 0.24c-0.85 0-1.59-0.187-2.23-0.56-0.63-0.379-1.12-0.904-1.47-1.576-0.35-0.677-0.53-1.467-0.53-2.368 0-0.944 0.18-1.76 0.52-2.448 0.35-0.693 0.83-1.227 1.45-1.6 0.62-0.379 1.35-0.568 2.19-0.568 0.87 0 1.61 0.2 2.22 0.6s1.07 0.971 1.37 1.712c0.31 0.741 0.45 1.624 0.4 2.648h-1.44v-0.512c-0.01-1.061-0.23-1.853-0.64-2.376-0.42-0.528-1.04-0.792-1.86-0.792-0.88 0-1.55 0.283-2.01 0.848s-0.69 1.376-0.69 2.432c0 1.019 0.23 1.808 0.69 2.368s1.11 0.84 1.96 0.84c0.57 0 1.07-0.131 1.49-0.392s0.75-0.637 0.99-1.128l1.37 0.472c-0.34 0.763-0.84 1.355-1.52 1.776-0.67 0.416-1.43 0.624-2.26 0.624zm-3.2-4.16v-1.144h6.39v1.144h-6.39zm8.91 3.92v-8.64h6v1.352h-4.58v7.288h-1.42zm11.03 0.24c-0.85 0-1.6-0.195-2.22-0.584s-1.1-0.928-1.43-1.616c-0.34-0.688-0.51-1.477-0.51-2.368 0-0.907 0.18-1.701 0.52-2.384s0.82-1.213 1.44-1.592c0.63-0.384 1.36-0.576 2.2-0.576 0.87 0 1.61 0.195 2.24 0.584 0.62 0.384 1.1 0.92 1.43 1.608 0.33 0.683 0.5 1.469 0.5 2.36 0 0.901-0.17 1.696-0.5 2.384-0.34 0.683-0.82 1.219-1.44 1.608-0.63 0.384-1.37 0.576-2.23 0.576zm0-1.352c0.9 0 1.57-0.299 2-0.896 0.44-0.597 0.66-1.371 0.66-2.32 0-0.976-0.22-1.752-0.66-2.328-0.45-0.581-1.11-0.872-2-0.872-0.6 0-1.09 0.136-1.48 0.408s-0.68 0.648-0.88 1.128c-0.19 0.48-0.28 1.035-0.28 1.664 0 0.971 0.22 1.749 0.67 2.336s1.11 0.88 1.97 0.88zm11.59 1.352c-0.64 0-1.18-0.117-1.62-0.352-0.43-0.24-0.76-0.555-0.99-0.944-0.21-0.389-0.32-0.816-0.32-1.28 0-0.453 0.08-0.845 0.25-1.176 0.18-0.336 0.42-0.613 0.74-0.832 0.31-0.224 0.69-0.4 1.13-0.528 0.41-0.112 0.87-0.208 1.37-0.288 0.51-0.085 1.03-0.163 1.55-0.232 0.53-0.069 1.02-0.136 1.47-0.2l-0.51 0.296c0.01-0.768-0.14-1.336-0.47-1.704-0.32-0.368-0.87-0.552-1.66-0.552-0.52 0-0.98 0.12-1.38 0.36-0.39 0.235-0.66 0.619-0.82 1.152l-1.35-0.408c0.2-0.757 0.61-1.352 1.2-1.784 0.6-0.432 1.39-0.648 2.36-0.648 0.79 0 1.46 0.141 2.02 0.424 0.57 0.277 0.97 0.699 1.22 1.264 0.12 0.267 0.2 0.557 0.23 0.872 0.03 0.309 0.05 0.635 0.05 0.976v5.344h-1.27v-2.072l0.3 0.192c-0.33 0.699-0.78 1.227-1.37 1.584-0.58 0.357-1.29 0.536-2.13 0.536zm0.22-1.192c0.51 0 0.95-0.091 1.33-0.272 0.38-0.187 0.68-0.429 0.91-0.728 0.23-0.304 0.38-0.635 0.45-0.992 0.08-0.267 0.12-0.563 0.12-0.888 0.02-0.331 0.02-0.584 0.02-0.76l0.5 0.216c-0.47 0.064-0.92 0.125-1.37 0.184s-0.87 0.123-1.27 0.192c-0.4 0.064-0.76 0.141-1.08 0.232-0.24 0.075-0.46 0.171-0.67 0.288-0.2 0.117-0.37 0.269-0.49 0.456-0.13 0.181-0.19 0.408-0.19 0.68 0 0.235 0.06 0.459 0.18 0.672s0.31 0.387 0.56 0.52 0.59 0.2 1 0.2zm7.04 4.792 1.67-4.544 0.03 1.344-3.78-9.28h1.5l2.96 7.464h-0.51l2.77-7.464h1.45l-4.7 12.48h-1.39zm6.46-1.92v-3.096c0.48 0 0.83-0.157 1.04-0.472 0.21-0.32 0.38-0.845 0.5-1.576 0.09-0.459 0.16-0.949 0.21-1.472s0.1-1.104 0.14-1.744c0.04-0.645 0.08-1.379 0.12-2.2h5.95v7.464h0.84v3.096h-1.36v-1.92h-6.08v1.92h-1.36zm2.19-3.096h4.35v-6.288h-3.24c-0.02 0.379-0.04 0.776-0.07 1.192-0.03 0.411-0.06 0.821-0.09 1.232-0.04 0.411-0.08 0.8-0.12 1.168-0.05 0.363-0.1 0.688-0.16 0.976-0.07 0.4-0.15 0.739-0.24 1.016s-0.23 0.512-0.43 0.704zm15.29-7.464v8.64h-1.38v-6.368l-4.53 6.368h-1.17v-8.64h1.37v6.28l4.54-6.28h1.17zm4.53 8.64v-7.344h-3.01v-1.296h7.44v1.296h-3.01v7.344h-1.42zm8.12 0.24c-0.65 0-1.19-0.117-1.63-0.352-0.43-0.24-0.76-0.555-0.98-0.944s-0.33-0.816-0.33-1.28c0-0.453 0.09-0.845 0.26-1.176 0.17-0.336 0.42-0.613 0.73-0.832 0.32-0.224 0.69-0.4 1.13-0.528 0.41-0.112 0.87-0.208 1.38-0.288 0.51-0.085 1.03-0.163 1.55-0.232s1.01-0.136 1.46-0.2l-0.51 0.296c0.02-0.768-0.14-1.336-0.46-1.704s-0.88-0.552-1.67-0.552c-0.52 0-0.98 0.12-1.37 0.36-0.39 0.235-0.67 0.619-0.83 1.152l-1.35-0.408c0.21-0.757 0.61-1.352 1.21-1.784s1.38-0.648 2.36-0.648c0.78 0 1.45 0.141 2.01 0.424 0.57 0.277 0.98 0.699 1.22 1.264 0.12 0.267 0.2 0.557 0.23 0.872 0.03 0.309 0.05 0.635 0.05 0.976v5.344h-1.26v-2.072l0.29 0.192c-0.32 0.699-0.78 1.227-1.37 1.584-0.58 0.357-1.29 0.536-2.12 0.536zm0.21-1.192c0.51 0 0.96-0.091 1.33-0.272 0.38-0.187 0.68-0.429 0.91-0.728 0.23-0.304 0.38-0.635 0.45-0.992 0.08-0.267 0.12-0.563 0.13-0.888 0.01-0.331 0.01-0.584 0.01-0.76l0.5 0.216c-0.46 0.064-0.92 0.125-1.37 0.184s-0.87 0.123-1.27 0.192c-0.4 0.064-0.76 0.141-1.08 0.232-0.23 0.075-0.46 0.171-0.66 0.288-0.21 0.117-0.37 0.269-0.5 0.456-0.12 0.181-0.18 0.408-0.18 0.68 0 0.235 0.06 0.459 0.17 0.672 0.13 0.213 0.31 0.387 0.56 0.52 0.26 0.133 0.59 0.2 1 0.2z" fill="#000"/>
<path d="m482.68 577v-17.28h13.488v17.28h-2.136v-15.252h-9.216v15.252h-2.136zm22.804 0.36c-1.216 0-2.24-0.3-3.072-0.9-0.832-0.608-1.464-1.428-1.896-2.46-0.424-1.04-0.636-2.204-0.636-3.492 0-1.304 0.212-2.472 0.636-3.504 0.432-1.032 1.064-1.844 1.896-2.436 0.84-0.592 1.868-0.888 3.084-0.888 1.2 0 2.232 0.3 3.096 0.9 0.872 0.592 1.54 1.404 2.004 2.436s0.696 2.196 0.696 3.492-0.232 2.46-0.696 3.492-1.132 1.852-2.004 2.46c-0.864 0.6-1.9 0.9-3.108 0.9zm-5.964 5.4v-18.72h1.908v9.54h0.24v9.18h-2.148zm5.7-7.356c0.856 0 1.564-0.216 2.124-0.648s0.98-1.016 1.26-1.752c0.28-0.744 0.42-1.576 0.42-2.496 0-0.912-0.14-1.736-0.42-2.472-0.272-0.736-0.696-1.32-1.272-1.752-0.568-0.432-1.292-0.648-2.172-0.648-0.84 0-1.536 0.208-2.088 0.624-0.552 0.408-0.964 0.98-1.236 1.716-0.272 0.728-0.408 1.572-0.408 2.532 0 0.944 0.132 1.788 0.396 2.532 0.272 0.736 0.688 1.316 1.248 1.74 0.56 0.416 1.276 0.624 2.148 0.624zm12.386 1.956c-0.968 0-1.78-0.176-2.436-0.528-0.648-0.36-1.14-0.832-1.476-1.416-0.328-0.584-0.492-1.224-0.492-1.92 0-0.68 0.128-1.268 0.384-1.764 0.264-0.504 0.632-0.92 1.104-1.248 0.472-0.336 1.036-0.6 1.692-0.792 0.616-0.168 1.304-0.312 2.064-0.432 0.768-0.128 1.544-0.244 2.328-0.348s1.516-0.204 2.196-0.3l-0.768 0.444c0.024-1.152-0.208-2.004-0.696-2.556-0.48-0.552-1.312-0.828-2.496-0.828-0.784 0-1.472 0.18-2.064 0.54-0.584 0.352-0.996 0.928-1.236 1.728l-2.028-0.612c0.312-1.136 0.916-2.028 1.812-2.676s2.076-0.972 3.54-0.972c1.176 0 2.184 0.212 3.024 0.636 0.848 0.416 1.456 1.048 1.824 1.896 0.184 0.4 0.3 0.836 0.348 1.308 0.048 0.464 0.072 0.952 0.072 1.464v8.016h-1.896v-3.108l0.444 0.288c-0.488 1.048-1.172 1.84-2.052 2.376-0.872 0.536-1.936 0.804-3.192 0.804zm0.324-1.788c0.768 0 1.432-0.136 1.992-0.408 0.568-0.28 1.024-0.644 1.368-1.092 0.344-0.456 0.568-0.952 0.672-1.488 0.12-0.4 0.184-0.844 0.192-1.332 0.016-0.496 0.024-0.876 0.024-1.14l0.744 0.324c-0.696 0.096-1.38 0.188-2.052 0.276s-1.308 0.184-1.908 0.288c-0.6 0.096-1.14 0.212-1.62 0.348-0.352 0.112-0.684 0.256-0.996 0.432-0.304 0.176-0.552 0.404-0.744 0.684-0.184 0.272-0.276 0.612-0.276 1.02 0 0.352 0.088 0.688 0.264 1.008 0.184 0.32 0.464 0.58 0.84 0.78 0.384 0.2 0.884 0.3 1.5 0.3zm9.48 1.428v-12.96h5.52c0.328 0 0.68 0.02 1.056 0.06 0.384 0.032 0.732 0.092 1.044 0.18 0.696 0.184 1.268 0.564 1.716 1.14 0.456 0.568 0.684 1.288 0.684 2.16 0 0.488-0.076 0.912-0.228 1.272-0.144 0.36-0.352 0.672-0.624 0.936-0.12 0.12-0.252 0.228-0.396 0.324s-0.288 0.172-0.432 0.228c0.28 0.048 0.564 0.156 0.852 0.324 0.456 0.248 0.812 0.596 1.068 1.044 0.264 0.448 0.396 1.02 0.396 1.716 0 0.88-0.212 1.608-0.636 2.184-0.424 0.568-1.008 0.96-1.752 1.176-0.312 0.088-0.656 0.148-1.032 0.18-0.376 0.024-0.74 0.036-1.092 0.036h-6.144zm2.16-1.74h3.864c0.168 0 0.368-0.016 0.6-0.048 0.24-0.032 0.452-0.072 0.636-0.12 0.416-0.12 0.716-0.344 0.9-0.672 0.192-0.328 0.288-0.684 0.288-1.068 0-0.512-0.144-0.928-0.432-1.248-0.28-0.32-0.652-0.52-1.116-0.6-0.168-0.048-0.352-0.076-0.552-0.084-0.192-8e-3 -0.364-0.012-0.516-0.012h-3.672v3.852zm0-5.616h3.216c0.224 0 0.46-0.012 0.708-0.036 0.248-0.032 0.464-0.084 0.648-0.156 0.368-0.136 0.636-0.36 0.804-0.672 0.176-0.32 0.264-0.668 0.264-1.044 0-0.416-0.096-0.78-0.288-1.092-0.184-0.32-0.468-0.54-0.852-0.66-0.256-0.096-0.544-0.148-0.864-0.156-0.312-0.016-0.512-0.024-0.6-0.024h-3.036v3.84zm9.707 7.356v-1.836c0.48 0.088 0.844 0.072 1.092-0.048 0.256-0.128 0.444-0.348 0.564-0.66 0.128-0.32 0.232-0.72 0.312-1.2 0.136-0.76 0.252-1.608 0.348-2.544 0.104-0.936 0.196-1.96 0.276-3.072 0.088-1.12 0.168-2.32 0.24-3.6h9.06v12.96h-2.136v-10.932h-4.98c-0.048 0.736-0.108 1.492-0.18 2.268-0.064 0.776-0.132 1.532-0.204 2.268-0.072 0.728-0.152 1.408-0.24 2.04-0.08 0.624-0.168 1.164-0.264 1.62-0.152 0.784-0.364 1.412-0.636 1.884-0.272 0.464-0.664 0.764-1.176 0.9-0.512 0.144-1.204 0.128-2.076-0.048zm20.878 0.36c-1.272 0-2.384-0.28-3.336-0.84-0.944-0.568-1.68-1.356-2.208-2.364-0.528-1.016-0.792-2.2-0.792-3.552 0-1.416 0.26-2.64 0.78-3.672 0.52-1.04 1.244-1.84 2.172-2.4 0.936-0.568 2.032-0.852 3.288-0.852 1.304 0 2.412 0.3 3.324 0.9 0.92 0.6 1.608 1.456 2.064 2.568 0.464 1.112 0.664 2.436 0.6 3.972h-2.16v-0.768c-0.024-1.592-0.348-2.78-0.972-3.564-0.624-0.792-1.552-1.188-2.784-1.188-1.32 0-2.324 0.424-3.012 1.272s-1.032 2.064-1.032 3.648c0 1.528 0.344 2.712 1.032 3.552s1.668 1.26 2.94 1.26c0.856 0 1.6-0.196 2.232-0.588s1.128-0.956 1.488-1.692l2.052 0.708c-0.504 1.144-1.264 2.032-2.28 2.664-1.008 0.624-2.14 0.936-3.396 0.936zm-4.788-6.24v-1.716h9.576v1.716h-9.576zm13.34 5.88v-12.96h2.136v5.46h6.816v-5.46h2.136v12.96h-2.136v-5.472h-6.816v5.472h-2.136zm25.058-12.96v12.96h-2.064v-9.552l-6.792 9.552h-1.764v-12.96h2.064v9.42l6.804-9.42h1.752zm8.976 13.32c-1.272 0-2.384-0.28-3.336-0.84-0.944-0.568-1.68-1.356-2.208-2.364-0.528-1.016-0.792-2.2-0.792-3.552 0-1.416 0.26-2.64 0.78-3.672 0.52-1.04 1.244-1.84 2.172-2.4 0.936-0.568 2.032-0.852 3.288-0.852 1.304 0 2.412 0.3 3.324 0.9 0.92 0.6 1.608 1.456 2.064 2.568 0.464 1.112 0.664 2.436 0.6 3.972h-2.16v-0.768c-0.024-1.592-0.348-2.78-0.972-3.564-0.624-0.792-1.552-1.188-2.784-1.188-1.32 0-2.324 0.424-3.012 1.272s-1.032 2.064-1.032 3.648c0 1.528 0.344 2.712 1.032 3.552s1.668 1.26 2.94 1.26c0.856 0 1.6-0.196 2.232-0.588s1.128-0.956 1.488-1.692l2.052 0.708c-0.504 1.144-1.264 2.032-2.28 2.664-1.008 0.624-2.14 0.936-3.396 0.936zm-4.788-6.24v-1.716h9.576v1.716h-9.576z" fill="#fff"/>
<path d="m3.555 236 1.204-2.499-3.549-7.581h1.393l2.807 6.251 2.87-6.251h1.33l-4.704 10.08h-1.351zm10.128 0.21c-0.7094 0-1.3067-0.175-1.792-0.525-0.4854-0.355-0.854-0.833-1.106-1.435-0.2474-0.607-0.371-1.286-0.371-2.037 0-0.761 0.1236-1.442 0.371-2.044 0.252-0.602 0.6206-1.076 1.106-1.421 0.49-0.345 1.0896-0.518 1.799-0.518 0.7 0 1.302 0.175 1.806 0.525 0.5086 0.345 0.8983 0.819 1.169 1.421 0.2706 0.602 0.406 1.281 0.406 2.037s-0.1354 1.435-0.406 2.037c-0.2707 0.602-0.6604 1.08-1.169 1.435-0.504 0.35-1.1084 0.525-1.813 0.525zm-3.479 3.15v-10.92h1.113v5.565h0.14v5.355h-1.253zm3.325-4.291c0.4993 0 0.9123-0.126 1.239-0.378 0.3266-0.252 0.5716-0.593 0.735-1.022 0.1633-0.434 0.245-0.919 0.245-1.456 0-0.532-0.0817-1.013-0.245-1.442-0.1587-0.429-0.406-0.77-0.742-1.022-0.3314-0.252-0.7537-0.378-1.267-0.378-0.49 0-0.896 0.121-1.218 0.364-0.322 0.238-0.5624 0.572-0.721 1.001-0.1587 0.425-0.238 0.917-0.238 1.477 0 0.551 0.077 1.043 0.231 1.477 0.1586 0.429 0.4013 0.768 0.728 1.015 0.3266 0.243 0.7443 0.364 1.253 0.364zm8.2965 1.141c-0.7513 0-1.4-0.17-1.946-0.511-0.5413-0.341-0.959-0.812-1.253-1.414s-0.441-1.293-0.441-2.072c0-0.793 0.1493-1.489 0.448-2.086s0.721-1.062 1.267-1.393c0.546-0.336 1.1877-0.504 1.925-0.504 0.756 0 1.407 0.17 1.953 0.511 0.546 0.336 0.9637 0.805 1.253 1.407 0.294 0.597 0.441 1.286 0.441 2.065 0 0.789-0.147 1.484-0.441 2.086-0.294 0.597-0.714 1.066-1.26 1.407-0.546 0.336-1.1947 0.504-1.946 0.504zm0-1.183c0.784 0 1.3673-0.261 1.75-0.784s0.574-1.199 0.574-2.03c0-0.854-0.1937-1.533-0.581-2.037-0.3873-0.509-0.9683-0.763-1.743-0.763-0.5273 0-0.9613 0.119-1.302 0.357s-0.595 0.567-0.763 0.987-0.252 0.905-0.252 1.456c0 0.849 0.196 1.531 0.588 2.044s0.9683 0.77 1.729 0.77zm5.1812 0.973v-7.56h3.22c0.1913 0 0.3967 0.012 0.616 0.035 0.224 0.019 0.427 0.054 0.609 0.105 0.406 0.107 0.7397 0.329 1.001 0.665 0.266 0.331 0.399 0.751 0.399 1.26 0 0.285-0.0443 0.532-0.133 0.742-0.084 0.21-0.2053 0.392-0.364 0.546-0.07 0.07-0.147 0.133-0.231 0.189s-0.168 0.1-0.252 0.133c0.1633 0.028 0.329 0.091 0.497 0.189 0.266 0.145 0.4737 0.348 0.623 0.609 0.154 0.261 0.231 0.595 0.231 1.001 0 0.513-0.1237 0.938-0.371 1.274-0.2473 0.331-0.588 0.56-1.022 0.686-0.182 0.051-0.3827 0.086-0.602 0.105-0.2193 0.014-0.4317 0.021-0.637 0.021h-3.584zm1.26-1.015h2.254c0.098 0 0.2147-9e-3 0.35-0.028 0.14-0.019 0.2637-0.042 0.371-0.07 0.2427-0.07 0.4177-0.201 0.525-0.392 0.112-0.191 0.168-0.399 0.168-0.623 0-0.299-0.084-0.541-0.252-0.728-0.1633-0.187-0.3803-0.303-0.651-0.35-0.098-0.028-0.2053-0.044-0.322-0.049-0.112-5e-3 -0.2123-7e-3 -0.301-7e-3h-2.142v2.247zm0-3.276h1.876c0.1307 0 0.2683-7e-3 0.413-0.021 0.1447-0.019 0.2707-0.049 0.378-0.091 0.2147-0.079 0.371-0.21 0.469-0.392 0.1027-0.187 0.154-0.39 0.154-0.609 0-0.243-0.056-0.455-0.168-0.637-0.1073-0.187-0.273-0.315-0.497-0.385-0.1493-0.056-0.3173-0.086-0.504-0.091-0.182-9e-3 -0.2987-0.014-0.35-0.014h-1.771v2.24zm9.6382 4.501c-0.742 0-1.3906-0.163-1.946-0.49-0.5506-0.331-0.98-0.791-1.288-1.379-0.308-0.593-0.462-1.283-0.462-2.072 0-0.826 0.1517-1.54 0.455-2.142 0.3034-0.607 0.7257-1.073 1.267-1.4 0.546-0.331 1.1854-0.497 1.918-0.497 0.7607 0 1.407 0.175 1.939 0.525 0.5367 0.35 0.938 0.849 1.204 1.498 0.2707 0.649 0.3874 1.421 0.35 2.317h-1.26v-0.448c-0.014-0.929-0.203-1.622-0.567-2.079-0.364-0.462-0.9053-0.693-1.624-0.693-0.77 0-1.3556 0.247-1.757 0.742-0.4013 0.495-0.602 1.204-0.602 2.128 0 0.891 0.2007 1.582 0.602 2.072 0.4014 0.49 0.973 0.735 1.715 0.735 0.4994 0 0.9334-0.114 1.302-0.343 0.3687-0.229 0.658-0.558 0.868-0.987l1.197 0.413c-0.294 0.667-0.7373 1.185-1.33 1.554-0.588 0.364-1.2483 0.546-1.981 0.546zm-2.793-3.64v-1.001h5.586v1.001h-5.586zm7.7815 3.43v-7.56h1.246v3.185h3.976v-3.185h1.246v7.56h-1.246v-3.192h-3.976v3.192h-1.246zm8.4289 0-7e-3 -7.56h1.253v2.737h1.631c0.2193 0 0.4433 5e-3 0.672 0.014s0.427 0.03 0.595 0.063c0.392 0.075 0.735 0.205 1.029 0.392s0.5227 0.441 0.686 0.763c0.1633 0.317 0.245 0.712 0.245 1.183 0 0.653-0.1703 1.171-0.511 1.554-0.336 0.378-0.777 0.63-1.323 0.756-0.1867 0.042-0.4013 0.07-0.644 0.084-0.238 9e-3 -0.4643 0.014-0.679 0.014h-2.947zm1.246-1.029h1.722c0.14 0 0.2963-5e-3 0.469-0.014s0.3267-0.033 0.462-0.07c0.238-0.07 0.4503-0.208 0.637-0.413 0.1913-0.205 0.287-0.499 0.287-0.882 0-0.387-0.0933-0.686-0.28-0.896-0.182-0.21-0.4223-0.348-0.721-0.413-0.1353-0.033-0.2777-0.054-0.427-0.063s-0.2917-0.014-0.427-0.014h-1.722v2.765zm13.343 1.239c-1.0033 0-1.855-0.222-2.555-0.665s-1.2343-1.059-1.603-1.848c-0.364-0.789-0.546-1.701-0.546-2.737s0.182-1.948 0.546-2.737c0.3687-0.789 0.903-1.405 1.603-1.848s1.5517-0.665 2.555-0.665c1.1667 0 2.1257 0.296 2.877 0.889 0.756 0.593 1.2763 1.391 1.561 2.394l-1.267 0.336c-0.2053-0.751-0.5717-1.344-1.099-1.778s-1.218-0.651-2.072-0.651c-0.7513 0-1.3767 0.17-1.876 0.511s-0.875 0.817-1.127 1.428c-0.252 0.607-0.3803 1.314-0.385 2.121-0.0047 0.803 0.119 1.51 0.371 2.121 0.252 0.607 0.63 1.083 1.134 1.428 0.504 0.341 1.1317 0.511 1.883 0.511 0.854 0 1.5447-0.217 2.072-0.651 0.5273-0.439 0.8937-1.031 1.099-1.778l1.267 0.336c-0.2847 0.999-0.805 1.797-1.561 2.394-0.7513 0.593-1.7103 0.889-2.877 0.889zm9.1932 0c-0.7513 0-1.4-0.17-1.946-0.511-0.5413-0.341-0.959-0.812-1.253-1.414s-0.441-1.293-0.441-2.072c0-0.793 0.1493-1.489 0.448-2.086s0.721-1.062 1.267-1.393c0.546-0.336 1.1877-0.504 1.925-0.504 0.756 0 1.407 0.17 1.953 0.511 0.546 0.336 0.9637 0.805 1.253 1.407 0.294 0.597 0.441 1.286 0.441 2.065 0 0.789-0.147 1.484-0.441 2.086-0.294 0.597-0.714 1.066-1.26 1.407-0.546 0.336-1.1947 0.504-1.946 0.504zm0-1.183c0.784 0 1.3673-0.261 1.75-0.784s0.574-1.199 0.574-2.03c0-0.854-0.1937-1.533-0.581-2.037-0.3873-0.509-0.9683-0.763-1.743-0.763-0.5273 0-0.9613 0.119-1.302 0.357s-0.595 0.567-0.763 0.987-0.252 0.905-0.252 1.456c0 0.849 0.196 1.531 0.588 2.044s0.9683 0.77 1.729 0.77zm5.1812 0.973v-7.56h3.22c0.1913 0 0.3967 0.012 0.616 0.035 0.224 0.019 0.427 0.054 0.609 0.105 0.406 0.107 0.7397 0.329 1.001 0.665 0.266 0.331 0.399 0.751 0.399 1.26 0 0.285-0.0443 0.532-0.133 0.742-0.084 0.21-0.2053 0.392-0.364 0.546-0.07 0.07-0.147 0.133-0.231 0.189s-0.168 0.1-0.252 0.133c0.1633 0.028 0.329 0.091 0.497 0.189 0.266 0.145 0.4737 0.348 0.623 0.609 0.154 0.261 0.231 0.595 0.231 1.001 0 0.513-0.1237 0.938-0.371 1.274-0.2473 0.331-0.588 0.56-1.022 0.686-0.182 0.051-0.3827 0.086-0.602 0.105-0.2193 0.014-0.4317 0.021-0.637 0.021h-3.584zm1.26-1.015h2.254c0.098 0 0.2147-9e-3 0.35-0.028 0.14-0.019 0.2637-0.042 0.371-0.07 0.2427-0.07 0.4177-0.201 0.525-0.392 0.112-0.191 0.168-0.399 0.168-0.623 0-0.299-0.084-0.541-0.252-0.728-0.1633-0.187-0.3803-0.303-0.651-0.35-0.098-0.028-0.2053-0.044-0.322-0.049-0.112-5e-3 -0.2123-7e-3 -0.301-7e-3h-2.142v2.247zm0-3.276h1.876c0.1307 0 0.2683-7e-3 0.413-0.021 0.1447-0.019 0.2707-0.049 0.378-0.091 0.2147-0.079 0.371-0.21 0.469-0.392 0.1027-0.187 0.154-0.39 0.154-0.609 0-0.243-0.056-0.455-0.168-0.637-0.1073-0.187-0.273-0.315-0.497-0.385-0.1493-0.056-0.3173-0.086-0.504-0.091-0.182-9e-3 -0.2987-0.014-0.35-0.014h-1.771v2.24zm9.6382 4.501c-0.742 0-1.3906-0.163-1.946-0.49-0.5506-0.331-0.98-0.791-1.288-1.379-0.308-0.593-0.462-1.283-0.462-2.072 0-0.826 0.1517-1.54 0.455-2.142 0.3034-0.607 0.7257-1.073 1.267-1.4 0.546-0.331 1.1854-0.497 1.918-0.497 0.7607 0 1.407 0.175 1.939 0.525 0.5367 0.35 0.938 0.849 1.204 1.498 0.2707 0.649 0.3874 1.421 0.35 2.317h-1.26v-0.448c-0.014-0.929-0.203-1.622-0.567-2.079-0.364-0.462-0.9053-0.693-1.624-0.693-0.77 0-1.3556 0.247-1.757 0.742-0.4013 0.495-0.602 1.204-0.602 2.128 0 0.891 0.2007 1.582 0.602 2.072 0.4014 0.49 0.973 0.735 1.715 0.735 0.4994 0 0.9334-0.114 1.302-0.343 0.3687-0.229 0.658-0.558 0.868-0.987l1.197 0.413c-0.294 0.667-0.7373 1.185-1.33 1.554-0.588 0.364-1.2483 0.546-1.981 0.546zm-2.793-3.64v-1.001h5.586v1.001h-5.586zm9.6538 3.43v-6.426h-2.632v-1.134h6.5105v1.134h-2.6325v6.426h-1.246zm7.1055 0.21c-0.564 0-1.038-0.103-1.421-0.308-0.378-0.21-0.665-0.485-0.861-0.826-0.191-0.341-0.287-0.714-0.287-1.12 0-0.397 0.075-0.74 0.224-1.029 0.154-0.294 0.369-0.537 0.644-0.728 0.276-0.196 0.605-0.35 0.987-0.462 0.36-0.098 0.761-0.182 1.204-0.252 0.448-0.075 0.901-0.142 1.358-0.203 0.458-0.061 0.885-0.119 1.281-0.175l-0.448 0.259c0.014-0.672-0.121-1.169-0.406-1.491-0.28-0.322-0.765-0.483-1.456-0.483-0.457 0-0.858 0.105-1.204 0.315-0.34 0.205-0.581 0.541-0.721 1.008l-1.183-0.357c0.182-0.663 0.535-1.183 1.057-1.561 0.523-0.378 1.211-0.567 2.065-0.567 0.686 0 1.274 0.124 1.764 0.371 0.495 0.243 0.85 0.611 1.064 1.106 0.108 0.233 0.175 0.488 0.203 0.763 0.028 0.271 0.042 0.555 0.042 0.854v4.676h-1.106v-1.813l0.259 0.168c-0.284 0.611-0.683 1.073-1.197 1.386-0.508 0.313-1.129 0.469-1.862 0.469zm0.189-1.043c0.448 0 0.836-0.079 1.162-0.238 0.332-0.163 0.598-0.376 0.798-0.637 0.201-0.266 0.332-0.555 0.392-0.868 0.07-0.233 0.108-0.492 0.112-0.777 0.01-0.289 0.014-0.511 0.014-0.665l0.434 0.189c-0.406 0.056-0.805 0.11-1.197 0.161s-0.763 0.107-1.113 0.168c-0.35 0.056-0.665 0.124-0.945 0.203-0.205 0.065-0.399 0.149-0.581 0.252-0.177 0.103-0.322 0.236-0.434 0.399-0.107 0.159-0.161 0.357-0.161 0.595 0 0.205 0.052 0.401 0.154 0.588 0.108 0.187 0.271 0.338 0.49 0.455 0.224 0.117 0.516 0.175 0.875 0.175zm7.78 2.513v-2.709c0.425 0 0.728-0.138 0.91-0.413 0.182-0.28 0.329-0.74 0.441-1.379 0.075-0.401 0.136-0.831 0.182-1.288 0.047-0.457 0.087-0.966 0.119-1.526 0.038-0.565 0.073-1.206 0.105-1.925h5.208v6.531h0.735v2.709h-1.19v-1.68h-5.32v1.68h-1.19zm1.918-2.709h3.801v-5.502h-2.835c-0.014 0.331-0.032 0.679-0.056 1.043-0.023 0.359-0.051 0.719-0.084 1.078-0.028 0.359-0.063 0.7-0.105 1.022-0.037 0.317-0.081 0.602-0.133 0.854-0.06 0.35-0.13 0.646-0.21 0.889-0.079 0.243-0.205 0.448-0.378 0.616zm13.375-6.531v7.56h-1.204v-5.572l-3.962 5.572h-1.029v-7.56h1.204v5.495l3.969-5.495h1.022zm5.433 7.77c-0.71 0-1.307-0.175-1.792-0.525-0.486-0.355-0.854-0.833-1.106-1.435-0.248-0.607-0.371-1.286-0.371-2.037 0-0.761 0.123-1.442 0.371-2.044 0.252-0.602 0.62-1.076 1.106-1.421 0.49-0.345 1.089-0.518 1.799-0.518 0.7 0 1.302 0.175 1.806 0.525 0.508 0.345 0.898 0.819 1.169 1.421 0.27 0.602 0.406 1.281 0.406 2.037s-0.136 1.435-0.406 2.037c-0.271 0.602-0.661 1.08-1.169 1.435-0.504 0.35-1.109 0.525-1.813 0.525zm-3.479 3.15v-10.92h1.113v5.565h0.14v5.355h-1.253zm3.325-4.291c0.499 0 0.912-0.126 1.239-0.378 0.326-0.252 0.571-0.593 0.735-1.022 0.163-0.434 0.245-0.919 0.245-1.456 0-0.532-0.082-1.013-0.245-1.442-0.159-0.429-0.406-0.77-0.742-1.022-0.332-0.252-0.754-0.378-1.267-0.378-0.49 0-0.896 0.121-1.218 0.364-0.322 0.238-0.563 0.572-0.721 1.001-0.159 0.425-0.238 0.917-0.238 1.477 0 0.551 0.077 1.043 0.231 1.477 0.158 0.429 0.401 0.768 0.728 1.015 0.326 0.243 0.744 0.364 1.253 0.364zm8.352 1.141c-0.742 0-1.391-0.163-1.946-0.49-0.551-0.331-0.98-0.791-1.288-1.379-0.308-0.593-0.462-1.283-0.462-2.072 0-0.826 0.152-1.54 0.455-2.142 0.303-0.607 0.726-1.073 1.267-1.4 0.546-0.331 1.185-0.497 1.918-0.497 0.761 0 1.407 0.175 1.939 0.525 0.537 0.35 0.938 0.849 1.204 1.498 0.271 0.649 0.387 1.421 0.35 2.317h-1.26v-0.448c-0.014-0.929-0.203-1.622-0.567-2.079-0.364-0.462-0.905-0.693-1.624-0.693-0.77 0-1.356 0.247-1.757 0.742s-0.602 1.204-0.602 2.128c0 0.891 0.201 1.582 0.602 2.072s0.973 0.735 1.715 0.735c0.499 0 0.933-0.114 1.302-0.343s0.658-0.558 0.868-0.987l1.197 0.413c-0.294 0.667-0.737 1.185-1.33 1.554-0.588 0.364-1.248 0.546-1.981 0.546zm-2.793-3.64v-1.001h5.586v1.001h-5.586zm7.782 3.43 7e-3 -7.56h1.26v3.64l3.171-3.64h1.617l-3.339 3.78 3.731 3.78h-1.743l-3.437-3.64v3.64h-1.267zm9.145 0v-6.426h-2.632v-1.134h6.51v1.134h-2.632v6.426h-1.246zm8.287 0.21c-0.752 0-1.4-0.17-1.946-0.511-0.542-0.341-0.959-0.812-1.253-1.414s-0.441-1.293-0.441-2.072c0-0.793 0.149-1.489 0.448-2.086 0.298-0.597 0.721-1.062 1.267-1.393 0.546-0.336 1.187-0.504 1.925-0.504 0.756 0 1.407 0.17 1.953 0.511 0.546 0.336 0.963 0.805 1.253 1.407 0.294 0.597 0.441 1.286 0.441 2.065 0 0.789-0.147 1.484-0.441 2.086-0.294 0.597-0.714 1.066-1.26 1.407-0.546 0.336-1.195 0.504-1.946 0.504zm0-1.183c0.784 0 1.367-0.261 1.75-0.784 0.382-0.523 0.574-1.199 0.574-2.03 0-0.854-0.194-1.533-0.581-2.037-0.388-0.509-0.969-0.763-1.743-0.763-0.528 0-0.962 0.119-1.302 0.357-0.341 0.238-0.595 0.567-0.763 0.987s-0.252 0.905-0.252 1.456c0 0.849 0.196 1.531 0.588 2.044s0.968 0.77 1.729 0.77zm8.66 1.183c-0.709 0-1.307-0.175-1.792-0.525-0.485-0.355-0.854-0.833-1.106-1.435-0.247-0.607-0.371-1.286-0.371-2.037 0-0.761 0.124-1.442 0.371-2.044 0.252-0.602 0.621-1.076 1.106-1.421 0.49-0.345 1.09-0.518 1.799-0.518 0.7 0 1.302 0.175 1.806 0.525 0.509 0.345 0.898 0.819 1.169 1.421s0.406 1.281 0.406 2.037-0.135 1.435-0.406 2.037-0.66 1.08-1.169 1.435c-0.504 0.35-1.108 0.525-1.813 0.525zm-3.479 3.15v-10.92h1.113v5.565h0.14v5.355h-1.253zm3.325-4.291c0.499 0 0.912-0.126 1.239-0.378s0.572-0.593 0.735-1.022c0.163-0.434 0.245-0.919 0.245-1.456 0-0.532-0.082-1.013-0.245-1.442-0.159-0.429-0.406-0.77-0.742-1.022-0.331-0.252-0.754-0.378-1.267-0.378-0.49 0-0.896 0.121-1.218 0.364-0.322 0.238-0.562 0.572-0.721 1.001-0.159 0.425-0.238 0.917-0.238 1.477 0 0.551 0.077 1.043 0.231 1.477 0.159 0.429 0.401 0.768 0.728 1.015 0.327 0.243 0.744 0.364 1.253 0.364zm8.296 1.141c-0.751 0-1.4-0.17-1.946-0.511-0.541-0.341-0.959-0.812-1.253-1.414s-0.441-1.293-0.441-2.072c0-0.793 0.15-1.489 0.448-2.086 0.299-0.597 0.721-1.062 1.267-1.393 0.546-0.336 1.188-0.504 1.925-0.504 0.756 0 1.407 0.17 1.953 0.511 0.546 0.336 0.964 0.805 1.253 1.407 0.294 0.597 0.441 1.286 0.441 2.065 0 0.789-0.147 1.484-0.441 2.086-0.294 0.597-0.714 1.066-1.26 1.407-0.546 0.336-1.194 0.504-1.946 0.504zm0-1.183c0.784 0 1.368-0.261 1.75-0.784 0.383-0.523 0.574-1.199 0.574-2.03 0-0.854-0.193-1.533-0.581-2.037-0.387-0.509-0.968-0.763-1.743-0.763-0.527 0-0.961 0.119-1.302 0.357-0.34 0.238-0.595 0.567-0.763 0.987s-0.252 0.905-0.252 1.456c0 0.849 0.196 1.531 0.588 2.044s0.969 0.77 1.729 0.77zm5.182 0.973v-7.56h3.22c0.191 0 0.396 0.012 0.616 0.035 0.224 0.019 0.427 0.054 0.609 0.105 0.406 0.107 0.739 0.329 1.001 0.665 0.266 0.331 0.399 0.751 0.399 1.26 0 0.285-0.045 0.532-0.133 0.742-0.084 0.21-0.206 0.392-0.364 0.546-0.07 0.07-0.147 0.133-0.231 0.189s-0.168 0.1-0.252 0.133c0.163 0.028 0.329 0.091 0.497 0.189 0.266 0.145 0.473 0.348 0.623 0.609 0.154 0.261 0.231 0.595 0.231 1.001 0 0.513-0.124 0.938-0.371 1.274-0.248 0.331-0.588 0.56-1.022 0.686-0.182 0.051-0.383 0.086-0.602 0.105-0.22 0.014-0.432 0.021-0.637 0.021h-3.584zm1.26-1.015h2.254c0.098 0 0.214-9e-3 0.35-0.028 0.14-0.019 0.263-0.042 0.371-0.07 0.242-0.07 0.417-0.201 0.525-0.392 0.112-0.191 0.168-0.399 0.168-0.623 0-0.299-0.084-0.541-0.252-0.728-0.164-0.187-0.381-0.303-0.651-0.35-0.098-0.028-0.206-0.044-0.322-0.049-0.112-5e-3 -0.213-7e-3 -0.301-7e-3h-2.142v2.247zm0-3.276h1.876c0.13 0 0.268-7e-3 0.413-0.021 0.144-0.019 0.27-0.049 0.378-0.091 0.214-0.079 0.371-0.21 0.469-0.392 0.102-0.187 0.154-0.39 0.154-0.609 0-0.243-0.056-0.455-0.168-0.637-0.108-0.187-0.273-0.315-0.497-0.385-0.15-0.056-0.318-0.086-0.504-0.091-0.182-9e-3 -0.299-0.014-0.35-0.014h-1.771v2.24z" fill="#000"/>
<path d="m3.555 483 1.204-2.499-3.549-7.581h1.393l2.807 6.251 2.87-6.251h1.33l-4.704 10.08h-1.351zm10.128 0.21c-0.7094 0-1.3067-0.175-1.792-0.525-0.4854-0.355-0.854-0.833-1.106-1.435-0.2474-0.607-0.371-1.286-0.371-2.037 0-0.761 0.1236-1.442 0.371-2.044 0.252-0.602 0.6206-1.076 1.106-1.421 0.49-0.345 1.0896-0.518 1.799-0.518 0.7 0 1.302 0.175 1.806 0.525 0.5086 0.345 0.8983 0.819 1.169 1.421 0.2706 0.602 0.406 1.281 0.406 2.037s-0.1354 1.435-0.406 2.037c-0.2707 0.602-0.6604 1.08-1.169 1.435-0.504 0.35-1.1084 0.525-1.813 0.525zm-3.479 3.15v-10.92h1.113v5.565h0.14v5.355h-1.253zm3.325-4.291c0.4993 0 0.9123-0.126 1.239-0.378 0.3266-0.252 0.5716-0.593 0.735-1.022 0.1633-0.434 0.245-0.919 0.245-1.456 0-0.532-0.0817-1.013-0.245-1.442-0.1587-0.429-0.406-0.77-0.742-1.022-0.3314-0.252-0.7537-0.378-1.267-0.378-0.49 0-0.896 0.121-1.218 0.364-0.322 0.238-0.5624 0.572-0.721 1.001-0.1587 0.425-0.238 0.917-0.238 1.477 0 0.551 0.077 1.043 0.231 1.477 0.1586 0.429 0.4013 0.768 0.728 1.015 0.3266 0.243 0.7443 0.364 1.253 0.364zm8.2965 1.141c-0.7513 0-1.4-0.17-1.946-0.511-0.5413-0.341-0.959-0.812-1.253-1.414s-0.441-1.293-0.441-2.072c0-0.793 0.1493-1.489 0.448-2.086s0.721-1.062 1.267-1.393c0.546-0.336 1.1877-0.504 1.925-0.504 0.756 0 1.407 0.17 1.953 0.511 0.546 0.336 0.9637 0.805 1.253 1.407 0.294 0.597 0.441 1.286 0.441 2.065 0 0.789-0.147 1.484-0.441 2.086-0.294 0.597-0.714 1.066-1.26 1.407-0.546 0.336-1.1947 0.504-1.946 0.504zm0-1.183c0.784 0 1.3673-0.261 1.75-0.784s0.574-1.199 0.574-2.03c0-0.854-0.1937-1.533-0.581-2.037-0.3873-0.509-0.9683-0.763-1.743-0.763-0.5273 0-0.9613 0.119-1.302 0.357s-0.595 0.567-0.763 0.987-0.252 0.905-0.252 1.456c0 0.849 0.196 1.531 0.588 2.044s0.9683 0.77 1.729 0.77zm5.1812 0.973v-7.56h3.22c0.1913 0 0.3967 0.012 0.616 0.035 0.224 0.019 0.427 0.054 0.609 0.105 0.406 0.107 0.7397 0.329 1.001 0.665 0.266 0.331 0.399 0.751 0.399 1.26 0 0.285-0.0443 0.532-0.133 0.742-0.084 0.21-0.2053 0.392-0.364 0.546-0.07 0.07-0.147 0.133-0.231 0.189s-0.168 0.1-0.252 0.133c0.1633 0.028 0.329 0.091 0.497 0.189 0.266 0.145 0.4737 0.348 0.623 0.609 0.154 0.261 0.231 0.595 0.231 1.001 0 0.513-0.1237 0.938-0.371 1.274-0.2473 0.331-0.588 0.56-1.022 0.686-0.182 0.051-0.3827 0.086-0.602 0.105-0.2193 0.014-0.4317 0.021-0.637 0.021h-3.584zm1.26-1.015h2.254c0.098 0 0.2147-9e-3 0.35-0.028 0.14-0.019 0.2637-0.042 0.371-0.07 0.2427-0.07 0.4177-0.201 0.525-0.392 0.112-0.191 0.168-0.399 0.168-0.623 0-0.299-0.084-0.541-0.252-0.728-0.1633-0.187-0.3803-0.303-0.651-0.35-0.098-0.028-0.2053-0.044-0.322-0.049-0.112-5e-3 -0.2123-7e-3 -0.301-7e-3h-2.142v2.247zm0-3.276h1.876c0.1307 0 0.2683-7e-3 0.413-0.021 0.1447-0.019 0.2707-0.049 0.378-0.091 0.2147-0.079 0.371-0.21 0.469-0.392 0.1027-0.187 0.154-0.39 0.154-0.609 0-0.243-0.056-0.455-0.168-0.637-0.1073-0.187-0.273-0.315-0.497-0.385-0.1493-0.056-0.3173-0.086-0.504-0.091-0.182-9e-3 -0.2987-0.014-0.35-0.014h-1.771v2.24zm9.6382 4.501c-0.742 0-1.3906-0.163-1.946-0.49-0.5506-0.331-0.98-0.791-1.288-1.379-0.308-0.593-0.462-1.283-0.462-2.072 0-0.826 0.1517-1.54 0.455-2.142 0.3034-0.607 0.7257-1.073 1.267-1.4 0.546-0.331 1.1854-0.497 1.918-0.497 0.7607 0 1.407 0.175 1.939 0.525 0.5367 0.35 0.938 0.849 1.204 1.498 0.2707 0.649 0.3874 1.421 0.35 2.317h-1.26v-0.448c-0.014-0.929-0.203-1.622-0.567-2.079-0.364-0.462-0.9053-0.693-1.624-0.693-0.77 0-1.3556 0.247-1.757 0.742-0.4013 0.495-0.602 1.204-0.602 2.128 0 0.891 0.2007 1.582 0.602 2.072 0.4014 0.49 0.973 0.735 1.715 0.735 0.4994 0 0.9334-0.114 1.302-0.343 0.3687-0.229 0.658-0.558 0.868-0.987l1.197 0.413c-0.294 0.667-0.7373 1.185-1.33 1.554-0.588 0.364-1.2483 0.546-1.981 0.546zm-2.793-3.64v-1.001h5.586v1.001h-5.586zm7.7815 3.43v-7.56h1.246v3.185h3.976v-3.185h1.246v7.56h-1.246v-3.192h-3.976v3.192h-1.246zm8.4289 0-7e-3 -7.56h1.253v2.737h1.631c0.2193 0 0.4433 5e-3 0.672 0.014s0.427 0.03 0.595 0.063c0.392 0.075 0.735 0.205 1.029 0.392s0.5227 0.441 0.686 0.763c0.1633 0.317 0.245 0.712 0.245 1.183 0 0.653-0.1703 1.171-0.511 1.554-0.336 0.378-0.777 0.63-1.323 0.756-0.1867 0.042-0.4013 0.07-0.644 0.084-0.238 9e-3 -0.4643 0.014-0.679 0.014h-2.947zm1.246-1.029h1.722c0.14 0 0.2963-5e-3 0.469-0.014s0.3267-0.033 0.462-0.07c0.238-0.07 0.4503-0.208 0.637-0.413 0.1913-0.205 0.287-0.499 0.287-0.882 0-0.387-0.0933-0.686-0.28-0.896-0.182-0.21-0.4223-0.348-0.721-0.413-0.1353-0.033-0.2777-0.054-0.427-0.063s-0.2917-0.014-0.427-0.014h-1.722v2.765zm10.249 4.389 1.463-3.976 0.021 1.176-3.304-8.12h1.309l2.59 6.531h-0.448l2.429-6.531h1.267l-4.116 10.92h-1.211zm6.4762-3.36v-7.56h6.195v7.56h-1.246v-6.377h-3.703v6.377h-1.246zm11.628 0.21c-0.7094 0-1.3067-0.175-1.792-0.525-0.4854-0.355-0.854-0.833-1.106-1.435-0.2474-0.607-0.371-1.286-0.371-2.037 0-0.761 0.1236-1.442 0.371-2.044 0.252-0.602 0.6206-1.076 1.106-1.421 0.49-0.345 1.0896-0.518 1.799-0.518 0.7 0 1.302 0.175 1.806 0.525 0.5086 0.345 0.8983 0.819 1.169 1.421 0.2706 0.602 0.406 1.281 0.406 2.037s-0.1354 1.435-0.406 2.037c-0.2707 0.602-0.6604 1.08-1.169 1.435-0.504 0.35-1.1084 0.525-1.813 0.525zm-3.479 3.15v-10.92h1.113v5.565h0.14v5.355h-1.253zm3.325-4.291c0.4993 0 0.9123-0.126 1.239-0.378 0.3266-0.252 0.5716-0.593 0.735-1.022 0.1633-0.434 0.245-0.919 0.245-1.456 0-0.532-0.0817-1.013-0.245-1.442-0.1587-0.429-0.406-0.77-0.742-1.022-0.3314-0.252-0.7537-0.378-1.267-0.378-0.49 0-0.896 0.121-1.218 0.364-0.322 0.238-0.5624 0.572-0.721 1.001-0.1587 0.425-0.238 0.917-0.238 1.477 0 0.551 0.077 1.043 0.231 1.477 0.1586 0.429 0.4013 0.768 0.728 1.015 0.3266 0.243 0.7443 0.364 1.253 0.364zm7.2255 1.141c-0.5647 0-1.0384-0.103-1.421-0.308-0.378-0.21-0.665-0.485-0.861-0.826-0.1914-0.341-0.287-0.714-0.287-1.12 0-0.397 0.0746-0.74 0.224-1.029 0.154-0.294 0.3686-0.537 0.644-0.728 0.2753-0.196 0.6043-0.35 0.987-0.462 0.3593-0.098 0.7606-0.182 1.204-0.252 0.448-0.075 0.9006-0.142 1.358-0.203 0.4573-0.061 0.8843-0.119 1.281-0.175l-0.448 0.259c0.014-0.672-0.1214-1.169-0.406-1.491-0.28-0.322-0.7654-0.483-1.456-0.483-0.4574 0-0.8587 0.105-1.204 0.315-0.3407 0.205-0.581 0.541-0.721 1.008l-1.183-0.357c0.182-0.663 0.5343-1.183 1.057-1.561 0.5226-0.378 1.211-0.567 2.065-0.567 0.686 0 1.274 0.124 1.764 0.371 0.4946 0.243 0.8493 0.611 1.064 1.106 0.1073 0.233 0.175 0.488 0.203 0.763 0.028 0.271 0.042 0.555 0.042 0.854v4.676h-1.106v-1.813l0.259 0.168c-0.2847 0.611-0.6837 1.073-1.197 1.386-0.5087 0.313-1.1294 0.469-1.862 0.469zm0.189-1.043c0.448 0 0.8353-0.079 1.162-0.238 0.3313-0.163 0.5973-0.376 0.798-0.637 0.2006-0.266 0.3313-0.555 0.392-0.868 0.07-0.233 0.1073-0.492 0.112-0.777 0.0093-0.289 0.014-0.511 0.014-0.665l0.434 0.189c-0.406 0.056-0.805 0.11-1.197 0.161s-0.763 0.107-1.113 0.168c-0.35 0.056-0.665 0.124-0.945 0.203-0.2054 0.065-0.399 0.149-0.581 0.252-0.1774 0.103-0.322 0.236-0.434 0.399-0.1074 0.159-0.161 0.357-0.161 0.595 0 0.205 0.0513 0.401 0.154 0.588 0.1073 0.187 0.2706 0.338 0.49 0.455 0.224 0.117 0.5156 0.175 0.875 0.175zm5.53 0.833v-7.56h3.22c0.1913 0 0.3966 0.012 0.616 0.035 0.224 0.019 0.427 0.054 0.609 0.105 0.406 0.107 0.7396 0.329 1.001 0.665 0.266 0.331 0.399 0.751 0.399 1.26 0 0.285-0.0444 0.532-0.133 0.742-0.084 0.21-0.2054 0.392-0.364 0.546-0.07 0.07-0.147 0.133-0.231 0.189s-0.168 0.1-0.252 0.133c0.1633 0.028 0.329 0.091 0.497 0.189 0.266 0.145 0.4736 0.348 0.623 0.609 0.154 0.261 0.231 0.595 0.231 1.001 0 0.513-0.1237 0.938-0.371 1.274-0.2474 0.331-0.588 0.56-1.022 0.686-0.182 0.051-0.3827 0.086-0.602 0.105-0.2194 0.014-0.4317 0.021-0.637 0.021h-3.584zm1.26-1.015h2.254c0.098 0 0.2146-9e-3 0.35-0.028 0.14-0.019 0.2636-0.042 0.371-0.07 0.2426-0.07 0.4176-0.201 0.525-0.392 0.112-0.191 0.168-0.399 0.168-0.623 0-0.299-0.084-0.541-0.252-0.728-0.1634-0.187-0.3804-0.303-0.651-0.35-0.098-0.028-0.2054-0.044-0.322-0.049-0.112-5e-3 -0.2124-7e-3 -0.301-7e-3h-2.142v2.247zm0-3.276h1.876c0.1306 0 0.2683-7e-3 0.413-0.021 0.1446-0.019 0.2706-0.049 0.378-0.091 0.2146-0.079 0.371-0.21 0.469-0.392 0.1026-0.187 0.154-0.39 0.154-0.609 0-0.243-0.056-0.455-0.168-0.637-0.1074-0.187-0.273-0.315-0.497-0.385-0.1494-0.056-0.3174-0.086-0.504-0.091-0.182-9e-3 -0.2987-0.014-0.35-0.014h-1.771v2.24zm5.6627 4.291v-1.071c0.28 0.051 0.492 0.042 0.637-0.028 0.149-0.075 0.259-0.203 0.329-0.385 0.074-0.187 0.135-0.42 0.182-0.7 0.079-0.443 0.147-0.938 0.203-1.484 0.06-0.546 0.114-1.143 0.161-1.792 0.051-0.653 0.098-1.353 0.14-2.1h5.285v7.56h-1.246v-6.377h-2.905c-0.028 0.429-0.063 0.87-0.105 1.323-0.038 0.453-0.077 0.894-0.119 1.323-0.042 0.425-0.089 0.821-0.14 1.19-0.047 0.364-0.098 0.679-0.154 0.945-0.089 0.457-0.213 0.824-0.371 1.099-0.159 0.271-0.388 0.446-0.686 0.525-0.299 0.084-0.703 0.075-1.211-0.028zm12.179 0.21c-0.742 0-1.391-0.163-1.946-0.49-0.551-0.331-0.98-0.791-1.288-1.379-0.308-0.593-0.462-1.283-0.462-2.072 0-0.826 0.151-1.54 0.455-2.142 0.303-0.607 0.725-1.073 1.267-1.4 0.546-0.331 1.185-0.497 1.918-0.497 0.76 0 1.407 0.175 1.939 0.525 0.536 0.35 0.938 0.849 1.204 1.498 0.27 0.649 0.387 1.421 0.35 2.317h-1.26v-0.448c-0.014-0.929-0.203-1.622-0.567-2.079-0.364-0.462-0.906-0.693-1.624-0.693-0.77 0-1.356 0.247-1.757 0.742-0.402 0.495-0.602 1.204-0.602 2.128 0 0.891 0.2 1.582 0.602 2.072 0.401 0.49 0.973 0.735 1.715 0.735 0.499 0 0.933-0.114 1.302-0.343 0.368-0.229 0.658-0.558 0.868-0.987l1.197 0.413c-0.294 0.667-0.738 1.185-1.33 1.554-0.588 0.364-1.249 0.546-1.981 0.546zm-2.793-3.64v-1.001h5.586v1.001h-5.586zm7.781 3.43v-7.56h1.246v3.185h3.976v-3.185h1.246v7.56h-1.246v-3.192h-3.976v3.192h-1.246zm14.617-7.56v7.56h-1.204v-5.572l-3.962 5.572h-1.029v-7.56h1.204v5.495l3.969-5.495h1.022zm6.629 7.56v-2.737h-1.631c-0.191 0-0.403-7e-3 -0.637-0.021-0.228-0.019-0.443-0.044-0.644-0.077-0.546-0.103-1.008-0.343-1.386-0.721-0.373-0.378-0.56-0.901-0.56-1.568 0-0.649 0.175-1.169 0.525-1.561 0.355-0.397 0.791-0.653 1.309-0.77 0.234-0.056 0.469-0.086 0.707-0.091 0.243-9e-3 0.448-0.014 0.616-0.014h2.947l7e-3 7.56h-1.253zm-5.089 0 2.009-3.08h1.344l-2.009 3.08h-1.344zm3.367-3.766h1.722v-2.765h-1.722c-0.107 0-0.249 5e-3 -0.427 0.014-0.172 9e-3 -0.338 0.037-0.497 0.084-0.149 0.042-0.296 0.119-0.441 0.231-0.14 0.112-0.256 0.257-0.35 0.434-0.093 0.177-0.14 0.387-0.14 0.63 0 0.35 0.098 0.635 0.294 0.854 0.196 0.215 0.434 0.359 0.714 0.434 0.154 0.037 0.306 0.061 0.455 0.07 0.154 9e-3 0.285 0.014 0.392 0.014z" fill="#000"/>
</svg>
