<svg xmlns="http://www.w3.org/2000/svg" width="329" height="753" fill="none" viewBox="0 0 329 753">
  <path stroke="#000" stroke-linecap="round" stroke-width="2" d="M327 297v193H1v83h266.163M1 290v117h268.5"/>
  <path stroke="#000" d="M0 1h328M0 613h328M0 181h328" opacity=".6"/>
  <path fill="#000" d="M2.555 32l1.204-2.499L.21 21.92h1.393l2.807 6.251 2.87-6.251h1.33L3.906 32H2.555zm10.127.21c-.709 0-1.306-.175-1.792-.525-.485-.355-.854-.833-1.106-1.435-.247-.607-.37-1.286-.37-2.037 0-.76.123-1.442.37-2.044.252-.602.621-1.076 1.106-1.421.49-.345 1.09-.518 1.8-.518.7 0 1.302.175 1.806.525.508.345.898.819 1.168 1.421.271.602.406 1.281.406 2.037s-.135 1.435-.405 2.037c-.271.602-.66 1.08-1.17 1.435-.503.35-1.108.525-1.813.525zm-3.479 3.15V24.44h1.114v5.565h.14v5.355H9.203zm3.325-4.291c.5 0 .913-.126 1.24-.378a2.28 2.28 0 00.734-1.022c.164-.434.245-.92.245-1.456a4.03 4.03 0 00-.245-1.442 2.192 2.192 0 00-.742-1.022c-.33-.252-.753-.378-1.267-.378-.49 0-.896.121-1.218.364-.322.238-.562.572-.72 1.001-.16.425-.239.917-.239 1.477a4.4 4.4 0 00.231 1.477c.16.43.402.768.728 1.015.327.243.745.364 1.253.364zm8.297 1.141c-.751 0-1.4-.17-1.946-.511a3.387 3.387 0 01-1.253-1.414c-.294-.602-.441-1.293-.441-2.072 0-.793.15-1.489.448-2.086a3.333 3.333 0 011.267-1.393c.546-.336 1.188-.504 1.925-.504.756 0 1.407.17 1.953.511.546.336.964.805 1.253 1.407.294.597.441 1.286.441 2.065 0 .789-.147 1.484-.441 2.086a3.38 3.38 0 01-1.26 1.407c-.546.336-1.195.504-1.946.504zm0-1.183c.784 0 1.367-.261 1.75-.784s.574-1.2.574-2.03c0-.854-.194-1.533-.581-2.037-.387-.509-.968-.763-1.743-.763-.527 0-.961.119-1.302.357-.34.238-.595.567-.763.987-.168.42-.252.905-.252 1.456 0 .85.196 1.53.588 2.044.392.513.968.77 1.729.77zm5.181.973v-7.56h3.22c.192 0 .397.012.616.035.224.019.427.054.61.105.405.107.739.329 1 .665.266.331.4.751.4 1.26 0 .285-.045.532-.134.742-.084.21-.205.392-.364.546a1.51 1.51 0 01-.483.322c.164.028.33.091.497.189.266.145.474.348.623.609.154.261.231.595.231 1.001 0 .513-.123.938-.37 1.274a1.89 1.89 0 01-1.023.686 3.234 3.234 0 01-.602.105c-.22.014-.431.021-.637.021h-3.584zm1.26-1.015h2.254c.098 0 .215-.01.35-.028.14-.019.264-.042.371-.07.243-.07.418-.2.525-.392.112-.191.168-.399.168-.623 0-.299-.084-.541-.252-.728a1.077 1.077 0 00-.65-.35 1.371 1.371 0 00-.323-.049 7.245 7.245 0 00-.3-.007h-2.143v2.247zm0-3.276h1.876c.13 0 .268-.007.413-.021.145-.019.27-.049.378-.091a.839.839 0 00.47-.392c.102-.187.153-.39.153-.609a1.19 1.19 0 00-.168-.637.835.835 0 00-.497-.385 1.539 1.539 0 00-.504-.091 9.262 9.262 0 00-.35-.014h-1.77v2.24zm9.638 4.501c-.742 0-1.39-.163-1.946-.49a3.433 3.433 0 01-1.288-1.379c-.308-.593-.462-1.283-.462-2.072 0-.826.152-1.54.455-2.142a3.33 3.33 0 011.267-1.4c.546-.331 1.186-.497 1.918-.497.761 0 1.407.175 1.94.525.536.35.937.85 1.203 1.498.271.649.388 1.421.35 2.317h-1.26v-.448c-.014-.929-.203-1.622-.567-2.079-.364-.462-.905-.693-1.624-.693-.77 0-1.355.247-1.757.742-.4.495-.602 1.204-.602 2.128 0 .891.201 1.582.602 2.072.402.49.973.735 1.715.735.5 0 .934-.114 1.302-.343.37-.229.658-.558.868-.987l1.197.413a3.39 3.39 0 01-1.33 1.554 3.687 3.687 0 01-1.98.546zm-2.793-3.64v-1.001h5.586v1.001h-5.586zM41.893 32v-7.56h1.246v3.185h3.976V24.44h1.246V32h-1.246v-3.192h-3.976V32h-1.246zm8.429 0l-.007-7.56h1.253v2.737h1.63c.22 0 .444.005.673.014.228.01.427.03.595.063.392.075.735.205 1.029.392.294.187.523.441.686.763.163.317.245.712.245 1.183 0 .653-.17 1.171-.511 1.554-.336.378-.777.63-1.323.756-.187.042-.401.07-.644.084-.238.01-.465.014-.68.014h-2.946zm1.246-1.029h1.722c.14 0 .296-.005.469-.014.172-.01.327-.033.462-.07.238-.07.45-.208.637-.413.191-.205.287-.5.287-.882 0-.387-.094-.686-.28-.896a1.287 1.287 0 00-.721-.413 2.469 2.469 0 00-.427-.063 6.883 6.883 0 00-.427-.014h-1.722v2.765zm11.348 1.239c-.565 0-1.038-.103-1.42-.308a2.194 2.194 0 01-.862-.826 2.249 2.249 0 01-.287-1.12c0-.397.075-.74.224-1.029.154-.294.369-.537.644-.728.275-.196.604-.35.987-.462.36-.098.76-.182 1.204-.252.448-.075.9-.142 1.358-.203.457-.06.884-.119 1.281-.175l-.448.259c.014-.672-.121-1.169-.406-1.491-.28-.322-.765-.483-1.456-.483-.457 0-.859.105-1.204.315-.34.205-.58.541-.72 1.008l-1.184-.357c.182-.663.534-1.183 1.057-1.561.523-.378 1.211-.567 2.065-.567.686 0 1.274.124 1.764.371.495.243.85.611 1.064 1.106.107.233.175.488.203.763.028.27.042.555.042.854V32h-1.106v-1.813l.26.168c-.286.611-.685 1.073-1.198 1.386-.509.313-1.13.469-1.862.469zm.19-1.043c.447 0 .834-.08 1.161-.238.331-.163.597-.376.798-.637.2-.266.331-.555.392-.868.07-.233.107-.492.112-.777.01-.29.014-.511.014-.665l.434.189c-.406.056-.805.11-1.197.161a27.12 27.12 0 00-1.113.168c-.35.056-.665.124-.945.203-.205.065-.399.15-.58.252a1.321 1.321 0 00-.435.399 1.039 1.039 0 00-.16.595c0 .205.05.401.153.588.107.187.27.338.49.455.224.117.516.175.875.175zm5.53.833l.006-7.56h1.26v3.64l3.171-3.64h1.617l-3.339 3.78L75.082 32H73.34l-3.437-3.64V32h-1.267zm13.583 1.4V32h-6.447v-7.56h1.246v6.377h3.703V24.44h1.246v6.426h1.498V33.4h-1.246zm8.553-8.96V32h-1.205v-5.572L85.606 32h-1.03v-7.56h1.205v5.495l3.968-5.495h1.023zm5.18 7.77c-.751 0-1.4-.17-1.946-.511a3.386 3.386 0 01-1.253-1.414c-.294-.602-.441-1.293-.441-2.072 0-.793.15-1.489.448-2.086a3.332 3.332 0 011.267-1.393c.546-.336 1.188-.504 1.925-.504.756 0 1.407.17 1.953.511a3.28 3.28 0 011.253 1.407c.294.597.441 1.286.441 2.065 0 .789-.147 1.484-.441 2.086a3.38 3.38 0 01-1.26 1.407c-.546.336-1.195.504-1.946.504zm0-1.183c.784 0 1.367-.261 1.75-.784s.574-1.2.574-2.03c0-.854-.194-1.533-.581-2.037-.387-.509-.968-.763-1.743-.763-.527 0-.961.119-1.302.357-.34.238-.595.567-.763.987-.168.42-.252.905-.252 1.456 0 .85.196 1.53.588 2.044.392.513.968.77 1.729.77zm5.181.973v-7.56h1.246v3.185h3.976V24.44h1.246V32h-1.246v-3.192h-3.976V32h-1.246zm11.705.21c-.742 0-1.391-.163-1.946-.49a3.43 3.43 0 01-1.288-1.379c-.308-.593-.462-1.283-.462-2.072 0-.826.152-1.54.455-2.142a3.329 3.329 0 011.267-1.4c.546-.331 1.185-.497 1.918-.497.761 0 1.407.175 1.939.525.537.35.938.85 1.204 1.498.271.649.387 1.421.35 2.317h-1.26v-.448c-.014-.929-.203-1.622-.567-2.079-.364-.462-.905-.693-1.624-.693-.77 0-1.356.247-1.757.742-.401.495-.602 1.204-.602 2.128 0 .891.201 1.582.602 2.072.401.49.973.735 1.715.735.499 0 .933-.114 1.302-.343.369-.229.658-.558.868-.987l1.197.413a3.389 3.389 0 01-1.33 1.554 3.686 3.686 0 01-1.981.546zm-2.793-3.64v-1.001h5.586v1.001h-5.586zm11.261 3.64c-.71 0-1.307-.175-1.792-.525-.486-.355-.854-.833-1.106-1.435-.248-.607-.371-1.286-.371-2.037 0-.76.123-1.442.371-2.044.252-.602.62-1.076 1.106-1.421.49-.345 1.089-.518 1.799-.518.7 0 1.302.175 1.806.525.508.345.898.819 1.169 1.421.27.602.406 1.281.406 2.037s-.136 1.435-.406 2.037a3.422 3.422 0 01-1.169 1.435c-.504.35-1.109.525-1.813.525zm-3.479 3.15V24.44h1.113v5.565h.14v5.355h-1.253zm3.325-4.291c.499 0 .912-.126 1.239-.378a2.29 2.29 0 00.735-1.022c.163-.434.245-.92.245-1.456 0-.532-.082-1.013-.245-1.442a2.194 2.194 0 00-.742-1.022c-.332-.252-.754-.378-1.267-.378-.49 0-.896.121-1.218.364-.322.238-.563.572-.721 1.001-.159.425-.238.917-.238 1.477a4.4 4.4 0 00.231 1.477c.158.43.401.768.728 1.015.326.243.744.364 1.253.364zm8.296 1.141c-.751 0-1.4-.17-1.946-.511a3.389 3.389 0 01-1.253-1.414c-.294-.602-.441-1.293-.441-2.072 0-.793.149-1.489.448-2.086a3.335 3.335 0 011.267-1.393c.546-.336 1.188-.504 1.925-.504.756 0 1.407.17 1.953.511.546.336.964.805 1.253 1.407.294.597.441 1.286.441 2.065 0 .789-.147 1.484-.441 2.086a3.38 3.38 0 01-1.26 1.407c-.546.336-1.195.504-1.946.504zm0-1.183c.784 0 1.367-.261 1.75-.784s.574-1.2.574-2.03c0-.854-.194-1.533-.581-2.037-.387-.509-.968-.763-1.743-.763-.527 0-.961.119-1.302.357a2.136 2.136 0 00-.763.987c-.168.42-.252.905-.252 1.456 0 .85.196 1.53.588 2.044.392.513.968.77 1.729.77zm5.181.973v-7.56h3.22c.192 0 .397.012.616.035.224.019.427.054.609.105.406.107.74.329 1.001.665.266.331.399.751.399 1.26 0 .285-.044.532-.133.742-.084.21-.205.392-.364.546a1.51 1.51 0 01-.483.322c.164.028.329.091.497.189.266.145.474.348.623.609.154.261.231.595.231 1.001 0 .513-.123.938-.371 1.274-.247.331-.588.56-1.022.686a3.223 3.223 0 01-.602.105 9.983 9.983 0 01-.637.021h-3.584zm1.26-1.015h2.254c.098 0 .215-.01.35-.028.14-.019.264-.042.371-.07.243-.07.418-.2.525-.392.112-.191.168-.399.168-.623 0-.299-.084-.541-.252-.728a1.076 1.076 0 00-.651-.35 1.369 1.369 0 00-.322-.049 7.233 7.233 0 00-.301-.007h-2.142v2.247zm0-3.276h1.876c.131 0 .269-.007.413-.021.145-.019.271-.049.378-.091a.838.838 0 00.469-.392 1.24 1.24 0 00.154-.609 1.19 1.19 0 00-.168-.637.834.834 0 00-.497-.385 1.536 1.536 0 00-.504-.091 9.207 9.207 0 00-.35-.014h-1.771v2.24zM2.555 644l1.204-2.499L.21 633.92h1.393l2.807 6.251 2.87-6.251h1.33L3.906 644H2.555zm10.127.21c-.709 0-1.306-.175-1.792-.525a3.322 3.322 0 01-1.106-1.435c-.247-.607-.37-1.286-.37-2.037 0-.761.123-1.442.37-2.044.252-.602.621-1.076 1.106-1.421.49-.345 1.09-.518 1.8-.518.7 0 1.302.175 1.806.525.508.345.898.819 1.168 1.421.271.602.406 1.281.406 2.037s-.135 1.435-.405 2.037c-.271.602-.66 1.08-1.17 1.435-.503.35-1.108.525-1.813.525zm-3.479 3.15v-10.92h1.114v5.565h.14v5.355H9.203zm3.325-4.291c.5 0 .913-.126 1.24-.378.326-.252.571-.593.734-1.022.164-.434.245-.919.245-1.456 0-.532-.081-1.013-.245-1.442a2.194 2.194 0 00-.742-1.022c-.33-.252-.753-.378-1.267-.378-.49 0-.896.121-1.218.364-.322.238-.562.572-.72 1.001-.16.425-.239.917-.239 1.477 0 .551.077 1.043.231 1.477.16.429.402.768.728 1.015.327.243.745.364 1.253.364zm8.297 1.141c-.751 0-1.4-.17-1.946-.511a3.388 3.388 0 01-1.253-1.414c-.294-.602-.441-1.293-.441-2.072 0-.793.15-1.489.448-2.086a3.333 3.333 0 011.267-1.393c.546-.336 1.188-.504 1.925-.504.756 0 1.407.17 1.953.511.546.336.964.805 1.253 1.407.294.597.441 1.286.441 2.065 0 .789-.147 1.484-.441 2.086a3.384 3.384 0 01-1.26 1.407c-.546.336-1.195.504-1.946.504zm0-1.183c.784 0 1.367-.261 1.75-.784s.574-1.199.574-2.03c0-.854-.194-1.533-.581-2.037-.387-.509-.968-.763-1.743-.763-.527 0-.961.119-1.302.357-.34.238-.595.567-.763.987-.168.42-.252.905-.252 1.456 0 .849.196 1.531.588 2.044.392.513.968.77 1.729.77zm5.181.973v-7.56h3.22c.192 0 .397.012.616.035.224.019.427.054.61.105.405.107.739.329 1 .665.266.331.4.751.4 1.26 0 .285-.045.532-.134.742-.084.21-.205.392-.364.546a1.51 1.51 0 01-.483.322c.164.028.33.091.497.189.266.145.474.348.623.609.154.261.231.595.231 1.001 0 .513-.123.938-.37 1.274-.248.331-.589.56-1.023.686a3.284 3.284 0 01-.602.105c-.22.014-.431.021-.637.021h-3.584zm1.26-1.015h2.254c.098 0 .215-.009.35-.028.14-.019.264-.042.371-.07a.836.836 0 00.525-.392 1.21 1.21 0 00.168-.623c0-.299-.084-.541-.252-.728a1.077 1.077 0 00-.65-.35 1.387 1.387 0 00-.323-.049 6.757 6.757 0 00-.3-.007h-2.143v2.247zm0-3.276h1.876c.13 0 .268-.007.413-.021a1.62 1.62 0 00.378-.091.838.838 0 00.47-.392c.102-.187.153-.39.153-.609a1.19 1.19 0 00-.168-.637.834.834 0 00-.497-.385 1.547 1.547 0 00-.504-.091 10 10 0 00-.35-.014h-1.77v2.24zm9.638 4.501c-.742 0-1.39-.163-1.946-.49a3.43 3.43 0 01-1.288-1.379c-.308-.593-.462-1.283-.462-2.072 0-.826.152-1.54.455-2.142a3.33 3.33 0 011.267-1.4c.546-.331 1.186-.497 1.918-.497.761 0 1.407.175 1.94.525.536.35.937.849 1.203 1.498.271.649.388 1.421.35 2.317h-1.26v-.448c-.014-.929-.203-1.622-.567-2.079-.364-.462-.905-.693-1.624-.693-.77 0-1.355.247-1.757.742-.4.495-.602 1.204-.602 2.128 0 .891.201 1.582.602 2.072.402.49.973.735 1.715.735.5 0 .934-.114 1.302-.343.37-.229.658-.558.868-.987l1.197.413a3.393 3.393 0 01-1.33 1.554 3.687 3.687 0 01-1.98.546zm-2.793-3.64v-1.001h5.586v1.001h-5.586zm7.782 3.43v-7.56h1.246v3.185h3.976v-3.185h1.246V644h-1.246v-3.192h-3.976V644h-1.246zm8.429 0l-.007-7.56h1.253v2.737h1.63c.22 0 .444.005.673.014.228.009.427.03.595.063.392.075.735.205 1.029.392.294.187.523.441.686.763.163.317.245.712.245 1.183 0 .653-.17 1.171-.511 1.554-.336.378-.777.63-1.323.756-.187.042-.401.07-.644.084a18.04 18.04 0 01-.68.014h-2.946zm1.246-1.029h1.722c.14 0 .296-.005.469-.014.172-.009.327-.033.462-.07.238-.07.45-.208.637-.413.191-.205.287-.499.287-.882 0-.387-.094-.686-.28-.896a1.286 1.286 0 00-.721-.413 2.412 2.412 0 00-.427-.063 7.124 7.124 0 00-.427-.014h-1.722v2.765zm10.25 4.389l1.462-3.976.021 1.176-3.304-8.12h1.31l2.59 6.531h-.449l2.43-6.531h1.266l-4.116 10.92h-1.21zm6.475-3.36v-7.56h6.195V644h-1.246v-6.377H69.54V644h-1.246zm11.628.21c-.71 0-1.307-.175-1.792-.525a3.321 3.321 0 01-1.106-1.435c-.248-.607-.371-1.286-.371-2.037 0-.761.123-1.442.37-2.044.253-.602.621-1.076 1.107-1.421.49-.345 1.09-.518 1.799-.518.7 0 1.302.175 1.806.525.508.345.898.819 1.169 1.421.27.602.406 1.281.406 2.037s-.136 1.435-.406 2.037c-.27.602-.66 1.08-1.17 1.435-.503.35-1.108.525-1.812.525zm-3.48 3.15v-10.92h1.114v5.565h.14v5.355h-1.253zm3.326-4.291c.5 0 .912-.126 1.239-.378.326-.252.571-.593.735-1.022.163-.434.245-.919.245-1.456 0-.532-.082-1.013-.245-1.442a2.194 2.194 0 00-.742-1.022c-.332-.252-.754-.378-1.267-.378-.49 0-.896.121-1.218.364-.322.238-.563.572-.721 1.001-.159.425-.238.917-.238 1.477 0 .551.077 1.043.23 1.477.16.429.402.768.729 1.015.326.243.744.364 1.253.364zm7.225 1.141c-.564 0-1.038-.103-1.42-.308a2.192 2.192 0 01-.862-.826 2.248 2.248 0 01-.287-1.12c0-.397.075-.74.224-1.029.154-.294.369-.537.644-.728.276-.196.605-.35.987-.462.36-.098.76-.182 1.204-.252.448-.075.9-.142 1.358-.203.458-.061.885-.119 1.281-.175l-.448.259c.014-.672-.121-1.169-.406-1.491-.28-.322-.765-.483-1.456-.483a2.27 2.27 0 00-1.204.315c-.34.205-.58.541-.72 1.008l-1.184-.357c.182-.663.535-1.183 1.057-1.561.523-.378 1.211-.567 2.065-.567.686 0 1.274.124 1.764.371.495.243.85.611 1.064 1.106.108.233.175.488.203.763.028.271.042.555.042.854V644h-1.106v-1.813l.26.168c-.285.611-.684 1.073-1.198 1.386-.508.313-1.13.469-1.862.469zm.19-1.043c.447 0 .835-.079 1.161-.238.332-.163.598-.376.798-.637.2-.266.332-.555.392-.868a2.86 2.86 0 00.112-.777c.01-.289.014-.511.014-.665l.434.189c-.406.056-.805.11-1.197.161-.392.051-.763.107-1.113.168a8.36 8.36 0 00-.945.203 3.035 3.035 0 00-.58.252 1.327 1.327 0 00-.435.399 1.039 1.039 0 00-.16.595c0 .205.05.401.153.588.108.187.27.338.49.455.224.117.516.175.875.175zm5.53.833v-7.56h3.22c.19 0 .396.012.615.035.224.019.427.054.61.105.405.107.739.329 1 .665.266.331.4.751.4 1.26 0 .285-.045.532-.134.742-.084.21-.205.392-.364.546a1.51 1.51 0 01-.483.322c.164.028.33.091.497.189.266.145.474.348.623.609.154.261.231.595.231 1.001 0 .513-.123.938-.37 1.274-.248.331-.589.56-1.023.686a3.284 3.284 0 01-.602.105c-.22.014-.431.021-.637.021h-3.584zm1.26-1.015h2.253c.098 0 .215-.009.35-.028.14-.019.264-.042.371-.07a.837.837 0 00.525-.392 1.21 1.21 0 00.168-.623c0-.299-.084-.541-.252-.728a1.078 1.078 0 00-.65-.35 1.388 1.388 0 00-.323-.049 6.76 6.76 0 00-.3-.007H93.97v2.247zm0-3.276h1.875c.13 0 .269-.007.413-.021.145-.019.27-.049.378-.091a.838.838 0 00.47-.392c.102-.187.153-.39.153-.609a1.19 1.19 0 00-.168-.637.834.834 0 00-.497-.385 1.548 1.548 0 00-.504-.091 10 10 0 00-.35-.014h-1.77v2.24zM99.633 644v-1.071c.28.051.492.042.637-.028a.683.683 0 00.329-.385c.074-.187.135-.42.182-.7.079-.443.147-.938.203-1.484.06-.546.114-1.143.161-1.792.051-.653.098-1.353.14-2.1h5.285V644h-1.246v-6.377h-2.905c-.028.429-.063.87-.105 1.323a95.87 95.87 0 01-.119 1.323 30.88 30.88 0 01-.14 1.19c-.047.364-.098.679-.154.945-.089.457-.213.824-.371 1.099a1.094 1.094 0 01-.686.525c-.299.084-.703.075-1.212-.028zm12.179.21c-.742 0-1.391-.163-1.946-.49a3.428 3.428 0 01-1.288-1.379c-.308-.593-.462-1.283-.462-2.072 0-.826.151-1.54.455-2.142a3.323 3.323 0 011.267-1.4c.546-.331 1.185-.497 1.918-.497.76 0 1.407.175 1.939.525.536.35.938.849 1.204 1.498.27.649.387 1.421.35 2.317h-1.26v-.448c-.014-.929-.203-1.622-.567-2.079-.364-.462-.906-.693-1.624-.693-.77 0-1.356.247-1.757.742-.402.495-.602 1.204-.602 2.128 0 .891.2 1.582.602 2.072.401.49.973.735 1.715.735.499 0 .933-.114 1.302-.343.368-.229.658-.558.868-.987l1.197.413a3.397 3.397 0 01-1.33 1.554 3.689 3.689 0 01-1.981.546zm-2.793-3.64v-1.001h5.586v1.001h-5.586zm7.781 3.43v-7.56h1.246v3.185h3.976v-3.185h1.246V644h-1.246v-3.192h-3.976V644h-1.246zm14.617-7.56V644h-1.204v-5.572L126.252 644h-1.029v-7.56h1.204v5.495l3.969-5.495h1.022zm6.629 7.56v-2.737h-1.631c-.191 0-.403-.007-.637-.021a8.193 8.193 0 01-.644-.077 2.59 2.59 0 01-1.386-.721c-.373-.378-.56-.901-.56-1.568 0-.649.175-1.169.525-1.561a2.434 2.434 0 011.309-.77c.234-.056.469-.086.707-.091.243-.009.448-.014.616-.014h2.947l.007 7.56h-1.253zm-5.089 0l2.009-3.08h1.344l-2.009 3.08h-1.344zm3.367-3.766h1.722v-2.765h-1.722c-.107 0-.249.005-.427.014a2.144 2.144 0 00-.497.084 1.303 1.303 0 00-.441.231c-.14.112-.256.257-.35.434-.093.177-.14.387-.14.63 0 .35.098.635.294.854.196.215.434.359.714.434.154.037.306.061.455.07.154.009.285.014.392.014zM2.555 212l1.204-2.499L.21 201.92h1.393l2.807 6.251 2.87-6.251h1.33L3.906 212H2.555zm10.127.21c-.709 0-1.306-.175-1.792-.525a3.322 3.322 0 01-1.106-1.435c-.247-.607-.37-1.286-.37-2.037 0-.761.123-1.442.37-2.044.252-.602.621-1.076 1.106-1.421.49-.345 1.09-.518 1.8-.518.7 0 1.302.175 1.806.525.508.345.898.819 1.168 1.421.271.602.406 1.281.406 2.037s-.135 1.435-.405 2.037c-.271.602-.66 1.08-1.17 1.435-.503.35-1.108.525-1.813.525zm-3.479 3.15v-10.92h1.114v5.565h.14v5.355H9.203zm3.325-4.291c.5 0 .913-.126 1.24-.378.326-.252.571-.593.734-1.022.164-.434.245-.919.245-1.456 0-.532-.081-1.013-.245-1.442a2.194 2.194 0 00-.742-1.022c-.33-.252-.753-.378-1.267-.378-.49 0-.896.121-1.218.364-.322.238-.562.572-.72 1.001-.16.425-.239.917-.239 1.477 0 .551.077 1.043.231 1.477.16.429.402.768.728 1.015.327.243.745.364 1.253.364zm8.297 1.141c-.751 0-1.4-.17-1.946-.511a3.388 3.388 0 01-1.253-1.414c-.294-.602-.441-1.293-.441-2.072 0-.793.15-1.489.448-2.086a3.333 3.333 0 011.267-1.393c.546-.336 1.188-.504 1.925-.504.756 0 1.407.17 1.953.511.546.336.964.805 1.253 1.407.294.597.441 1.286.441 2.065 0 .789-.147 1.484-.441 2.086a3.384 3.384 0 01-1.26 1.407c-.546.336-1.195.504-1.946.504zm0-1.183c.784 0 1.367-.261 1.75-.784s.574-1.199.574-2.03c0-.854-.194-1.533-.581-2.037-.387-.509-.968-.763-1.743-.763-.527 0-.961.119-1.302.357-.34.238-.595.567-.763.987-.168.42-.252.905-.252 1.456 0 .849.196 1.531.588 2.044.392.513.968.77 1.729.77zm5.181.973v-7.56h3.22c.192 0 .397.012.616.035.224.019.427.054.61.105.405.107.739.329 1 .665.266.331.4.751.4 1.26 0 .285-.045.532-.134.742-.084.21-.205.392-.364.546a1.51 1.51 0 01-.483.322c.164.028.33.091.497.189.266.145.474.348.623.609.154.261.231.595.231 1.001 0 .513-.123.938-.37 1.274-.248.331-.589.56-1.023.686a3.284 3.284 0 01-.602.105c-.22.014-.431.021-.637.021h-3.584zm1.26-1.015h2.254c.098 0 .215-.009.35-.028.14-.019.264-.042.371-.07a.836.836 0 00.525-.392 1.21 1.21 0 00.168-.623c0-.299-.084-.541-.252-.728a1.077 1.077 0 00-.65-.35 1.387 1.387 0 00-.323-.049 6.757 6.757 0 00-.3-.007h-2.143v2.247zm0-3.276h1.876c.13 0 .268-.007.413-.021a1.62 1.62 0 00.378-.091.838.838 0 00.47-.392c.102-.187.153-.39.153-.609a1.19 1.19 0 00-.168-.637.834.834 0 00-.497-.385 1.547 1.547 0 00-.504-.091 10 10 0 00-.35-.014h-1.77v2.24zm9.638 4.501c-.742 0-1.39-.163-1.946-.49a3.43 3.43 0 01-1.288-1.379c-.308-.593-.462-1.283-.462-2.072 0-.826.152-1.54.455-2.142a3.33 3.33 0 011.267-1.4c.546-.331 1.186-.497 1.918-.497.761 0 1.407.175 1.94.525.536.35.937.849 1.203 1.498.271.649.388 1.421.35 2.317h-1.26v-.448c-.014-.929-.203-1.622-.567-2.079-.364-.462-.905-.693-1.624-.693-.77 0-1.355.247-1.757.742-.4.495-.602 1.204-.602 2.128 0 .891.201 1.582.602 2.072.402.49.973.735 1.715.735.5 0 .934-.114 1.302-.343.37-.229.658-.558.868-.987l1.197.413a3.393 3.393 0 01-1.33 1.554 3.687 3.687 0 01-1.98.546zm-2.793-3.64v-1.001h5.586v1.001h-5.586zm7.782 3.43v-7.56h1.246v3.185h3.976v-3.185h1.246V212h-1.246v-3.192h-3.976V212h-1.246zm8.429 0l-.007-7.56h1.253v2.737h1.63c.22 0 .444.005.673.014.228.009.427.03.595.063.392.075.735.205 1.029.392.294.187.523.441.686.763.163.317.245.712.245 1.183 0 .653-.17 1.171-.511 1.554-.336.378-.777.63-1.323.756-.187.042-.401.07-.644.084a18.04 18.04 0 01-.68.014h-2.946zm1.246-1.029h1.722c.14 0 .296-.005.469-.014.172-.009.327-.033.462-.07.238-.07.45-.208.637-.413.191-.205.287-.499.287-.882 0-.387-.094-.686-.28-.896a1.286 1.286 0 00-.721-.413 2.412 2.412 0 00-.427-.063 7.124 7.124 0 00-.427-.014h-1.722v2.765zm13.343 1.239c-1.003 0-1.855-.222-2.555-.665a4.271 4.271 0 01-1.603-1.848c-.364-.789-.546-1.701-.546-2.737s.182-1.948.546-2.737a4.271 4.271 0 011.603-1.848c.7-.443 1.552-.665 2.555-.665 1.167 0 2.126.296 2.877.889.756.593 1.276 1.391 1.561 2.394l-1.267.336c-.205-.751-.572-1.344-1.099-1.778-.527-.434-1.218-.651-2.072-.651-.751 0-1.377.17-1.876.511-.5.341-.875.817-1.127 1.428-.252.607-.38 1.314-.385 2.121-.005.803.12 1.51.371 2.121.252.607.63 1.083 1.134 1.428.504.341 1.132.511 1.883.511.854 0 1.545-.217 2.072-.651.527-.439.894-1.031 1.1-1.778l1.266.336c-.285.999-.805 1.797-1.56 2.394-.752.593-1.711.889-2.878.889zm9.193 0c-.751 0-1.4-.17-1.946-.511a3.388 3.388 0 01-1.253-1.414c-.294-.602-.44-1.293-.44-2.072 0-.793.149-1.489.447-2.086a3.333 3.333 0 011.267-1.393c.546-.336 1.188-.504 1.925-.504.756 0 1.407.17 1.953.511.546.336.964.805 1.253 1.407.294.597.441 1.286.441 2.065 0 .789-.147 1.484-.44 2.086a3.384 3.384 0 01-1.26 1.407c-.547.336-1.195.504-1.947.504zm0-1.183c.784 0 1.368-.261 1.75-.784.383-.523.574-1.199.574-2.03 0-.854-.193-1.533-.58-2.037-.388-.509-.969-.763-1.744-.763-.527 0-.961.119-1.302.357-.34.238-.595.567-.763.987-.168.42-.252.905-.252 1.456 0 .849.196 1.531.588 2.044.392.513.969.77 1.73.77zm5.181.973v-7.56h3.22c.192 0 .397.012.617.035.224.019.427.054.609.105.406.107.74.329 1 .665.267.331.4.751.4 1.26 0 .285-.045.532-.133.742-.085.21-.206.392-.365.546a1.51 1.51 0 01-.483.322c.164.028.33.091.497.189.266.145.474.348.623.609.154.261.231.595.231 1.001 0 .513-.123.938-.37 1.274-.248.331-.588.56-1.022.686a3.284 3.284 0 01-.602.105c-.22.014-.432.021-.638.021h-3.584zm1.26-1.015H82.8c.098 0 .215-.009.35-.028.14-.019.264-.042.371-.07a.836.836 0 00.526-.392 1.21 1.21 0 00.167-.623c0-.299-.084-.541-.251-.728a1.077 1.077 0 00-.651-.35 1.387 1.387 0 00-.323-.049 6.757 6.757 0 00-.3-.007h-2.142v2.247zm0-3.276h1.876c.131 0 .269-.007.413-.021a1.62 1.62 0 00.379-.091.838.838 0 00.469-.392c.102-.187.153-.39.153-.609a1.19 1.19 0 00-.167-.637.834.834 0 00-.498-.385 1.547 1.547 0 00-.504-.091 10 10 0 00-.35-.014h-1.77v2.24zm9.639 4.501c-.742 0-1.39-.163-1.946-.49a3.43 3.43 0 01-1.288-1.379c-.308-.593-.462-1.283-.462-2.072 0-.826.151-1.54.455-2.142a3.33 3.33 0 011.267-1.4c.546-.331 1.185-.497 1.918-.497.76 0 1.407.175 1.939.525.536.35.938.849 1.204 1.498.27.649.387 1.421.35 2.317h-1.26v-.448c-.014-.929-.203-1.622-.567-2.079-.364-.462-.906-.693-1.624-.693-.77 0-1.356.247-1.757.742-.402.495-.602 1.204-.602 2.128 0 .891.2 1.582.602 2.072.401.49.973.735 1.715.735.5 0 .933-.114 1.302-.343.368-.229.658-.558.868-.987l1.197.413a3.393 3.393 0 01-1.33 1.554 3.687 3.687 0 01-1.981.546zm-2.793-3.64v-1.001h5.586v1.001H87.39zm9.653 3.43v-6.426h-2.632v-1.134h6.511v1.134H98.29V212h-1.246zm7.106.21c-.564 0-1.038-.103-1.421-.308a2.192 2.192 0 01-.861-.826 2.253 2.253 0 01-.287-1.12c0-.397.075-.74.224-1.029.154-.294.369-.537.644-.728.276-.196.605-.35.987-.462.36-.098.761-.182 1.204-.252.448-.075.901-.142 1.358-.203.458-.061.885-.119 1.281-.175l-.448.259c.014-.672-.121-1.169-.406-1.491-.28-.322-.765-.483-1.456-.483-.457 0-.858.105-1.204.315-.34.205-.581.541-.721 1.008l-1.183-.357c.182-.663.535-1.183 1.057-1.561.523-.378 1.211-.567 2.065-.567.686 0 1.274.124 1.764.371.495.243.85.611 1.064 1.106.108.233.175.488.203.763.028.271.042.555.042.854V212h-1.106v-1.813l.259.168c-.284.611-.683 1.073-1.197 1.386-.508.313-1.129.469-1.862.469zm.189-1.043c.448 0 .836-.079 1.162-.238.332-.163.598-.376.798-.637.201-.266.332-.555.392-.868.07-.233.108-.492.112-.777.01-.289.014-.511.014-.665l.434.189c-.406.056-.805.11-1.197.161-.392.051-.763.107-1.113.168a8.36 8.36 0 00-.945.203 3.045 3.045 0 00-.581.252 1.33 1.33 0 00-.434.399 1.042 1.042 0 00-.161.595c0 .205.052.401.154.588.108.187.271.338.49.455.224.117.516.175.875.175zm7.78 2.513v-2.709c.425 0 .728-.138.91-.413.182-.28.329-.74.441-1.379.075-.401.136-.831.182-1.288.047-.457.087-.966.119-1.526.038-.565.073-1.206.105-1.925h5.208v6.531h.735v2.709h-1.19V212h-5.32v1.68h-1.19zm1.918-2.709h3.801v-5.502h-2.835a44.237 44.237 0 01-.14 2.121c-.028.359-.063.7-.105 1.022-.037.317-.081.602-.133.854-.06.35-.13.646-.21.889a1.481 1.481 0 01-.378.616zm13.375-6.531V212h-1.204v-5.572L122.246 212h-1.029v-7.56h1.204v5.495l3.969-5.495h1.022zm5.433 7.77c-.71 0-1.307-.175-1.792-.525-.486-.355-.854-.833-1.106-1.435-.248-.607-.371-1.286-.371-2.037 0-.761.123-1.442.371-2.044.252-.602.62-1.076 1.106-1.421.49-.345 1.089-.518 1.799-.518.7 0 1.302.175 1.806.525.508.345.898.819 1.169 1.421.27.602.406 1.281.406 2.037s-.136 1.435-.406 2.037a3.424 3.424 0 01-1.169 1.435c-.504.35-1.109.525-1.813.525zm-3.479 3.15v-10.92h1.113v5.565h.14v5.355h-1.253zm3.325-4.291c.499 0 .912-.126 1.239-.378.326-.252.571-.593.735-1.022.163-.434.245-.919.245-1.456 0-.532-.082-1.013-.245-1.442a2.196 2.196 0 00-.742-1.022c-.332-.252-.754-.378-1.267-.378-.49 0-.896.121-1.218.364-.322.238-.563.572-.721 1.001-.159.425-.238.917-.238 1.477 0 .551.077 1.043.231 1.477.158.429.401.768.728 1.015.326.243.744.364 1.253.364zm8.352 1.141c-.742 0-1.391-.163-1.946-.49a3.428 3.428 0 01-1.288-1.379c-.308-.593-.462-1.283-.462-2.072 0-.826.152-1.54.455-2.142a3.329 3.329 0 011.267-1.4c.546-.331 1.185-.497 1.918-.497.761 0 1.407.175 1.939.525.537.35.938.849 1.204 1.498.271.649.387 1.421.35 2.317h-1.26v-.448c-.014-.929-.203-1.622-.567-2.079-.364-.462-.905-.693-1.624-.693-.77 0-1.356.247-1.757.742-.401.495-.602 1.204-.602 2.128 0 .891.201 1.582.602 2.072.401.49.973.735 1.715.735.499 0 .933-.114 1.302-.343.369-.229.658-.558.868-.987l1.197.413a3.392 3.392 0 01-1.33 1.554 3.686 3.686 0 01-1.981.546zm-2.793-3.64v-1.001h5.586v1.001h-5.586zm7.782 3.43l.007-7.56h1.26v3.64l3.171-3.64h1.617l-3.339 3.78 3.731 3.78h-1.743l-3.437-3.64V212h-1.267zm9.145 0v-6.426h-2.632v-1.134h6.51v1.134h-2.632V212h-1.246zm8.287.21c-.752 0-1.4-.17-1.946-.511a3.384 3.384 0 01-1.253-1.414c-.294-.602-.441-1.293-.441-2.072 0-.793.149-1.489.448-2.086a3.328 3.328 0 011.267-1.393c.546-.336 1.187-.504 1.925-.504.756 0 1.407.17 1.953.511.546.336.963.805 1.253 1.407.294.597.441 1.286.441 2.065 0 .789-.147 1.484-.441 2.086a3.384 3.384 0 01-1.26 1.407c-.546.336-1.195.504-1.946.504zm0-1.183c.784 0 1.367-.261 1.75-.784.382-.523.574-1.199.574-2.03 0-.854-.194-1.533-.581-2.037-.388-.509-.969-.763-1.743-.763-.528 0-.962.119-1.302.357a2.136 2.136 0 00-.763.987c-.168.42-.252.905-.252 1.456 0 .849.196 1.531.588 2.044.392.513.968.77 1.729.77zm8.66 1.183c-.709 0-1.307-.175-1.792-.525a3.324 3.324 0 01-1.106-1.435c-.247-.607-.371-1.286-.371-2.037 0-.761.124-1.442.371-2.044.252-.602.621-1.076 1.106-1.421.49-.345 1.09-.518 1.799-.518.7 0 1.302.175 1.806.525.509.345.898.819 1.169 1.421.271.602.406 1.281.406 2.037s-.135 1.435-.406 2.037a3.416 3.416 0 01-1.169 1.435c-.504.35-1.108.525-1.813.525zm-3.479 3.15v-10.92h1.113v5.565h.14v5.355h-1.253zm3.325-4.291c.499 0 .912-.126 1.239-.378.327-.252.572-.593.735-1.022.163-.434.245-.919.245-1.456 0-.532-.082-1.013-.245-1.442a2.196 2.196 0 00-.742-1.022c-.331-.252-.754-.378-1.267-.378-.49 0-.896.121-1.218.364-.322.238-.562.572-.721 1.001-.159.425-.238.917-.238 1.477 0 .551.077 1.043.231 1.477.159.429.401.768.728 1.015.327.243.744.364 1.253.364zm8.296 1.141c-.751 0-1.4-.17-1.946-.511a3.39 3.39 0 01-1.253-1.414c-.294-.602-.441-1.293-.441-2.072 0-.793.15-1.489.448-2.086a3.335 3.335 0 011.267-1.393c.546-.336 1.188-.504 1.925-.504.756 0 1.407.17 1.953.511.546.336.964.805 1.253 1.407.294.597.441 1.286.441 2.065 0 .789-.147 1.484-.441 2.086a3.384 3.384 0 01-1.26 1.407c-.546.336-1.194.504-1.946.504zm0-1.183c.784 0 1.368-.261 1.75-.784.383-.523.574-1.199.574-2.03 0-.854-.193-1.533-.581-2.037-.387-.509-.968-.763-1.743-.763-.527 0-.961.119-1.302.357-.34.238-.595.567-.763.987-.168.42-.252.905-.252 1.456 0 .849.196 1.531.588 2.044.392.513.969.77 1.729.77zm5.182.973v-7.56h3.22c.191 0 .396.012.616.035.224.019.427.054.609.105a1.83 1.83 0 011.001.665c.266.331.399.751.399 1.26 0 .285-.045.532-.133.742-.084.21-.206.392-.364.546a1.51 1.51 0 01-.483.322c.163.028.329.091.497.189.266.145.473.348.623.609.154.261.231.595.231 1.001 0 .513-.124.938-.371 1.274-.248.331-.588.56-1.022.686a3.288 3.288 0 01-.602.105c-.22.014-.432.021-.637.021h-3.584zm1.26-1.015h2.254c.098 0 .214-.009.35-.028.14-.019.263-.042.371-.07a.84.84 0 00.525-.392 1.21 1.21 0 00.168-.623c0-.299-.084-.541-.252-.728a1.081 1.081 0 00-.651-.35 1.393 1.393 0 00-.322-.049 6.78 6.78 0 00-.301-.007h-2.142v2.247zm0-3.276h1.876c.13 0 .268-.007.413-.021.144-.019.27-.049.378-.091a.84.84 0 00.469-.392c.102-.187.154-.39.154-.609a1.19 1.19 0 00-.168-.637.836.836 0 00-.497-.385 1.553 1.553 0 00-.504-.091 10.027 10.027 0 00-.35-.014h-1.771v2.24z"/>
  <rect width="328" height="72" x="1" y="69" fill="#00D372" rx="8"/>
  <rect width="328" height="72" x="1" y="681" fill="#00D372" rx="8"/>
  <rect width="328" height="72" y="249" fill="#00D372" rx="8"/>
  <path fill="#fff" d="M33.32 113.3c-1.433 0-2.65-.317-3.65-.95s-1.763-1.513-2.29-2.64c-.52-1.127-.78-2.43-.78-3.91s.26-2.783.78-3.91c.527-1.127 1.29-2.007 2.29-2.64s2.217-.95 3.65-.95c1.44 0 2.66.317 3.66.95s1.76 1.513 2.28 2.64c.52 1.127.78 2.43.78 3.91s-.26 2.783-.78 3.91c-.52 1.127-1.28 2.007-2.28 2.64-1 .633-2.22.95-3.66.95zm0-1.7c1.073.007 1.967-.233 2.68-.72.72-.493 1.257-1.177 1.61-2.05.36-.873.54-1.883.54-3.03 0-1.153-.18-2.163-.54-3.03-.353-.867-.89-1.543-1.61-2.03-.713-.487-1.607-.733-2.68-.74-1.073-.007-1.967.233-2.68.72-.707.487-1.24 1.167-1.6 2.04-.36.873-.543 1.887-.55 3.04-.007 1.147.17 2.153.53 3.02s.897 1.547 1.61 2.04c.72.487 1.617.733 2.69.74zm13.118 1.71c-1.02-.007-1.89-.227-2.61-.66-.72-.44-1.28-1.083-1.68-1.93-.4-.847-.623-1.883-.67-3.11-.026-.567-.02-1.19.02-1.87.047-.68.12-1.333.22-1.96.107-.627.24-1.143.4-1.55.18-.487.434-.937.76-1.35.334-.42.707-.767 1.12-1.04.42-.287.89-.51 1.41-.67.52-.16 1.064-.283 1.63-.37a38.186 38.186 0 011.72-.24c.574-.073 1.12-.16 1.64-.26l.18 1.6c-.366.08-.8.15-1.3.21a54.8 54.8 0 00-1.56.19c-.533.073-1.046.177-1.54.31a4.348 4.348 0 00-1.26.53c-.52.313-.92.783-1.2 1.41a6.372 6.372 0 00-.5 2.09c.414-.64.95-1.11 1.61-1.41a5.04 5.04 0 012.11-.45c.967 0 1.8.227 2.5.68a4.356 4.356 0 011.61 1.85c.38.787.57 1.683.57 2.69 0 1.067-.213 2-.64 2.8-.426.8-1.03 1.42-1.81 1.86-.773.44-1.683.657-2.73.65zm.11-1.69c1.047 0 1.84-.323 2.38-.97.54-.653.81-1.52.81-2.6 0-1.107-.28-1.977-.84-2.61-.56-.64-1.346-.96-2.36-.96-1.026 0-1.813.32-2.36.96-.54.633-.81 1.503-.81 2.61 0 1.113.274 1.987.82 2.62.547.633 1.334.95 2.36.95zM65.906 115v-2h-12.09v-10.8h1.72v9.18h3.72v-9.18h1.72v9.18h3.71v-9.18h1.72v9.18h1.28V115h-1.78zm8.069-1.7c-1.06 0-1.987-.233-2.78-.7a4.902 4.902 0 01-1.84-1.97c-.44-.847-.66-1.833-.66-2.96 0-1.18.216-2.2.65-3.06.433-.867 1.036-1.533 1.81-2 .78-.473 1.693-.71 2.74-.71 1.086 0 2.01.25 2.77.75.766.5 1.34 1.213 1.72 2.14.386.927.553 2.03.5 3.31h-1.8v-.64c-.02-1.327-.29-2.317-.81-2.97-.52-.66-1.294-.99-2.32-.99-1.1 0-1.937.353-2.51 1.06-.574.707-.86 1.72-.86 3.04 0 1.273.286 2.26.86 2.96.573.7 1.39 1.05 2.45 1.05.713 0 1.333-.163 1.86-.49.526-.327.94-.797 1.24-1.41l1.71.59c-.42.953-1.054 1.693-1.9 2.22-.84.52-1.784.78-2.83.78zm-3.99-5.2v-1.43h7.98v1.43h-7.98zm15.806 5.2c-1.06 0-1.987-.233-2.78-.7a4.902 4.902 0 01-1.84-1.97c-.44-.847-.66-1.833-.66-2.96 0-1.18.217-2.2.65-3.06.433-.867 1.037-1.533 1.81-2 .78-.473 1.693-.71 2.74-.71 1.087 0 2.01.25 2.77.75.767.5 1.34 1.213 1.72 2.14.387.927.553 2.03.5 3.31h-1.8v-.64c-.02-1.327-.29-2.317-.81-2.97-.52-.66-1.293-.99-2.32-.99-1.1 0-1.937.353-2.51 1.06-.573.707-.86 1.72-.86 3.04 0 1.273.287 2.26.86 2.96.573.7 1.39 1.05 2.45 1.05.713 0 1.333-.163 1.86-.49.527-.327.94-.797 1.24-1.41l1.71.59c-.42.953-1.053 1.693-1.9 2.22-.84.52-1.783.78-2.83.78zm-3.99-5.2v-1.43h7.98v1.43H81.8zm19.68 5.2c-1.093 0-2.023-.243-2.79-.73-.76-.493-1.34-1.17-1.74-2.03-.4-.86-.606-1.84-.62-2.94.014-1.127.224-2.117.63-2.97.414-.86 1.004-1.53 1.77-2.01.767-.48 1.69-.72 2.77-.72 1.14 0 2.12.28 2.94.84a4.042 4.042 0 011.66 2.3l-1.76.53c-.226-.627-.596-1.113-1.11-1.46-.506-.347-1.09-.52-1.75-.52-.74 0-1.35.173-1.83.52-.48.34-.836.813-1.07 1.42-.233.6-.353 1.29-.36 2.07.014 1.2.29 2.17.83 2.91.547.733 1.357 1.1 2.43 1.1.707 0 1.294-.16 1.76-.48.467-.327.82-.797 1.06-1.41l1.8.47c-.373 1.007-.956 1.777-1.75 2.31-.793.533-1.75.8-2.87.8zm10.968 0c-1.073 0-2-.243-2.78-.73a4.842 4.842 0 01-1.79-2.02c-.42-.86-.63-1.847-.63-2.96 0-1.133.214-2.127.64-2.98.427-.853 1.03-1.517 1.81-1.99.78-.48 1.697-.72 2.75-.72 1.08 0 2.01.243 2.79.73.78.48 1.377 1.15 1.79 2.01.42.853.63 1.837.63 2.95 0 1.127-.21 2.12-.63 2.98a4.832 4.832 0 01-1.8 2.01c-.78.48-1.706.72-2.78.72zm0-1.69c1.12 0 1.954-.373 2.5-1.12.547-.747.82-1.713.82-2.9 0-1.22-.276-2.19-.83-2.91-.553-.727-1.383-1.09-2.49-1.09-.753 0-1.373.17-1.86.51-.486.34-.85.81-1.09 1.41-.24.6-.36 1.293-.36 2.08 0 1.213.28 2.187.84 2.92.56.733 1.384 1.1 2.47 1.1zm11.802 1.7c-1.02-.007-1.89-.227-2.61-.66-.72-.44-1.28-1.083-1.68-1.93-.4-.847-.623-1.883-.67-3.11-.027-.567-.02-1.19.02-1.87.047-.68.12-1.333.22-1.96.107-.627.24-1.143.4-1.55.18-.487.433-.937.76-1.35a4.83 4.83 0 011.12-1.04c.42-.287.89-.51 1.41-.67.52-.16 1.063-.283 1.63-.37a38.165 38.165 0 011.72-.24c.573-.073 1.12-.16 1.64-.26l.18 1.6c-.367.08-.8.15-1.3.21a54.8 54.8 0 00-1.56.19 12.34 12.34 0 00-1.54.31 4.339 4.339 0 00-1.26.53c-.52.313-.92.783-1.2 1.41a6.38 6.38 0 00-.5 2.09c.413-.64.95-1.11 1.61-1.41.66-.3 1.363-.45 2.11-.45.967 0 1.8.227 2.5.68a4.354 4.354 0 011.61 1.85c.38.787.57 1.683.57 2.69 0 1.067-.213 2-.64 2.8-.427.8-1.03 1.42-1.81 1.86-.773.44-1.683.657-2.73.65zm.11-1.69c1.047 0 1.84-.323 2.38-.97.54-.653.81-1.52.81-2.6 0-1.107-.28-1.977-.84-2.61-.56-.64-1.347-.96-2.36-.96-1.027 0-1.813.32-2.36.96-.54.633-.81 1.503-.81 2.61 0 1.113.273 1.987.82 2.62.547.633 1.333.95 2.36.95zm12.237 1.68c-1.013 0-1.866-.25-2.56-.75-.693-.507-1.22-1.19-1.58-2.05-.353-.867-.53-1.837-.53-2.91 0-1.087.177-2.06.53-2.92.36-.86.887-1.537 1.58-2.03.7-.493 1.557-.74 2.57-.74 1 0 1.86.25 2.58.75.727.493 1.284 1.17 1.67 2.03.387.86.58 1.83.58 2.91s-.193 2.05-.58 2.91c-.386.86-.943 1.543-1.67 2.05-.72.5-1.583.75-2.59.75zm-4.97 4.5v-15.6h1.59v7.95h.2v7.65h-1.79zm4.75-6.13c.714 0 1.304-.18 1.77-.54.467-.36.817-.847 1.05-1.46.234-.62.35-1.313.35-2.08 0-.76-.116-1.447-.35-2.06-.226-.613-.58-1.1-1.06-1.46-.473-.36-1.076-.54-1.81-.54-.7 0-1.28.173-1.74.52-.46.34-.803.817-1.03 1.43-.226.607-.34 1.31-.34 2.11 0 .787.11 1.49.33 2.11.227.613.574 1.097 1.04 1.45.467.347 1.064.52 1.79.52zm10.322 1.63c-.806 0-1.483-.147-2.03-.44-.54-.3-.95-.693-1.23-1.18a3.216 3.216 0 01-.41-1.6c0-.567.107-1.057.32-1.47.22-.42.527-.767.92-1.04.394-.28.864-.5 1.41-.66a16.18 16.18 0 011.72-.36c.64-.107 1.287-.203 1.94-.29.654-.087 1.264-.17 1.83-.25l-.64.37c.02-.96-.173-1.67-.58-2.13-.4-.46-1.093-.69-2.08-.69-.653 0-1.226.15-1.72.45-.486.293-.83.773-1.03 1.44l-1.69-.51c.26-.947.764-1.69 1.51-2.23.747-.54 1.73-.81 2.95-.81.98 0 1.82.177 2.52.53a3.076 3.076 0 011.52 1.58c.154.333.25.697.29 1.09.04.387.06.793.06 1.22V113h-1.58v-2.59l.37.24c-.406.873-.976 1.533-1.71 1.98-.726.447-1.613.67-2.66.67zm.27-1.49c.64 0 1.194-.113 1.66-.34a3.168 3.168 0 001.14-.91c.287-.38.474-.793.56-1.24.1-.333.154-.703.16-1.11.014-.413.02-.73.02-.95l.62.27c-.58.08-1.15.157-1.71.23-.56.073-1.09.153-1.59.24-.5.08-.95.177-1.35.29-.293.093-.57.213-.83.36-.253.147-.46.337-.62.57-.153.227-.23.51-.23.85 0 .293.074.573.22.84.154.267.387.483.7.65.32.167.737.25 1.25.25zm7.9 1.19v-10.8h1.78v4.55h5.68v-4.55h1.78V113h-1.78v-4.56h-5.68V113h-1.78zm20.882-10.8V113h-1.72v-7.96l-5.66 7.96h-1.47v-10.8h1.72v7.85l5.67-7.85h1.46zm7.48 11.1c-1.06 0-1.986-.233-2.78-.7a4.906 4.906 0 01-1.84-1.97c-.44-.847-.66-1.833-.66-2.96 0-1.18.217-2.2.65-3.06.434-.867 1.037-1.533 1.81-2 .78-.473 1.694-.71 2.74-.71 1.087 0 2.01.25 2.77.75.767.5 1.34 1.213 1.72 2.14.387.927.554 2.03.5 3.31h-1.8v-.64c-.02-1.327-.29-2.317-.81-2.97-.52-.66-1.293-.99-2.32-.99-1.1 0-1.936.353-2.51 1.06-.573.707-.86 1.72-.86 3.04 0 1.273.287 2.26.86 2.96.574.7 1.39 1.05 2.45 1.05.714 0 1.334-.163 1.86-.49.527-.327.94-.797 1.24-1.41l1.71.59c-.42.953-1.053 1.693-1.9 2.22-.84.52-1.783.78-2.83.78zm-3.99-5.2v-1.43h7.98v1.43h-7.98zm16.631 9.7l2.09-5.68.03 1.68-4.72-11.6h1.87l3.7 9.33h-.64l3.47-9.33h1.81l-5.88 15.6h-1.73zm15.761-4.8v-3.89a6.35 6.35 0 01-1.31.46c-.506.127-1.05.19-1.63.19-1.1 0-1.986-.247-2.66-.74-.673-.493-1.113-1.203-1.32-2.13-.06-.28-.103-.57-.13-.87a21.548 21.548 0 01-.05-1.36v-2.46h1.8v2.46c0 .193.007.433.02.72.014.28.047.553.1.82.134.66.41 1.157.83 1.49.427.333 1.027.5 1.8.5.52 0 1-.067 1.44-.2.44-.133.81-.31 1.11-.53v-5.26h1.79V113h-1.79zm7.664.3c-.807 0-1.483-.147-2.03-.44-.54-.3-.95-.693-1.23-1.18a3.216 3.216 0 01-.41-1.6c0-.567.107-1.057.32-1.47.22-.42.527-.767.92-1.04.393-.28.863-.5 1.41-.66.513-.14 1.087-.26 1.72-.36.64-.107 1.287-.203 1.94-.29.653-.087 1.263-.17 1.83-.25l-.64.37c.02-.96-.173-1.67-.58-2.13-.4-.46-1.093-.69-2.08-.69-.653 0-1.227.15-1.72.45-.487.293-.83.773-1.03 1.44l-1.69-.51c.26-.947.763-1.69 1.51-2.23s1.73-.81 2.95-.81c.98 0 1.82.177 2.52.53a3.08 3.08 0 011.52 1.58c.153.333.25.697.29 1.09.04.387.06.793.06 1.22V113h-1.58v-2.59l.37.24c-.407.873-.977 1.533-1.71 1.98-.727.447-1.613.67-2.66.67zm.27-1.49c.64 0 1.193-.113 1.66-.34a3.185 3.185 0 001.14-.91 2.98 2.98 0 00.56-1.24c.1-.333.153-.703.16-1.11.013-.413.02-.73.02-.95l.62.27c-.58.08-1.15.157-1.71.23-.56.073-1.09.153-1.59.24-.5.08-.95.177-1.35.29-.293.093-.57.213-.83.36-.253.147-.46.337-.62.57-.153.227-.23.51-.23.85 0 .293.073.573.22.84.153.267.387.483.7.65.32.167.737.25 1.25.25zm12.46 1.49c-1.093 0-2.023-.243-2.79-.73-.76-.493-1.34-1.17-1.74-2.03-.4-.86-.607-1.84-.62-2.94.013-1.127.223-2.117.63-2.97.413-.86 1.003-1.53 1.77-2.01.767-.48 1.69-.72 2.77-.72 1.14 0 2.12.28 2.94.84a4.042 4.042 0 011.66 2.3l-1.76.53c-.227-.627-.597-1.113-1.11-1.46-.507-.347-1.09-.52-1.75-.52-.74 0-1.35.173-1.83.52-.48.34-.837.813-1.07 1.42-.233.6-.353 1.29-.36 2.07.013 1.2.29 2.17.83 2.91.547.733 1.357 1.1 2.43 1.1.707 0 1.293-.16 1.76-.48.467-.327.82-.797 1.06-1.41l1.8.47c-.373 1.007-.957 1.777-1.75 2.31-.793.533-1.75.8-2.87.8zm9.326-.3v-9.18h-3.76v-1.62h9.3v1.62h-3.76V113h-1.78zm7.423 0v-10.8h1.78v4.55h5.68v-4.55h1.78V113h-1.78v-4.56h-5.68V113h-1.78zm20.881-10.8V113h-1.72v-7.96l-5.66 7.96h-1.47v-10.8h1.72v7.85l5.67-7.85h1.46zm2.791 10.8l.01-10.8h1.8v5.2l4.53-5.2h2.31l-4.77 5.4 5.33 5.4h-2.49l-4.91-5.2v5.2h-1.81zm14.61.3c-1.074 0-2-.243-2.78-.73-.774-.487-1.37-1.16-1.79-2.02-.42-.86-.63-1.847-.63-2.96 0-1.133.213-2.127.64-2.98a4.757 4.757 0 011.81-1.99c.78-.48 1.696-.72 2.75-.72 1.08 0 2.01.243 2.79.73.78.48 1.376 1.15 1.79 2.01.42.853.63 1.837.63 2.95 0 1.127-.21 2.12-.63 2.98a4.832 4.832 0 01-1.8 2.01c-.78.48-1.707.72-2.78.72zm0-1.69c1.12 0 1.953-.373 2.5-1.12.546-.747.82-1.713.82-2.9 0-1.22-.277-2.19-.83-2.91-.554-.727-1.384-1.09-2.49-1.09-.754 0-1.374.17-1.86.51-.487.34-.85.81-1.09 1.41-.24.6-.36 1.293-.36 2.08 0 1.213.28 2.187.84 2.92.56.733 1.383 1.1 2.47 1.1zm7.401 1.39v-10.8h4.6c.274 0 .567.017.88.05.32.027.61.077.87.15.58.153 1.057.47 1.43.95.38.473.57 1.073.57 1.8 0 .407-.063.76-.19 1.06-.12.3-.293.56-.52.78-.1.1-.21.19-.33.27-.12.08-.24.143-.36.19.234.04.47.13.71.27.38.207.677.497.89.87.22.373.33.85.33 1.43 0 .733-.176 1.34-.53 1.82-.353.473-.84.8-1.46.98-.26.073-.546.123-.86.15-.313.02-.616.03-.91.03h-5.12zm1.8-1.45h3.22c.14 0 .307-.013.5-.04a4.5 4.5 0 00.53-.1c.347-.1.597-.287.75-.56.16-.273.24-.57.24-.89 0-.427-.12-.773-.36-1.04-.233-.267-.543-.433-.93-.5a1.972 1.972 0 00-.46-.07 9.865 9.865 0 00-.43-.01h-3.06v3.21zm0-4.68h2.68c.187 0 .384-.01.59-.03a2.3 2.3 0 00.54-.13c.307-.113.53-.3.67-.56.147-.267.22-.557.22-.87a1.7 1.7 0 00-.24-.91 1.19 1.19 0 00-.71-.55 2.203 2.203 0 00-.72-.13c-.26-.013-.426-.02-.5-.02h-2.53v3.2zM112.4 725v-14.4h11.24V725h-1.78v-12.71h-7.68V725h-1.78zm19.003.3c-1.013 0-1.867-.25-2.56-.75-.693-.507-1.22-1.19-1.58-2.05-.353-.867-.53-1.837-.53-2.91 0-1.087.177-2.06.53-2.92.36-.86.887-1.537 1.58-2.03.7-.493 1.557-.74 2.57-.74 1 0 1.86.25 2.58.75.727.493 1.283 1.17 1.67 2.03.387.86.58 1.83.58 2.91s-.193 2.05-.58 2.91c-.387.86-.943 1.543-1.67 2.05-.72.5-1.583.75-2.59.75zm-4.97 4.5v-15.6h1.59v7.95h.2v7.65h-1.79zm4.75-6.13c.713 0 1.303-.18 1.77-.54.467-.36.817-.847 1.05-1.46.233-.62.35-1.313.35-2.08 0-.76-.117-1.447-.35-2.06-.227-.613-.58-1.1-1.06-1.46-.473-.36-1.077-.54-1.81-.54-.7 0-1.28.173-1.74.52-.46.34-.803.817-1.03 1.43-.227.607-.34 1.31-.34 2.11 0 .787.11 1.49.33 2.11.227.613.573 1.097 1.04 1.45.467.347 1.063.52 1.79.52zm10.322 1.63c-.807 0-1.483-.147-2.03-.44-.54-.3-.95-.693-1.23-1.18a3.216 3.216 0 01-.41-1.6c0-.567.107-1.057.32-1.47.22-.42.527-.767.92-1.04.393-.28.863-.5 1.41-.66.513-.14 1.087-.26 1.72-.36.64-.107 1.287-.203 1.94-.29.653-.087 1.263-.17 1.83-.25l-.64.37c.02-.96-.173-1.67-.58-2.13-.4-.46-1.093-.69-2.08-.69-.653 0-1.227.15-1.72.45-.487.293-.83.773-1.03 1.44l-1.69-.51c.26-.947.763-1.69 1.51-2.23s1.73-.81 2.95-.81c.98 0 1.82.177 2.52.53a3.08 3.08 0 011.52 1.58c.153.333.25.697.29 1.09.04.387.06.793.06 1.22V725h-1.58v-2.59l.37.24c-.407.873-.977 1.533-1.71 1.98-.727.447-1.613.67-2.66.67zm.27-1.49c.64 0 1.193-.113 1.66-.34a3.185 3.185 0 001.14-.91 2.98 2.98 0 00.56-1.24c.1-.333.153-.703.16-1.11.013-.413.02-.73.02-.95l.62.27c-.58.08-1.15.157-1.71.23-.56.073-1.09.153-1.59.24-.5.08-.95.177-1.35.29-.293.093-.57.213-.83.36-.253.147-.46.337-.62.57-.153.227-.23.51-.23.85 0 .293.073.573.22.84.153.267.387.483.7.65.32.167.737.25 1.25.25zm7.9 1.19v-10.8h4.6c.273 0 .567.017.88.05.32.027.61.077.87.15.58.153 1.057.47 1.43.95.38.473.57 1.073.57 1.8 0 .407-.063.76-.19 1.06-.12.3-.293.56-.52.78-.1.1-.21.19-.33.27-.12.08-.24.143-.36.19.233.04.47.13.71.27.38.207.677.497.89.87.22.373.33.85.33 1.43 0 .733-.177 1.34-.53 1.82-.353.473-.84.8-1.46.98-.26.073-.547.123-.86.15-.313.02-.617.03-.91.03h-5.12zm1.8-1.45h3.22c.14 0 .307-.013.5-.04a4.5 4.5 0 00.53-.1c.347-.1.597-.287.75-.56.16-.273.24-.57.24-.89 0-.427-.12-.773-.36-1.04-.233-.267-.543-.433-.93-.5a1.972 1.972 0 00-.46-.07 9.865 9.865 0 00-.43-.01h-3.06v3.21zm0-4.68h2.68c.187 0 .383-.01.59-.03a2.3 2.3 0 00.54-.13c.307-.113.53-.3.67-.56.147-.267.22-.557.22-.87a1.7 1.7 0 00-.24-.91 1.19 1.19 0 00-.71-.55 2.203 2.203 0 00-.72-.13 13.94 13.94 0 00-.5-.02h-2.53v3.2zm8.089 6.13v-1.53c.4.073.703.06.91-.04.213-.107.37-.29.47-.55.107-.267.193-.6.26-1 .113-.633.21-1.34.29-2.12.087-.78.163-1.633.23-2.56.073-.933.14-1.933.2-3h7.55V725h-1.78v-9.11h-4.15c-.04.613-.09 1.243-.15 1.89-.053.647-.11 1.277-.17 1.89-.06.607-.127 1.173-.2 1.7-.067.52-.14.97-.22 1.35-.127.653-.303 1.177-.53 1.57a1.56 1.56 0 01-.98.75c-.427.12-1.003.107-1.73-.04zm17.399.3c-1.06 0-1.987-.233-2.78-.7a4.9 4.9 0 01-1.84-1.97c-.44-.847-.66-1.833-.66-2.96 0-1.18.216-2.2.65-3.06.433-.867 1.036-1.533 1.81-2 .78-.473 1.693-.71 2.74-.71 1.086 0 2.01.25 2.77.75.766.5 1.34 1.213 1.72 2.14.386.927.553 2.03.5 3.31h-1.8v-.64c-.02-1.327-.29-2.317-.81-2.97-.52-.66-1.294-.99-2.32-.99-1.1 0-1.937.353-2.51 1.06-.574.707-.86 1.72-.86 3.04 0 1.273.286 2.26.86 2.96.573.7 1.39 1.05 2.45 1.05.713 0 1.333-.163 1.86-.49.526-.327.94-.797 1.24-1.41l1.71.59c-.42.953-1.054 1.693-1.9 2.22-.84.52-1.784.78-2.83.78zm-3.99-5.2v-1.43h7.98v1.43h-7.98zm11.116 4.9v-10.8h1.78v4.55h5.68v-4.55h1.78V725h-1.78v-4.56h-5.68V725h-1.78zm20.881-10.8V725h-1.72v-7.96l-5.66 7.96h-1.47v-10.8h1.72v7.85l5.67-7.85h1.46zm7.481 11.1c-1.06 0-1.987-.233-2.78-.7a4.9 4.9 0 01-1.84-1.97c-.44-.847-.66-1.833-.66-2.96 0-1.18.217-2.2.65-3.06.433-.867 1.037-1.533 1.81-2 .78-.473 1.693-.71 2.74-.71 1.087 0 2.01.25 2.77.75.767.5 1.34 1.213 1.72 2.14.387.927.553 2.03.5 3.31h-1.8v-.64c-.02-1.327-.29-2.317-.81-2.97-.52-.66-1.293-.99-2.32-.99-1.1 0-1.937.353-2.51 1.06-.573.707-.86 1.72-.86 3.04 0 1.273.287 2.26.86 2.96.573.7 1.39 1.05 2.45 1.05.713 0 1.333-.163 1.86-.49.527-.327.94-.797 1.24-1.41l1.71.59c-.42.953-1.053 1.693-1.9 2.22-.84.52-1.783.78-2.83.78zm-3.99-5.2v-1.43h7.98v1.43h-7.98zM50.4 293v-14.4h1.78v6.35h7.58v-6.35h1.78V293h-1.78v-6.36h-7.58V293H50.4zm17.015.3c-.806 0-1.483-.147-2.03-.44-.54-.3-.95-.693-1.23-1.18a3.213 3.213 0 01-.41-1.6c0-.567.107-1.057.32-1.47.22-.42.527-.767.92-1.04.394-.28.864-.5 1.41-.66.514-.14 1.087-.26 1.72-.36.64-.107 1.287-.203 1.94-.29.654-.087 1.264-.17 1.83-.25l-.64.37c.02-.96-.173-1.67-.58-2.13-.4-.46-1.093-.69-2.08-.69-.653 0-1.226.15-1.72.45-.486.293-.83.773-1.03 1.44l-1.69-.51c.26-.947.764-1.69 1.51-2.23.747-.54 1.73-.81 2.95-.81.98 0 1.82.177 2.52.53a3.08 3.08 0 011.52 1.58c.154.333.25.697.29 1.09.04.387.06.793.06 1.22V293h-1.58v-2.59l.37.24c-.406.873-.976 1.533-1.71 1.98-.726.447-1.613.67-2.66.67zm.27-1.49c.64 0 1.194-.113 1.66-.34a3.18 3.18 0 001.14-.91 2.98 2.98 0 00.56-1.24c.1-.333.154-.703.16-1.11.014-.413.02-.73.02-.95l.62.27c-.58.08-1.15.157-1.71.23-.56.073-1.09.153-1.59.24-.5.08-.95.177-1.35.29-.293.093-.57.213-.83.36-.253.147-.46.337-.62.57-.153.227-.23.51-.23.85 0 .293.074.573.22.84.154.267.387.483.7.65.32.167.737.25 1.25.25zm12.3 1.5c-1.02-.007-1.89-.227-2.61-.66-.72-.44-1.28-1.083-1.68-1.93-.4-.847-.623-1.883-.67-3.11-.026-.567-.02-1.19.02-1.87.047-.68.12-1.333.22-1.96.107-.627.24-1.143.4-1.55.18-.487.434-.937.76-1.35a4.83 4.83 0 011.12-1.04c.42-.287.89-.51 1.41-.67.52-.16 1.064-.283 1.63-.37a39.046 39.046 0 011.72-.24c.574-.073 1.12-.16 1.64-.26l.18 1.6c-.366.08-.8.15-1.3.21a54.8 54.8 0 00-1.56.19 12.34 12.34 0 00-1.54.31 4.346 4.346 0 00-1.26.53c-.52.313-.92.783-1.2 1.41a6.372 6.372 0 00-.5 2.09c.414-.64.95-1.11 1.61-1.41a5.04 5.04 0 012.11-.45c.967 0 1.8.227 2.5.68a4.356 4.356 0 011.61 1.85c.38.787.57 1.683.57 2.69 0 1.067-.213 2-.64 2.8-.426.8-1.03 1.42-1.81 1.86-.773.44-1.683.657-2.73.65zm.11-1.69c1.047 0 1.84-.323 2.38-.97.54-.653.81-1.52.81-2.6 0-1.107-.28-1.977-.84-2.61-.56-.64-1.346-.96-2.36-.96-1.026 0-1.813.32-2.36.96-.54.633-.81 1.503-.81 2.61 0 1.113.274 1.987.82 2.62.547.633 1.334.95 2.36.95zm6.278 1.38v-1.53c.4.073.703.06.91-.04.213-.107.37-.29.47-.55.106-.267.193-.6.26-1 .113-.633.21-1.34.29-2.12.086-.78.163-1.633.23-2.56.073-.933.14-1.933.2-3h7.55V293h-1.78v-9.11h-4.15c-.04.613-.09 1.243-.15 1.89-.054.647-.11 1.277-.17 1.89-.06.607-.127 1.173-.2 1.7-.067.52-.14.97-.22 1.35-.127.653-.304 1.177-.53 1.57a1.56 1.56 0 01-.98.75c-.427.12-1.004.107-1.73-.04zm21.528.3c-.92 0-1.733-.197-2.44-.59a4.512 4.512 0 01-1.69-1.67c-.426-.72-.693-1.57-.8-2.55h-2.11V293h-1.78v-10.8h1.78v4.51h2.1c.107-1 .377-1.86.81-2.58a4.422 4.422 0 011.71-1.65c.707-.387 1.52-.58 2.44-.58 1.074 0 1.997.243 2.77.73a4.763 4.763 0 011.79 2.01c.42.853.63 1.833.63 2.94 0 1.127-.213 2.12-.64 2.98a4.817 4.817 0 01-1.8 2.02c-.773.48-1.696.72-2.77.72zm-.03-1.69c1.134 0 1.974-.37 2.52-1.11.554-.747.83-1.717.83-2.91 0-1.227-.28-2.2-.84-2.92-.553-.72-1.386-1.08-2.5-1.08-1.073 0-1.89.357-2.45 1.07-.56.713-.84 1.687-.84 2.92 0 1.22.277 2.197.83 2.93.56.733 1.377 1.1 2.45 1.1zm6.631 3.79v-3.87c.607 0 1.04-.197 1.3-.59.26-.4.47-1.057.63-1.97.107-.573.194-1.187.26-1.84.067-.653.124-1.38.17-2.18.054-.807.104-1.723.15-2.75h7.44v9.33h1.05v3.87h-1.7V293h-7.6v2.4h-1.7zm2.74-3.87h5.43v-7.86h-4.05a64.726 64.726 0 01-.2 3.03c-.04.513-.09 1-.15 1.46-.053.453-.116.86-.19 1.22-.086.5-.186.923-.3 1.27a2.12 2.12 0 01-.54.88zm13.337 1.77c-.806 0-1.483-.147-2.03-.44-.54-.3-.95-.693-1.23-1.18a3.216 3.216 0 01-.41-1.6c0-.567.107-1.057.32-1.47.22-.42.527-.767.92-1.04.394-.28.864-.5 1.41-.66a16.18 16.18 0 011.72-.36c.64-.107 1.287-.203 1.94-.29.654-.087 1.264-.17 1.83-.25l-.64.37c.02-.96-.173-1.67-.58-2.13-.4-.46-1.093-.69-2.08-.69-.653 0-1.226.15-1.72.45-.486.293-.83.773-1.03 1.44l-1.69-.51c.26-.947.764-1.69 1.51-2.23.747-.54 1.73-.81 2.95-.81.98 0 1.82.177 2.52.53a3.076 3.076 0 011.52 1.58c.154.333.25.697.29 1.09.04.387.06.793.06 1.22V293h-1.58v-2.59l.37.24c-.406.873-.976 1.533-1.71 1.98-.726.447-1.613.67-2.66.67zm.27-1.49c.64 0 1.194-.113 1.66-.34a3.168 3.168 0 001.14-.91c.287-.38.474-.793.56-1.24.1-.333.154-.703.16-1.11.014-.413.02-.73.02-.95l.62.27c-.58.08-1.15.157-1.71.23-.56.073-1.09.153-1.59.24-.5.08-.95.177-1.35.29-.293.093-.57.213-.83.36-.253.147-.46.337-.62.57-.153.227-.23.51-.23.85 0 .293.074.573.22.84.154.267.387.483.7.65.32.167.737.25 1.25.25zm10.77 1.19v-9.18h-3.76v-1.62h9.3v1.62h-3.76V293h-1.78zm12.113.3c-1.06 0-1.986-.233-2.78-.7a4.906 4.906 0 01-1.84-1.97c-.44-.847-.66-1.833-.66-2.96 0-1.18.217-2.2.65-3.06.434-.867 1.037-1.533 1.81-2 .78-.473 1.694-.71 2.74-.71 1.087 0 2.01.25 2.77.75.767.5 1.34 1.213 1.72 2.14.387.927.554 2.03.5 3.31h-1.8v-.64c-.02-1.327-.29-2.317-.81-2.97-.52-.66-1.293-.99-2.32-.99-1.1 0-1.936.353-2.51 1.06-.573.707-.86 1.72-.86 3.04 0 1.273.287 2.26.86 2.96.574.7 1.39 1.05 2.45 1.05.714 0 1.334-.163 1.86-.49.527-.327.94-.797 1.24-1.41l1.71.59c-.42.953-1.053 1.693-1.9 2.22-.84.52-1.783.78-2.83.78zm-3.99-5.2v-1.43h7.98v1.43h-7.98zm10.127 4.9v-1.53c.4.073.703.06.91-.04.213-.107.37-.29.47-.55.106-.267.193-.6.26-1 .113-.633.21-1.34.29-2.12.086-.78.163-1.633.23-2.56.073-.933.14-1.933.2-3h7.55V293h-1.78v-9.11h-4.15c-.04.613-.09 1.243-.15 1.89-.054.647-.11 1.277-.17 1.89-.06.607-.127 1.173-.2 1.7-.067.52-.14.97-.22 1.35-.127.653-.304 1.177-.53 1.57a1.563 1.563 0 01-.98.75c-.427.12-1.004.107-1.73-.04zm12.719 0l-.01-10.8h1.79v3.91h2.329c.314 0 .634.007.961.02.326.013.61.043.85.09a4.17 4.17 0 011.47.56c.42.267.746.63.98 1.09.233.453.35 1.017.35 1.69 0 .933-.244 1.673-.73 2.22-.48.54-1.11.9-1.89 1.08-.267.06-.574.1-.92.12-.34.013-.664.02-.97.02h-4.21zm1.78-1.47h2.46c.2 0 .423-.007.67-.02.246-.013.466-.047.66-.1.34-.1.643-.297.91-.59.273-.293.41-.713.41-1.26 0-.553-.134-.98-.4-1.28a1.84 1.84 0 00-1.03-.59 3.487 3.487 0 00-.61-.09c-.214-.013-.417-.02-.61-.02h-2.46v3.95zm8.835 1.47v-10.8h1.78v4.55h5.68v-4.55h1.78V293h-1.78v-4.56h-5.68V293h-1.78zm12.041 0l-.01-10.8h1.79v3.91h1.65c.313 0 .633.007.96.02.326.013.61.043.85.09.56.113 1.05.303 1.47.57.42.267.746.627.98 1.08.233.453.35 1.017.35 1.69 0 .933-.244 1.673-.73 2.22-.48.54-1.11.9-1.89 1.08-.267.06-.574.1-.92.12-.34.013-.664.02-.97.02h-3.53zm1.78-1.47h1.78c.2 0 .423-.007.67-.02.246-.013.466-.047.66-.1.34-.1.643-.297.91-.59.273-.293.41-.713.41-1.26 0-.553-.134-.98-.4-1.28a1.84 1.84 0 00-1.03-.59 3.487 3.487 0 00-.61-.09c-.214-.013-.417-.02-.61-.02h-1.78v3.95zm7.5 1.47v-10.8h1.78V293h-1.78zm9.237-12.06c-.5 0-.957-.123-1.37-.37a2.85 2.85 0 01-.99-.98 2.637 2.637 0 01-.37-1.38h1.44c0 .353.127.657.38.91s.557.38.91.38c.36 0 .663-.127.91-.38.253-.253.38-.557.38-.91h1.44c0 .507-.123.967-.37 1.38-.24.407-.57.733-.99.98a2.62 2.62 0 01-1.37.37zm4.19 1.26V293h-1.72v-7.96l-5.66 7.96h-1.47v-10.8h1.72v7.85l5.67-7.85h1.46zm11.354 11.1c-1.093 0-2.023-.243-2.79-.73-.76-.493-1.34-1.17-1.74-2.03-.4-.86-.606-1.84-.62-2.94.014-1.127.224-2.117.63-2.97.414-.86 1.004-1.53 1.77-2.01.767-.48 1.69-.72 2.77-.72 1.14 0 2.12.28 2.94.84a4.042 4.042 0 011.66 2.3l-1.76.53c-.226-.627-.596-1.113-1.11-1.46-.506-.347-1.09-.52-1.75-.52-.74 0-1.35.173-1.83.52-.48.34-.836.813-1.07 1.42-.233.6-.353 1.29-.36 2.07.014 1.2.29 2.17.83 2.91.547.733 1.357 1.1 2.43 1.1.707 0 1.294-.16 1.76-.48.467-.327.82-.797 1.06-1.41l1.8.47c-.373 1.007-.956 1.777-1.75 2.31-.793.533-1.75.8-2.87.8zm10.968 0c-1.073 0-2-.243-2.78-.73a4.842 4.842 0 01-1.79-2.02c-.42-.86-.63-1.847-.63-2.96 0-1.133.214-2.127.64-2.98.427-.853 1.03-1.517 1.81-1.99.78-.48 1.697-.72 2.75-.72 1.08 0 2.01.243 2.79.73.78.48 1.377 1.15 1.79 2.01.42.853.63 1.837.63 2.95 0 1.127-.21 2.12-.63 2.98a4.832 4.832 0 01-1.8 2.01c-.78.48-1.706.72-2.78.72zm0-1.69c1.12 0 1.954-.373 2.5-1.12.547-.747.82-1.713.82-2.9 0-1.22-.276-2.19-.83-2.91-.553-.727-1.383-1.09-2.49-1.09-.753 0-1.373.17-1.86.51-.486.34-.85.81-1.09 1.41-.24.6-.36 1.293-.36 2.08 0 1.213.28 2.187.84 2.92.56.733 1.384 1.1 2.47 1.1zm7.402 1.39v-10.8h4.6c.273 0 .567.017.88.05.32.027.61.077.87.15.58.153 1.057.47 1.43.95.38.473.57 1.073.57 1.8 0 .407-.063.76-.19 1.06-.12.3-.293.56-.52.78-.1.1-.21.19-.33.27-.12.08-.24.143-.36.19.233.04.47.13.71.27.38.207.677.497.89.87.22.373.33.85.33 1.43 0 .733-.177 1.34-.53 1.82-.353.473-.84.8-1.46.98-.26.073-.547.123-.86.15-.313.02-.617.03-.91.03h-5.12zm1.8-1.45h3.22c.14 0 .307-.013.5-.04a4.5 4.5 0 00.53-.1c.347-.1.597-.287.75-.56.16-.273.24-.57.24-.89 0-.427-.12-.773-.36-1.04-.233-.267-.543-.433-.93-.5a1.972 1.972 0 00-.46-.07 9.865 9.865 0 00-.43-.01h-3.06v3.21zm0-4.68h2.68c.187 0 .383-.01.59-.03a2.3 2.3 0 00.54-.13c.307-.113.53-.3.67-.56.147-.267.22-.557.22-.87a1.7 1.7 0 00-.24-.91 1.19 1.19 0 00-.71-.55 2.203 2.203 0 00-.72-.13 13.94 13.94 0 00-.5-.02h-2.53v3.2zm13.769 6.43c-1.06 0-1.987-.233-2.78-.7a4.9 4.9 0 01-1.84-1.97c-.44-.847-.66-1.833-.66-2.96 0-1.18.217-2.2.65-3.06.433-.867 1.037-1.533 1.81-2 .78-.473 1.693-.71 2.74-.71 1.087 0 2.01.25 2.77.75.767.5 1.34 1.213 1.72 2.14.387.927.553 2.03.5 3.31h-1.8v-.64c-.02-1.327-.29-2.317-.81-2.97-.52-.66-1.293-.99-2.32-.99-1.1 0-1.937.353-2.51 1.06-.573.707-.86 1.72-.86 3.04 0 1.273.287 2.26.86 2.96.573.7 1.39 1.05 2.45 1.05.713 0 1.333-.163 1.86-.49.527-.327.94-.797 1.24-1.41l1.71.59c-.42.953-1.053 1.693-1.9 2.22-.84.52-1.783.78-2.83.78zm-3.99-5.2v-1.43h7.98v1.43h-7.98zm13.791 4.9v-9.18h-3.76v-1.62h9.3v1.62h-3.76V293h-1.78z"/>
  <path fill="#000" d="M26.12 370v-11.52h1.424v5.408l5.04-5.408h1.792l-5.232 5.592 5.64 5.928h-1.84l-5.4-5.632V370H26.12zm12.82.24c-.858 0-1.6-.195-2.223-.584a3.868 3.868 0 01-1.432-1.616c-.336-.688-.504-1.477-.504-2.368 0-.907.17-1.701.512-2.384a3.81 3.81 0 011.448-1.592c.624-.384 1.357-.576 2.2-.576.864 0 1.608.195 2.232.584.624.384 1.101.92 1.432 1.608.336.683.504 1.469.504 2.36 0 .901-.168 1.696-.504 2.384a3.858 3.858 0 01-1.44 1.608c-.624.384-1.366.576-2.224.576zm0-1.352c.897 0 1.563-.299 2-.896.438-.597.657-1.371.657-2.32 0-.976-.222-1.752-.664-2.328-.443-.581-1.107-.872-1.992-.872-.603 0-1.099.136-1.488.408-.39.272-.68.648-.872 1.128-.192.48-.288 1.035-.288 1.664 0 .971.224 1.749.672 2.336.448.587 1.106.88 1.976.88zM44.863 370v-8.64h1.224l3.28 6.704 3.28-6.704h1.224V370h-1.376v-5.672L49.742 370h-.752l-2.752-5.672V370h-1.376zm18.314-8.64V370H61.8v-6.368L57.272 370h-1.176v-8.64h1.376v6.28l4.536-6.28h1.168zm4.529 8.64v-7.344h-3.008v-1.296h7.44v1.296h-3.008V370h-1.424zm9.69.24c-.848 0-1.59-.187-2.224-.56a3.924 3.924 0 01-1.472-1.576c-.352-.677-.528-1.467-.528-2.368 0-.944.174-1.76.52-2.448.347-.693.83-1.227 1.448-1.6.624-.379 1.355-.568 2.192-.568.87 0 1.608.2 2.216.6.614.4 1.072.971 1.376 1.712.31.741.443 1.624.4 2.648h-1.44v-.512c-.016-1.061-.232-1.853-.648-2.376-.416-.528-1.034-.792-1.856-.792-.88 0-1.55.283-2.008.848-.458.565-.688 1.376-.688 2.432 0 1.019.23 1.808.688 2.368.459.56 1.112.84 1.96.84.57 0 1.067-.131 1.488-.392.422-.261.752-.637.992-1.128l1.368.472a3.871 3.871 0 01-1.52 1.776c-.672.416-1.426.624-2.264.624zm-3.192-4.16v-1.144h6.384v1.144h-6.384zM85.236 370v-7.344h-3.008v-1.296h7.44v1.296H86.66V370h-1.424zm9.142 0v-8.64h7.08V370h-1.424v-7.288h-4.232V370h-1.424zm13 .24c-.859 0-1.6-.195-2.224-.584a3.866 3.866 0 01-1.432-1.616c-.336-.688-.504-1.477-.504-2.368 0-.907.171-1.701.512-2.384a3.807 3.807 0 011.448-1.592c.624-.384 1.357-.576 2.2-.576.864 0 1.608.195 2.232.584a3.75 3.75 0 011.432 1.608c.336.683.504 1.469.504 2.36 0 .901-.168 1.696-.504 2.384a3.858 3.858 0 01-1.44 1.608c-.624.384-1.365.576-2.224.576zm0-1.352c.896 0 1.563-.299 2-.896.437-.597.656-1.371.656-2.32 0-.976-.221-1.752-.664-2.328-.443-.581-1.107-.872-1.992-.872-.603 0-1.099.136-1.488.408-.389.272-.68.648-.872 1.128-.192.48-.288 1.035-.288 1.664 0 .971.224 1.749.672 2.336.448.587 1.107.88 1.976.88zm9.125 1.112v-8.64h1.424V365h4.544v-3.64h1.424V370h-1.424v-3.648h-4.544V370h-1.424zm13.313.24c-.859 0-1.6-.195-2.224-.584a3.866 3.866 0 01-1.432-1.616c-.336-.688-.504-1.477-.504-2.368 0-.907.17-1.701.512-2.384a3.807 3.807 0 011.448-1.592c.624-.384 1.357-.576 2.2-.576.864 0 1.608.195 2.232.584a3.75 3.75 0 011.432 1.608c.336.683.504 1.469.504 2.36 0 .901-.168 1.696-.504 2.384a3.858 3.858 0 01-1.44 1.608c-.624.384-1.366.576-2.224.576zm0-1.352c.896 0 1.562-.299 2-.896.437-.597.656-1.371.656-2.32 0-.976-.222-1.752-.664-2.328-.443-.581-1.107-.872-1.992-.872-.603 0-1.099.136-1.488.408-.39.272-.68.648-.872 1.128-.192.48-.288 1.035-.288 1.664 0 .971.224 1.749.672 2.336.448.587 1.106.88 1.976.88zm5.921 1.112v-8.64h1.224l3.28 6.704 3.28-6.704h1.224V370h-1.376v-5.672L140.617 370h-.752l-2.752-5.672V370h-1.376zm18.314-8.64V370h-1.376v-6.368L148.147 370h-1.176v-8.64h1.376v6.28l4.536-6.28h1.168zm2.233 8.64v-8.64h1.424V365h4.544v-3.64h1.424V370h-1.424v-3.648h-4.544V370h-1.424zm12.089.24c-.645 0-1.187-.117-1.624-.352a2.51 2.51 0 01-.984-.944 2.565 2.565 0 01-.328-1.28c0-.453.085-.845.256-1.176.176-.336.421-.613.736-.832.315-.224.691-.4 1.128-.528.411-.112.869-.208 1.376-.288a47.041 47.041 0 011.552-.232c.523-.069 1.011-.136 1.464-.2l-.512.296c.016-.768-.139-1.336-.464-1.704-.32-.368-.875-.552-1.664-.552-.523 0-.981.12-1.376.36-.389.235-.664.619-.824 1.152l-1.352-.408c.208-.757.611-1.352 1.208-1.784.597-.432 1.384-.648 2.36-.648.784 0 1.456.141 2.016.424.565.277.971.699 1.216 1.264.123.267.2.557.232.872.032.309.048.635.048.976V370h-1.264v-2.072l.296.192c-.325.699-.781 1.227-1.368 1.584-.581.357-1.291.536-2.128.536zm.216-1.192c.512 0 .955-.091 1.328-.272.379-.187.683-.429.912-.728.229-.304.379-.635.448-.992.08-.267.123-.563.128-.888.011-.331.016-.584.016-.76l.496.216c-.464.064-.92.125-1.368.184-.448.059-.872.123-1.272.192a9.4 9.4 0 00-1.08.232 3.553 3.553 0 00-.664.288 1.498 1.498 0 00-.496.456c-.123.181-.184.408-.184.68 0 .235.059.459.176.672.123.213.309.387.56.52.256.133.589.2 1 .2zm13.688 2.552V370h-7.368v-8.64h1.424v7.288h4.232v-7.288h1.424v7.344h1.712v2.896h-1.424zm9.774-10.24V370h-1.376v-6.368L186.147 370h-1.176v-8.64h1.376v6.28l4.536-6.28h1.168zm7.577 8.64v-3.128h-1.864c-.219 0-.461-.008-.728-.024a9.299 9.299 0 01-.736-.088 2.956 2.956 0 01-1.584-.824c-.427-.432-.64-1.029-.64-1.792 0-.741.2-1.336.6-1.784a2.779 2.779 0 011.496-.88 3.75 3.75 0 01.808-.104c.277-.011.512-.016.704-.016h3.368l.008 8.64h-1.432zm-5.816 0l2.296-3.52h1.536l-2.296 3.52h-1.536zm3.848-4.304h1.968v-3.16h-1.968c-.123 0-.285.005-.488.016a2.517 2.517 0 00-.568.096 1.476 1.476 0 00-.904.76c-.107.203-.16.443-.16.72 0 .4.112.725.336.976.224.245.496.411.816.496.176.043.349.069.52.08.176.011.325.016.448.016zM203.3 370v-8.64h1.224l3.28 6.704 3.28-6.704h1.224V370h-1.376v-5.672L208.18 370h-.752l-2.752-5.672V370H203.3zM33.192 383.36V392h-1.376v-6.368L27.288 392h-1.176v-8.64h1.376v6.28l4.536-6.28h1.168zm5.436 8.64v-8.64h3.68c.218 0 .453.013.704.04.256.021.488.061.696.12.464.123.845.376 1.144.76.304.379.456.859.456 1.44 0 .325-.051.608-.152.848a1.78 1.78 0 01-.416.624 1.727 1.727 0 01-.552.368 1.7 1.7 0 01.568.216c.304.165.541.397.712.696.176.299.264.68.264 1.144 0 .587-.142 1.072-.424 1.456-.283.379-.672.64-1.168.784a3.634 3.634 0 01-.688.12c-.251.016-.494.024-.728.024h-4.096zm1.44-1.16h2.576c.112 0 .245-.011.4-.032.16-.021.301-.048.424-.08.277-.08.477-.229.6-.448.128-.219.192-.456.192-.712 0-.341-.096-.619-.288-.832a1.231 1.231 0 00-.744-.4 1.548 1.548 0 00-.368-.056 8.98 8.98 0 00-.344-.008h-2.448v2.568zm0-3.744h2.144c.149 0 .306-.008.472-.024.165-.021.309-.056.432-.104a.96.96 0 00.536-.448c.117-.213.176-.445.176-.696 0-.277-.064-.52-.192-.728a.955.955 0 00-.568-.44 1.749 1.749 0 00-.576-.104 9.798 9.798 0 00-.4-.016h-2.024v2.56zm10.95 5.144c-.858 0-1.6-.195-2.223-.584a3.868 3.868 0 01-1.432-1.616c-.336-.688-.504-1.477-.504-2.368 0-.907.17-1.701.512-2.384a3.809 3.809 0 011.448-1.592c.624-.384 1.357-.576 2.2-.576.864 0 1.608.195 2.232.584.624.384 1.101.92 1.432 1.608.336.683.504 1.469.504 2.36 0 .901-.168 1.696-.504 2.384a3.858 3.858 0 01-1.44 1.608c-.624.384-1.366.576-2.224.576zm0-1.352c.897 0 1.563-.299 2-.896.438-.597.657-1.371.657-2.32 0-.976-.222-1.752-.664-2.328-.443-.581-1.107-.872-1.992-.872-.603 0-1.099.136-1.488.408-.39.272-.68.648-.872 1.128-.192.48-.288 1.035-.288 1.664 0 .971.224 1.749.672 2.336.448.587 1.106.88 1.976.88zm8.823 1.352c-.853 0-1.608-.184-2.264-.552a4.121 4.121 0 01-1.552-1.536l1.136-.736c.315.475.69.84 1.128 1.096.437.251.936.376 1.496.376.587 0 1.053-.133 1.4-.4.347-.272.52-.637.52-1.096 0-.341-.085-.603-.256-.784-.17-.181-.416-.307-.736-.376a5.494 5.494 0 00-1.144-.104h-.896v-1.176h.888c.56 0 1.016-.091 1.368-.272.352-.181.528-.491.528-.928 0-.448-.165-.773-.496-.976-.325-.208-.715-.312-1.168-.312-.48 0-.939.101-1.376.304a3.929 3.929 0 00-1.128.752l-.864-.968a4.678 4.678 0 011.544-1.056 4.81 4.81 0 011.912-.376c.555 0 1.061.099 1.52.296a2.5 2.5 0 011.104.856c.277.373.416.829.416 1.368 0 .459-.107.867-.32 1.224-.213.357-.528.669-.944.936l-.056-.504c.352.085.643.243.872.472.235.224.408.491.52.8.112.309.168.632.168.968 0 .565-.15 1.051-.448 1.456-.293.4-.69.709-1.192.928a4.256 4.256 0 01-1.68.32zm5.068-.24v-8.64h1.424V387h4.544v-3.64H72.3V392h-1.424v-3.648h-4.544V392h-1.424zm12.089.24c-.645 0-1.187-.117-1.624-.352a2.51 2.51 0 01-.984-.944 2.568 2.568 0 01-.328-1.28c0-.453.085-.845.256-1.176.176-.336.421-.613.736-.832.314-.224.69-.4 1.128-.528.41-.112.87-.208 1.376-.288a47.16 47.16 0 011.552-.232c.522-.069 1.01-.136 1.464-.2l-.512.296c.016-.768-.139-1.336-.464-1.704-.32-.368-.875-.552-1.664-.552-.523 0-.981.12-1.376.36-.39.235-.664.619-.824 1.152l-1.352-.408c.208-.757.61-1.352 1.208-1.784.597-.432 1.384-.648 2.36-.648.784 0 1.456.141 2.016.424.565.277.97.699 1.216 1.264.123.267.2.557.232.872.032.309.048.635.048.976V392h-1.264v-2.072l.296.192c-.326.699-.781 1.227-1.368 1.584-.582.357-1.29.536-2.128.536zm.216-1.192c.512 0 .954-.091 1.328-.272.379-.187.683-.429.912-.728.23-.304.379-.635.448-.992.08-.267.123-.563.128-.888.01-.331.016-.584.016-.76l.496.216c-.464.064-.92.125-1.368.184-.448.059-.872.123-1.272.192a9.4 9.4 0 00-1.08.232 3.561 3.561 0 00-.664.288 1.501 1.501 0 00-.496.456c-.123.181-.184.408-.184.68 0 .235.059.459.176.672.123.213.31.387.56.52.256.133.59.2 1 .2zm6.328.952v-8.64h6v1.352h-4.576V392h-1.424zm11.483.24c-.81 0-1.493-.2-2.047-.6-.555-.405-.977-.952-1.264-1.64-.283-.693-.424-1.469-.424-2.328 0-.869.14-1.648.423-2.336.288-.688.71-1.229 1.265-1.624.56-.395 1.245-.592 2.056-.592.8 0 1.487.2 2.063.6.582.395 1.027.936 1.337 1.624.309.688.463 1.464.463 2.328 0 .864-.154 1.64-.464 2.328a3.9 3.9 0 01-1.336 1.64c-.575.4-1.266.6-2.072.6zm-3.976 3.6v-12.48h1.272v6.36h.16v6.12H91.05zm3.8-4.904c.571 0 1.043-.144 1.416-.432.374-.288.654-.677.84-1.168.187-.496.28-1.051.28-1.664 0-.608-.093-1.157-.28-1.648a2.503 2.503 0 00-.848-1.168c-.378-.288-.86-.432-1.448-.432-.56 0-1.023.139-1.391.416-.369.272-.643.653-.825 1.144-.18.485-.272 1.048-.272 1.688 0 .629.088 1.192.264 1.688.182.491.46.877.833 1.16.373.277.85.416 1.431.416zm8.258 1.304c-.645 0-1.186-.117-1.624-.352a2.51 2.51 0 01-.984-.944 2.575 2.575 0 01-.328-1.28c0-.453.086-.845.256-1.176.176-.336.422-.613.736-.832.315-.224.691-.4 1.128-.528.411-.112.87-.208 1.376-.288.512-.085 1.03-.163 1.552-.232.523-.069 1.011-.136 1.464-.2l-.512.296c.016-.768-.138-1.336-.464-1.704-.32-.368-.874-.552-1.664-.552-.522 0-.981.12-1.376.36-.389.235-.664.619-.824 1.152l-1.352-.408c.208-.757.611-1.352 1.208-1.784.598-.432 1.384-.648 2.36-.648.784 0 1.456.141 2.016.424a2.46 2.46 0 011.216 1.264c.123.267.2.557.232.872.032.309.048.635.048.976V392h-1.264v-2.072l.296.192c-.325.699-.781 1.227-1.368 1.584-.581.357-1.29.536-2.128.536zm.216-1.192c.512 0 .955-.091 1.328-.272.379-.187.683-.429.912-.728.23-.304.379-.635.448-.992.08-.267.123-.563.128-.888.011-.331.016-.584.016-.76l.496.216c-.464.064-.92.125-1.368.184-.448.059-.872.123-1.272.192a9.4 9.4 0 00-1.08.232 3.581 3.581 0 00-.664.288 1.508 1.508 0 00-.496.456 1.191 1.191 0 00-.184.68c0 .235.059.459.176.672.123.213.31.387.56.52.256.133.59.2 1 .2zm5.368.952l3.488-4.32-3.32-4.32h1.584l3.208 4.24v-4.24h1.296v4.24l3.208-4.24h1.584l-3.32 4.32 3.488 4.32h-1.656l-3.304-4.24V392h-1.296v-4.24l-3.304 4.24h-1.656zm11.539 1.92v-3.096c.485 0 .832-.157 1.04-.472.208-.32.376-.845.504-1.576.085-.459.155-.949.208-1.472.053-.523.099-1.104.136-1.744.043-.645.083-1.379.12-2.2h5.952v7.464h.84v3.096h-1.36V392h-6.08v1.92h-1.36zm2.192-3.096h4.344v-6.288h-3.24a52.746 52.746 0 01-.16 2.424c-.032.411-.072.8-.12 1.168-.043.363-.093.688-.152.976-.069.4-.149.739-.24 1.016a1.712 1.712 0 01-.432.704zm11.958 1.416c-.848 0-1.59-.187-2.224-.56a3.92 3.92 0 01-1.472-1.576c-.352-.677-.528-1.467-.528-2.368 0-.944.173-1.76.52-2.448.346-.693.829-1.227 1.448-1.6.624-.379 1.354-.568 2.192-.568.869 0 1.608.2 2.216.6.613.4 1.072.971 1.376 1.712.309.741.442 1.624.4 2.648h-1.44v-.512c-.016-1.061-.232-1.853-.648-2.376-.416-.528-1.035-.792-1.856-.792-.88 0-1.55.283-2.008.848-.459.565-.688 1.376-.688 2.432 0 1.019.229 1.808.688 2.368.458.56 1.112.84 1.96.84.57 0 1.066-.131 1.488-.392.421-.261.752-.637.992-1.128l1.368.472a3.873 3.873 0 01-1.52 1.776c-.672.416-1.427.624-2.264.624zm-3.192-4.16v-1.144h6.384v1.144h-6.384zm8.893 3.92v-8.64h1.424V387h4.544v-3.64h1.424V392h-1.424v-3.648h-4.544V392h-1.424zm16.705-8.64V392h-1.376v-6.368L150.882 392h-1.176v-8.64h1.376v6.28l4.536-6.28h1.168zm7.576 8.64v-3.128h-1.864c-.218 0-.461-.008-.728-.024a9.356 9.356 0 01-.736-.088 2.956 2.956 0 01-1.584-.824c-.426-.432-.64-1.029-.64-1.792 0-.741.2-1.336.6-1.784a2.782 2.782 0 011.496-.88 3.75 3.75 0 01.808-.104c.278-.011.512-.016.704-.016h3.368l.008 8.64h-1.432zm-5.816 0l2.296-3.52h1.536l-2.296 3.52h-1.536zm3.848-4.304h1.968v-3.16h-1.968c-.122 0-.285.005-.488.016a2.527 2.527 0 00-.568.096c-.17.048-.338.136-.504.264-.16.128-.293.293-.4.496-.106.203-.16.443-.16.72 0 .4.112.725.336.976.224.245.496.411.816.496.176.043.35.069.52.08.176.011.326.016.448.016zm5.64 4.304v-8.64h1.224l3.28 6.704 3.28-6.704h1.224V392h-1.376v-5.672L172.914 392h-.752l-2.752-5.672V392h-1.376zM26.12 477v-11.52h1.424v5.408l5.04-5.408h1.792l-5.232 5.592 5.64 5.928h-1.84l-5.4-5.632V477H26.12zm12.82.24c-.858 0-1.6-.195-2.223-.584a3.868 3.868 0 01-1.432-1.616c-.336-.688-.504-1.477-.504-2.368 0-.907.17-1.701.512-2.384a3.81 3.81 0 011.448-1.592c.624-.384 1.357-.576 2.2-.576.864 0 1.608.195 2.232.584.624.384 1.101.92 1.432 1.608.336.683.504 1.469.504 2.36 0 .901-.168 1.696-.504 2.384a3.858 3.858 0 01-1.44 1.608c-.624.384-1.366.576-2.224.576zm0-1.352c.897 0 1.563-.299 2-.896.438-.597.657-1.371.657-2.32 0-.976-.222-1.752-.664-2.328-.443-.581-1.107-.872-1.992-.872-.603 0-1.099.136-1.488.408-.39.272-.68.648-.872 1.128-.192.48-.288 1.035-.288 1.664 0 .971.224 1.749.672 2.336.448.587 1.106.88 1.976.88zM44.863 477v-8.64h1.224l3.28 6.704 3.28-6.704h1.224V477h-1.376v-5.672L49.742 477h-.752l-2.752-5.672V477h-1.376zm18.314-8.64V477H61.8v-6.368L57.272 477h-1.176v-8.64h1.376v6.28l4.536-6.28h1.168zm4.529 8.64v-7.344h-3.008v-1.296h7.44v1.296h-3.008V477h-1.424zm9.69.24c-.848 0-1.59-.187-2.224-.56a3.924 3.924 0 01-1.472-1.576c-.352-.677-.528-1.467-.528-2.368 0-.944.174-1.76.52-2.448.347-.693.83-1.227 1.448-1.6.624-.379 1.355-.568 2.192-.568.87 0 1.608.2 2.216.6.614.4 1.072.971 1.376 1.712.31.741.443 1.624.4 2.648h-1.44v-.512c-.016-1.061-.232-1.853-.648-2.376-.416-.528-1.034-.792-1.856-.792-.88 0-1.55.283-2.008.848-.458.565-.688 1.376-.688 2.432 0 1.019.23 1.808.688 2.368.459.56 1.112.84 1.96.84.57 0 1.067-.131 1.488-.392.422-.261.752-.637.992-1.128l1.368.472a3.871 3.871 0 01-1.52 1.776c-.672.416-1.426.624-2.264.624zm-3.192-4.16v-1.144h6.384v1.144h-6.384zM85.236 477v-7.344h-3.008v-1.296h7.44v1.296H86.66V477h-1.424zm9.142 0v-8.64h7.08V477h-1.424v-7.288h-4.232V477h-1.424zm13 .24c-.859 0-1.6-.195-2.224-.584a3.866 3.866 0 01-1.432-1.616c-.336-.688-.504-1.477-.504-2.368 0-.907.171-1.701.512-2.384a3.807 3.807 0 011.448-1.592c.624-.384 1.357-.576 2.2-.576.864 0 1.608.195 2.232.584a3.75 3.75 0 011.432 1.608c.336.683.504 1.469.504 2.36 0 .901-.168 1.696-.504 2.384a3.858 3.858 0 01-1.44 1.608c-.624.384-1.365.576-2.224.576zm0-1.352c.896 0 1.563-.299 2-.896.437-.597.656-1.371.656-2.32 0-.976-.221-1.752-.664-2.328-.443-.581-1.107-.872-1.992-.872-.603 0-1.099.136-1.488.408-.389.272-.68.648-.872 1.128-.192.48-.288 1.035-.288 1.664 0 .971.224 1.749.672 2.336.448.587 1.107.88 1.976.88zm11.589 1.352c-.646 0-1.187-.117-1.624-.352a2.51 2.51 0 01-.984-.944 2.565 2.565 0 01-.328-1.28c0-.453.085-.845.256-1.176.176-.336.421-.613.736-.832.314-.224.69-.4 1.128-.528.41-.112.869-.208 1.376-.288a47.041 47.041 0 011.552-.232c.522-.069 1.01-.136 1.464-.2l-.512.296c.016-.768-.139-1.336-.464-1.704-.32-.368-.875-.552-1.664-.552-.523 0-.982.12-1.376.36-.39.235-.664.619-.824 1.152l-1.352-.408c.208-.757.61-1.352 1.208-1.784.597-.432 1.384-.648 2.36-.648.784 0 1.456.141 2.016.424.565.277.97.699 1.216 1.264.122.267.2.557.232.872.032.309.048.635.048.976V477h-1.264v-2.072l.296.192c-.326.699-.782 1.227-1.368 1.584-.582.357-1.291.536-2.128.536zm.216-1.192c.512 0 .954-.091 1.328-.272.378-.187.682-.429.912-.728a2.4 2.4 0 00.448-.992c.08-.267.122-.563.128-.888.01-.331.016-.584.016-.76l.496.216c-.464.064-.92.125-1.368.184-.448.059-.872.123-1.272.192a9.4 9.4 0 00-1.08.232 3.553 3.553 0 00-.664.288 1.498 1.498 0 00-.496.456c-.123.181-.184.408-.184.68 0 .235.058.459.176.672.122.213.309.387.56.52.256.133.589.2 1 .2zm7.043 4.792l1.672-4.544.024 1.344-3.776-9.28h1.496l2.96 7.464h-.512l2.776-7.464h1.448l-4.704 12.48h-1.384zm6.457-1.92v-3.096c.485 0 .832-.157 1.04-.472.208-.32.376-.845.504-1.576.085-.459.155-.949.208-1.472.053-.523.099-1.104.136-1.744.043-.645.083-1.379.12-2.2h5.952v7.464h.84v3.096h-1.36V477h-6.08v1.92h-1.36zm2.192-3.096h4.344v-6.288h-3.24a52.746 52.746 0 01-.16 2.424c-.032.411-.072.8-.12 1.168-.043.363-.093.688-.152.976-.069.4-.149.739-.24 1.016a1.712 1.712 0 01-.432.704zm15.286-7.464V477h-1.376v-6.368L144.257 477h-1.176v-8.64h1.376v6.28l4.536-6.28h1.168zm4.528 8.64v-7.344h-3.008v-1.296h7.44v1.296h-3.008V477h-1.424zm6.99 3.84l1.672-4.544.024 1.344-3.776-9.28h1.496l2.96 7.464h-.512l2.776-7.464h1.448l-4.704 12.48h-1.384zM30.856 560.24c-1.147 0-2.12-.253-2.92-.76-.8-.507-1.41-1.211-1.832-2.112-.416-.901-.624-1.944-.624-3.128 0-1.184.208-2.227.624-3.128.421-.901 1.032-1.605 1.832-2.112.8-.507 1.773-.76 2.92-.76 1.333 0 2.43.339 3.288 1.016.864.677 1.459 1.589 1.784 2.736l-1.448.384c-.235-.859-.653-1.536-1.256-2.032s-1.392-.744-2.368-.744c-.859 0-1.573.195-2.144.584-.57.389-1 .933-1.288 1.632-.288.693-.435 1.501-.44 2.424-.005.917.136 1.725.424 2.424.288.693.72 1.237 1.296 1.632.576.389 1.293.584 2.152.584.976 0 1.765-.248 2.368-.744.603-.501 1.021-1.179 1.256-2.032l1.448.384c-.325 1.141-.92 2.053-1.784 2.736-.859.677-1.955 1.016-3.288 1.016zm6.026-.24v-1.224c.32.059.563.048.729-.032a.777.777 0 00.376-.44c.085-.213.154-.48.207-.8.091-.507.168-1.072.232-1.696.07-.624.131-1.307.184-2.048.06-.747.112-1.547.16-2.4h6.04V560h-1.424v-7.288h-3.32a55.19 55.19 0 01-.12 1.512c-.042.517-.087 1.021-.136 1.512-.047.485-.1.939-.16 1.36-.053.416-.111.776-.175 1.08-.102.523-.243.941-.425 1.256a1.252 1.252 0 01-.783.6c-.342.096-.803.085-1.385-.032zm11.376 3.84l1.671-4.544.024 1.344-3.776-9.28h1.496l2.96 7.464h-.512l2.776-7.464h1.449l-4.704 12.48h-1.385zm6.449-3.84l3.488-4.32-3.32-4.32h1.584l3.208 4.24v-4.24h1.296v4.24l3.208-4.24h1.584l-3.32 4.32 3.488 4.32h-1.656l-3.304-4.24V560h-1.296v-4.24L56.363 560h-1.656zm16.003.248c-.816-.005-1.512-.181-2.088-.528-.576-.352-1.024-.867-1.344-1.544-.32-.677-.499-1.507-.536-2.488-.021-.453-.016-.952.016-1.496a17.61 17.61 0 01.176-1.568c.085-.501.192-.915.32-1.24.144-.389.347-.749.608-1.08a3.88 3.88 0 01.896-.832 4.163 4.163 0 011.128-.536 9.07 9.07 0 011.304-.296c.459-.075.918-.139 1.376-.192a21.44 21.44 0 001.312-.208l.144 1.28c-.293.064-.64.12-1.04.168-.4.043-.816.093-1.248.152a9.876 9.876 0 00-1.232.248c-.39.101-.725.243-1.008.424-.416.251-.736.627-.96 1.128a5.095 5.095 0 00-.4 1.672c.33-.512.76-.888 1.288-1.128.528-.24 1.09-.36 1.688-.36.773 0 1.44.181 2 .544.56.357.99.851 1.288 1.48.304.629.456 1.347.456 2.152 0 .853-.17 1.6-.512 2.24a3.637 3.637 0 01-1.448 1.488c-.619.352-1.347.525-2.184.52zm.088-1.352c.837 0 1.472-.259 1.904-.776.432-.523.648-1.216.648-2.08 0-.885-.224-1.581-.672-2.088-.448-.512-1.077-.768-1.888-.768-.821 0-1.45.256-1.888.768-.432.507-.648 1.203-.648 2.088 0 .891.219 1.589.656 2.096.438.507 1.067.76 1.888.76zm8.278 1.344c-.645 0-1.187-.117-1.624-.352a2.51 2.51 0 01-.984-.944 2.568 2.568 0 01-.328-1.28c0-.453.085-.845.256-1.176.176-.336.421-.613.736-.832.315-.224.69-.4 1.128-.528.41-.112.87-.208 1.376-.288a47.16 47.16 0 011.552-.232c.523-.069 1.01-.136 1.464-.2l-.512.296c.016-.768-.139-1.336-.464-1.704-.32-.368-.875-.552-1.664-.552-.523 0-.981.12-1.376.36-.39.235-.664.619-.824 1.152l-1.352-.408c.208-.757.61-1.352 1.208-1.784.597-.432 1.384-.648 2.36-.648.784 0 1.456.141 2.016.424.565.277.97.699 1.216 1.264.123.267.2.557.232.872.032.309.048.635.048.976V560h-1.264v-2.072l.296.192c-.325.699-.781 1.227-1.368 1.584-.581.357-1.29.536-2.128.536zm.216-1.192c.512 0 .955-.091 1.328-.272.379-.187.683-.429.912-.728.23-.304.379-.635.448-.992.08-.267.123-.563.128-.888a25.3 25.3 0 00.016-.76l.496.216c-.464.064-.92.125-1.368.184-.448.059-.872.123-1.272.192a9.4 9.4 0 00-1.08.232 3.561 3.561 0 00-.664.288 1.501 1.501 0 00-.496.456c-.123.181-.184.408-.184.68 0 .235.059.459.176.672.123.213.31.387.56.52.256.133.59.2 1 .2zm9.523.952v-8.64h3.68c.219 0 .453.013.704.04.256.021.488.061.696.12.464.123.846.376 1.144.76.304.379.456.859.456 1.44 0 .325-.05.608-.152.848a1.78 1.78 0 01-.416.624 1.727 1.727 0 01-.552.368 1.7 1.7 0 01.568.216c.304.165.541.397.712.696.176.299.264.68.264 1.144 0 .587-.141 1.072-.424 1.456-.282.379-.672.64-1.168.784a3.634 3.634 0 01-.688.12c-.25.016-.493.024-.728.024h-4.096zm1.44-1.16h2.576c.112 0 .245-.011.4-.032.16-.021.302-.048.424-.08.278-.08.477-.229.6-.448.128-.219.192-.456.192-.712 0-.341-.096-.619-.288-.832a1.231 1.231 0 00-.744-.4 1.548 1.548 0 00-.368-.056 8.98 8.98 0 00-.344-.008h-2.448v2.568zm0-3.744H92.4c.15 0 .307-.008.472-.024.166-.021.31-.056.432-.104a.96.96 0 00.536-.448c.118-.213.176-.445.176-.696 0-.277-.064-.52-.192-.728a.955.955 0 00-.568-.44 1.749 1.749 0 00-.576-.104 9.798 9.798 0 00-.4-.016h-2.024v2.56zM97.518 560v-8.64h1.424V555h4.544v-3.64h1.424V560h-1.424v-3.648h-4.544V560h-1.424zm10.833 3.84l1.672-4.544.024 1.344-3.776-9.28h1.496l2.96 7.464h-.512l2.776-7.464h1.448l-4.704 12.48h-1.384zm9.698-3.84v-7.344h-3.008v-1.296h7.44v1.296h-3.008V560h-1.424zm9.914.24c-.811 0-1.493-.2-2.048-.6-.555-.405-.976-.952-1.264-1.64-.283-.693-.424-1.469-.424-2.328 0-.869.141-1.648.424-2.336.288-.688.709-1.229 1.264-1.624.56-.395 1.245-.592 2.056-.592.8 0 1.488.2 2.064.6.581.395 1.027.936 1.336 1.624.309.688.464 1.464.464 2.328 0 .864-.155 1.64-.464 2.328a3.9 3.9 0 01-1.336 1.64c-.576.4-1.267.6-2.072.6zm-3.976 3.6v-12.48h1.272v6.36h.16v6.12h-1.432zm3.8-4.904c.571 0 1.043-.144 1.416-.432.373-.288.653-.677.84-1.168.187-.496.28-1.051.28-1.664 0-.608-.093-1.157-.28-1.648a2.501 2.501 0 00-.848-1.168c-.379-.288-.861-.432-1.448-.432-.56 0-1.024.139-1.392.416-.368.272-.643.653-.824 1.144-.181.485-.272 1.048-.272 1.688 0 .629.088 1.192.264 1.688.181.491.459.877.832 1.16.373.277.851.416 1.432.416zm9.546 1.304c-.848 0-1.59-.187-2.224-.56a3.92 3.92 0 01-1.472-1.576c-.352-.677-.528-1.467-.528-2.368 0-.944.173-1.76.52-2.448.346-.693.829-1.227 1.448-1.6.624-.379 1.354-.568 2.192-.568.869 0 1.608.2 2.216.6.613.4 1.072.971 1.376 1.712.309.741.442 1.624.4 2.648h-1.44v-.512c-.016-1.061-.232-1.853-.648-2.376-.416-.528-1.035-.792-1.856-.792-.88 0-1.55.283-2.008.848-.459.565-.688 1.376-.688 2.432 0 1.019.229 1.808.688 2.368.458.56 1.112.84 1.96.84.57 0 1.066-.131 1.488-.392.421-.261.752-.637.992-1.128l1.368.472a3.873 3.873 0 01-1.52 1.776c-.672.416-1.427.624-2.264.624zm-3.192-4.16v-1.144h6.384v1.144h-6.384zm8.893 3.92v-8.64h1.424V555h4.544v-3.64h1.424V560h-1.424v-3.648h-4.544V560h-1.424zm9.625 0v-8.64h1.424V555h4.544v-3.64h1.424V560h-1.424v-3.648h-4.544V560h-1.424zm13.377.24c-.848 0-1.589-.187-2.224-.56a3.927 3.927 0 01-1.472-1.576c-.352-.677-.528-1.467-.528-2.368 0-.944.173-1.76.52-2.448.347-.693.829-1.227 1.448-1.6.624-.379 1.355-.568 2.192-.568.869 0 1.608.2 2.216.6.613.4 1.072.971 1.376 1.712.309.741.443 1.624.4 2.648h-1.44v-.512c-.016-1.061-.232-1.853-.648-2.376-.416-.528-1.035-.792-1.856-.792-.88 0-1.549.283-2.008.848-.459.565-.688 1.376-.688 2.432 0 1.019.229 1.808.688 2.368.459.56 1.112.84 1.96.84.571 0 1.067-.131 1.488-.392.421-.261.752-.637.992-1.128l1.368.472a3.873 3.873 0 01-1.52 1.776c-.672.416-1.427.624-2.264.624zm-3.192-4.16v-1.144h6.384v1.144h-6.384zm8.901 3.92v-8.64h6v1.352h-4.576V560h-1.424zm11.039.24c-.858 0-1.6-.195-2.224-.584a3.872 3.872 0 01-1.432-1.616c-.336-.688-.504-1.477-.504-2.368 0-.907.171-1.701.512-2.384a3.813 3.813 0 011.448-1.592c.624-.384 1.358-.576 2.2-.576.864 0 1.608.195 2.232.584.624.384 1.102.92 1.432 1.608.336.683.504 1.469.504 2.36 0 .901-.168 1.696-.504 2.384a3.858 3.858 0 01-1.44 1.608c-.624.384-1.365.576-2.224.576zm0-1.352c.896 0 1.563-.299 2-.896.438-.597.656-1.371.656-2.32 0-.976-.221-1.752-.664-2.328-.442-.581-1.106-.872-1.992-.872-.602 0-1.098.136-1.488.408-.389.272-.68.648-.872 1.128-.192.48-.288 1.035-.288 1.664 0 .971.224 1.749.672 2.336.448.587 1.107.88 1.976.88zm11.589 1.352c-.645 0-1.187-.117-1.624-.352a2.51 2.51 0 01-.984-.944 2.565 2.565 0 01-.328-1.28c0-.453.085-.845.256-1.176.176-.336.421-.613.736-.832.315-.224.691-.4 1.128-.528.411-.112.869-.208 1.376-.288a47.041 47.041 0 011.552-.232c.523-.069 1.011-.136 1.464-.2l-.512.296c.016-.768-.139-1.336-.464-1.704-.32-.368-.875-.552-1.664-.552-.523 0-.981.12-1.376.36-.389.235-.664.619-.824 1.152l-1.352-.408c.208-.757.611-1.352 1.208-1.784.597-.432 1.384-.648 2.36-.648.784 0 1.456.141 2.016.424.565.277.971.699 1.216 1.264.123.267.2.557.232.872.032.309.048.635.048.976V560h-1.264v-2.072l.296.192c-.325.699-.781 1.227-1.368 1.584-.581.357-1.291.536-2.128.536zm.216-1.192c.512 0 .955-.091 1.328-.272.379-.187.683-.429.912-.728.229-.304.379-.635.448-.992.08-.267.123-.563.128-.888.011-.331.016-.584.016-.76l.496.216c-.464.064-.92.125-1.368.184-.448.059-.872.123-1.272.192a9.4 9.4 0 00-1.08.232 3.553 3.553 0 00-.664.288 1.498 1.498 0 00-.496.456c-.123.181-.184.408-.184.68 0 .235.059.459.176.672.123.213.309.387.56.52.256.133.589.2 1 .2zm7.044 4.792l1.672-4.544.024 1.344-3.776-9.28h1.496l2.96 7.464h-.512l2.776-7.464h1.447l-4.703 12.48h-1.384zm6.456-1.92v-3.096c.486 0 .832-.157 1.04-.472.208-.32.376-.845.504-1.576.086-.459.155-.949.208-1.472.054-.523.099-1.104.136-1.744.043-.645.083-1.379.12-2.2h5.952v7.464h.84v3.096h-1.36V560h-6.08v1.92h-1.36zm2.192-3.096h4.344v-6.288h-3.24a52.746 52.746 0 01-.16 2.424c-.032.411-.072.8-.12 1.168-.042.363-.093.688-.152.976-.069.4-.149.739-.24 1.016-.09.277-.234.512-.432.704zm15.286-7.464V560h-1.376v-6.368L219.663 560h-1.176v-8.64h1.376v6.28l4.536-6.28h1.168zm4.529 8.64v-7.344h-3.008v-1.296h7.44v1.296h-3.008V560h-1.424zm8.121.24c-.646 0-1.187-.117-1.624-.352a2.51 2.51 0 01-.984-.944 2.565 2.565 0 01-.328-1.28c0-.453.085-.845.256-1.176.176-.336.421-.613.736-.832.314-.224.69-.4 1.128-.528.41-.112.869-.208 1.376-.288a47.041 47.041 0 011.552-.232c.522-.069 1.01-.136 1.464-.2l-.512.296c.016-.768-.139-1.336-.464-1.704-.32-.368-.875-.552-1.664-.552-.523 0-.982.12-1.376.36-.39.235-.664.619-.824 1.152l-1.352-.408c.208-.757.61-1.352 1.208-1.784.597-.432 1.384-.648 2.36-.648.784 0 1.456.141 2.016.424.565.277.97.699 1.216 1.264.122.267.2.557.232.872.032.309.048.635.048.976V560h-1.264v-2.072l.296.192c-.326.699-.782 1.227-1.368 1.584-.582.357-1.291.536-2.128.536zm.216-1.192c.512 0 .954-.091 1.328-.272.378-.187.682-.429.912-.728a2.4 2.4 0 00.448-.992c.08-.267.122-.563.128-.888.01-.331.016-.584.016-.76l.496.216c-.464.064-.92.125-1.368.184-.448.059-.872.123-1.272.192a9.4 9.4 0 00-1.08.232 3.553 3.553 0 00-.664.288 1.498 1.498 0 00-.496.456c-.123.181-.184.408-.184.68 0 .235.058.459.176.672.122.213.309.387.56.52.256.133.589.2 1 .2z"/>
</svg>
