<svg xmlns="http://www.w3.org/2000/svg" width="665" height="726" fill="none" viewBox="0 0 665 726">
  <path stroke="#000" stroke-linecap="round" stroke-width="2" d="M112 322H1v117h435M57 522h606V322H550"/>
  <path stroke="#000" d="M1 1h663M1 570h663M2 205h663" opacity=".6"/>
  <path fill="#000" d="M3.555 32l1.204-2.499L1.21 21.92h1.393l2.807 6.251 2.87-6.251h1.33L4.906 32H3.555zm10.127.21c-.709 0-1.306-.175-1.792-.525-.485-.355-.854-.833-1.106-1.435-.247-.607-.37-1.286-.37-2.037 0-.76.123-1.442.37-2.044.252-.602.621-1.076 1.106-1.421.49-.345 1.09-.518 1.8-.518.7 0 1.302.175 1.806.525.508.345.898.819 1.168 1.421.271.602.406 1.281.406 2.037s-.135 1.435-.405 2.037c-.271.602-.66 1.08-1.17 1.435-.503.35-1.108.525-1.813.525zm-3.479 3.15V24.44h1.114v5.565h.14v5.355h-1.254zm3.325-4.291c.5 0 .913-.126 1.24-.378a2.28 2.28 0 00.734-1.022c.164-.434.245-.92.245-1.456a4.03 4.03 0 00-.245-1.442 2.192 2.192 0 00-.742-1.022c-.33-.252-.753-.378-1.267-.378-.49 0-.896.121-1.218.364-.322.238-.562.572-.72 1.001-.16.425-.239.917-.239 1.477a4.4 4.4 0 00.231 1.477c.16.43.402.768.728 1.015.327.243.745.364 1.253.364zm8.297 1.141c-.751 0-1.4-.17-1.946-.511a3.387 3.387 0 01-1.253-1.414c-.294-.602-.441-1.293-.441-2.072 0-.793.15-1.489.448-2.086a3.333 3.333 0 011.267-1.393c.546-.336 1.188-.504 1.925-.504.756 0 1.407.17 1.953.511.546.336.964.805 1.253 1.407.294.597.441 1.286.441 2.065 0 .789-.147 1.484-.441 2.086a3.38 3.38 0 01-1.26 1.407c-.546.336-1.195.504-1.946.504zm0-1.183c.784 0 1.367-.261 1.75-.784s.574-1.2.574-2.03c0-.854-.194-1.533-.581-2.037-.387-.509-.968-.763-1.743-.763-.527 0-.961.119-1.302.357-.34.238-.595.567-.763.987-.168.42-.252.905-.252 1.456 0 .85.196 1.53.588 2.044.392.513.968.77 1.729.77zm5.181.973v-7.56h3.22c.192 0 .397.012.616.035.224.019.427.054.61.105.405.107.739.329 1 .665.266.331.4.751.4 1.26 0 .285-.045.532-.134.742-.084.21-.205.392-.364.546a1.51 1.51 0 01-.483.322c.164.028.33.091.497.189.266.145.474.348.623.609.154.261.231.595.231 1.001 0 .513-.123.938-.37 1.274a1.89 1.89 0 01-1.023.686 3.234 3.234 0 01-.602.105c-.22.014-.431.021-.637.021h-3.584zm1.26-1.015h2.254c.098 0 .215-.01.35-.028.14-.019.264-.042.371-.07.243-.07.418-.2.525-.392.112-.191.168-.399.168-.623 0-.299-.084-.541-.252-.728a1.077 1.077 0 00-.65-.35 1.371 1.371 0 00-.323-.049 7.245 7.245 0 00-.3-.007h-2.143v2.247zm0-3.276h1.876c.13 0 .268-.007.413-.021.145-.019.27-.049.378-.091a.839.839 0 00.47-.392c.102-.187.153-.39.153-.609a1.19 1.19 0 00-.168-.637.835.835 0 00-.497-.385 1.539 1.539 0 00-.504-.091 9.262 9.262 0 00-.35-.014h-1.77v2.24zm9.638 4.501c-.742 0-1.39-.163-1.946-.49a3.433 3.433 0 01-1.288-1.379c-.308-.593-.462-1.283-.462-2.072 0-.826.152-1.54.455-2.142a3.33 3.33 0 011.267-1.4c.546-.331 1.186-.497 1.918-.497.761 0 1.407.175 1.94.525.536.35.937.85 1.203 1.498.271.649.388 1.421.35 2.317h-1.26v-.448c-.014-.929-.203-1.622-.567-2.079-.364-.462-.905-.693-1.624-.693-.77 0-1.355.247-1.757.742-.4.495-.602 1.204-.602 2.128 0 .891.201 1.582.602 2.072.402.49.973.735 1.715.735.5 0 .934-.114 1.302-.343.37-.229.658-.558.868-.987l1.197.413a3.39 3.39 0 01-1.33 1.554 3.687 3.687 0 01-1.98.546zm-2.793-3.64v-1.001h5.586v1.001h-5.586zM42.893 32v-7.56h1.246v3.185h3.976V24.44h1.246V32h-1.246v-3.192h-3.976V32h-1.246zm8.429 0l-.007-7.56h1.253v2.737h1.63c.22 0 .444.005.673.014.228.01.427.03.595.063.392.075.735.205 1.029.392.294.187.523.441.686.763.163.317.245.712.245 1.183 0 .653-.17 1.171-.511 1.554-.336.378-.777.63-1.323.756-.187.042-.401.07-.644.084-.238.01-.465.014-.68.014h-2.946zm1.246-1.029h1.722c.14 0 .296-.005.469-.014.172-.01.327-.033.462-.07.238-.07.45-.208.637-.413.191-.205.287-.5.287-.882 0-.387-.094-.686-.28-.896a1.287 1.287 0 00-.721-.413 2.469 2.469 0 00-.427-.063 6.883 6.883 0 00-.427-.014h-1.722v2.765zm11.348 1.239c-.565 0-1.038-.103-1.42-.308a2.194 2.194 0 01-.862-.826 2.249 2.249 0 01-.287-1.12c0-.397.075-.74.224-1.029.154-.294.369-.537.644-.728.275-.196.604-.35.987-.462.36-.098.76-.182 1.204-.252.448-.075.9-.142 1.358-.203.457-.06.884-.119 1.281-.175l-.448.259c.014-.672-.121-1.169-.406-1.491-.28-.322-.765-.483-1.456-.483-.457 0-.859.105-1.204.315-.34.205-.58.541-.72 1.008l-1.184-.357c.182-.663.534-1.183 1.057-1.561.523-.378 1.211-.567 2.065-.567.686 0 1.274.124 1.764.371.495.243.85.611 1.064 1.106.107.233.175.488.203.763.028.27.042.555.042.854V32h-1.106v-1.813l.26.168c-.286.611-.685 1.073-1.198 1.386-.509.313-1.13.469-1.862.469zm.19-1.043c.447 0 .834-.08 1.161-.238.331-.163.597-.376.798-.637.2-.266.331-.555.392-.868.07-.233.107-.492.112-.777.01-.29.014-.511.014-.665l.434.189c-.406.056-.805.11-1.197.161a27.12 27.12 0 00-1.113.168c-.35.056-.665.124-.945.203-.205.065-.399.15-.58.252a1.321 1.321 0 00-.435.399 1.039 1.039 0 00-.16.595c0 .205.05.401.153.588.107.187.27.338.49.455.224.117.516.175.875.175zm5.53.833l.006-7.56h1.26v3.64l3.171-3.64h1.617l-3.339 3.78L76.082 32H74.34l-3.437-3.64V32h-1.267zm13.583 1.4V32h-6.447v-7.56h1.246v6.377h3.703V24.44h1.246v6.426h1.498V33.4h-1.246zm8.553-8.96V32h-1.205v-5.572L86.606 32h-1.03v-7.56h1.205v5.495l3.968-5.495h1.023zm5.18 7.77c-.751 0-1.4-.17-1.946-.511a3.386 3.386 0 01-1.253-1.414c-.294-.602-.441-1.293-.441-2.072 0-.793.15-1.489.448-2.086a3.332 3.332 0 011.267-1.393c.546-.336 1.188-.504 1.925-.504.756 0 1.407.17 1.953.511a3.28 3.28 0 011.253 1.407c.294.597.441 1.286.441 2.065 0 .789-.147 1.484-.441 2.086a3.38 3.38 0 01-1.26 1.407c-.546.336-1.195.504-1.946.504zm0-1.183c.784 0 1.367-.261 1.75-.784s.574-1.2.574-2.03c0-.854-.194-1.533-.581-2.037-.387-.509-.968-.763-1.743-.763-.527 0-.961.119-1.302.357-.34.238-.595.567-.763.987-.168.42-.252.905-.252 1.456 0 .85.196 1.53.588 2.044.392.513.968.77 1.729.77zm5.181.973v-7.56h1.246v3.185h3.976V24.44h1.246V32h-1.246v-3.192h-3.976V32h-1.246zm11.705.21c-.742 0-1.391-.163-1.946-.49a3.43 3.43 0 01-1.288-1.379c-.308-.593-.462-1.283-.462-2.072 0-.826.152-1.54.455-2.142a3.329 3.329 0 011.267-1.4c.546-.331 1.185-.497 1.918-.497.761 0 1.407.175 1.939.525.537.35.938.85 1.204 1.498.271.649.387 1.421.35 2.317h-1.26v-.448c-.014-.929-.203-1.622-.567-2.079-.364-.462-.905-.693-1.624-.693-.77 0-1.356.247-1.757.742-.401.495-.602 1.204-.602 2.128 0 .891.201 1.582.602 2.072.401.49.973.735 1.715.735.499 0 .933-.114 1.302-.343.369-.229.658-.558.868-.987l1.197.413a3.389 3.389 0 01-1.33 1.554 3.686 3.686 0 01-1.981.546zm-2.793-3.64v-1.001h5.586v1.001h-5.586zm11.261 3.64c-.71 0-1.307-.175-1.792-.525-.486-.355-.854-.833-1.106-1.435-.248-.607-.371-1.286-.371-2.037 0-.76.123-1.442.371-2.044.252-.602.62-1.076 1.106-1.421.49-.345 1.089-.518 1.799-.518.7 0 1.302.175 1.806.525.508.345.898.819 1.169 1.421.27.602.406 1.281.406 2.037s-.136 1.435-.406 2.037a3.422 3.422 0 01-1.169 1.435c-.504.35-1.109.525-1.813.525zm-3.479 3.15V24.44h1.113v5.565h.14v5.355h-1.253zm3.325-4.291c.499 0 .912-.126 1.239-.378a2.29 2.29 0 00.735-1.022c.163-.434.245-.92.245-1.456 0-.532-.082-1.013-.245-1.442a2.194 2.194 0 00-.742-1.022c-.332-.252-.754-.378-1.267-.378-.49 0-.896.121-1.218.364-.322.238-.563.572-.721 1.001-.159.425-.238.917-.238 1.477a4.4 4.4 0 00.231 1.477c.158.43.401.768.728 1.015.326.243.744.364 1.253.364zm8.296 1.141c-.751 0-1.4-.17-1.946-.511a3.389 3.389 0 01-1.253-1.414c-.294-.602-.441-1.293-.441-2.072 0-.793.149-1.489.448-2.086a3.335 3.335 0 011.267-1.393c.546-.336 1.188-.504 1.925-.504.756 0 1.407.17 1.953.511.546.336.964.805 1.253 1.407.294.597.441 1.286.441 2.065 0 .789-.147 1.484-.441 2.086a3.38 3.38 0 01-1.26 1.407c-.546.336-1.195.504-1.946.504zm0-1.183c.784 0 1.367-.261 1.75-.784s.574-1.2.574-2.03c0-.854-.194-1.533-.581-2.037-.387-.509-.968-.763-1.743-.763-.527 0-.961.119-1.302.357a2.136 2.136 0 00-.763.987c-.168.42-.252.905-.252 1.456 0 .85.196 1.53.588 2.044.392.513.968.77 1.729.77zm5.181.973v-7.56h3.22c.192 0 .397.012.616.035.224.019.427.054.609.105.406.107.74.329 1.001.665.266.331.399.751.399 1.26 0 .285-.044.532-.133.742-.084.21-.205.392-.364.546a1.51 1.51 0 01-.483.322c.164.028.329.091.497.189.266.145.474.348.623.609.154.261.231.595.231 1.001 0 .513-.123.938-.371 1.274-.247.331-.588.56-1.022.686a3.223 3.223 0 01-.602.105 9.983 9.983 0 01-.637.021h-3.584zm1.26-1.015h2.254c.098 0 .215-.01.35-.028.14-.019.264-.042.371-.07.243-.07.418-.2.525-.392.112-.191.168-.399.168-.623 0-.299-.084-.541-.252-.728a1.076 1.076 0 00-.651-.35 1.369 1.369 0 00-.322-.049 7.233 7.233 0 00-.301-.007h-2.142v2.247zm0-3.276h1.876c.131 0 .269-.007.413-.021.145-.019.271-.049.378-.091a.838.838 0 00.469-.392 1.24 1.24 0 00.154-.609 1.19 1.19 0 00-.168-.637.834.834 0 00-.497-.385 1.536 1.536 0 00-.504-.091 9.207 9.207 0 00-.35-.014h-1.771v2.24zM3.555 601l1.204-2.499-3.549-7.581h1.393l2.807 6.251 2.87-6.251h1.33L4.906 601H3.555zm10.127.21c-.709 0-1.306-.175-1.792-.525a3.321 3.321 0 01-1.106-1.435c-.247-.607-.37-1.286-.37-2.037 0-.761.123-1.442.37-2.044.252-.602.621-1.076 1.106-1.421.49-.345 1.09-.518 1.8-.518.7 0 1.302.175 1.806.525.508.345.898.819 1.168 1.421.271.602.406 1.281.406 2.037s-.135 1.435-.405 2.037c-.271.602-.66 1.08-1.17 1.435-.503.35-1.108.525-1.813.525zm-3.479 3.15v-10.92h1.114v5.565h.14v5.355h-1.254zm3.325-4.291c.5 0 .913-.126 1.24-.378.326-.252.571-.593.734-1.022.164-.434.245-.919.245-1.456 0-.532-.081-1.013-.245-1.442a2.194 2.194 0 00-.742-1.022c-.33-.252-.753-.378-1.267-.378-.49 0-.896.121-1.218.364-.322.238-.562.572-.72 1.001-.16.425-.239.917-.239 1.477 0 .551.077 1.043.231 1.477.16.429.402.768.728 1.015.327.243.745.364 1.253.364zm8.297 1.141c-.751 0-1.4-.17-1.946-.511a3.388 3.388 0 01-1.253-1.414c-.294-.602-.441-1.293-.441-2.072 0-.793.15-1.489.448-2.086a3.333 3.333 0 011.267-1.393c.546-.336 1.188-.504 1.925-.504.756 0 1.407.17 1.953.511.546.336.964.805 1.253 1.407.294.597.441 1.286.441 2.065 0 .789-.147 1.484-.441 2.086a3.384 3.384 0 01-1.26 1.407c-.546.336-1.195.504-1.946.504zm0-1.183c.784 0 1.367-.261 1.75-.784s.574-1.199.574-2.03c0-.854-.194-1.533-.581-2.037-.387-.509-.968-.763-1.743-.763-.527 0-.961.119-1.302.357-.34.238-.595.567-.763.987-.168.42-.252.905-.252 1.456 0 .849.196 1.531.588 2.044.392.513.968.77 1.729.77zm5.181.973v-7.56h3.22c.192 0 .397.012.616.035.224.019.427.054.61.105.405.107.739.329 1 .665.266.331.4.751.4 1.26 0 .285-.045.532-.134.742-.084.21-.205.392-.364.546a1.51 1.51 0 01-.483.322c.164.028.33.091.497.189.266.145.474.348.623.609.154.261.231.595.231 1.001 0 .513-.123.938-.37 1.274-.248.331-.589.56-1.023.686a3.284 3.284 0 01-.602.105c-.22.014-.431.021-.637.021h-3.584zm1.26-1.015h2.254c.098 0 .215-.009.35-.028.14-.019.264-.042.371-.07a.836.836 0 00.525-.392 1.21 1.21 0 00.168-.623c0-.299-.084-.541-.252-.728a1.077 1.077 0 00-.65-.35 1.387 1.387 0 00-.323-.049 6.757 6.757 0 00-.3-.007h-2.143v2.247zm0-3.276h1.876c.13 0 .268-.007.413-.021a1.62 1.62 0 00.378-.091.838.838 0 00.47-.392c.102-.187.153-.39.153-.609a1.19 1.19 0 00-.168-.637.834.834 0 00-.497-.385 1.547 1.547 0 00-.504-.091 10 10 0 00-.35-.014h-1.77v2.24zm9.638 4.501c-.742 0-1.39-.163-1.946-.49a3.43 3.43 0 01-1.288-1.379c-.308-.593-.462-1.283-.462-2.072 0-.826.152-1.54.455-2.142a3.33 3.33 0 011.267-1.4c.546-.331 1.186-.497 1.918-.497.761 0 1.407.175 1.94.525.536.35.937.849 1.203 1.498.271.649.388 1.421.35 2.317h-1.26v-.448c-.014-.929-.203-1.622-.567-2.079-.364-.462-.905-.693-1.624-.693-.77 0-1.355.247-1.757.742-.4.495-.602 1.204-.602 2.128 0 .891.201 1.582.602 2.072.402.49.973.735 1.715.735.5 0 .934-.114 1.302-.343.37-.229.658-.558.868-.987l1.197.413a3.393 3.393 0 01-1.33 1.554 3.687 3.687 0 01-1.98.546zm-2.793-3.64v-1.001h5.586v1.001h-5.586zm7.782 3.43v-7.56h1.246v3.185h3.976v-3.185h1.246V601h-1.246v-3.192h-3.976V601h-1.246zm8.429 0l-.007-7.56h1.253v2.737h1.63c.22 0 .444.005.673.014.228.009.427.03.595.063.392.075.735.205 1.029.392.294.187.523.441.686.763.163.317.245.712.245 1.183 0 .653-.17 1.171-.511 1.554-.336.378-.777.63-1.323.756-.187.042-.401.07-.644.084a18.04 18.04 0 01-.68.014h-2.946zm1.246-1.029h1.722c.14 0 .296-.005.469-.014.172-.009.327-.033.462-.07.238-.07.45-.208.637-.413.191-.205.287-.499.287-.882 0-.387-.094-.686-.28-.896a1.286 1.286 0 00-.721-.413 2.412 2.412 0 00-.427-.063 7.124 7.124 0 00-.427-.014h-1.722v2.765zm10.25 4.389l1.462-3.976.021 1.176-3.304-8.12h1.31l2.59 6.531h-.449l2.43-6.531h1.266l-4.116 10.92h-1.21zm6.475-3.36v-7.56h6.195V601h-1.246v-6.377H70.54V601h-1.246zm11.628.21c-.71 0-1.307-.175-1.792-.525a3.321 3.321 0 01-1.106-1.435c-.248-.607-.371-1.286-.371-2.037 0-.761.123-1.442.37-2.044.253-.602.621-1.076 1.107-1.421.49-.345 1.09-.518 1.799-.518.7 0 1.302.175 1.806.525.508.345.898.819 1.169 1.421.27.602.406 1.281.406 2.037s-.136 1.435-.406 2.037c-.27.602-.66 1.08-1.17 1.435-.503.35-1.108.525-1.812.525zm-3.48 3.15v-10.92h1.114v5.565h.14v5.355h-1.253zm3.326-4.291c.5 0 .912-.126 1.239-.378.326-.252.571-.593.735-1.022.163-.434.245-.919.245-1.456 0-.532-.082-1.013-.245-1.442a2.194 2.194 0 00-.742-1.022c-.332-.252-.754-.378-1.267-.378-.49 0-.896.121-1.218.364-.322.238-.563.572-.721 1.001-.159.425-.238.917-.238 1.477 0 .551.077 1.043.23 1.477.16.429.402.768.729 1.015.326.243.744.364 1.253.364zm7.225 1.141c-.564 0-1.038-.103-1.42-.308a2.192 2.192 0 01-.862-.826 2.248 2.248 0 01-.287-1.12c0-.397.075-.74.224-1.029.154-.294.369-.537.644-.728.276-.196.605-.35.987-.462.36-.098.76-.182 1.204-.252.448-.075.9-.142 1.358-.203.458-.061.885-.119 1.281-.175l-.448.259c.014-.672-.121-1.169-.406-1.491-.28-.322-.765-.483-1.456-.483a2.27 2.27 0 00-1.204.315c-.34.205-.58.541-.72 1.008l-1.184-.357c.182-.663.535-1.183 1.057-1.561.523-.378 1.211-.567 2.065-.567.686 0 1.274.124 1.764.371.495.243.85.611 1.064 1.106.108.233.175.488.203.763.028.271.042.555.042.854V601h-1.106v-1.813l.26.168c-.285.611-.684 1.073-1.198 1.386-.508.313-1.13.469-1.862.469zm.19-1.043c.447 0 .835-.079 1.161-.238.332-.163.598-.376.798-.637.2-.266.332-.555.392-.868a2.86 2.86 0 00.112-.777c.01-.289.014-.511.014-.665l.434.189c-.406.056-.805.11-1.197.161-.392.051-.763.107-1.113.168a8.36 8.36 0 00-.945.203 3.035 3.035 0 00-.58.252 1.327 1.327 0 00-.435.399 1.039 1.039 0 00-.16.595c0 .205.05.401.153.588.108.187.27.338.49.455.224.117.516.175.875.175zm5.53.833v-7.56h3.22c.19 0 .396.012.615.035.224.019.427.054.61.105.405.107.739.329 1 .665.266.331.4.751.4 1.26 0 .285-.045.532-.134.742-.084.21-.205.392-.364.546a1.51 1.51 0 01-.483.322c.164.028.33.091.497.189.266.145.474.348.623.609.154.261.231.595.231 1.001 0 .513-.123.938-.37 1.274-.248.331-.589.56-1.023.686a3.284 3.284 0 01-.602.105c-.22.014-.431.021-.637.021h-3.584zm1.26-1.015h2.253c.098 0 .215-.009.35-.028.14-.019.264-.042.371-.07a.837.837 0 00.525-.392 1.21 1.21 0 00.168-.623c0-.299-.084-.541-.252-.728a1.078 1.078 0 00-.65-.35 1.388 1.388 0 00-.323-.049 6.76 6.76 0 00-.3-.007H94.97v2.247zm0-3.276h1.875c.13 0 .269-.007.413-.021.145-.019.27-.049.378-.091a.838.838 0 00.47-.392c.102-.187.153-.39.153-.609a1.19 1.19 0 00-.168-.637.834.834 0 00-.497-.385 1.548 1.548 0 00-.504-.091 10 10 0 00-.35-.014h-1.77v2.24zm5.662 4.291v-1.071c.28.051.492.042.637-.028a.683.683 0 00.329-.385c.074-.187.135-.42.182-.7.079-.443.147-.938.203-1.484.06-.546.114-1.143.161-1.792.051-.653.098-1.353.14-2.1h5.285V601h-1.246v-6.377h-2.905c-.028.429-.063.87-.105 1.323a95.87 95.87 0 01-.119 1.323 30.88 30.88 0 01-.14 1.19c-.047.364-.098.679-.154.945-.089.457-.213.824-.371 1.099a1.094 1.094 0 01-.686.525c-.299.084-.703.075-1.211-.028zm12.179.21c-.742 0-1.391-.163-1.946-.49a3.428 3.428 0 01-1.288-1.379c-.308-.593-.462-1.283-.462-2.072 0-.826.151-1.54.455-2.142a3.323 3.323 0 011.267-1.4c.546-.331 1.185-.497 1.918-.497.76 0 1.407.175 1.939.525.536.35.938.849 1.204 1.498.27.649.387 1.421.35 2.317h-1.26v-.448c-.014-.929-.203-1.622-.567-2.079-.364-.462-.906-.693-1.624-.693-.77 0-1.356.247-1.757.742-.402.495-.602 1.204-.602 2.128 0 .891.2 1.582.602 2.072.401.49.973.735 1.715.735.499 0 .933-.114 1.302-.343.368-.229.658-.558.868-.987l1.197.413a3.397 3.397 0 01-1.33 1.554 3.689 3.689 0 01-1.981.546zm-2.793-3.64v-1.001h5.586v1.001h-5.586zm7.781 3.43v-7.56h1.246v3.185h3.976v-3.185h1.246V601h-1.246v-3.192h-3.976V601h-1.246zm14.617-7.56V601h-1.204v-5.572L127.252 601h-1.029v-7.56h1.204v5.495l3.969-5.495h1.022zm6.629 7.56v-2.737h-1.631c-.191 0-.403-.007-.637-.021a8.193 8.193 0 01-.644-.077 2.59 2.59 0 01-1.386-.721c-.373-.378-.56-.901-.56-1.568 0-.649.175-1.169.525-1.561a2.434 2.434 0 011.309-.77c.234-.056.469-.086.707-.091.243-.009.448-.014.616-.014h2.947l.007 7.56h-1.253zm-5.089 0l2.009-3.08h1.344l-2.009 3.08h-1.344zm3.367-3.766h1.722v-2.765h-1.722c-.107 0-.249.005-.427.014a2.144 2.144 0 00-.497.084 1.303 1.303 0 00-.441.231c-.14.112-.256.257-.35.434-.093.177-.14.387-.14.63 0 .35.098.635.294.854.196.215.434.359.714.434.154.037.306.061.455.07.154.009.285.014.392.014zM4.555 236l1.204-2.499-3.549-7.581h1.393l2.807 6.251 2.87-6.251h1.33L5.906 236H4.555zm10.127.21c-.709 0-1.306-.175-1.792-.525a3.321 3.321 0 01-1.106-1.435c-.247-.607-.37-1.286-.37-2.037 0-.761.123-1.442.37-2.044.252-.602.621-1.076 1.106-1.421.49-.345 1.09-.518 1.8-.518.7 0 1.302.175 1.806.525.508.345.898.819 1.169 1.421.27.602.405 1.281.405 2.037s-.135 1.435-.405 2.037c-.271.602-.66 1.08-1.17 1.435-.504.35-1.108.525-1.813.525zm-3.479 3.15v-10.92h1.114v5.565h.14v5.355h-1.254zm3.325-4.291c.5 0 .913-.126 1.24-.378.326-.252.571-.593.735-1.022.163-.434.244-.919.244-1.456 0-.532-.081-1.013-.244-1.442a2.194 2.194 0 00-.742-1.022c-.332-.252-.754-.378-1.268-.378-.49 0-.896.121-1.218.364-.322.238-.562.572-.72 1.001-.16.425-.239.917-.239 1.477 0 .551.077 1.043.231 1.477.16.429.402.768.728 1.015.327.243.745.364 1.253.364zm8.297 1.141c-.751 0-1.4-.17-1.946-.511a3.388 3.388 0 01-1.253-1.414c-.294-.602-.441-1.293-.441-2.072 0-.793.15-1.489.448-2.086a3.333 3.333 0 011.267-1.393c.546-.336 1.188-.504 1.925-.504.756 0 1.407.17 1.953.511.546.336.964.805 1.253 1.407.294.597.441 1.286.441 2.065 0 .789-.147 1.484-.441 2.086a3.384 3.384 0 01-1.26 1.407c-.546.336-1.195.504-1.946.504zm0-1.183c.784 0 1.367-.261 1.75-.784s.574-1.199.574-2.03c0-.854-.194-1.533-.581-2.037-.387-.509-.968-.763-1.743-.763-.527 0-.961.119-1.302.357-.34.238-.595.567-.763.987-.168.42-.252.905-.252 1.456 0 .849.196 1.531.588 2.044.392.513.968.77 1.729.77zm5.181.973v-7.56h3.22c.192 0 .397.012.616.035.224.019.427.054.61.105.405.107.739.329 1 .665.266.331.4.751.4 1.26 0 .285-.045.532-.134.742-.084.21-.205.392-.364.546a1.51 1.51 0 01-.483.322c.163.028.33.091.497.189.266.145.474.348.623.609.154.261.231.595.231 1.001 0 .513-.123.938-.37 1.274-.248.331-.589.56-1.023.686a3.284 3.284 0 01-.602.105c-.22.014-.431.021-.637.021h-3.584zm1.26-1.015h2.254c.098 0 .215-.009.35-.028.14-.019.264-.042.371-.07a.836.836 0 00.525-.392 1.21 1.21 0 00.168-.623c0-.299-.084-.541-.252-.728a1.077 1.077 0 00-.65-.35 1.387 1.387 0 00-.323-.049 6.757 6.757 0 00-.3-.007h-2.143v2.247zm0-3.276h1.876c.13 0 .268-.007.413-.021a1.62 1.62 0 00.378-.091.838.838 0 00.47-.392c.102-.187.153-.39.153-.609a1.19 1.19 0 00-.168-.637.834.834 0 00-.497-.385 1.547 1.547 0 00-.504-.091 10 10 0 00-.35-.014h-1.77v2.24zm9.638 4.501c-.742 0-1.39-.163-1.946-.49a3.43 3.43 0 01-1.288-1.379c-.308-.593-.462-1.283-.462-2.072 0-.826.152-1.54.455-2.142a3.33 3.33 0 011.267-1.4c.546-.331 1.186-.497 1.918-.497.761 0 1.407.175 1.94.525.536.35.937.849 1.203 1.498.271.649.388 1.421.35 2.317h-1.26v-.448c-.014-.929-.203-1.622-.567-2.079-.364-.462-.905-.693-1.624-.693-.77 0-1.355.247-1.757.742-.4.495-.602 1.204-.602 2.128 0 .891.201 1.582.602 2.072.402.49.973.735 1.715.735.5 0 .934-.114 1.302-.343.37-.229.658-.558.868-.987l1.197.413a3.393 3.393 0 01-1.33 1.554 3.687 3.687 0 01-1.98.546zm-2.793-3.64v-1.001h5.586v1.001h-5.586zm7.782 3.43v-7.56h1.246v3.185h3.976v-3.185h1.246V236h-1.246v-3.192h-3.976V236h-1.246zm8.429 0l-.007-7.56h1.253v2.737h1.63c.22 0 .444.005.673.014.228.009.427.03.595.063.392.075.735.205 1.029.392.294.187.523.441.686.763.163.317.245.712.245 1.183 0 .653-.17 1.171-.511 1.554-.336.378-.777.63-1.323.756-.187.042-.401.07-.644.084a18.04 18.04 0 01-.68.014h-2.946zm1.246-1.029h1.722c.14 0 .296-.005.469-.014.172-.009.327-.033.462-.07.238-.07.45-.208.637-.413.191-.205.287-.499.287-.882 0-.387-.094-.686-.28-.896a1.286 1.286 0 00-.721-.413 2.412 2.412 0 00-.427-.063 7.124 7.124 0 00-.427-.014h-1.722v2.765zm13.343 1.239c-1.003 0-1.855-.222-2.555-.665a4.271 4.271 0 01-1.603-1.848c-.364-.789-.546-1.701-.546-2.737s.182-1.948.546-2.737a4.271 4.271 0 011.603-1.848c.7-.443 1.552-.665 2.555-.665 1.167 0 2.126.296 2.877.889.756.593 1.276 1.391 1.561 2.394l-1.267.336c-.205-.751-.572-1.344-1.099-1.778-.527-.434-1.218-.651-2.072-.651-.751 0-1.377.17-1.876.511-.5.341-.875.817-1.127 1.428-.252.607-.38 1.314-.385 2.121-.005.803.12 1.51.371 2.121.252.607.63 1.083 1.134 1.428.504.341 1.132.511 1.883.511.854 0 1.545-.217 2.072-.651.527-.439.894-1.031 1.1-1.778l1.266.336c-.285.999-.805 1.797-1.56 2.394-.752.593-1.711.889-2.878.889zm9.193 0c-.751 0-1.4-.17-1.946-.511a3.388 3.388 0 01-1.253-1.414c-.294-.602-.44-1.293-.44-2.072 0-.793.149-1.489.447-2.086a3.333 3.333 0 011.267-1.393c.546-.336 1.188-.504 1.925-.504.756 0 1.407.17 1.953.511.546.336.964.805 1.253 1.407.294.597.441 1.286.441 2.065 0 .789-.147 1.484-.44 2.086a3.384 3.384 0 01-1.26 1.407c-.547.336-1.195.504-1.947.504zm0-1.183c.784 0 1.368-.261 1.75-.784.383-.523.574-1.199.574-2.03 0-.854-.193-1.533-.58-2.037-.388-.509-.969-.763-1.744-.763-.527 0-.961.119-1.302.357-.34.238-.595.567-.763.987-.168.42-.252.905-.252 1.456 0 .849.196 1.531.588 2.044.392.513.969.77 1.73.77zm5.181.973v-7.56h3.22c.192 0 .397.012.617.035.224.019.427.054.609.105.406.107.74.329 1 .665.267.331.4.751.4 1.26 0 .285-.045.532-.133.742-.085.21-.206.392-.365.546a1.51 1.51 0 01-.483.322c.164.028.33.091.497.189.266.145.474.348.623.609.154.261.231.595.231 1.001 0 .513-.123.938-.37 1.274-.248.331-.588.56-1.022.686a3.284 3.284 0 01-.602.105c-.22.014-.432.021-.638.021h-3.584zm1.26-1.015H84.8c.098 0 .215-.009.35-.028.14-.019.264-.042.371-.07a.836.836 0 00.526-.392 1.21 1.21 0 00.167-.623c0-.299-.084-.541-.251-.728a1.077 1.077 0 00-.651-.35 1.387 1.387 0 00-.323-.049 6.757 6.757 0 00-.3-.007h-2.142v2.247zm0-3.276h1.876c.131 0 .269-.007.413-.021a1.62 1.62 0 00.379-.091.838.838 0 00.469-.392c.102-.187.153-.39.153-.609a1.19 1.19 0 00-.167-.637.834.834 0 00-.498-.385 1.547 1.547 0 00-.504-.091 10 10 0 00-.35-.014h-1.77v2.24zm9.639 4.501c-.742 0-1.39-.163-1.946-.49a3.43 3.43 0 01-1.288-1.379c-.308-.593-.462-1.283-.462-2.072 0-.826.151-1.54.455-2.142a3.33 3.33 0 011.267-1.4c.546-.331 1.185-.497 1.918-.497.76 0 1.407.175 1.939.525.536.35.938.849 1.204 1.498.27.649.387 1.421.35 2.317h-1.26v-.448c-.014-.929-.203-1.622-.567-2.079-.364-.462-.906-.693-1.624-.693-.77 0-1.356.247-1.757.742-.402.495-.602 1.204-.602 2.128 0 .891.2 1.582.602 2.072.401.49.973.735 1.715.735.5 0 .933-.114 1.302-.343.368-.229.658-.558.868-.987l1.197.413a3.393 3.393 0 01-1.33 1.554 3.687 3.687 0 01-1.981.546zm-2.793-3.64v-1.001h5.586v1.001H89.39zm9.653 3.43v-6.426h-2.632v-1.134h6.511v1.134h-2.632V236h-1.246zm7.106.21c-.564 0-1.038-.103-1.421-.308a2.192 2.192 0 01-.861-.826 2.253 2.253 0 01-.287-1.12c0-.397.075-.74.224-1.029.154-.294.369-.537.644-.728.276-.196.605-.35.987-.462.36-.098.761-.182 1.204-.252.448-.075.901-.142 1.358-.203.458-.061.885-.119 1.281-.175l-.448.259c.014-.672-.121-1.169-.406-1.491-.28-.322-.765-.483-1.456-.483-.457 0-.858.105-1.204.315-.34.205-.581.541-.721 1.008l-1.183-.357c.182-.663.535-1.183 1.057-1.561.523-.378 1.211-.567 2.065-.567.686 0 1.274.124 1.764.371.495.243.85.611 1.064 1.106.108.233.175.488.203.763.028.271.042.555.042.854V236h-1.106v-1.813l.259.168c-.284.611-.683 1.073-1.197 1.386-.508.313-1.129.469-1.862.469zm.189-1.043c.448 0 .836-.079 1.162-.238.332-.163.598-.376.798-.637.201-.266.332-.555.392-.868.07-.233.108-.492.112-.777.01-.289.014-.511.014-.665l.434.189c-.406.056-.805.11-1.197.161-.392.051-.763.107-1.113.168a8.36 8.36 0 00-.945.203 3.045 3.045 0 00-.581.252 1.33 1.33 0 00-.434.399 1.042 1.042 0 00-.161.595c0 .205.052.401.154.588.108.187.271.338.49.455.224.117.516.175.875.175zm7.78 2.513v-2.709c.425 0 .728-.138.91-.413.182-.28.329-.74.441-1.379.075-.401.136-.831.182-1.288.047-.457.087-.966.119-1.526.038-.565.073-1.206.105-1.925h5.208v6.531h.735v2.709h-1.19V236h-5.32v1.68h-1.19zm1.918-2.709h3.801v-5.502h-2.835a44.237 44.237 0 01-.14 2.121c-.028.359-.063.7-.105 1.022-.037.317-.081.602-.133.854-.06.35-.13.646-.21.889a1.481 1.481 0 01-.378.616zm13.375-6.531V236h-1.204v-5.572L124.246 236h-1.029v-7.56h1.204v5.495l3.969-5.495h1.022zm5.433 7.77c-.71 0-1.307-.175-1.792-.525-.486-.355-.854-.833-1.106-1.435-.248-.607-.371-1.286-.371-2.037 0-.761.123-1.442.371-2.044.252-.602.62-1.076 1.106-1.421.49-.345 1.089-.518 1.799-.518.7 0 1.302.175 1.806.525.508.345.898.819 1.169 1.421.27.602.406 1.281.406 2.037s-.136 1.435-.406 2.037a3.424 3.424 0 01-1.169 1.435c-.504.35-1.109.525-1.813.525zm-3.479 3.15v-10.92h1.113v5.565h.14v5.355h-1.253zm3.325-4.291c.499 0 .912-.126 1.239-.378.326-.252.571-.593.735-1.022.163-.434.245-.919.245-1.456 0-.532-.082-1.013-.245-1.442a2.196 2.196 0 00-.742-1.022c-.332-.252-.754-.378-1.267-.378-.49 0-.896.121-1.218.364-.322.238-.563.572-.721 1.001-.159.425-.238.917-.238 1.477 0 .551.077 1.043.231 1.477.158.429.401.768.728 1.015.326.243.744.364 1.253.364zm8.352 1.141c-.742 0-1.391-.163-1.946-.49a3.428 3.428 0 01-1.288-1.379c-.308-.593-.462-1.283-.462-2.072 0-.826.152-1.54.455-2.142a3.329 3.329 0 011.267-1.4c.546-.331 1.185-.497 1.918-.497.761 0 1.407.175 1.939.525.537.35.938.849 1.204 1.498.271.649.387 1.421.35 2.317h-1.26v-.448c-.014-.929-.203-1.622-.567-2.079-.364-.462-.905-.693-1.624-.693-.77 0-1.356.247-1.757.742-.401.495-.602 1.204-.602 2.128 0 .891.201 1.582.602 2.072.401.49.973.735 1.715.735.499 0 .933-.114 1.302-.343.369-.229.658-.558.868-.987l1.197.413a3.392 3.392 0 01-1.33 1.554 3.686 3.686 0 01-1.981.546zm-2.793-3.64v-1.001h5.586v1.001h-5.586zm7.782 3.43l.007-7.56h1.26v3.64l3.171-3.64h1.617l-3.339 3.78 3.731 3.78h-1.743l-3.437-3.64V236h-1.267zm9.145 0v-6.426h-2.632v-1.134h6.51v1.134h-2.632V236h-1.246zm8.287.21c-.752 0-1.4-.17-1.946-.511a3.384 3.384 0 01-1.253-1.414c-.294-.602-.441-1.293-.441-2.072 0-.793.149-1.489.448-2.086a3.328 3.328 0 011.267-1.393c.546-.336 1.187-.504 1.925-.504.756 0 1.407.17 1.953.511.546.336.963.805 1.253 1.407.294.597.441 1.286.441 2.065 0 .789-.147 1.484-.441 2.086a3.384 3.384 0 01-1.26 1.407c-.546.336-1.195.504-1.946.504zm0-1.183c.784 0 1.367-.261 1.75-.784.382-.523.574-1.199.574-2.03 0-.854-.194-1.533-.581-2.037-.388-.509-.969-.763-1.743-.763-.528 0-.962.119-1.302.357a2.136 2.136 0 00-.763.987c-.168.42-.252.905-.252 1.456 0 .849.196 1.531.588 2.044.392.513.968.77 1.729.77zm8.66 1.183c-.709 0-1.307-.175-1.792-.525a3.324 3.324 0 01-1.106-1.435c-.247-.607-.371-1.286-.371-2.037 0-.761.124-1.442.371-2.044.252-.602.621-1.076 1.106-1.421.49-.345 1.09-.518 1.799-.518.7 0 1.302.175 1.806.525.509.345.898.819 1.169 1.421.271.602.406 1.281.406 2.037s-.135 1.435-.406 2.037a3.416 3.416 0 01-1.169 1.435c-.504.35-1.108.525-1.813.525zm-3.479 3.15v-10.92h1.113v5.565h.14v5.355h-1.253zm3.325-4.291c.499 0 .912-.126 1.239-.378.327-.252.572-.593.735-1.022.163-.434.245-.919.245-1.456 0-.532-.082-1.013-.245-1.442a2.196 2.196 0 00-.742-1.022c-.331-.252-.754-.378-1.267-.378-.49 0-.896.121-1.218.364-.322.238-.562.572-.721 1.001-.159.425-.238.917-.238 1.477 0 .551.077 1.043.231 1.477.159.429.401.768.728 1.015.327.243.744.364 1.253.364zm8.296 1.141c-.751 0-1.4-.17-1.946-.511a3.39 3.39 0 01-1.253-1.414c-.294-.602-.441-1.293-.441-2.072 0-.793.15-1.489.448-2.086a3.335 3.335 0 011.267-1.393c.546-.336 1.188-.504 1.925-.504.756 0 1.407.17 1.953.511.546.336.964.805 1.253 1.407.294.597.441 1.286.441 2.065 0 .789-.147 1.484-.441 2.086a3.384 3.384 0 01-1.26 1.407c-.546.336-1.194.504-1.946.504zm0-1.183c.784 0 1.368-.261 1.75-.784.383-.523.574-1.199.574-2.03 0-.854-.193-1.533-.581-2.037-.387-.509-.968-.763-1.743-.763-.527 0-.961.119-1.302.357-.34.238-.595.567-.763.987-.168.42-.252.905-.252 1.456 0 .849.196 1.531.588 2.044.392.513.969.77 1.729.77zm5.182.973v-7.56h3.22c.191 0 .396.012.616.035.224.019.427.054.609.105a1.83 1.83 0 011.001.665c.266.331.399.751.399 1.26 0 .285-.045.532-.133.742-.084.21-.206.392-.364.546a1.51 1.51 0 01-.483.322c.163.028.329.091.497.189.266.145.473.348.623.609.154.261.231.595.231 1.001 0 .513-.124.938-.371 1.274-.248.331-.588.56-1.022.686a3.288 3.288 0 01-.602.105c-.22.014-.432.021-.637.021h-3.584zm1.26-1.015h2.254c.098 0 .214-.009.35-.028.14-.019.263-.042.371-.07a.84.84 0 00.525-.392 1.21 1.21 0 00.168-.623c0-.299-.084-.541-.252-.728a1.081 1.081 0 00-.651-.35 1.393 1.393 0 00-.322-.049 6.78 6.78 0 00-.301-.007h-2.142v2.247zm0-3.276h1.876c.13 0 .268-.007.413-.021.144-.019.27-.049.378-.091a.84.84 0 00.469-.392c.102-.187.154-.39.154-.609a1.19 1.19 0 00-.168-.637.836.836 0 00-.497-.385 1.553 1.553 0 00-.504-.091 10.027 10.027 0 00-.35-.014h-1.771v2.24z"/>
  <rect width="440" height="80" x="113" y="77" fill="#00D372" rx="8"/>
  <rect width="440" height="80" x="113" y="646" fill="#00D372" rx="8"/>
  <path fill="#fff" d="M174.784 126.36c-1.72 0-3.18-.38-4.38-1.14-1.2-.76-2.116-1.816-2.748-3.168-.624-1.352-.936-2.916-.936-4.692 0-1.776.312-3.34.936-4.692.632-1.352 1.548-2.408 2.748-3.168 1.2-.76 2.66-1.14 4.38-1.14 1.728 0 3.192.38 4.392 1.14 1.2.76 2.112 1.816 2.736 3.168.624 1.352.936 2.916.936 4.692 0 1.776-.312 3.34-.936 4.692-.624 1.352-1.536 2.408-2.736 3.168-1.2.76-2.664 1.14-4.392 1.14zm0-2.04c1.288.008 2.36-.28 3.216-.864.864-.592 1.508-1.412 1.932-2.46.432-1.048.648-2.26.648-3.636 0-1.384-.216-2.596-.648-3.636-.424-1.04-1.068-1.852-1.932-2.436-.856-.584-1.928-.88-3.216-.888-1.288-.008-2.36.28-3.216.864-.848.584-1.488 1.4-1.92 2.448-.432 1.048-.652 2.264-.66 3.648-.008 1.376.204 2.584.636 3.624.432 1.04 1.076 1.856 1.932 2.448.864.584 1.94.88 3.228.888zm15.742 2.052c-1.224-.008-2.268-.272-3.132-.792-.864-.528-1.536-1.3-2.016-2.316-.48-1.016-.748-2.26-.804-3.732-.032-.68-.024-1.428.024-2.244a26.4 26.4 0 01.264-2.352c.128-.752.288-1.372.48-1.86.216-.584.52-1.124.912-1.62.4-.504.848-.92 1.344-1.248a6.23 6.23 0 011.692-.804 13.67 13.67 0 011.956-.444 45.684 45.684 0 012.064-.288 31.786 31.786 0 001.968-.312l.216 1.92c-.44.096-.96.18-1.56.252-.6.064-1.224.14-1.872.228-.64.088-1.256.212-1.848.372a5.216 5.216 0 00-1.512.636c-.624.376-1.104.94-1.44 1.692-.328.744-.528 1.58-.6 2.508.496-.768 1.14-1.332 1.932-1.692a6.047 6.047 0 012.532-.54c1.16 0 2.16.272 3 .816.84.536 1.484 1.276 1.932 2.22.456.944.684 2.02.684 3.228 0 1.28-.256 2.4-.768 3.36a5.456 5.456 0 01-2.172 2.232c-.928.528-2.02.788-3.276.78zm.132-2.028c1.256 0 2.208-.388 2.856-1.164.648-.784.972-1.824.972-3.12 0-1.328-.336-2.372-1.008-3.132-.672-.768-1.616-1.152-2.832-1.152-1.232 0-2.176.384-2.832 1.152-.648.76-.972 1.804-.972 3.132 0 1.336.328 2.384.984 3.144.656.76 1.6 1.14 2.832 1.14zm23.229 4.056V126h-14.508v-12.96h2.064v11.016h4.464V113.04h2.064v11.016h4.452V113.04h2.064v11.016h1.536v4.344h-2.136zm9.682-2.04c-1.272 0-2.384-.28-3.336-.84a5.884 5.884 0 01-2.208-2.364c-.528-1.016-.792-2.2-.792-3.552 0-1.416.26-2.64.78-3.672.52-1.04 1.244-1.84 2.172-2.4.936-.568 2.032-.852 3.288-.852 1.304 0 2.412.3 3.324.9.92.6 1.608 1.456 2.064 2.568.464 1.112.664 2.436.6 3.972h-2.16v-.768c-.024-1.592-.348-2.78-.972-3.564-.624-.792-1.552-1.188-2.784-1.188-1.32 0-2.324.424-3.012 1.272-.688.848-1.032 2.064-1.032 3.648 0 1.528.344 2.712 1.032 3.552.688.84 1.668 1.26 2.94 1.26.856 0 1.6-.196 2.232-.588.632-.392 1.128-.956 1.488-1.692l2.052.708c-.504 1.144-1.264 2.032-2.28 2.664-1.008.624-2.14.936-3.396.936zm-4.788-6.24v-1.716h9.576v1.716h-9.576zm18.968 6.24c-1.272 0-2.384-.28-3.336-.84a5.884 5.884 0 01-2.208-2.364c-.528-1.016-.792-2.2-.792-3.552 0-1.416.26-2.64.78-3.672.52-1.04 1.244-1.84 2.172-2.4.936-.568 2.032-.852 3.288-.852 1.304 0 2.412.3 3.324.9.92.6 1.608 1.456 2.064 2.568.464 1.112.664 2.436.6 3.972h-2.16v-.768c-.024-1.592-.348-2.78-.972-3.564-.624-.792-1.552-1.188-2.784-1.188-1.32 0-2.324.424-3.012 1.272-.688.848-1.032 2.064-1.032 3.648 0 1.528.344 2.712 1.032 3.552.688.84 1.668 1.26 2.94 1.26.856 0 1.6-.196 2.232-.588.632-.392 1.128-.956 1.488-1.692l2.052.708c-.504 1.144-1.264 2.032-2.28 2.664-1.008.624-2.14.936-3.396.936zm-4.788-6.24v-1.716h9.576v1.716h-9.576zm23.617 6.24c-1.312 0-2.428-.292-3.348-.876-.912-.592-1.608-1.404-2.088-2.436s-.728-2.208-.744-3.528c.016-1.352.268-2.54.756-3.564.496-1.032 1.204-1.836 2.124-2.412.92-.576 2.028-.864 3.324-.864 1.368 0 2.544.336 3.528 1.008.992.672 1.656 1.592 1.992 2.76l-2.112.636c-.272-.752-.716-1.336-1.332-1.752-.608-.416-1.308-.624-2.1-.624-.888 0-1.62.208-2.196.624-.576.408-1.004.976-1.284 1.704-.28.72-.424 1.548-.432 2.484.016 1.44.348 2.604.996 3.492.656.88 1.628 1.32 2.916 1.32.848 0 1.552-.192 2.112-.576.56-.392.984-.956 1.272-1.692l2.16.564c-.448 1.208-1.148 2.132-2.1 2.772-.952.64-2.1.96-3.444.96zm13.161 0c-1.288 0-2.4-.292-3.336-.876-.928-.584-1.644-1.392-2.148-2.424-.504-1.032-.756-2.216-.756-3.552 0-1.36.256-2.552.768-3.576s1.236-1.82 2.172-2.388c.936-.576 2.036-.864 3.3-.864 1.296 0 2.412.292 3.348.876.936.576 1.652 1.38 2.148 2.412.504 1.024.756 2.204.756 3.54 0 1.352-.252 2.544-.756 3.576a5.794 5.794 0 01-2.16 2.412c-.936.576-2.048.864-3.336.864zm0-2.028c1.344 0 2.344-.448 3-1.344.656-.896.984-2.056.984-3.48 0-1.464-.332-2.628-.996-3.492-.664-.872-1.66-1.308-2.988-1.308-.904 0-1.648.204-2.232.612-.584.408-1.02.972-1.308 1.692-.288.72-.432 1.552-.432 2.496 0 1.456.336 2.624 1.008 3.504.672.88 1.66 1.32 2.964 1.32zm14.162 2.04c-1.224-.008-2.268-.272-3.132-.792-.864-.528-1.536-1.3-2.016-2.316-.48-1.016-.748-2.26-.804-3.732-.032-.68-.024-1.428.024-2.244a26.4 26.4 0 01.264-2.352c.128-.752.288-1.372.48-1.86.216-.584.52-1.124.912-1.62.4-.504.848-.92 1.344-1.248a6.23 6.23 0 011.692-.804 13.67 13.67 0 011.956-.444 45.684 45.684 0 012.064-.288 31.786 31.786 0 001.968-.312l.216 1.92c-.44.096-.96.18-1.56.252-.6.064-1.224.14-1.872.228-.64.088-1.256.212-1.848.372a5.216 5.216 0 00-1.512.636c-.624.376-1.104.94-1.44 1.692-.328.744-.528 1.58-.6 2.508.496-.768 1.14-1.332 1.932-1.692a6.047 6.047 0 012.532-.54c1.16 0 2.16.272 3 .816.84.536 1.484 1.276 1.932 2.22.456.944.684 2.02.684 3.228 0 1.28-.256 2.4-.768 3.36a5.456 5.456 0 01-2.172 2.232c-.928.528-2.02.788-3.276.78zm.132-2.028c1.256 0 2.208-.388 2.856-1.164.648-.784.972-1.824.972-3.12 0-1.328-.336-2.372-1.008-3.132-.672-.768-1.616-1.152-2.832-1.152-1.232 0-2.176.384-2.832 1.152-.648.76-.972 1.804-.972 3.132 0 1.336.328 2.384.984 3.144.656.76 1.6 1.14 2.832 1.14zm14.685 2.016c-1.216 0-2.24-.3-3.072-.9-.832-.608-1.464-1.428-1.896-2.46-.424-1.04-.636-2.204-.636-3.492 0-1.304.212-2.472.636-3.504.432-1.032 1.064-1.844 1.896-2.436.84-.592 1.868-.888 3.084-.888 1.2 0 2.232.3 3.096.9.872.592 1.54 1.404 2.004 2.436.464 1.032.696 2.196.696 3.492 0 1.296-.232 2.46-.696 3.492-.464 1.032-1.132 1.852-2.004 2.46-.864.6-1.9.9-3.108.9zm-5.964 5.4v-18.72h1.908v9.54h.24v9.18h-2.148zm5.7-7.356c.856 0 1.564-.216 2.124-.648.56-.432.98-1.016 1.26-1.752.28-.744.42-1.576.42-2.496 0-.912-.14-1.736-.42-2.472-.272-.736-.696-1.32-1.272-1.752-.568-.432-1.292-.648-2.172-.648-.84 0-1.536.208-2.088.624-.552.408-.964.98-1.236 1.716-.272.728-.408 1.572-.408 2.532 0 .944.132 1.788.396 2.532.272.736.688 1.316 1.248 1.74.56.416 1.276.624 2.148.624zm12.387 1.956c-.968 0-1.78-.176-2.436-.528-.648-.36-1.14-.832-1.476-1.416a3.854 3.854 0 01-.492-1.92c0-.68.128-1.268.384-1.764.264-.504.632-.92 1.104-1.248.472-.336 1.036-.6 1.692-.792a19.352 19.352 0 012.064-.432 70.761 70.761 0 012.328-.348c.784-.104 1.516-.204 2.196-.3l-.768.444c.024-1.152-.208-2.004-.696-2.556-.48-.552-1.312-.828-2.496-.828-.784 0-1.472.18-2.064.54-.584.352-.996.928-1.236 1.728l-2.028-.612c.312-1.136.916-2.028 1.812-2.676.896-.648 2.076-.972 3.54-.972 1.176 0 2.184.212 3.024.636.848.416 1.456 1.048 1.824 1.896.184.4.3.836.348 1.308.048.464.072.952.072 1.464V126h-1.896v-3.108l.444.288c-.488 1.048-1.172 1.84-2.052 2.376-.872.536-1.936.804-3.192.804zm.324-1.788c.768 0 1.432-.136 1.992-.408.568-.28 1.024-.644 1.368-1.092.344-.456.568-.952.672-1.488.12-.4.184-.844.192-1.332.016-.496.024-.876.024-1.14l.744.324c-.696.096-1.38.188-2.052.276-.672.088-1.308.184-1.908.288-.6.096-1.14.212-1.62.348a5.278 5.278 0 00-.996.432 2.263 2.263 0 00-.744.684c-.184.272-.276.612-.276 1.02 0 .352.088.688.264 1.008.184.32.464.58.84.78.384.2.884.3 1.5.3zm9.48 1.428v-12.96h2.136v5.46h6.816v-5.46h2.136V126h-2.136v-5.472h-6.816V126h-2.136zm25.057-12.96V126h-2.064v-9.552L336.846 126h-1.764v-12.96h2.064v9.42l6.804-9.42h1.752zm8.977 13.32c-1.272 0-2.384-.28-3.336-.84a5.884 5.884 0 01-2.208-2.364c-.528-1.016-.792-2.2-.792-3.552 0-1.416.26-2.64.78-3.672.52-1.04 1.244-1.84 2.172-2.4.936-.568 2.032-.852 3.288-.852 1.304 0 2.412.3 3.324.9.92.6 1.608 1.456 2.064 2.568.464 1.112.664 2.436.6 3.972h-2.16v-.768c-.024-1.592-.348-2.78-.972-3.564-.624-.792-1.552-1.188-2.784-1.188-1.32 0-2.324.424-3.012 1.272-.688.848-1.032 2.064-1.032 3.648 0 1.528.344 2.712 1.032 3.552.688.84 1.668 1.26 2.94 1.26.856 0 1.6-.196 2.232-.588.632-.392 1.128-.956 1.488-1.692l2.052.708c-.504 1.144-1.264 2.032-2.28 2.664-1.008.624-2.14.936-3.396.936zm-4.788-6.24v-1.716h9.576v1.716h-9.576zm19.956 11.64l2.508-6.816.036 2.016-5.664-13.92h2.244l4.44 11.196h-.768l4.164-11.196h2.172l-7.056 18.72h-2.076zm18.914-5.76v-4.668c-.432.216-.956.4-1.572.552a8.045 8.045 0 01-1.956.228c-1.32 0-2.384-.296-3.192-.888-.808-.592-1.336-1.444-1.584-2.556a8.623 8.623 0 01-.156-1.044 25.093 25.093 0 01-.06-1.632v-2.952h2.16v2.952c0 .232.008.52.024.864.016.336.056.664.12.984.16.792.492 1.388.996 1.788.512.4 1.232.6 2.16.6.624 0 1.2-.08 1.728-.24.528-.16.972-.372 1.332-.636v-6.312h2.148V126h-2.148zm9.197.36c-.968 0-1.78-.176-2.436-.528-.648-.36-1.14-.832-1.476-1.416a3.854 3.854 0 01-.492-1.92c0-.68.128-1.268.384-1.764.264-.504.632-.92 1.104-1.248.472-.336 1.036-.6 1.692-.792a19.352 19.352 0 012.064-.432 70.761 70.761 0 012.328-.348c.784-.104 1.516-.204 2.196-.3l-.768.444c.024-1.152-.208-2.004-.696-2.556-.48-.552-1.312-.828-2.496-.828-.784 0-1.472.18-2.064.54-.584.352-.996.928-1.236 1.728l-2.028-.612c.312-1.136.916-2.028 1.812-2.676.896-.648 2.076-.972 3.54-.972 1.176 0 2.184.212 3.024.636.848.416 1.456 1.048 1.824 1.896.184.4.3.836.348 1.308.048.464.072.952.072 1.464V126h-1.896v-3.108l.444.288c-.488 1.048-1.172 1.84-2.052 2.376-.872.536-1.936.804-3.192.804zm.324-1.788c.768 0 1.432-.136 1.992-.408.568-.28 1.024-.644 1.368-1.092.344-.456.568-.952.672-1.488.12-.4.184-.844.192-1.332.016-.496.024-.876.024-1.14l.744.324c-.696.096-1.38.188-2.052.276-.672.088-1.308.184-1.908.288-.6.096-1.14.212-1.62.348a5.278 5.278 0 00-.996.432 2.263 2.263 0 00-.744.684c-.184.272-.276.612-.276 1.02 0 .352.088.688.264 1.008.184.32.464.58.84.78.384.2.884.3 1.5.3zm14.952 1.788c-1.312 0-2.428-.292-3.348-.876-.912-.592-1.608-1.404-2.088-2.436s-.728-2.208-.744-3.528c.016-1.352.268-2.54.756-3.564.496-1.032 1.204-1.836 2.124-2.412.92-.576 2.028-.864 3.324-.864 1.368 0 2.544.336 3.528 1.008.992.672 1.656 1.592 1.992 2.76l-2.112.636c-.272-.752-.716-1.336-1.332-1.752-.608-.416-1.308-.624-2.1-.624-.888 0-1.62.208-2.196.624-.576.408-1.004.976-1.284 1.704-.28.72-.424 1.548-.432 2.484.016 1.44.348 2.604.996 3.492.656.88 1.628 1.32 2.916 1.32.848 0 1.552-.192 2.112-.576.56-.392.984-.956 1.272-1.692l2.16.564c-.448 1.208-1.148 2.132-2.1 2.772-.952.64-2.1.96-3.444.96zm11.191-.36v-11.016h-4.512v-1.944h11.16v1.944h-4.512V126h-2.136zm8.907 0v-12.96h2.136v5.46h6.816v-5.46h2.136V126h-2.136v-5.472h-6.816V126h-2.136zm25.058-12.96V126h-2.064v-9.552L449.534 126h-1.764v-12.96h2.064v9.42l6.804-9.42h1.752zm3.348 12.96l.012-12.96h2.16v6.24l5.436-6.24h2.772l-5.724 6.48 6.396 6.48h-2.988l-5.892-6.24V126h-2.172zm17.532.36c-1.288 0-2.4-.292-3.336-.876-.928-.584-1.644-1.392-2.148-2.424-.504-1.032-.756-2.216-.756-3.552 0-1.36.256-2.552.768-3.576s1.236-1.82 2.172-2.388c.936-.576 2.036-.864 3.3-.864 1.296 0 2.412.292 3.348.876.936.576 1.652 1.38 2.148 2.412.504 1.024.756 2.204.756 3.54 0 1.352-.252 2.544-.756 3.576a5.794 5.794 0 01-2.16 2.412c-.936.576-2.048.864-3.336.864zm0-2.028c1.344 0 2.344-.448 3-1.344.656-.896.984-2.056.984-3.48 0-1.464-.332-2.628-.996-3.492-.664-.872-1.66-1.308-2.988-1.308-.904 0-1.648.204-2.232.612-.584.408-1.02.972-1.308 1.692-.288.72-.432 1.552-.432 2.496 0 1.456.336 2.624 1.008 3.504.672.88 1.66 1.32 2.964 1.32zm8.882 1.668v-12.96h5.52c.328 0 .68.02 1.056.06.384.032.732.092 1.044.18a3.138 3.138 0 011.716 1.14c.456.568.684 1.288.684 2.16 0 .488-.076.912-.228 1.272a2.67 2.67 0 01-.624.936 2.59 2.59 0 01-.396.324 2.253 2.253 0 01-.432.228c.28.048.564.156.852.324.456.248.812.596 1.068 1.044.264.448.396 1.02.396 1.716 0 .88-.212 1.608-.636 2.184-.424.568-1.008.96-1.752 1.176a5.533 5.533 0 01-1.032.18c-.376.024-.74.036-1.092.036h-6.144zm2.16-1.74h3.864c.168 0 .368-.016.6-.048.24-.032.452-.072.636-.12.416-.12.716-.344.9-.672.192-.328.288-.684.288-1.068 0-.512-.144-.928-.432-1.248-.28-.32-.652-.52-1.116-.6a2.348 2.348 0 00-.552-.084 12.522 12.522 0 00-.516-.012h-3.672v3.852zm0-5.616h3.216c.224 0 .46-.012.708-.036a2.75 2.75 0 00.648-.156c.368-.136.636-.36.804-.672.176-.32.264-.668.264-1.044 0-.416-.096-.78-.288-1.092-.184-.32-.468-.54-.852-.66a2.637 2.637 0 00-.864-.156 15.745 15.745 0 00-.6-.024h-3.036v3.84zM270.68 695v-17.28h13.488V695h-2.136v-15.252h-9.216V695h-2.136zm22.804.36c-1.216 0-2.24-.3-3.072-.9-.832-.608-1.464-1.428-1.896-2.46-.424-1.04-.636-2.204-.636-3.492 0-1.304.212-2.472.636-3.504.432-1.032 1.064-1.844 1.896-2.436.84-.592 1.868-.888 3.084-.888 1.2 0 2.232.3 3.096.9.872.592 1.54 1.404 2.004 2.436.464 1.032.696 2.196.696 3.492 0 1.296-.232 2.46-.696 3.492-.464 1.032-1.132 1.852-2.004 2.46-.864.6-1.9.9-3.108.9zm-5.964 5.4v-18.72h1.908v9.54h.24v9.18h-2.148zm5.7-7.356c.856 0 1.564-.216 2.124-.648.56-.432.98-1.016 1.26-1.752.28-.744.42-1.576.42-2.496 0-.912-.14-1.736-.42-2.472-.272-.736-.696-1.32-1.272-1.752-.568-.432-1.292-.648-2.172-.648-.84 0-1.536.208-2.088.624-.552.408-.964.98-1.236 1.716-.272.728-.408 1.572-.408 2.532 0 .944.132 1.788.396 2.532.272.736.688 1.316 1.248 1.74.56.416 1.276.624 2.148.624zm12.386 1.956c-.968 0-1.78-.176-2.436-.528-.648-.36-1.14-.832-1.476-1.416a3.854 3.854 0 01-.492-1.92c0-.68.128-1.268.384-1.764.264-.504.632-.92 1.104-1.248.472-.336 1.036-.6 1.692-.792a19.352 19.352 0 012.064-.432 70.761 70.761 0 012.328-.348c.784-.104 1.516-.204 2.196-.3l-.768.444c.024-1.152-.208-2.004-.696-2.556-.48-.552-1.312-.828-2.496-.828-.784 0-1.472.18-2.064.54-.584.352-.996.928-1.236 1.728l-2.028-.612c.312-1.136.916-2.028 1.812-2.676.896-.648 2.076-.972 3.54-.972 1.176 0 2.184.212 3.024.636.848.416 1.456 1.048 1.824 1.896.184.4.3.836.348 1.308.048.464.072.952.072 1.464V695h-1.896v-3.108l.444.288c-.488 1.048-1.172 1.84-2.052 2.376-.872.536-1.936.804-3.192.804zm.324-1.788c.768 0 1.432-.136 1.992-.408.568-.28 1.024-.644 1.368-1.092.344-.456.568-.952.672-1.488.12-.4.184-.844.192-1.332.016-.496.024-.876.024-1.14l.744.324c-.696.096-1.38.188-2.052.276-.672.088-1.308.184-1.908.288-.6.096-1.14.212-1.62.348a5.278 5.278 0 00-.996.432 2.263 2.263 0 00-.744.684c-.184.272-.276.612-.276 1.02 0 .352.088.688.264 1.008.184.32.464.58.84.78.384.2.884.3 1.5.3zm9.48 1.428v-12.96h5.52c.328 0 .68.02 1.056.06.384.032.732.092 1.044.18a3.138 3.138 0 011.716 1.14c.456.568.684 1.288.684 2.16 0 .488-.076.912-.228 1.272a2.67 2.67 0 01-.624.936 2.59 2.59 0 01-.396.324 2.253 2.253 0 01-.432.228c.28.048.564.156.852.324.456.248.812.596 1.068 1.044.264.448.396 1.02.396 1.716 0 .88-.212 1.608-.636 2.184-.424.568-1.008.96-1.752 1.176a5.533 5.533 0 01-1.032.18c-.376.024-.74.036-1.092.036h-6.144zm2.16-1.74h3.864c.168 0 .368-.016.6-.048.24-.032.452-.072.636-.12.416-.12.716-.344.9-.672.192-.328.288-.684.288-1.068 0-.512-.144-.928-.432-1.248-.28-.32-.652-.52-1.116-.6a2.348 2.348 0 00-.552-.084 12.522 12.522 0 00-.516-.012h-3.672v3.852zm0-5.616h3.216c.224 0 .46-.012.708-.036a2.75 2.75 0 00.648-.156c.368-.136.636-.36.804-.672.176-.32.264-.668.264-1.044 0-.416-.096-.78-.288-1.092-.184-.32-.468-.54-.852-.66a2.637 2.637 0 00-.864-.156 15.745 15.745 0 00-.6-.024h-3.036v3.84zm9.707 7.356v-1.836c.48.088.844.072 1.092-.048.256-.128.444-.348.564-.66.128-.32.232-.72.312-1.2.136-.76.252-1.608.348-2.544.104-.936.196-1.96.276-3.072.088-1.12.168-2.32.24-3.6h9.06V695h-2.136v-10.932h-4.98a83.1 83.1 0 01-.18 2.268c-.064.776-.132 1.532-.204 2.268a51.828 51.828 0 01-.24 2.04c-.08.624-.168 1.164-.264 1.62-.152.784-.364 1.412-.636 1.884a1.875 1.875 0 01-1.176.9c-.512.144-1.204.128-2.076-.048zm20.878.36c-1.272 0-2.384-.28-3.336-.84a5.884 5.884 0 01-2.208-2.364c-.528-1.016-.792-2.2-.792-3.552 0-1.416.26-2.64.78-3.672.52-1.04 1.244-1.84 2.172-2.4.936-.568 2.032-.852 3.288-.852 1.304 0 2.412.3 3.324.9.92.6 1.608 1.456 2.064 2.568.464 1.112.664 2.436.6 3.972h-2.16v-.768c-.024-1.592-.348-2.78-.972-3.564-.624-.792-1.552-1.188-2.784-1.188-1.32 0-2.324.424-3.012 1.272-.688.848-1.032 2.064-1.032 3.648 0 1.528.344 2.712 1.032 3.552.688.84 1.668 1.26 2.94 1.26.856 0 1.6-.196 2.232-.588.632-.392 1.128-.956 1.488-1.692l2.052.708c-.504 1.144-1.264 2.032-2.28 2.664-1.008.624-2.14.936-3.396.936zm-4.788-6.24v-1.716h9.576v1.716h-9.576zm13.34 5.88v-12.96h2.136v5.46h6.816v-5.46h2.136V695h-2.136v-5.472h-6.816V695h-2.136zm25.058-12.96V695h-2.064v-9.552L372.909 695h-1.764v-12.96h2.064v9.42l6.804-9.42h1.752zm8.976 13.32c-1.272 0-2.384-.28-3.336-.84a5.884 5.884 0 01-2.208-2.364c-.528-1.016-.792-2.2-.792-3.552 0-1.416.26-2.64.78-3.672.52-1.04 1.244-1.84 2.172-2.4.936-.568 2.032-.852 3.288-.852 1.304 0 2.412.3 3.324.9.92.6 1.608 1.456 2.064 2.568.464 1.112.664 2.436.6 3.972h-2.16v-.768c-.024-1.592-.348-2.78-.972-3.564-.624-.792-1.552-1.188-2.784-1.188-1.32 0-2.324.424-3.012 1.272-.688.848-1.032 2.064-1.032 3.648 0 1.528.344 2.712 1.032 3.552.688.84 1.668 1.26 2.94 1.26.856 0 1.6-.196 2.232-.588.632-.392 1.128-.956 1.488-1.692l2.052.708c-.504 1.144-1.264 2.032-2.28 2.664-1.008.624-2.14.936-3.396.936zm-4.788-6.24v-1.716h9.576v1.716h-9.576z"/>
  <path fill="#000" d="M57.12 426v-11.52h1.424v5.408l5.04-5.408h1.792l-5.232 5.592 5.64 5.928h-1.84l-5.4-5.632V426H57.12zm12.82.24c-.858 0-1.6-.195-2.223-.584a3.868 3.868 0 01-1.432-1.616c-.336-.688-.504-1.477-.504-2.368 0-.907.17-1.701.512-2.384a3.81 3.81 0 011.448-1.592c.624-.384 1.357-.576 2.2-.576.864 0 1.608.195 2.232.584.624.384 1.101.92 1.432 1.608.336.683.504 1.469.504 2.36 0 .901-.168 1.696-.504 2.384a3.858 3.858 0 01-1.44 1.608c-.624.384-1.366.576-2.224.576zm0-1.352c.897 0 1.563-.299 2-.896.438-.597.657-1.371.657-2.32 0-.976-.222-1.752-.664-2.328-.443-.581-1.107-.872-1.992-.872-.603 0-1.099.136-1.488.408-.39.272-.68.648-.872 1.128-.192.48-.288 1.035-.288 1.664 0 .971.224 1.749.672 2.336.448.587 1.106.88 1.976.88zM75.863 426v-8.64h1.224l3.28 6.704 3.28-6.704h1.224V426h-1.376v-5.672L80.742 426h-.752l-2.752-5.672V426h-1.376zm18.314-8.64V426H92.8v-6.368L88.272 426h-1.176v-8.64h1.376v6.28l4.536-6.28h1.168zm4.529 8.64v-7.344h-3.008v-1.296h7.44v1.296h-3.008V426h-1.424zm9.69.24c-.848 0-1.589-.187-2.224-.56a3.927 3.927 0 01-1.472-1.576c-.352-.677-.528-1.467-.528-2.368 0-.944.174-1.76.52-2.448.347-.693.83-1.227 1.448-1.6.624-.379 1.355-.568 2.192-.568.87 0 1.608.2 2.216.6.614.4 1.072.971 1.376 1.712.31.741.443 1.624.4 2.648h-1.44v-.512c-.016-1.061-.232-1.853-.648-2.376-.416-.528-1.034-.792-1.856-.792-.88 0-1.549.283-2.008.848-.458.565-.688 1.376-.688 2.432 0 1.019.23 1.808.688 2.368.459.56 1.112.84 1.96.84.571 0 1.067-.131 1.488-.392.422-.261.752-.637.992-1.128l1.368.472a3.867 3.867 0 01-1.52 1.776c-.672.416-1.426.624-2.264.624zm-3.192-4.16v-1.144h6.384v1.144h-6.384zm11.033 3.92v-7.344h-3.008v-1.296h7.44v1.296h-3.008V426h-1.424zm9.142 0v-8.64h7.08V426h-1.424v-7.288h-4.232V426h-1.424zm13 .24c-.859 0-1.6-.195-2.224-.584a3.866 3.866 0 01-1.432-1.616c-.336-.688-.504-1.477-.504-2.368 0-.907.171-1.701.512-2.384a3.807 3.807 0 011.448-1.592c.624-.384 1.357-.576 2.2-.576.864 0 1.608.195 2.232.584a3.75 3.75 0 011.432 1.608c.336.683.504 1.469.504 2.36 0 .901-.168 1.696-.504 2.384a3.858 3.858 0 01-1.44 1.608c-.624.384-1.365.576-2.224.576zm0-1.352c.896 0 1.563-.299 2-.896.437-.597.656-1.371.656-2.32 0-.976-.221-1.752-.664-2.328-.443-.581-1.107-.872-1.992-.872-.603 0-1.099.136-1.488.408-.389.272-.68.648-.872 1.128-.192.48-.288 1.035-.288 1.664 0 .971.224 1.749.672 2.336.448.587 1.107.88 1.976.88zm9.125 1.112v-8.64h1.424V421h4.544v-3.64h1.424V426h-1.424v-3.648h-4.544V426h-1.424zm13.313.24c-.859 0-1.6-.195-2.224-.584a3.866 3.866 0 01-1.432-1.616c-.336-.688-.504-1.477-.504-2.368 0-.907.17-1.701.512-2.384a3.807 3.807 0 011.448-1.592c.624-.384 1.357-.576 2.2-.576.864 0 1.608.195 2.232.584a3.75 3.75 0 011.432 1.608c.336.683.504 1.469.504 2.36 0 .901-.168 1.696-.504 2.384a3.858 3.858 0 01-1.44 1.608c-.624.384-1.366.576-2.224.576zm0-1.352c.896 0 1.562-.299 2-.896.437-.597.656-1.371.656-2.32 0-.976-.222-1.752-.664-2.328-.443-.581-1.107-.872-1.992-.872-.603 0-1.099.136-1.488.408-.39.272-.68.648-.872 1.128-.192.48-.288 1.035-.288 1.664 0 .971.224 1.749.672 2.336.448.587 1.106.88 1.976.88zm5.921 1.112v-8.64h1.224l3.28 6.704 3.28-6.704h1.224V426h-1.376v-5.672L171.617 426h-.752l-2.752-5.672V426h-1.376zm18.314-8.64V426h-1.376v-6.368L179.147 426h-1.176v-8.64h1.376v6.28l4.536-6.28h1.168zm2.233 8.64v-8.64h1.424V421h4.544v-3.64h1.424V426h-1.424v-3.648h-4.544V426h-1.424zm12.089.24c-.645 0-1.187-.117-1.624-.352a2.51 2.51 0 01-.984-.944 2.565 2.565 0 01-.328-1.28c0-.453.085-.845.256-1.176.176-.336.421-.613.736-.832.315-.224.691-.4 1.128-.528.411-.112.869-.208 1.376-.288a47.041 47.041 0 011.552-.232c.523-.069 1.011-.136 1.464-.2l-.512.296c.016-.768-.139-1.336-.464-1.704-.32-.368-.875-.552-1.664-.552-.523 0-.981.12-1.376.36-.389.235-.664.619-.824 1.152l-1.352-.408c.208-.757.611-1.352 1.208-1.784.597-.432 1.384-.648 2.36-.648.784 0 1.456.141 2.016.424.565.277.971.699 1.216 1.264.123.267.2.557.232.872.032.309.048.635.048.976V426h-1.264v-2.072l.296.192c-.325.699-.781 1.227-1.368 1.584-.581.357-1.291.536-2.128.536zm.216-1.192c.512 0 .955-.091 1.328-.272.379-.187.683-.429.912-.728.229-.304.379-.635.448-.992.08-.267.123-.563.128-.888.011-.331.016-.584.016-.76l.496.216c-.464.064-.92.125-1.368.184-.448.059-.872.123-1.272.192a9.4 9.4 0 00-1.08.232 3.553 3.553 0 00-.664.288 1.498 1.498 0 00-.496.456c-.123.181-.184.408-.184.68 0 .235.059.459.176.672.123.213.309.387.56.52.256.133.589.2 1 .2zm13.688 2.552V426h-7.368v-8.64h1.424v7.288h4.232v-7.288h1.424v7.344h1.712v2.896h-1.424zm9.774-10.24V426h-1.376v-6.368L217.147 426h-1.176v-8.64h1.376v6.28l4.536-6.28h1.168zm7.577 8.64v-3.128h-1.864c-.219 0-.461-.008-.728-.024a9.299 9.299 0 01-.736-.088 2.956 2.956 0 01-1.584-.824c-.427-.432-.64-1.029-.64-1.792 0-.741.2-1.336.6-1.784a2.779 2.779 0 011.496-.88 3.75 3.75 0 01.808-.104c.277-.011.512-.016.704-.016h3.368l.008 8.64h-1.432zm-5.816 0l2.296-3.52h1.536l-2.296 3.52h-1.536zm3.848-4.304h1.968v-3.16h-1.968c-.123 0-.285.005-.488.016a2.517 2.517 0 00-.568.096 1.476 1.476 0 00-.904.76c-.107.203-.16.443-.16.72 0 .4.112.725.336.976.224.245.496.411.816.496.176.043.349.069.52.08.176.011.325.016.448.016zM234.3 426v-8.64h1.224l3.28 6.704 3.28-6.704h1.224V426h-1.376v-5.672L239.18 426h-.752l-2.752-5.672V426H234.3zm21.517-8.64V426h-1.376v-6.368L249.913 426h-1.176v-8.64h1.376v6.28l4.536-6.28h1.168zm5.436 8.64v-8.64h3.68c.218 0 .453.013.704.04.256.021.488.061.696.12.464.123.845.376 1.144.76.304.379.456.859.456 1.44 0 .325-.051.608-.152.848-.096.24-.235.448-.416.624a1.727 1.727 0 01-.552.368c.186.032.376.104.568.216.304.165.541.397.712.696.176.299.264.68.264 1.144 0 .587-.142 1.072-.424 1.456-.283.379-.672.64-1.168.784a3.644 3.644 0 01-.688.12 11.46 11.46 0 01-.728.024h-4.096zm1.44-1.16h2.576c.112 0 .245-.011.4-.032.16-.021.301-.048.424-.08.277-.08.477-.229.6-.448.128-.219.192-.456.192-.712 0-.341-.096-.619-.288-.832a1.233 1.233 0 00-.744-.4 1.551 1.551 0 00-.368-.056 8.999 8.999 0 00-.344-.008h-2.448v2.568zm0-3.744h2.144c.149 0 .306-.008.472-.024.165-.021.309-.056.432-.104a.961.961 0 00.536-.448c.117-.213.176-.445.176-.696 0-.277-.064-.52-.192-.728a.957.957 0 00-.568-.44 1.752 1.752 0 00-.576-.104 9.845 9.845 0 00-.4-.016h-2.024v2.56zm10.951 5.144c-.859 0-1.6-.195-2.224-.584a3.866 3.866 0 01-1.432-1.616c-.336-.688-.504-1.477-.504-2.368 0-.907.17-1.701.512-2.384a3.807 3.807 0 011.448-1.592c.624-.384 1.357-.576 2.2-.576.864 0 1.608.195 2.232.584a3.75 3.75 0 011.432 1.608c.336.683.504 1.469.504 2.36 0 .901-.168 1.696-.504 2.384a3.858 3.858 0 01-1.44 1.608c-.624.384-1.366.576-2.224.576zm0-1.352c.896 0 1.562-.299 2-.896.437-.597.656-1.371.656-2.32 0-.976-.222-1.752-.664-2.328-.443-.581-1.107-.872-1.992-.872-.603 0-1.099.136-1.488.408-.39.272-.68.648-.872 1.128-.192.48-.288 1.035-.288 1.664 0 .971.224 1.749.672 2.336.448.587 1.106.88 1.976.88zm8.822 1.352c-.853 0-1.608-.184-2.264-.552a4.123 4.123 0 01-1.552-1.536l1.136-.736c.315.475.691.84 1.128 1.096.437.251.936.376 1.496.376.587 0 1.053-.133 1.4-.4.347-.272.52-.637.52-1.096 0-.341-.085-.603-.256-.784-.171-.181-.416-.307-.736-.376a5.492 5.492 0 00-1.144-.104h-.896v-1.176h.888c.56 0 1.016-.091 1.368-.272.352-.181.528-.491.528-.928 0-.448-.165-.773-.496-.976-.325-.208-.715-.312-1.168-.312-.48 0-.939.101-1.376.304a3.937 3.937 0 00-1.128.752l-.864-.968a4.68 4.68 0 011.544-1.056 4.81 4.81 0 011.912-.376c.555 0 1.061.099 1.52.296a2.5 2.5 0 011.104.856c.277.373.416.829.416 1.368 0 .459-.107.867-.32 1.224-.213.357-.528.669-.944.936l-.056-.504c.352.085.643.243.872.472.235.224.408.491.52.8.112.309.168.632.168.968 0 .565-.149 1.051-.448 1.456a2.86 2.86 0 01-1.192.928 4.253 4.253 0 01-1.68.32zm5.068-.24v-8.64h1.424V421h4.544v-3.64h1.424V426h-1.424v-3.648h-4.544V426h-1.424zm12.089.24c-.645 0-1.187-.117-1.624-.352a2.51 2.51 0 01-.984-.944 2.565 2.565 0 01-.328-1.28c0-.453.085-.845.256-1.176.176-.336.421-.613.736-.832.315-.224.691-.4 1.128-.528.411-.112.869-.208 1.376-.288a47.041 47.041 0 011.552-.232c.523-.069 1.011-.136 1.464-.2l-.512.296c.016-.768-.139-1.336-.464-1.704-.32-.368-.875-.552-1.664-.552-.523 0-.981.12-1.376.36-.389.235-.664.619-.824 1.152l-1.352-.408c.208-.757.611-1.352 1.208-1.784.597-.432 1.384-.648 2.36-.648.784 0 1.456.141 2.016.424.565.277.971.699 1.216 1.264.123.267.2.557.232.872.032.309.048.635.048.976V426h-1.264v-2.072l.296.192c-.325.699-.781 1.227-1.368 1.584-.581.357-1.291.536-2.128.536zm.216-1.192c.512 0 .955-.091 1.328-.272.379-.187.683-.429.912-.728.229-.304.379-.635.448-.992.08-.267.123-.563.128-.888.011-.331.016-.584.016-.76l.496.216c-.464.064-.92.125-1.368.184-.448.059-.872.123-1.272.192a9.4 9.4 0 00-1.08.232 3.553 3.553 0 00-.664.288 1.498 1.498 0 00-.496.456c-.123.181-.184.408-.184.68 0 .235.059.459.176.672.123.213.309.387.56.52.256.133.589.2 1 .2zm6.328.952v-8.64h6v1.352h-4.576V426h-1.424zm11.484.24c-.811 0-1.494-.2-2.048-.6-.555-.405-.976-.952-1.264-1.64-.283-.693-.424-1.469-.424-2.328 0-.869.141-1.648.424-2.336.288-.688.709-1.229 1.264-1.624.56-.395 1.245-.592 2.056-.592.8 0 1.488.2 2.064.6.581.395 1.026.936 1.336 1.624.309.688.464 1.464.464 2.328 0 .864-.155 1.64-.464 2.328a3.908 3.908 0 01-1.336 1.64c-.576.4-1.267.6-2.072.6zm-3.976 3.6v-12.48h1.272v6.36h.16v6.12h-1.432zm3.8-4.904c.57 0 1.042-.144 1.416-.432.373-.288.653-.677.84-1.168a4.71 4.71 0 00.28-1.664 4.62 4.62 0 00-.28-1.648 2.508 2.508 0 00-.848-1.168c-.379-.288-.862-.432-1.448-.432-.56 0-1.024.139-1.392.416-.368.272-.643.653-.824 1.144-.182.485-.272 1.048-.272 1.688 0 .629.088 1.192.264 1.688.181.491.458.877.832 1.16.373.277.85.416 1.432.416zm8.257 1.304c-.645 0-1.186-.117-1.624-.352a2.51 2.51 0 01-.984-.944 2.575 2.575 0 01-.328-1.28c0-.453.086-.845.256-1.176.176-.336.422-.613.736-.832.315-.224.691-.4 1.128-.528.411-.112.87-.208 1.376-.288.512-.085 1.03-.163 1.552-.232.523-.069 1.011-.136 1.464-.2l-.512.296c.016-.768-.138-1.336-.464-1.704-.32-.368-.874-.552-1.664-.552-.522 0-.981.12-1.376.36-.389.235-.664.619-.824 1.152l-1.352-.408c.208-.757.611-1.352 1.208-1.784.598-.432 1.384-.648 2.36-.648.784 0 1.456.141 2.016.424a2.46 2.46 0 011.216 1.264c.123.267.2.557.232.872.032.309.048.635.048.976V426h-1.264v-2.072l.296.192c-.325.699-.781 1.227-1.368 1.584-.581.357-1.29.536-2.128.536zm.216-1.192c.512 0 .955-.091 1.328-.272.379-.187.683-.429.912-.728.23-.304.379-.635.448-.992.08-.267.123-.563.128-.888.011-.331.016-.584.016-.76l.496.216c-.464.064-.92.125-1.368.184-.448.059-.872.123-1.272.192a9.4 9.4 0 00-1.08.232 3.581 3.581 0 00-.664.288 1.508 1.508 0 00-.496.456 1.191 1.191 0 00-.184.68c0 .235.059.459.176.672.123.213.31.387.56.52.256.133.59.2 1 .2zm5.368.952l3.488-4.32-3.32-4.32h1.584l3.208 4.24v-4.24h1.296v4.24l3.208-4.24h1.584l-3.32 4.32 3.488 4.32h-1.656l-3.304-4.24V426h-1.296v-4.24l-3.304 4.24h-1.656zm11.539 1.92v-3.096c.485 0 .832-.157 1.04-.472.208-.32.376-.845.504-1.576.085-.459.155-.949.208-1.472.053-.523.099-1.104.136-1.744.043-.645.083-1.379.12-2.2h5.952v7.464h.84v3.096h-1.36V426h-6.08v1.92h-1.36zm2.192-3.096h4.344v-6.288h-3.24a52.746 52.746 0 01-.16 2.424c-.032.411-.072.8-.12 1.168-.043.363-.093.688-.152.976-.069.4-.149.739-.24 1.016a1.712 1.712 0 01-.432.704zm11.958 1.416c-.848 0-1.59-.187-2.224-.56a3.92 3.92 0 01-1.472-1.576c-.352-.677-.528-1.467-.528-2.368 0-.944.173-1.76.52-2.448.346-.693.829-1.227 1.448-1.6.624-.379 1.354-.568 2.192-.568.869 0 1.608.2 2.216.6.613.4 1.072.971 1.376 1.712.309.741.442 1.624.4 2.648h-1.44v-.512c-.016-1.061-.232-1.853-.648-2.376-.416-.528-1.035-.792-1.856-.792-.88 0-1.55.283-2.008.848-.459.565-.688 1.376-.688 2.432 0 1.019.229 1.808.688 2.368.458.56 1.112.84 1.96.84.57 0 1.066-.131 1.488-.392.421-.261.752-.637.992-1.128l1.368.472a3.873 3.873 0 01-1.52 1.776c-.672.416-1.427.624-2.264.624zm-3.192-4.16v-1.144h6.384v1.144h-6.384zm8.893 3.92v-8.64h1.424V421h4.544v-3.64h1.424V426h-1.424v-3.648h-4.544V426h-1.424zm16.705-8.64V426h-1.376v-6.368L373.507 426h-1.176v-8.64h1.376v6.28l4.536-6.28h1.168zm7.576 8.64v-3.128h-1.864c-.218 0-.461-.008-.728-.024a9.356 9.356 0 01-.736-.088 2.956 2.956 0 01-1.584-.824c-.426-.432-.64-1.029-.64-1.792 0-.741.2-1.336.6-1.784a2.782 2.782 0 011.496-.88 3.75 3.75 0 01.808-.104c.278-.011.512-.016.704-.016h3.368l.008 8.64h-1.432zm-5.816 0l2.296-3.52h1.536l-2.296 3.52h-1.536zm3.848-4.304h1.968v-3.16h-1.968c-.122 0-.285.005-.488.016a2.527 2.527 0 00-.568.096c-.17.048-.338.136-.504.264-.16.128-.293.293-.4.496-.106.203-.16.443-.16.72 0 .4.112.725.336.976.224.245.496.411.816.496.176.043.35.069.52.08.176.011.326.016.448.016zm5.64 4.304v-8.64h1.224l3.28 6.704 3.28-6.704h1.224V426h-1.376v-5.672L395.539 426h-.752l-2.752-5.672V426h-1.376zM61.856 509.24c-1.147 0-2.12-.253-2.92-.76-.8-.507-1.41-1.211-1.832-2.112-.416-.901-.624-1.944-.624-3.128 0-1.184.208-2.227.624-3.128.421-.901 1.032-1.605 1.832-2.112.8-.507 1.773-.76 2.92-.76 1.333 0 2.43.339 3.288 1.016.864.677 1.459 1.589 1.784 2.736l-1.448.384c-.235-.859-.653-1.536-1.256-2.032s-1.392-.744-2.368-.744c-.859 0-1.573.195-2.144.584-.57.389-1 .933-1.288 1.632-.288.693-.435 1.501-.44 2.424-.005.917.136 1.725.424 2.424.288.693.72 1.237 1.296 1.632.576.389 1.293.584 2.152.584.976 0 1.765-.248 2.368-.744.603-.501 1.021-1.179 1.256-2.032l1.448.384c-.325 1.141-.92 2.053-1.784 2.736-.859.677-1.955 1.016-3.288 1.016zm6.026-.24v-1.224c.32.059.563.048.728-.032a.777.777 0 00.377-.44c.085-.213.154-.48.208-.8.09-.507.168-1.072.232-1.696.069-.624.13-1.307.183-2.048.06-.747.112-1.547.16-2.4h6.04V509h-1.424v-7.288h-3.32a55.19 55.19 0 01-.12 1.512c-.042.517-.087 1.021-.135 1.512-.049.485-.102.939-.16 1.36-.054.416-.112.776-.176 1.08-.102.523-.243.941-.424 1.256a1.252 1.252 0 01-.785.6c-.34.096-.802.085-1.384-.032zm11.375 3.84l1.672-4.544.025 1.344-3.776-9.28h1.496l2.96 7.464h-.513l2.776-7.464h1.448l-4.704 12.48h-1.384zm6.45-3.84l3.488-4.32-3.32-4.32h1.584l3.208 4.24v-4.24h1.296v4.24l3.208-4.24h1.584l-3.32 4.32 3.488 4.32h-1.656l-3.304-4.24V509h-1.296v-4.24L87.363 509h-1.656zm16.003.248c-.816-.005-1.512-.181-2.088-.528-.576-.352-1.024-.867-1.344-1.544-.32-.677-.499-1.507-.536-2.488-.021-.453-.016-.952.016-1.496a17.61 17.61 0 01.176-1.568c.085-.501.192-.915.32-1.24.144-.389.347-.749.608-1.08a3.88 3.88 0 01.896-.832 4.16 4.16 0 011.128-.536 9.079 9.079 0 011.304-.296c.459-.075.917-.139 1.376-.192.459-.059.896-.128 1.312-.208l.144 1.28c-.293.064-.64.12-1.04.168-.4.043-.816.093-1.248.152a9.872 9.872 0 00-1.232.248 3.485 3.485 0 00-1.008.424c-.416.251-.736.627-.96 1.128a5.095 5.095 0 00-.4 1.672c.33-.512.76-.888 1.288-1.128a4.033 4.033 0 011.688-.36c.773 0 1.44.181 2 .544.56.357.989.851 1.288 1.48.304.629.456 1.347.456 2.152 0 .853-.171 1.6-.512 2.24a3.635 3.635 0 01-1.448 1.488c-.619.352-1.347.525-2.184.52zm.088-1.352c.837 0 1.472-.259 1.904-.776.432-.523.648-1.216.648-2.08 0-.885-.224-1.581-.672-2.088-.448-.512-1.077-.768-1.888-.768-.821 0-1.451.256-1.888.768-.432.507-.648 1.203-.648 2.088 0 .891.219 1.589.656 2.096.437.507 1.067.76 1.888.76zm8.278 1.344c-.645 0-1.187-.117-1.624-.352a2.51 2.51 0 01-.984-.944 2.565 2.565 0 01-.328-1.28c0-.453.085-.845.256-1.176.176-.336.421-.613.736-.832.315-.224.691-.4 1.128-.528.411-.112.869-.208 1.376-.288a47.041 47.041 0 011.552-.232c.523-.069 1.011-.136 1.464-.2l-.512.296c.016-.768-.139-1.336-.464-1.704-.32-.368-.875-.552-1.664-.552-.523 0-.981.12-1.376.36-.389.235-.664.619-.824 1.152l-1.352-.408c.208-.757.611-1.352 1.208-1.784.597-.432 1.384-.648 2.36-.648.784 0 1.456.141 2.016.424.565.277.971.699 1.216 1.264.123.267.2.557.232.872.032.309.048.635.048.976V509h-1.264v-2.072l.296.192c-.325.699-.781 1.227-1.368 1.584-.581.357-1.291.536-2.128.536zm.216-1.192c.512 0 .955-.091 1.328-.272.379-.187.683-.429.912-.728.229-.304.379-.635.448-.992.08-.267.123-.563.128-.888.011-.331.016-.584.016-.76l.496.216c-.464.064-.92.125-1.368.184-.448.059-.872.123-1.272.192a9.4 9.4 0 00-1.08.232 3.553 3.553 0 00-.664.288 1.498 1.498 0 00-.496.456c-.123.181-.184.408-.184.68 0 .235.059.459.176.672.123.213.309.387.56.52.256.133.589.2 1 .2zm9.523.952v-8.64h3.68c.219 0 .453.013.704.04.256.021.488.061.696.12.464.123.845.376 1.144.76.304.379.456.859.456 1.44 0 .325-.051.608-.152.848-.096.24-.235.448-.416.624a1.727 1.727 0 01-.552.368c.187.032.376.104.568.216.304.165.541.397.712.696.176.299.264.68.264 1.144 0 .587-.141 1.072-.424 1.456-.283.379-.672.64-1.168.784a3.63 3.63 0 01-.688.12c-.251.016-.493.024-.728.024h-4.096zm1.44-1.16h2.576c.112 0 .245-.011.4-.032.16-.021.301-.048.424-.08.277-.08.477-.229.6-.448.128-.219.192-.456.192-.712 0-.341-.096-.619-.288-.832a1.233 1.233 0 00-.744-.4 1.551 1.551 0 00-.368-.056 8.999 8.999 0 00-.344-.008h-2.448v2.568zm0-3.744h2.144c.149 0 .307-.008.472-.024.165-.021.309-.056.432-.104a.961.961 0 00.536-.448c.117-.213.176-.445.176-.696 0-.277-.064-.52-.192-.728a.957.957 0 00-.568-.44 1.752 1.752 0 00-.576-.104 9.778 9.778 0 00-.4-.016h-2.024v2.56zm7.263 4.904v-8.64h1.424V504h4.544v-3.64h1.424V509h-1.424v-3.648h-4.544V509h-1.424zm10.833 3.84l1.672-4.544.024 1.344-3.776-9.28h1.496l2.96 7.464h-.512l2.776-7.464h1.448l-4.704 12.48h-1.384zm9.698-3.84v-7.344h-3.008v-1.296h7.44v1.296h-3.008V509h-1.424zm9.914.24c-.811 0-1.493-.2-2.048-.6-.555-.405-.976-.952-1.264-1.64-.283-.693-.424-1.469-.424-2.328 0-.869.141-1.648.424-2.336.288-.688.709-1.229 1.264-1.624.56-.395 1.245-.592 2.056-.592.8 0 1.488.2 2.064.6.581.395 1.027.936 1.336 1.624.309.688.464 1.464.464 2.328 0 .864-.155 1.64-.464 2.328a3.9 3.9 0 01-1.336 1.64c-.576.4-1.267.6-2.072.6zm-3.976 3.6v-12.48h1.272v6.36h.16v6.12h-1.432zm3.8-4.904c.571 0 1.043-.144 1.416-.432.373-.288.653-.677.84-1.168.187-.496.28-1.051.28-1.664 0-.608-.093-1.157-.28-1.648a2.501 2.501 0 00-.848-1.168c-.379-.288-.861-.432-1.448-.432-.56 0-1.024.139-1.392.416-.368.272-.643.653-.824 1.144-.181.485-.272 1.048-.272 1.688 0 .629.088 1.192.264 1.688.181.491.459.877.832 1.16.373.277.851.416 1.432.416zm9.546 1.304c-.848 0-1.59-.187-2.224-.56a3.92 3.92 0 01-1.472-1.576c-.352-.677-.528-1.467-.528-2.368 0-.944.173-1.76.52-2.448.346-.693.829-1.227 1.448-1.6.624-.379 1.354-.568 2.192-.568.869 0 1.608.2 2.216.6.613.4 1.072.971 1.376 1.712.309.741.442 1.624.4 2.648h-1.44v-.512c-.016-1.061-.232-1.853-.648-2.376-.416-.528-1.035-.792-1.856-.792-.88 0-1.55.283-2.008.848-.459.565-.688 1.376-.688 2.432 0 1.019.229 1.808.688 2.368.458.56 1.112.84 1.96.84.57 0 1.066-.131 1.488-.392.421-.261.752-.637.992-1.128l1.368.472a3.873 3.873 0 01-1.52 1.776c-.672.416-1.427.624-2.264.624zm-3.192-4.16v-1.144h6.384v1.144h-6.384zm8.893 3.92v-8.64h1.424V504h4.544v-3.64h1.424V509h-1.424v-3.648h-4.544V509h-1.424zm9.625 0v-8.64h1.424V504h4.544v-3.64h1.424V509h-1.424v-3.648h-4.544V509h-1.424zm13.377.24c-.848 0-1.589-.187-2.224-.56a3.927 3.927 0 01-1.472-1.576c-.352-.677-.528-1.467-.528-2.368 0-.944.173-1.76.52-2.448.347-.693.829-1.227 1.448-1.6.624-.379 1.355-.568 2.192-.568.869 0 1.608.2 2.216.6.613.4 1.072.971 1.376 1.712.309.741.443 1.624.4 2.648h-1.44v-.512c-.016-1.061-.232-1.853-.648-2.376-.416-.528-1.035-.792-1.856-.792-.88 0-1.549.283-2.008.848-.459.565-.688 1.376-.688 2.432 0 1.019.229 1.808.688 2.368.459.56 1.112.84 1.96.84.571 0 1.067-.131 1.488-.392.421-.261.752-.637.992-1.128l1.368.472a3.873 3.873 0 01-1.52 1.776c-.672.416-1.427.624-2.264.624zm-3.192-4.16v-1.144h6.384v1.144h-6.384zm8.901 3.92v-8.64h6v1.352h-4.576V509h-1.424zm11.039.24c-.858 0-1.6-.195-2.224-.584a3.872 3.872 0 01-1.432-1.616c-.336-.688-.504-1.477-.504-2.368 0-.907.171-1.701.512-2.384a3.813 3.813 0 011.448-1.592c.624-.384 1.358-.576 2.2-.576.864 0 1.608.195 2.232.584.624.384 1.102.92 1.432 1.608.336.683.504 1.469.504 2.36 0 .901-.168 1.696-.504 2.384a3.858 3.858 0 01-1.44 1.608c-.624.384-1.365.576-2.224.576zm0-1.352c.896 0 1.563-.299 2-.896.438-.597.656-1.371.656-2.32 0-.976-.221-1.752-.664-2.328-.442-.581-1.106-.872-1.992-.872-.602 0-1.098.136-1.488.408-.389.272-.68.648-.872 1.128-.192.48-.288 1.035-.288 1.664 0 .971.224 1.749.672 2.336.448.587 1.107.88 1.976.88zm11.589 1.352c-.645 0-1.187-.117-1.624-.352a2.51 2.51 0 01-.984-.944 2.565 2.565 0 01-.328-1.28c0-.453.085-.845.256-1.176.176-.336.421-.613.736-.832.315-.224.691-.4 1.128-.528.411-.112.869-.208 1.376-.288a47.041 47.041 0 011.552-.232c.523-.069 1.011-.136 1.464-.2l-.512.296c.016-.768-.139-1.336-.464-1.704-.32-.368-.875-.552-1.664-.552-.523 0-.981.12-1.376.36-.389.235-.664.619-.824 1.152l-1.352-.408c.208-.757.611-1.352 1.208-1.784.597-.432 1.384-.648 2.36-.648.784 0 1.456.141 2.016.424.565.277.971.699 1.216 1.264.123.267.2.557.232.872.032.309.048.635.048.976V509h-1.264v-2.072l.296.192c-.325.699-.781 1.227-1.368 1.584-.581.357-1.291.536-2.128.536zm.216-1.192c.512 0 .955-.091 1.328-.272.379-.187.683-.429.912-.728.229-.304.379-.635.448-.992.08-.267.123-.563.128-.888.011-.331.016-.584.016-.76l.496.216c-.464.064-.92.125-1.368.184-.448.059-.872.123-1.272.192a9.4 9.4 0 00-1.08.232 3.553 3.553 0 00-.664.288 1.498 1.498 0 00-.496.456c-.123.181-.184.408-.184.68 0 .235.059.459.176.672.123.213.309.387.56.52.256.133.589.2 1 .2zm7.044 4.792l1.672-4.544.024 1.344-3.776-9.28h1.496l2.96 7.464h-.512l2.776-7.464h1.447l-4.703 12.48h-1.384zm6.456-1.92v-3.096c.486 0 .832-.157 1.04-.472.208-.32.376-.845.504-1.576.086-.459.155-.949.208-1.472.054-.523.099-1.104.136-1.744.043-.645.083-1.379.12-2.2h5.952v7.464h.84v3.096h-1.36V509h-6.08v1.92h-1.36zm2.192-3.096h4.344v-6.288h-3.24a52.746 52.746 0 01-.16 2.424c-.032.411-.072.8-.12 1.168-.042.363-.093.688-.152.976-.069.4-.149.739-.24 1.016-.09.277-.234.512-.432.704zm15.286-7.464V509h-1.376v-6.368L250.663 509h-1.176v-8.64h1.376v6.28l4.536-6.28h1.168zm4.529 8.64v-7.344h-3.008v-1.296h7.44v1.296h-3.008V509h-1.424zm8.121.24c-.646 0-1.187-.117-1.624-.352a2.51 2.51 0 01-.984-.944 2.565 2.565 0 01-.328-1.28c0-.453.085-.845.256-1.176.176-.336.421-.613.736-.832.314-.224.69-.4 1.128-.528.41-.112.869-.208 1.376-.288a47.041 47.041 0 011.552-.232c.522-.069 1.01-.136 1.464-.2l-.512.296c.016-.768-.139-1.336-.464-1.704-.32-.368-.875-.552-1.664-.552-.523 0-.982.12-1.376.36-.39.235-.664.619-.824 1.152l-1.352-.408c.208-.757.61-1.352 1.208-1.784.597-.432 1.384-.648 2.36-.648.784 0 1.456.141 2.016.424.565.277.97.699 1.216 1.264.122.267.2.557.232.872.032.309.048.635.048.976V509h-1.264v-2.072l.296.192c-.326.699-.782 1.227-1.368 1.584-.582.357-1.291.536-2.128.536zm.216-1.192c.512 0 .954-.091 1.328-.272.378-.187.682-.429.912-.728a2.4 2.4 0 00.448-.992c.08-.267.122-.563.128-.888.01-.331.016-.584.016-.76l.496.216c-.464.064-.92.125-1.368.184-.448.059-.872.123-1.272.192a9.4 9.4 0 00-1.08.232 3.553 3.553 0 00-.664.288 1.498 1.498 0 00-.496.456c-.123.181-.184.408-.184.68 0 .235.058.459.176.672.122.213.309.387.56.52.256.133.589.2 1 .2zM393.12 509v-11.52h1.424v5.408l5.04-5.408h1.792l-5.232 5.592 5.64 5.928h-1.84l-5.4-5.632V509h-1.424zm12.821.24c-.859 0-1.6-.195-2.224-.584a3.866 3.866 0 01-1.432-1.616c-.336-.688-.504-1.477-.504-2.368 0-.907.17-1.701.512-2.384a3.807 3.807 0 011.448-1.592c.624-.384 1.357-.576 2.2-.576.864 0 1.608.195 2.232.584a3.75 3.75 0 011.432 1.608c.336.683.504 1.469.504 2.36 0 .901-.168 1.696-.504 2.384a3.858 3.858 0 01-1.44 1.608c-.624.384-1.366.576-2.224.576zm0-1.352c.896 0 1.562-.299 2-.896.437-.597.656-1.371.656-2.32 0-.976-.222-1.752-.664-2.328-.443-.581-1.107-.872-1.992-.872-.603 0-1.099.136-1.488.408-.39.272-.68.648-.872 1.128-.192.48-.288 1.035-.288 1.664 0 .971.224 1.749.672 2.336.448.587 1.106.88 1.976.88zm5.921 1.112v-8.64h1.224l3.28 6.704 3.28-6.704h1.224V509h-1.376v-5.672L416.742 509h-.752l-2.752-5.672V509h-1.376zm18.314-8.64V509H428.8v-6.368L424.272 509h-1.176v-8.64h1.376v6.28l4.536-6.28h1.168zm4.529 8.64v-7.344h-3.008v-1.296h7.44v1.296h-3.008V509h-1.424zm9.69.24c-.848 0-1.589-.187-2.224-.56a3.927 3.927 0 01-1.472-1.576c-.352-.677-.528-1.467-.528-2.368 0-.944.174-1.76.52-2.448.347-.693.83-1.227 1.448-1.6.624-.379 1.355-.568 2.192-.568.87 0 1.608.2 2.216.6.614.4 1.072.971 1.376 1.712.31.741.443 1.624.4 2.648h-1.44v-.512c-.016-1.061-.232-1.853-.648-2.376-.416-.528-1.034-.792-1.856-.792-.88 0-1.549.283-2.008.848-.458.565-.688 1.376-.688 2.432 0 1.019.23 1.808.688 2.368.459.56 1.112.84 1.96.84.571 0 1.067-.131 1.488-.392.422-.261.752-.637.992-1.128l1.368.472a3.867 3.867 0 01-1.52 1.776c-.672.416-1.426.624-2.264.624zm-3.192-4.16v-1.144h6.384v1.144h-6.384zm11.033 3.92v-7.344h-3.008v-1.296h7.44v1.296h-3.008V509h-1.424zm9.142 0v-8.64h7.08V509h-1.424v-7.288h-4.232V509h-1.424zm13 .24c-.859 0-1.6-.195-2.224-.584a3.866 3.866 0 01-1.432-1.616c-.336-.688-.504-1.477-.504-2.368 0-.907.171-1.701.512-2.384a3.807 3.807 0 011.448-1.592c.624-.384 1.357-.576 2.2-.576.864 0 1.608.195 2.232.584a3.75 3.75 0 011.432 1.608c.336.683.504 1.469.504 2.36 0 .901-.168 1.696-.504 2.384a3.858 3.858 0 01-1.44 1.608c-.624.384-1.365.576-2.224.576zm0-1.352c.896 0 1.563-.299 2-.896.437-.597.656-1.371.656-2.32 0-.976-.221-1.752-.664-2.328-.443-.581-1.107-.872-1.992-.872-.603 0-1.099.136-1.488.408-.389.272-.68.648-.872 1.128-.192.48-.288 1.035-.288 1.664 0 .971.224 1.749.672 2.336.448.587 1.107.88 1.976.88zm11.589 1.352c-.646 0-1.187-.117-1.624-.352a2.51 2.51 0 01-.984-.944 2.565 2.565 0 01-.328-1.28c0-.453.085-.845.256-1.176.176-.336.421-.613.736-.832.314-.224.69-.4 1.128-.528.41-.112.869-.208 1.376-.288a47.041 47.041 0 011.552-.232c.522-.069 1.01-.136 1.464-.2l-.512.296c.016-.768-.139-1.336-.464-1.704-.32-.368-.875-.552-1.664-.552-.523 0-.982.12-1.376.36-.39.235-.664.619-.824 1.152l-1.352-.408c.208-.757.61-1.352 1.208-1.784.597-.432 1.384-.648 2.36-.648.784 0 1.456.141 2.016.424.565.277.97.699 1.216 1.264.122.267.2.557.232.872.032.309.048.635.048.976V509h-1.264v-2.072l.296.192c-.326.699-.782 1.227-1.368 1.584-.582.357-1.291.536-2.128.536zm.216-1.192c.512 0 .954-.091 1.328-.272.378-.187.682-.429.912-.728a2.4 2.4 0 00.448-.992c.08-.267.122-.563.128-.888.01-.331.016-.584.016-.76l.496.216c-.464.064-.92.125-1.368.184-.448.059-.872.123-1.272.192a9.4 9.4 0 00-1.08.232 3.553 3.553 0 00-.664.288 1.498 1.498 0 00-.496.456c-.123.181-.184.408-.184.68 0 .235.058.459.176.672.122.213.309.387.56.52.256.133.589.2 1 .2zm7.043 4.792l1.672-4.544.024 1.344-3.776-9.28h1.496l2.96 7.464h-.512l2.776-7.464h1.448l-4.704 12.48h-1.384zm6.457-1.92v-3.096c.485 0 .832-.157 1.04-.472.208-.32.376-.845.504-1.576.085-.459.155-.949.208-1.472.053-.523.099-1.104.136-1.744.043-.645.083-1.379.12-2.2h5.952v7.464h.84v3.096h-1.36V509h-6.08v1.92h-1.36zm2.192-3.096h4.344v-6.288h-3.24a52.746 52.746 0 01-.16 2.424c-.032.411-.072.8-.12 1.168-.043.363-.093.688-.152.976-.069.4-.149.739-.24 1.016a1.712 1.712 0 01-.432.704zm15.286-7.464V509h-1.376v-6.368L511.257 509h-1.176v-8.64h1.376v6.28l4.536-6.28h1.168zm4.528 8.64v-7.344h-3.008v-1.296h7.44v1.296h-3.008V509h-1.424zm6.99 3.84l1.672-4.544.024 1.344-3.776-9.28h1.496l2.96 7.464h-.512l2.776-7.464h1.448l-4.704 12.48h-1.384z"/>
  <rect width="440" height="80" x="113" y="281" fill="#00D372" rx="8"/>
  <path fill="#fff" d="M196.68 330v-17.28h2.136v7.62h9.096v-7.62h2.136V330h-2.136v-7.632h-9.096V330h-2.136zm20.418.36c-.968 0-1.78-.176-2.436-.528-.648-.36-1.14-.832-1.476-1.416a3.854 3.854 0 01-.492-1.92c0-.68.128-1.268.384-1.764.264-.504.632-.92 1.104-1.248.472-.336 1.036-.6 1.692-.792a19.352 19.352 0 012.064-.432 70.761 70.761 0 012.328-.348c.784-.104 1.516-.204 2.196-.3l-.768.444c.024-1.152-.208-2.004-.696-2.556-.48-.552-1.312-.828-2.496-.828-.784 0-1.472.18-2.064.54-.584.352-.996.928-1.236 1.728l-2.028-.612c.312-1.136.916-2.028 1.812-2.676.896-.648 2.076-.972 3.54-.972 1.176 0 2.184.212 3.024.636.848.416 1.456 1.048 1.824 1.896.184.4.3.836.348 1.308.048.464.072.952.072 1.464V330h-1.896v-3.108l.444.288c-.488 1.048-1.172 1.84-2.052 2.376-.872.536-1.936.804-3.192.804zm.324-1.788c.768 0 1.432-.136 1.992-.408.568-.28 1.024-.644 1.368-1.092.344-.456.568-.952.672-1.488.12-.4.184-.844.192-1.332.016-.496.024-.876.024-1.14l.744.324c-.696.096-1.38.188-2.052.276-.672.088-1.308.184-1.908.288-.6.096-1.14.212-1.62.348a5.278 5.278 0 00-.996.432 2.263 2.263 0 00-.744.684c-.184.272-.276.612-.276 1.02 0 .352.088.688.264 1.008.184.32.464.58.84.78.384.2.884.3 1.5.3zm14.76 1.8c-1.224-.008-2.268-.272-3.132-.792-.864-.528-1.536-1.3-2.016-2.316-.48-1.016-.748-2.26-.804-3.732-.032-.68-.024-1.428.024-2.244a26.4 26.4 0 01.264-2.352c.128-.752.288-1.372.48-1.86.216-.584.52-1.124.912-1.62.4-.504.848-.92 1.344-1.248a6.23 6.23 0 011.692-.804 13.67 13.67 0 011.956-.444 45.684 45.684 0 012.064-.288 31.786 31.786 0 001.968-.312l.216 1.92c-.44.096-.96.18-1.56.252-.6.064-1.224.14-1.872.228-.64.088-1.256.212-1.848.372a5.216 5.216 0 00-1.512.636c-.624.376-1.104.94-1.44 1.692-.328.744-.528 1.58-.6 2.508.496-.768 1.14-1.332 1.932-1.692a6.047 6.047 0 012.532-.54c1.16 0 2.16.272 3 .816.84.536 1.484 1.276 1.932 2.22.456.944.684 2.02.684 3.228 0 1.28-.256 2.4-.768 3.36a5.456 5.456 0 01-2.172 2.232c-.928.528-2.02.788-3.276.78zm.132-2.028c1.256 0 2.208-.388 2.856-1.164.648-.784.972-1.824.972-3.12 0-1.328-.336-2.372-1.008-3.132-.672-.768-1.616-1.152-2.832-1.152-1.232 0-2.176.384-2.832 1.152-.648.76-.972 1.804-.972 3.132 0 1.336.328 2.384.984 3.144.656.76 1.6 1.14 2.832 1.14zm7.533 1.656v-1.836c.48.088.844.072 1.092-.048.256-.128.444-.348.564-.66.128-.32.232-.72.312-1.2.136-.76.252-1.608.348-2.544.104-.936.196-1.96.276-3.072.088-1.12.168-2.32.24-3.6h9.06V330h-2.136v-10.932h-4.98a83.1 83.1 0 01-.18 2.268c-.064.776-.132 1.532-.204 2.268a51.828 51.828 0 01-.24 2.04c-.08.624-.168 1.164-.264 1.62-.152.784-.364 1.412-.636 1.884a1.875 1.875 0 01-1.176.9c-.512.144-1.204.128-2.076-.048zm25.835.36c-1.104 0-2.08-.236-2.928-.708a5.414 5.414 0 01-2.028-2.004c-.512-.864-.832-1.884-.96-3.06h-2.532V330h-2.136v-12.96h2.136v5.412h2.52c.128-1.2.452-2.232.972-3.096a5.296 5.296 0 012.052-1.98c.848-.464 1.824-.696 2.928-.696 1.288 0 2.396.292 3.324.876a5.714 5.714 0 012.148 2.412c.504 1.024.756 2.2.756 3.528 0 1.352-.256 2.544-.768 3.576-.504 1.032-1.224 1.84-2.16 2.424-.928.576-2.036.864-3.324.864zm-.036-2.028c1.36 0 2.368-.444 3.024-1.332.664-.896.996-2.06.996-3.492 0-1.472-.336-2.64-1.008-3.504-.664-.864-1.664-1.296-3-1.296-1.288 0-2.268.428-2.94 1.284-.672.856-1.008 2.024-1.008 3.504 0 1.464.332 2.636.996 3.516.672.88 1.652 1.32 2.94 1.32zm7.957 4.548v-4.644c.728 0 1.248-.236 1.56-.708.312-.48.564-1.268.756-2.364.128-.688.232-1.424.312-2.208.08-.784.148-1.656.204-2.616a162.2 162.2 0 00.18-3.3h8.928v11.196h1.26v4.644h-2.04V330h-9.12v2.88h-2.04zm3.288-4.644h6.516v-9.432h-4.86a71.8 71.8 0 01-.24 3.636c-.048.616-.108 1.2-.18 1.752-.064.544-.14 1.032-.228 1.464-.104.6-.224 1.108-.36 1.524a2.554 2.554 0 01-.648 1.056zm16.004 2.124c-.968 0-1.78-.176-2.436-.528-.648-.36-1.14-.832-1.476-1.416a3.854 3.854 0 01-.492-1.92c0-.68.128-1.268.384-1.764.264-.504.632-.92 1.104-1.248.472-.336 1.036-.6 1.692-.792a19.352 19.352 0 012.064-.432 70.761 70.761 0 012.328-.348c.784-.104 1.516-.204 2.196-.3l-.768.444c.024-1.152-.208-2.004-.696-2.556-.48-.552-1.312-.828-2.496-.828-.784 0-1.472.18-2.064.54-.584.352-.996.928-1.236 1.728l-2.028-.612c.312-1.136.916-2.028 1.812-2.676.896-.648 2.076-.972 3.54-.972 1.176 0 2.184.212 3.024.636.848.416 1.456 1.048 1.824 1.896.184.4.3.836.348 1.308.048.464.072.952.072 1.464V330h-1.896v-3.108l.444.288c-.488 1.048-1.172 1.84-2.052 2.376-.872.536-1.936.804-3.192.804zm.324-1.788c.768 0 1.432-.136 1.992-.408.568-.28 1.024-.644 1.368-1.092.344-.456.568-.952.672-1.488.12-.4.184-.844.192-1.332.016-.496.024-.876.024-1.14l.744.324c-.696.096-1.38.188-2.052.276-.672.088-1.308.184-1.908.288-.6.096-1.14.212-1.62.348a5.278 5.278 0 00-.996.432 2.263 2.263 0 00-.744.684c-.184.272-.276.612-.276 1.02 0 .352.088.688.264 1.008.184.32.464.58.84.78.384.2.884.3 1.5.3zM306.143 330v-11.016h-4.512v-1.944h11.16v1.944h-4.512V330h-2.136zm14.536.36c-1.272 0-2.384-.28-3.336-.84a5.884 5.884 0 01-2.208-2.364c-.528-1.016-.792-2.2-.792-3.552 0-1.416.26-2.64.78-3.672.52-1.04 1.244-1.84 2.172-2.4.936-.568 2.032-.852 3.288-.852 1.304 0 2.412.3 3.324.9.92.6 1.608 1.456 2.064 2.568.464 1.112.664 2.436.6 3.972h-2.16v-.768c-.024-1.592-.348-2.78-.972-3.564-.624-.792-1.552-1.188-2.784-1.188-1.32 0-2.324.424-3.012 1.272-.688.848-1.032 2.064-1.032 3.648 0 1.528.344 2.712 1.032 3.552.688.84 1.668 1.26 2.94 1.26.856 0 1.6-.196 2.232-.588.632-.392 1.128-.956 1.488-1.692l2.052.708c-.504 1.144-1.264 2.032-2.28 2.664-1.008.624-2.14.936-3.396.936zm-4.788-6.24v-1.716h9.576v1.716h-9.576zm12.152 5.88v-1.836c.48.088.844.072 1.092-.048.256-.128.444-.348.564-.66.128-.32.232-.72.312-1.2.136-.76.252-1.608.348-2.544.104-.936.196-1.96.276-3.072.088-1.12.168-2.32.24-3.6h9.06V330h-2.136v-10.932h-4.98a83.1 83.1 0 01-.18 2.268c-.064.776-.132 1.532-.204 2.268a51.828 51.828 0 01-.24 2.04c-.08.624-.168 1.164-.264 1.62-.152.784-.364 1.412-.636 1.884a1.875 1.875 0 01-1.176.9c-.512.144-1.204.128-2.076-.048zm15.262 0l-.012-12.96h2.148v4.692h2.796c.376 0 .76.008 1.152.024.392.016.732.052 1.02.108.672.128 1.26.352 1.764.672.504.32.896.756 1.176 1.308.28.544.42 1.22.42 2.028 0 1.12-.292 2.008-.876 2.664-.576.648-1.332 1.08-2.268 1.296-.32.072-.688.12-1.104.144-.408.016-.796.024-1.164.024h-5.052zm2.136-1.764h2.952c.24 0 .508-.008.804-.024a3.75 3.75 0 00.792-.12c.408-.12.772-.356 1.092-.708.328-.352.492-.856.492-1.512 0-.664-.16-1.176-.48-1.536-.312-.36-.724-.596-1.236-.708a4.243 4.243 0 00-.732-.108c-.256-.016-.5-.024-.732-.024h-2.952v4.74zM356.043 330v-12.96h2.136v5.46h6.816v-5.46h2.136V330h-2.136v-5.472h-6.816V330h-2.136zm14.45 0l-.012-12.96h2.148v4.692h1.98c.376 0 .76.008 1.152.024.392.016.732.052 1.02.108.672.136 1.26.364 1.764.684.504.32.896.752 1.176 1.296.28.544.42 1.22.42 2.028 0 1.12-.292 2.008-.876 2.664-.576.648-1.332 1.08-2.268 1.296-.32.072-.688.12-1.104.144-.408.016-.796.024-1.164.024h-4.236zm2.136-1.764h2.136c.24 0 .508-.008.804-.024a3.75 3.75 0 00.792-.12c.408-.12.772-.356 1.092-.708.328-.352.492-.856.492-1.512 0-.664-.16-1.176-.48-1.536-.312-.36-.724-.596-1.236-.708a4.243 4.243 0 00-.732-.108c-.256-.016-.5-.024-.732-.024h-2.136v4.74zm9 1.764v-12.96h2.136V330h-2.136zm11.084-14.472c-.6 0-1.148-.148-1.644-.444a3.413 3.413 0 01-1.188-1.176 3.17 3.17 0 01-.444-1.656h1.728c0 .424.152.788.456 1.092a1.49 1.49 0 001.092.456c.432 0 .796-.152 1.092-.456a1.49 1.49 0 00.456-1.092h1.728a3.17 3.17 0 01-.444 1.656c-.288.488-.684.88-1.188 1.176a3.148 3.148 0 01-1.644.444zm5.028 1.512V330h-2.064v-9.552L388.885 330h-1.764v-12.96h2.064v9.42l6.804-9.42h1.752zm13.626 13.32c-1.312 0-2.428-.292-3.348-.876-.912-.592-1.608-1.404-2.088-2.436s-.728-2.208-.744-3.528c.016-1.352.268-2.54.756-3.564.496-1.032 1.204-1.836 2.124-2.412.92-.576 2.028-.864 3.324-.864 1.368 0 2.544.336 3.528 1.008.992.672 1.656 1.592 1.992 2.76l-2.112.636c-.272-.752-.716-1.336-1.332-1.752-.608-.416-1.308-.624-2.1-.624-.888 0-1.62.208-2.196.624-.576.408-1.004.976-1.284 1.704-.28.72-.424 1.548-.432 2.484.016 1.44.348 2.604.996 3.492.656.88 1.628 1.32 2.916 1.32.848 0 1.552-.192 2.112-.576.56-.392.984-.956 1.272-1.692l2.16.564c-.448 1.208-1.148 2.132-2.1 2.772-.952.64-2.1.96-3.444.96zm13.161 0c-1.288 0-2.4-.292-3.336-.876-.928-.584-1.644-1.392-2.148-2.424-.504-1.032-.756-2.216-.756-3.552 0-1.36.256-2.552.768-3.576s1.236-1.82 2.172-2.388c.936-.576 2.036-.864 3.3-.864 1.296 0 2.412.292 3.348.876.936.576 1.652 1.38 2.148 2.412.504 1.024.756 2.204.756 3.54 0 1.352-.252 2.544-.756 3.576a5.794 5.794 0 01-2.16 2.412c-.936.576-2.048.864-3.336.864zm0-2.028c1.344 0 2.344-.448 3-1.344.656-.896.984-2.056.984-3.48 0-1.464-.332-2.628-.996-3.492-.664-.872-1.66-1.308-2.988-1.308-.904 0-1.648.204-2.232.612-.584.408-1.02.972-1.308 1.692-.288.72-.432 1.552-.432 2.496 0 1.456.336 2.624 1.008 3.504.672.88 1.66 1.32 2.964 1.32zM433.41 330v-12.96h5.52c.328 0 .68.02 1.056.06.384.032.732.092 1.044.18a3.138 3.138 0 011.716 1.14c.456.568.684 1.288.684 2.16 0 .488-.076.912-.228 1.272a2.67 2.67 0 01-.624.936 2.59 2.59 0 01-.396.324 2.253 2.253 0 01-.432.228c.28.048.564.156.852.324.456.248.812.596 1.068 1.044.264.448.396 1.02.396 1.716 0 .88-.212 1.608-.636 2.184-.424.568-1.008.96-1.752 1.176a5.533 5.533 0 01-1.032.18c-.376.024-.74.036-1.092.036h-6.144zm2.16-1.74h3.864c.168 0 .368-.016.6-.048.24-.032.452-.072.636-.12.416-.12.716-.344.9-.672.192-.328.288-.684.288-1.068 0-.512-.144-.928-.432-1.248-.28-.32-.652-.52-1.116-.6a2.348 2.348 0 00-.552-.084 12.522 12.522 0 00-.516-.012h-3.672v3.852zm0-5.616h3.216c.224 0 .46-.012.708-.036a2.75 2.75 0 00.648-.156c.368-.136.636-.36.804-.672.176-.32.264-.668.264-1.044 0-.416-.096-.78-.288-1.092-.184-.32-.468-.54-.852-.66a2.637 2.637 0 00-.864-.156 15.745 15.745 0 00-.6-.024h-3.036v3.84zm16.523 7.716c-1.272 0-2.384-.28-3.336-.84a5.884 5.884 0 01-2.208-2.364c-.528-1.016-.792-2.2-.792-3.552 0-1.416.26-2.64.78-3.672.52-1.04 1.244-1.84 2.172-2.4.936-.568 2.032-.852 3.288-.852 1.304 0 2.412.3 3.324.9.92.6 1.608 1.456 2.064 2.568.464 1.112.664 2.436.6 3.972h-2.16v-.768c-.024-1.592-.348-2.78-.972-3.564-.624-.792-1.552-1.188-2.784-1.188-1.32 0-2.324.424-3.012 1.272-.688.848-1.032 2.064-1.032 3.648 0 1.528.344 2.712 1.032 3.552.688.84 1.668 1.26 2.94 1.26.856 0 1.6-.196 2.232-.588.632-.392 1.128-.956 1.488-1.692l2.052.708c-.504 1.144-1.264 2.032-2.28 2.664-1.008.624-2.14.936-3.396.936zm-4.788-6.24v-1.716h9.576v1.716h-9.576zm16.549 5.88v-11.016h-4.512v-1.944h11.16v1.944h-4.512V330h-2.136z"/>
</svg>
