<svg xmlns="http://www.w3.org/2000/svg" width="1338" height="488" fill="none" viewBox="0 0 1338 488">
  <path stroke="#000" stroke-linecap="round" stroke-width="2" d="M1 321h456M881 321h456v83h-328"/>
  <path stroke="#000" d="M1 1h1336M1 205h1336M1 452h1336" opacity=".6"/>
  <path fill="#000" d="M3.555 32l1.204-2.499L1.21 21.92h1.393l2.807 6.251 2.87-6.251h1.33L4.906 32H3.555zm10.127.21c-.709 0-1.306-.175-1.792-.525-.485-.355-.854-.833-1.106-1.435-.247-.607-.37-1.286-.37-2.037 0-.76.123-1.442.37-2.044.252-.602.621-1.076 1.106-1.421.49-.345 1.09-.518 1.8-.518.7 0 1.302.175 1.806.525.508.345.898.819 1.168 1.421.271.602.406 1.281.406 2.037s-.135 1.435-.405 2.037c-.271.602-.66 1.08-1.17 1.435-.503.35-1.108.525-1.813.525zm-3.479 3.15V24.44h1.114v5.565h.14v5.355h-1.254zm3.325-4.291c.5 0 .913-.126 1.24-.378a2.28 2.28 0 00.734-1.022c.164-.434.245-.92.245-1.456a4.03 4.03 0 00-.245-1.442 2.192 2.192 0 00-.742-1.022c-.33-.252-.753-.378-1.267-.378-.49 0-.896.121-1.218.364-.322.238-.562.572-.72 1.001-.16.425-.239.917-.239 1.477a4.4 4.4 0 00.231 1.477c.16.43.402.768.728 1.015.327.243.745.364 1.253.364zm8.297 1.141c-.751 0-1.4-.17-1.946-.511a3.387 3.387 0 01-1.253-1.414c-.294-.602-.441-1.293-.441-2.072 0-.793.15-1.489.448-2.086a3.333 3.333 0 011.267-1.393c.546-.336 1.188-.504 1.925-.504.756 0 1.407.17 1.953.511.546.336.964.805 1.253 1.407.294.597.441 1.286.441 2.065 0 .789-.147 1.484-.441 2.086a3.38 3.38 0 01-1.26 1.407c-.546.336-1.195.504-1.946.504zm0-1.183c.784 0 1.367-.261 1.75-.784s.574-1.2.574-2.03c0-.854-.194-1.533-.581-2.037-.387-.509-.968-.763-1.743-.763-.527 0-.961.119-1.302.357-.34.238-.595.567-.763.987-.168.42-.252.905-.252 1.456 0 .85.196 1.53.588 2.044.392.513.968.77 1.729.77zm5.181.973v-7.56h3.22c.192 0 .397.012.616.035.224.019.427.054.61.105.405.107.739.329 1 .665.266.331.4.751.4 1.26 0 .285-.045.532-.134.742-.084.21-.205.392-.364.546a1.51 1.51 0 01-.483.322c.164.028.33.091.497.189.266.145.474.348.623.609.154.261.231.595.231 1.001 0 .513-.123.938-.37 1.274a1.89 1.89 0 01-1.023.686 3.234 3.234 0 01-.602.105c-.22.014-.431.021-.637.021h-3.584zm1.26-1.015h2.254c.098 0 .215-.01.35-.028.14-.019.264-.042.371-.07.243-.07.418-.2.525-.392.112-.191.168-.399.168-.623 0-.299-.084-.541-.252-.728a1.077 1.077 0 00-.65-.35 1.371 1.371 0 00-.323-.049 7.245 7.245 0 00-.3-.007h-2.143v2.247zm0-3.276h1.876c.13 0 .268-.007.413-.021.145-.019.27-.049.378-.091a.839.839 0 00.47-.392c.102-.187.153-.39.153-.609a1.19 1.19 0 00-.168-.637.835.835 0 00-.497-.385 1.539 1.539 0 00-.504-.091 9.262 9.262 0 00-.35-.014h-1.77v2.24zm9.638 4.501c-.742 0-1.39-.163-1.946-.49a3.433 3.433 0 01-1.288-1.379c-.308-.593-.462-1.283-.462-2.072 0-.826.152-1.54.455-2.142a3.33 3.33 0 011.267-1.4c.546-.331 1.186-.497 1.918-.497.761 0 1.407.175 1.94.525.536.35.937.85 1.203 1.498.271.649.388 1.421.35 2.317h-1.26v-.448c-.014-.929-.203-1.622-.567-2.079-.364-.462-.905-.693-1.624-.693-.77 0-1.355.247-1.757.742-.4.495-.602 1.204-.602 2.128 0 .891.201 1.582.602 2.072.402.49.973.735 1.715.735.5 0 .934-.114 1.302-.343.37-.229.658-.558.868-.987l1.197.413a3.39 3.39 0 01-1.33 1.554 3.687 3.687 0 01-1.98.546zm-2.793-3.64v-1.001h5.586v1.001h-5.586zM42.893 32v-7.56h1.246v3.185h3.976V24.44h1.246V32h-1.246v-3.192h-3.976V32h-1.246zm8.429 0l-.007-7.56h1.253v2.737h1.63c.22 0 .444.005.673.014.228.01.427.03.595.063.392.075.735.205 1.029.392.294.187.523.441.686.763.163.317.245.712.245 1.183 0 .653-.17 1.171-.511 1.554-.336.378-.777.63-1.323.756-.187.042-.401.07-.644.084-.238.01-.465.014-.68.014h-2.946zm1.246-1.029h1.722c.14 0 .296-.005.469-.014.172-.01.327-.033.462-.07.238-.07.45-.208.637-.413.191-.205.287-.5.287-.882 0-.387-.094-.686-.28-.896a1.287 1.287 0 00-.721-.413 2.469 2.469 0 00-.427-.063 6.883 6.883 0 00-.427-.014h-1.722v2.765zm11.348 1.239c-.565 0-1.038-.103-1.42-.308a2.194 2.194 0 01-.862-.826 2.249 2.249 0 01-.287-1.12c0-.397.075-.74.224-1.029.154-.294.369-.537.644-.728.275-.196.604-.35.987-.462.36-.098.76-.182 1.204-.252.448-.075.9-.142 1.358-.203.457-.06.884-.119 1.281-.175l-.448.259c.014-.672-.121-1.169-.406-1.491-.28-.322-.765-.483-1.456-.483-.457 0-.859.105-1.204.315-.34.205-.58.541-.72 1.008l-1.184-.357c.182-.663.534-1.183 1.057-1.561.523-.378 1.211-.567 2.065-.567.686 0 1.274.124 1.764.371.495.243.85.611 1.064 1.106.107.233.175.488.203.763.028.27.042.555.042.854V32h-1.106v-1.813l.26.168c-.286.611-.685 1.073-1.198 1.386-.509.313-1.13.469-1.862.469zm.19-1.043c.447 0 .834-.08 1.161-.238.331-.163.597-.376.798-.637.2-.266.331-.555.392-.868.07-.233.107-.492.112-.777.01-.29.014-.511.014-.665l.434.189c-.406.056-.805.11-1.197.161a27.12 27.12 0 00-1.113.168c-.35.056-.665.124-.945.203-.205.065-.399.15-.58.252a1.321 1.321 0 00-.435.399 1.039 1.039 0 00-.16.595c0 .205.05.401.153.588.107.187.27.338.49.455.224.117.516.175.875.175zm5.53.833l.006-7.56h1.26v3.64l3.171-3.64h1.617l-3.339 3.78L76.082 32H74.34l-3.437-3.64V32h-1.267zm13.583 1.4V32h-6.447v-7.56h1.246v6.377h3.703V24.44h1.246v6.426h1.498V33.4h-1.246zm8.553-8.96V32h-1.205v-5.572L86.606 32h-1.03v-7.56h1.205v5.495l3.968-5.495h1.023zm5.18 7.77c-.751 0-1.4-.17-1.946-.511a3.386 3.386 0 01-1.253-1.414c-.294-.602-.441-1.293-.441-2.072 0-.793.15-1.489.448-2.086a3.332 3.332 0 011.267-1.393c.546-.336 1.188-.504 1.925-.504.756 0 1.407.17 1.953.511a3.28 3.28 0 011.253 1.407c.294.597.441 1.286.441 2.065 0 .789-.147 1.484-.441 2.086a3.38 3.38 0 01-1.26 1.407c-.546.336-1.195.504-1.946.504zm0-1.183c.784 0 1.367-.261 1.75-.784s.574-1.2.574-2.03c0-.854-.194-1.533-.581-2.037-.387-.509-.968-.763-1.743-.763-.527 0-.961.119-1.302.357-.34.238-.595.567-.763.987-.168.42-.252.905-.252 1.456 0 .85.196 1.53.588 2.044.392.513.968.77 1.729.77zm5.181.973v-7.56h1.246v3.185h3.976V24.44h1.246V32h-1.246v-3.192h-3.976V32h-1.246zm11.705.21c-.742 0-1.391-.163-1.946-.49a3.43 3.43 0 01-1.288-1.379c-.308-.593-.462-1.283-.462-2.072 0-.826.152-1.54.455-2.142a3.329 3.329 0 011.267-1.4c.546-.331 1.185-.497 1.918-.497.761 0 1.407.175 1.939.525.537.35.938.85 1.204 1.498.271.649.387 1.421.35 2.317h-1.26v-.448c-.014-.929-.203-1.622-.567-2.079-.364-.462-.905-.693-1.624-.693-.77 0-1.356.247-1.757.742-.401.495-.602 1.204-.602 2.128 0 .891.201 1.582.602 2.072.401.49.973.735 1.715.735.499 0 .933-.114 1.302-.343.369-.229.658-.558.868-.987l1.197.413a3.389 3.389 0 01-1.33 1.554 3.686 3.686 0 01-1.981.546zm-2.793-3.64v-1.001h5.586v1.001h-5.586zm11.261 3.64c-.71 0-1.307-.175-1.792-.525-.486-.355-.854-.833-1.106-1.435-.248-.607-.371-1.286-.371-2.037 0-.76.123-1.442.371-2.044.252-.602.62-1.076 1.106-1.421.49-.345 1.089-.518 1.799-.518.7 0 1.302.175 1.806.525.508.345.898.819 1.169 1.421.27.602.406 1.281.406 2.037s-.136 1.435-.406 2.037a3.422 3.422 0 01-1.169 1.435c-.504.35-1.109.525-1.813.525zm-3.479 3.15V24.44h1.113v5.565h.14v5.355h-1.253zm3.325-4.291c.499 0 .912-.126 1.239-.378a2.29 2.29 0 00.735-1.022c.163-.434.245-.92.245-1.456 0-.532-.082-1.013-.245-1.442a2.194 2.194 0 00-.742-1.022c-.332-.252-.754-.378-1.267-.378-.49 0-.896.121-1.218.364-.322.238-.563.572-.721 1.001-.159.425-.238.917-.238 1.477a4.4 4.4 0 00.231 1.477c.158.43.401.768.728 1.015.326.243.744.364 1.253.364zm8.296 1.141c-.751 0-1.4-.17-1.946-.511a3.389 3.389 0 01-1.253-1.414c-.294-.602-.441-1.293-.441-2.072 0-.793.149-1.489.448-2.086a3.335 3.335 0 011.267-1.393c.546-.336 1.188-.504 1.925-.504.756 0 1.407.17 1.953.511.546.336.964.805 1.253 1.407.294.597.441 1.286.441 2.065 0 .789-.147 1.484-.441 2.086a3.38 3.38 0 01-1.26 1.407c-.546.336-1.195.504-1.946.504zm0-1.183c.784 0 1.367-.261 1.75-.784s.574-1.2.574-2.03c0-.854-.194-1.533-.581-2.037-.387-.509-.968-.763-1.743-.763-.527 0-.961.119-1.302.357a2.136 2.136 0 00-.763.987c-.168.42-.252.905-.252 1.456 0 .85.196 1.53.588 2.044.392.513.968.77 1.729.77zm5.181.973v-7.56h3.22c.192 0 .397.012.616.035.224.019.427.054.609.105.406.107.74.329 1.001.665.266.331.399.751.399 1.26 0 .285-.044.532-.133.742-.084.21-.205.392-.364.546a1.51 1.51 0 01-.483.322c.164.028.329.091.497.189.266.145.474.348.623.609.154.261.231.595.231 1.001 0 .513-.123.938-.371 1.274-.247.331-.588.56-1.022.686a3.223 3.223 0 01-.602.105 9.983 9.983 0 01-.637.021h-3.584zm1.26-1.015h2.254c.098 0 .215-.01.35-.028.14-.019.264-.042.371-.07.243-.07.418-.2.525-.392.112-.191.168-.399.168-.623 0-.299-.084-.541-.252-.728a1.076 1.076 0 00-.651-.35 1.369 1.369 0 00-.322-.049 7.233 7.233 0 00-.301-.007h-2.142v2.247zm0-3.276h1.876c.131 0 .269-.007.413-.021.145-.019.271-.049.378-.091a.838.838 0 00.469-.392 1.24 1.24 0 00.154-.609 1.19 1.19 0 00-.168-.637.834.834 0 00-.497-.385 1.536 1.536 0 00-.504-.091 9.207 9.207 0 00-.35-.014h-1.771v2.24zM2.12 308v-11.52h1.424v5.408l5.04-5.408h1.792l-5.232 5.592 5.64 5.928h-1.84l-5.4-5.632V308H2.12zm12.82.24c-.858 0-1.6-.195-2.223-.584a3.868 3.868 0 01-1.432-1.616c-.336-.688-.504-1.477-.504-2.368 0-.907.17-1.701.512-2.384a3.81 3.81 0 011.448-1.592c.624-.384 1.357-.576 2.2-.576.864 0 1.608.195 2.232.584.624.384 1.101.92 1.432 1.608.336.683.504 1.469.504 2.36 0 .901-.168 1.696-.504 2.384a3.858 3.858 0 01-1.44 1.608c-.624.384-1.366.576-2.224.576zm0-1.352c.897 0 1.563-.299 2-.896.438-.597.657-1.371.657-2.32 0-.976-.222-1.752-.664-2.328-.443-.581-1.107-.872-1.992-.872-.603 0-1.099.136-1.488.408-.39.272-.68.648-.872 1.128-.192.48-.288 1.035-.288 1.664 0 .971.224 1.749.672 2.336.448.587 1.106.88 1.976.88zM20.863 308v-8.64h1.224l3.28 6.704 3.28-6.704h1.224V308h-1.376v-5.672L25.742 308h-.752l-2.752-5.672V308h-1.376zm18.314-8.64V308H37.8v-6.368L33.272 308h-1.176v-8.64h1.376v6.28l4.536-6.28h1.168zm4.529 8.64v-7.344h-3.008v-1.296h7.44v1.296h-3.008V308h-1.424zm9.69.24c-.848 0-1.59-.187-2.224-.56a3.924 3.924 0 01-1.472-1.576c-.352-.677-.528-1.467-.528-2.368 0-.944.174-1.76.52-2.448.347-.693.83-1.227 1.448-1.6.624-.379 1.355-.568 2.192-.568.87 0 1.608.2 2.216.6.614.4 1.072.971 1.376 1.712.31.741.443 1.624.4 2.648h-1.44v-.512c-.016-1.061-.232-1.853-.648-2.376-.416-.528-1.034-.792-1.856-.792-.88 0-1.55.283-2.008.848-.458.565-.688 1.376-.688 2.432 0 1.019.23 1.808.688 2.368.459.56 1.112.84 1.96.84.57 0 1.067-.131 1.488-.392.422-.261.752-.637.992-1.128l1.368.472a3.871 3.871 0 01-1.52 1.776c-.672.416-1.426.624-2.264.624zm-3.192-4.16v-1.144h6.384v1.144h-6.384zM61.236 308v-7.344h-3.008v-1.296h7.44v1.296H62.66V308h-1.424zm9.142 0v-8.64h7.08V308h-1.424v-7.288h-4.232V308h-1.424zm13 .24c-.859 0-1.6-.195-2.224-.584a3.868 3.868 0 01-1.432-1.616c-.336-.688-.504-1.477-.504-2.368 0-.907.17-1.701.512-2.384a3.81 3.81 0 011.448-1.592c.624-.384 1.358-.576 2.2-.576.864 0 1.608.195 2.232.584.624.384 1.102.92 1.432 1.608.336.683.504 1.469.504 2.36 0 .901-.168 1.696-.504 2.384a3.858 3.858 0 01-1.44 1.608c-.624.384-1.365.576-2.224.576zm0-1.352c.896 0 1.563-.299 2-.896.438-.597.656-1.371.656-2.32 0-.976-.221-1.752-.664-2.328-.443-.581-1.107-.872-1.992-.872-.603 0-1.099.136-1.488.408-.39.272-.68.648-.872 1.128-.192.48-.288 1.035-.288 1.664 0 .971.224 1.749.672 2.336.448.587 1.107.88 1.976.88zM92.503 308v-8.64h1.424V303h4.544v-3.64h1.424V308H98.47v-3.648h-4.544V308h-1.424zm13.313.24c-.859 0-1.6-.195-2.224-.584a3.866 3.866 0 01-1.432-1.616c-.336-.688-.504-1.477-.504-2.368 0-.907.17-1.701.512-2.384a3.807 3.807 0 011.448-1.592c.624-.384 1.357-.576 2.2-.576.864 0 1.608.195 2.232.584a3.75 3.75 0 011.432 1.608c.336.683.504 1.469.504 2.36 0 .901-.168 1.696-.504 2.384a3.858 3.858 0 01-1.44 1.608c-.624.384-1.366.576-2.224.576zm0-1.352c.896 0 1.562-.299 2-.896.437-.597.656-1.371.656-2.32 0-.976-.222-1.752-.664-2.328-.443-.581-1.107-.872-1.992-.872-.603 0-1.099.136-1.488.408-.39.272-.68.648-.872 1.128-.192.48-.288 1.035-.288 1.664 0 .971.224 1.749.672 2.336.448.587 1.106.88 1.976.88zm5.921 1.112v-8.64h1.224l3.28 6.704 3.28-6.704h1.224V308h-1.376v-5.672L116.617 308h-.752l-2.752-5.672V308h-1.376zm18.314-8.64V308h-1.376v-6.368L124.147 308h-1.176v-8.64h1.376v6.28l4.536-6.28h1.168zm2.233 8.64v-8.64h1.424V303h4.544v-3.64h1.424V308h-1.424v-3.648h-4.544V308h-1.424zm12.089.24c-.645 0-1.187-.117-1.624-.352a2.51 2.51 0 01-.984-.944 2.565 2.565 0 01-.328-1.28c0-.453.085-.845.256-1.176.176-.336.421-.613.736-.832.315-.224.691-.4 1.128-.528.411-.112.869-.208 1.376-.288a47.041 47.041 0 011.552-.232c.523-.069 1.011-.136 1.464-.2l-.512.296c.016-.768-.139-1.336-.464-1.704-.32-.368-.875-.552-1.664-.552-.523 0-.981.12-1.376.36-.389.235-.664.619-.824 1.152l-1.352-.408c.208-.757.611-1.352 1.208-1.784.597-.432 1.384-.648 2.36-.648.784 0 1.456.141 2.016.424.565.277.971.699 1.216 1.264.123.267.2.557.232.872.032.309.048.635.048.976V308h-1.264v-2.072l.296.192c-.325.699-.781 1.227-1.368 1.584-.581.357-1.291.536-2.128.536zm.216-1.192c.512 0 .955-.091 1.328-.272.379-.187.683-.429.912-.728.229-.304.379-.635.448-.992.08-.267.123-.563.128-.888.011-.331.016-.584.016-.76l.496.216c-.464.064-.92.125-1.368.184-.448.059-.872.123-1.272.192a9.4 9.4 0 00-1.08.232 3.553 3.553 0 00-.664.288 1.498 1.498 0 00-.496.456c-.123.181-.184.408-.184.68 0 .235.059.459.176.672.123.213.309.387.56.52.256.133.589.2 1 .2zm13.688 2.552V308h-7.368v-8.64h1.424v7.288h4.232v-7.288h1.424v7.344h1.712v2.896h-1.424zm9.774-10.24V308h-1.376v-6.368L162.147 308h-1.176v-8.64h1.376v6.28l4.536-6.28h1.168zm7.577 8.64v-3.128h-1.864c-.219 0-.461-.008-.728-.024a9.299 9.299 0 01-.736-.088 2.956 2.956 0 01-1.584-.824c-.427-.432-.64-1.029-.64-1.792 0-.741.2-1.336.6-1.784a2.779 2.779 0 011.496-.88 3.75 3.75 0 01.808-.104c.277-.011.512-.016.704-.016h3.368l.008 8.64h-1.432zm-5.816 0l2.296-3.52h1.536l-2.296 3.52h-1.536zm3.848-4.304h1.968v-3.16h-1.968c-.123 0-.285.005-.488.016a2.517 2.517 0 00-.568.096 1.476 1.476 0 00-.904.76c-.107.203-.16.443-.16.72 0 .4.112.725.336.976.224.245.496.411.816.496.176.043.349.069.52.08.176.011.325.016.448.016zM179.3 308v-8.64h1.224l3.28 6.704 3.28-6.704h1.224V308h-1.376v-5.672L184.18 308h-.752l-2.752-5.672V308H179.3zm21.517-8.64V308h-1.376v-6.368L194.913 308h-1.176v-8.64h1.376v6.28l4.536-6.28h1.168zm5.436 8.64v-8.64h3.68c.218 0 .453.013.704.04.256.021.488.061.696.12.464.123.845.376 1.144.76.304.379.456.859.456 1.44 0 .325-.051.608-.152.848-.096.24-.235.448-.416.624a1.727 1.727 0 01-.552.368c.186.032.376.104.568.216.304.165.541.397.712.696.176.299.264.68.264 1.144 0 .587-.142 1.072-.424 1.456-.283.379-.672.64-1.168.784a3.644 3.644 0 01-.688.12 11.46 11.46 0 01-.728.024h-4.096zm1.44-1.16h2.576c.112 0 .245-.011.4-.032.16-.021.301-.048.424-.08.277-.08.477-.229.6-.448.128-.219.192-.456.192-.712 0-.341-.096-.619-.288-.832a1.233 1.233 0 00-.744-.4 1.551 1.551 0 00-.368-.056 8.999 8.999 0 00-.344-.008h-2.448v2.568zm0-3.744h2.144c.149 0 .306-.008.472-.024.165-.021.309-.056.432-.104a.961.961 0 00.536-.448c.117-.213.176-.445.176-.696 0-.277-.064-.52-.192-.728a.957.957 0 00-.568-.44 1.752 1.752 0 00-.576-.104 9.845 9.845 0 00-.4-.016h-2.024v2.56zm10.951 5.144c-.859 0-1.6-.195-2.224-.584a3.866 3.866 0 01-1.432-1.616c-.336-.688-.504-1.477-.504-2.368 0-.907.17-1.701.512-2.384a3.807 3.807 0 011.448-1.592c.624-.384 1.357-.576 2.2-.576.864 0 1.608.195 2.232.584a3.75 3.75 0 011.432 1.608c.336.683.504 1.469.504 2.36 0 .901-.168 1.696-.504 2.384a3.858 3.858 0 01-1.44 1.608c-.624.384-1.366.576-2.224.576zm0-1.352c.896 0 1.562-.299 2-.896.437-.597.656-1.371.656-2.32 0-.976-.222-1.752-.664-2.328-.443-.581-1.107-.872-1.992-.872-.603 0-1.099.136-1.488.408-.39.272-.68.648-.872 1.128-.192.48-.288 1.035-.288 1.664 0 .971.224 1.749.672 2.336.448.587 1.106.88 1.976.88zm8.822 1.352c-.853 0-1.608-.184-2.264-.552a4.123 4.123 0 01-1.552-1.536l1.136-.736c.315.475.691.84 1.128 1.096.437.251.936.376 1.496.376.587 0 1.053-.133 1.4-.4.347-.272.52-.637.52-1.096 0-.341-.085-.603-.256-.784-.171-.181-.416-.307-.736-.376a5.492 5.492 0 00-1.144-.104h-.896v-1.176h.888c.56 0 1.016-.091 1.368-.272.352-.181.528-.491.528-.928 0-.448-.165-.773-.496-.976-.325-.208-.715-.312-1.168-.312-.48 0-.939.101-1.376.304a3.937 3.937 0 00-1.128.752l-.864-.968a4.68 4.68 0 011.544-1.056 4.81 4.81 0 011.912-.376c.555 0 1.061.099 1.52.296a2.5 2.5 0 011.104.856c.277.373.416.829.416 1.368 0 .459-.107.867-.32 1.224-.213.357-.528.669-.944.936l-.056-.504c.352.085.643.243.872.472.235.224.408.491.52.8.112.309.168.632.168.968 0 .565-.149 1.051-.448 1.456a2.86 2.86 0 01-1.192.928 4.253 4.253 0 01-1.68.32zm5.068-.24v-8.64h1.424V303h4.544v-3.64h1.424V308h-1.424v-3.648h-4.544V308h-1.424zm12.089.24c-.645 0-1.187-.117-1.624-.352a2.51 2.51 0 01-.984-.944 2.565 2.565 0 01-.328-1.28c0-.453.085-.845.256-1.176.176-.336.421-.613.736-.832.315-.224.691-.4 1.128-.528.411-.112.869-.208 1.376-.288a47.041 47.041 0 011.552-.232c.523-.069 1.011-.136 1.464-.2l-.512.296c.016-.768-.139-1.336-.464-1.704-.32-.368-.875-.552-1.664-.552-.523 0-.981.12-1.376.36-.389.235-.664.619-.824 1.152l-1.352-.408c.208-.757.611-1.352 1.208-1.784.597-.432 1.384-.648 2.36-.648.784 0 1.456.141 2.016.424.565.277.971.699 1.216 1.264.123.267.2.557.232.872.032.309.048.635.048.976V308h-1.264v-2.072l.296.192c-.325.699-.781 1.227-1.368 1.584-.581.357-1.291.536-2.128.536zm.216-1.192c.512 0 .955-.091 1.328-.272.379-.187.683-.429.912-.728.229-.304.379-.635.448-.992.08-.267.123-.563.128-.888.011-.331.016-.584.016-.76l.496.216c-.464.064-.92.125-1.368.184-.448.059-.872.123-1.272.192a9.4 9.4 0 00-1.08.232 3.553 3.553 0 00-.664.288 1.498 1.498 0 00-.496.456c-.123.181-.184.408-.184.68 0 .235.059.459.176.672.123.213.309.387.56.52.256.133.589.2 1 .2zm6.328.952v-8.64h6v1.352h-4.576V308h-1.424zm11.484.24c-.811 0-1.494-.2-2.048-.6-.555-.405-.976-.952-1.264-1.64-.283-.693-.424-1.469-.424-2.328 0-.869.141-1.648.424-2.336.288-.688.709-1.229 1.264-1.624.56-.395 1.245-.592 2.056-.592.8 0 1.488.2 2.064.6.581.395 1.026.936 1.336 1.624.309.688.464 1.464.464 2.328 0 .864-.155 1.64-.464 2.328a3.908 3.908 0 01-1.336 1.64c-.576.4-1.267.6-2.072.6zm-3.976 3.6v-12.48h1.272v6.36h.16v6.12h-1.432zm3.8-4.904c.57 0 1.042-.144 1.416-.432.373-.288.653-.677.84-1.168a4.71 4.71 0 00.28-1.664 4.62 4.62 0 00-.28-1.648 2.508 2.508 0 00-.848-1.168c-.379-.288-.862-.432-1.448-.432-.56 0-1.024.139-1.392.416-.368.272-.643.653-.824 1.144-.182.485-.272 1.048-.272 1.688 0 .629.088 1.192.264 1.688.181.491.458.877.832 1.16.373.277.85.416 1.432.416zm8.257 1.304c-.645 0-1.186-.117-1.624-.352a2.51 2.51 0 01-.984-.944 2.575 2.575 0 01-.328-1.28c0-.453.086-.845.256-1.176.176-.336.422-.613.736-.832.315-.224.691-.4 1.128-.528.411-.112.87-.208 1.376-.288.512-.085 1.03-.163 1.552-.232.523-.069 1.011-.136 1.464-.2l-.512.296c.016-.768-.138-1.336-.464-1.704-.32-.368-.874-.552-1.664-.552-.522 0-.981.12-1.376.36-.389.235-.664.619-.824 1.152l-1.352-.408c.208-.757.611-1.352 1.208-1.784.598-.432 1.384-.648 2.36-.648.784 0 1.456.141 2.016.424a2.46 2.46 0 011.216 1.264c.123.267.2.557.232.872.032.309.048.635.048.976V308h-1.264v-2.072l.296.192c-.325.699-.781 1.227-1.368 1.584-.581.357-1.29.536-2.128.536zm.216-1.192c.512 0 .955-.091 1.328-.272.379-.187.683-.429.912-.728.23-.304.379-.635.448-.992.08-.267.123-.563.128-.888.011-.331.016-.584.016-.76l.496.216c-.464.064-.92.125-1.368.184-.448.059-.872.123-1.272.192a9.4 9.4 0 00-1.08.232 3.581 3.581 0 00-.664.288 1.508 1.508 0 00-.496.456 1.191 1.191 0 00-.184.68c0 .235.059.459.176.672.123.213.31.387.56.52.256.133.59.2 1 .2zm5.368.952l3.488-4.32-3.32-4.32h1.584l3.208 4.24v-4.24h1.296v4.24l3.208-4.24h1.584l-3.32 4.32 3.488 4.32h-1.656l-3.304-4.24V308h-1.296v-4.24l-3.304 4.24h-1.656zm11.539 1.92v-3.096c.485 0 .832-.157 1.04-.472.208-.32.376-.845.504-1.576.085-.459.155-.949.208-1.472.053-.523.099-1.104.136-1.744.043-.645.083-1.379.12-2.2h5.952v7.464h.84v3.096h-1.36V308h-6.08v1.92h-1.36zm2.192-3.096h4.344v-6.288h-3.24a52.746 52.746 0 01-.16 2.424c-.032.411-.072.8-.12 1.168-.043.363-.093.688-.152.976-.069.4-.149.739-.24 1.016a1.712 1.712 0 01-.432.704zm11.958 1.416c-.848 0-1.59-.187-2.224-.56a3.92 3.92 0 01-1.472-1.576c-.352-.677-.528-1.467-.528-2.368 0-.944.173-1.76.52-2.448.346-.693.829-1.227 1.448-1.6.624-.379 1.354-.568 2.192-.568.869 0 1.608.2 2.216.6.613.4 1.072.971 1.376 1.712.309.741.442 1.624.4 2.648h-1.44v-.512c-.016-1.061-.232-1.853-.648-2.376-.416-.528-1.035-.792-1.856-.792-.88 0-1.55.283-2.008.848-.459.565-.688 1.376-.688 2.432 0 1.019.229 1.808.688 2.368.458.56 1.112.84 1.96.84.57 0 1.066-.131 1.488-.392.421-.261.752-.637.992-1.128l1.368.472a3.873 3.873 0 01-1.52 1.776c-.672.416-1.427.624-2.264.624zm-3.192-4.16v-1.144h6.384v1.144h-6.384zm8.893 3.92v-8.64h1.424V303h4.544v-3.64h1.424V308h-1.424v-3.648h-4.544V308h-1.424zm16.705-8.64V308h-1.376v-6.368L318.507 308h-1.176v-8.64h1.376v6.28l4.536-6.28h1.168zm7.576 8.64v-3.128h-1.864c-.218 0-.461-.008-.728-.024a9.356 9.356 0 01-.736-.088 2.956 2.956 0 01-1.584-.824c-.426-.432-.64-1.029-.64-1.792 0-.741.2-1.336.6-1.784a2.782 2.782 0 011.496-.88 3.75 3.75 0 01.808-.104c.278-.011.512-.016.704-.016h3.368l.008 8.64h-1.432zm-5.816 0l2.296-3.52h1.536l-2.296 3.52h-1.536zm3.848-4.304h1.968v-3.16h-1.968c-.122 0-.285.005-.488.016a2.527 2.527 0 00-.568.096c-.17.048-.338.136-.504.264-.16.128-.293.293-.4.496-.106.203-.16.443-.16.72 0 .4.112.725.336.976.224.245.496.411.816.496.176.043.35.069.52.08.176.011.326.016.448.016zm5.64 4.304v-8.64h1.224l3.28 6.704 3.28-6.704h1.224V308h-1.376v-5.672L340.539 308h-.752l-2.752-5.672V308h-1.376zM1010.12 308v-11.52h1.42v5.408l5.04-5.408h1.8l-5.24 5.592 5.64 5.928h-1.84l-5.4-5.632V308h-1.42zm12.82.24c-.86 0-1.6-.195-2.22-.584a3.904 3.904 0 01-1.44-1.616c-.33-.688-.5-1.477-.5-2.368 0-.907.17-1.701.51-2.384a3.83 3.83 0 011.45-1.592c.62-.384 1.36-.576 2.2-.576.86 0 1.61.195 2.23.584.63.384 1.1.92 1.43 1.608.34.683.51 1.469.51 2.36 0 .901-.17 1.696-.51 2.384a3.78 3.78 0 01-1.44 1.608c-.62.384-1.36.576-2.22.576zm0-1.352c.9 0 1.56-.299 2-.896.44-.597.66-1.371.66-2.32 0-.976-.22-1.752-.67-2.328-.44-.581-1.1-.872-1.99-.872-.6 0-1.1.136-1.49.408-.39.272-.68.648-.87 1.128-.19.48-.29 1.035-.29 1.664 0 .971.23 1.749.67 2.336.45.587 1.11.88 1.98.88zm5.92 1.112v-8.64h1.23l3.28 6.704 3.28-6.704h1.22V308h-1.38v-5.672l-2.75 5.672h-.75l-2.75-5.672V308h-1.38zm18.32-8.64V308h-1.38v-6.368l-4.53 6.368h-1.17v-8.64h1.37v6.28l4.54-6.28h1.17zm4.52 8.64v-7.344h-3v-1.296h7.44v1.296h-3.01V308h-1.43zm9.7.24c-.85 0-1.59-.187-2.23-.56a3.902 3.902 0 01-1.47-1.576c-.35-.677-.53-1.467-.53-2.368 0-.944.17-1.76.52-2.448.35-.693.83-1.227 1.45-1.6.62-.379 1.35-.568 2.19-.568.87 0 1.61.2 2.22.6.61.4 1.07.971 1.37 1.712.31.741.45 1.624.4 2.648h-1.44v-.512c-.01-1.061-.23-1.853-.64-2.376-.42-.528-1.04-.792-1.86-.792-.88 0-1.55.283-2.01.848-.46.565-.69 1.376-.69 2.432 0 1.019.23 1.808.69 2.368.46.56 1.11.84 1.96.84.57 0 1.07-.131 1.49-.392.42-.261.75-.637.99-1.128l1.37.472c-.34.763-.84 1.355-1.52 1.776-.67.416-1.43.624-2.26.624zm-3.2-4.16v-1.144h6.39v1.144h-6.39zm11.04 3.92v-7.344h-3.01v-1.296h7.44v1.296h-3.01V308h-1.42zm9.14 0v-8.64h7.08V308h-1.43v-7.288h-4.23V308h-1.42zm13 .24c-.86 0-1.6-.195-2.23-.584a3.951 3.951 0 01-1.43-1.616c-.33-.688-.5-1.477-.5-2.368 0-.907.17-1.701.51-2.384.34-.683.82-1.213 1.45-1.592.62-.384 1.36-.576 2.2-.576.86 0 1.61.195 2.23.584.62.384 1.1.92 1.43 1.608.34.683.51 1.469.51 2.36 0 .901-.17 1.696-.51 2.384a3.78 3.78 0 01-1.44 1.608c-.62.384-1.36.576-2.22.576zm0-1.352c.89 0 1.56-.299 2-.896.44-.597.65-1.371.65-2.32 0-.976-.22-1.752-.66-2.328-.44-.581-1.11-.872-1.99-.872-.6 0-1.1.136-1.49.408-.39.272-.68.648-.87 1.128-.19.48-.29 1.035-.29 1.664 0 .971.22 1.749.67 2.336.45.587 1.11.88 1.98.88zm11.59 1.352c-.65 0-1.19-.117-1.63-.352-.43-.24-.76-.555-.98-.944a2.556 2.556 0 01-.33-1.28c0-.453.09-.845.26-1.176.17-.336.42-.613.73-.832.32-.224.69-.4 1.13-.528.41-.112.87-.208 1.38-.288a47.32 47.32 0 011.55-.232c.52-.069 1.01-.136 1.46-.2l-.51.296c.02-.768-.14-1.336-.46-1.704-.32-.368-.88-.552-1.67-.552-.52 0-.98.12-1.37.36-.39.235-.67.619-.83 1.152l-1.35-.408c.21-.757.61-1.352 1.21-1.784.6-.432 1.38-.648 2.36-.648.78 0 1.45.141 2.01.424.57.277.98.699 1.22 1.264.12.267.2.557.23.872.03.309.05.635.05.976V308h-1.26v-2.072l.29.192c-.32.699-.78 1.227-1.37 1.584-.58.357-1.29.536-2.12.536zm.21-1.192c.51 0 .96-.091 1.33-.272.38-.187.68-.429.91-.728.23-.304.38-.635.45-.992.08-.267.12-.563.13-.888.01-.331.01-.584.01-.76l.5.216c-.46.064-.92.125-1.37.184-.45.059-.87.123-1.27.192a9.4 9.4 0 00-1.08.232c-.23.075-.46.171-.66.288-.21.117-.37.269-.5.456-.12.181-.18.408-.18.68 0 .235.06.459.17.672.13.213.31.387.56.52.26.133.59.2 1 .2zm7.05 4.792l1.67-4.544.02 1.344-3.77-9.28h1.49l2.96 7.464h-.51l2.78-7.464h1.44l-4.7 12.48h-1.38zm6.45-1.92v-3.096c.49 0 .84-.157 1.04-.472.21-.32.38-.845.51-1.576.08-.459.15-.949.21-1.472.05-.523.09-1.104.13-1.744.04-.645.08-1.379.12-2.2h5.95v7.464h.84v3.096h-1.36V308h-6.08v1.92h-1.36zm2.2-3.096h4.34v-6.288h-3.24l-.06 1.192c-.03.411-.06.821-.1 1.232-.03.411-.07.8-.12 1.168-.04.363-.09.688-.15.976-.07.4-.15.739-.24 1.016s-.24.512-.43.704zm15.28-7.464V308h-1.38v-6.368l-4.52 6.368h-1.18v-8.64h1.38v6.28l4.53-6.28h1.17zm4.53 8.64v-7.344h-3.01v-1.296h7.44v1.296h-3.01V308h-1.42zm6.99 3.84l1.67-4.544.03 1.344-3.78-9.28h1.5l2.96 7.464h-.52l2.78-7.464h1.45l-4.71 12.48h-1.38zM1014.86 391.24c-1.15 0-2.12-.253-2.92-.76-.8-.507-1.41-1.211-1.84-2.112-.41-.901-.62-1.944-.62-3.128 0-1.184.21-2.227.62-3.128.43-.901 1.04-1.605 1.84-2.112.8-.507 1.77-.76 2.92-.76 1.33 0 2.43.339 3.28 1.016.87.677 1.46 1.589 1.79 2.736l-1.45.384c-.23-.859-.65-1.536-1.26-2.032-.6-.496-1.39-.744-2.36-.744-.86 0-1.58.195-2.15.584-.57.389-1 .933-1.29 1.632-.28.693-.43 1.501-.44 2.424 0 .917.14 1.725.43 2.424.29.693.72 1.237 1.29 1.632.58.389 1.3.584 2.16.584.97 0 1.76-.248 2.36-.744.61-.501 1.03-1.179 1.26-2.032l1.45.384c-.33 1.141-.92 2.053-1.79 2.736-.85.677-1.95 1.016-3.28 1.016zm6.02-.24v-1.224c.32.059.57.048.73-.032.17-.085.3-.232.38-.44.08-.213.15-.48.2-.8.1-.507.17-1.072.24-1.696.07-.624.13-1.307.18-2.048.06-.747.11-1.547.16-2.4h6.04V391h-1.42v-7.288h-3.32c-.04.491-.08.995-.12 1.512-.05.517-.09 1.021-.14 1.512-.05.485-.1.939-.16 1.36-.05.416-.11.776-.18 1.08-.1.523-.24.941-.42 1.256-.18.309-.44.509-.78.6-.34.096-.81.085-1.39-.032zm11.38 3.84l1.67-4.544.02 1.344-3.77-9.28h1.49l2.96 7.464h-.51l2.78-7.464h1.45l-4.71 12.48h-1.38zm6.45-3.84l3.48-4.32-3.32-4.32h1.59l3.21 4.24v-4.24h1.29v4.24l3.21-4.24h1.58l-3.32 4.32 3.49 4.32h-1.65l-3.31-4.24V391h-1.29v-4.24l-3.31 4.24h-1.65zm16 .248c-.82-.005-1.51-.181-2.09-.528-.57-.352-1.02-.867-1.34-1.544-.32-.677-.5-1.507-.54-2.488-.02-.453-.01-.952.02-1.496.04-.544.09-1.067.17-1.568.09-.501.2-.915.32-1.24a3.976 3.976 0 011.51-1.912c.33-.229.71-.408 1.13-.536.41-.128.85-.227 1.3-.296a29.7 29.7 0 011.38-.192c.45-.059.89-.128 1.31-.208l.14 1.28c-.29.064-.64.12-1.04.168-.4.043-.81.093-1.25.152-.42.059-.83.141-1.23.248-.39.101-.72.243-1.01.424-.41.251-.73.627-.96 1.128a5.375 5.375 0 00-.4 1.672c.33-.512.76-.888 1.29-1.128.53-.24 1.09-.36 1.69-.36.77 0 1.44.181 2 .544.56.357.99.851 1.29 1.48.3.629.45 1.347.45 2.152 0 .853-.17 1.6-.51 2.24-.34.64-.82 1.136-1.45 1.488-.61.352-1.34.525-2.18.52zm.09-1.352c.84 0 1.47-.259 1.9-.776.43-.523.65-1.216.65-2.08 0-.885-.22-1.581-.67-2.088-.45-.512-1.08-.768-1.89-.768-.82 0-1.45.256-1.89.768-.43.507-.65 1.203-.65 2.088 0 .891.22 1.589.66 2.096.44.507 1.07.76 1.89.76zm8.28 1.344c-.65 0-1.19-.117-1.63-.352-.43-.24-.76-.555-.98-.944a2.556 2.556 0 01-.33-1.28c0-.453.09-.845.26-1.176.17-.336.42-.613.73-.832.32-.224.69-.4 1.13-.528.41-.112.87-.208 1.38-.288a47.32 47.32 0 011.55-.232c.52-.069 1.01-.136 1.46-.2l-.51.296c.02-.768-.14-1.336-.46-1.704-.32-.368-.88-.552-1.67-.552-.52 0-.98.12-1.37.36-.39.235-.67.619-.83 1.152l-1.35-.408c.21-.757.61-1.352 1.21-1.784.6-.432 1.38-.648 2.36-.648.78 0 1.45.141 2.01.424.57.277.97.699 1.22 1.264.12.267.2.557.23.872.03.309.05.635.05.976V391h-1.26v-2.072l.29.192c-.32.699-.78 1.227-1.37 1.584-.58.357-1.29.536-2.12.536zm.21-1.192c.51 0 .96-.091 1.33-.272.38-.187.68-.429.91-.728.23-.304.38-.635.45-.992.08-.267.12-.563.13-.888.01-.331.01-.584.01-.76l.5.216c-.46.064-.92.125-1.37.184-.45.059-.87.123-1.27.192a9.4 9.4 0 00-1.08.232c-.23.075-.46.171-.66.288-.21.117-.37.269-.5.456-.12.181-.18.408-.18.68 0 .235.05.459.17.672.12.213.31.387.56.52.26.133.59.2 1 .2zm9.53.952v-8.64h3.68c.21 0 .45.013.7.04.26.021.49.061.7.12.46.123.84.376 1.14.76.3.379.46.859.46 1.44 0 .325-.06.608-.16.848-.09.24-.23.448-.41.624a1.6 1.6 0 01-.27.216c-.09.064-.19.115-.28.152.18.032.37.104.56.216.31.165.54.397.72.696.17.299.26.68.26 1.144 0 .587-.14 1.072-.42 1.456-.29.379-.68.64-1.17.784-.21.059-.44.099-.69.12-.25.016-.49.024-.73.024h-4.09zm1.44-1.16h2.57a3.906 3.906 0 00.83-.112c.27-.08.47-.229.6-.448.12-.219.19-.456.19-.712 0-.341-.1-.619-.29-.832a1.258 1.258 0 00-.74-.4 1.66 1.66 0 00-.37-.056 9.434 9.434 0 00-.35-.008h-2.44v2.568zm0-3.744h2.14c.15 0 .31-.008.47-.024.17-.021.31-.056.43-.104.25-.091.43-.24.54-.448.12-.213.18-.445.18-.696 0-.277-.07-.52-.2-.728a.949.949 0 00-.56-.44 1.837 1.837 0 00-.58-.104 9.845 9.845 0 00-.4-.016h-2.02v2.56zm7.26 4.904v-8.64h1.42V386h4.55v-3.64h1.42V391h-1.42v-3.648h-4.55V391h-1.42zm10.83 3.84l1.67-4.544.03 1.344-3.78-9.28h1.5l2.96 7.464h-.51l2.77-7.464h1.45l-4.7 12.48h-1.39zm9.7-3.84v-7.344h-3.01v-1.296h7.44v1.296h-3.01V391h-1.42zm9.91.24c-.81 0-1.49-.2-2.04-.6-.56-.405-.98-.952-1.27-1.64-.28-.693-.42-1.469-.42-2.328 0-.869.14-1.648.42-2.336.29-.688.71-1.229 1.27-1.624s1.24-.592 2.05-.592c.8 0 1.49.2 2.07.6.58.395 1.02.936 1.33 1.624.31.688.47 1.464.47 2.328 0 .864-.16 1.64-.47 2.328-.31.688-.75 1.235-1.33 1.64-.58.4-1.27.6-2.08.6zm-3.97 3.6v-12.48h1.27v6.36h.16v6.12h-1.43zm3.8-4.904c.57 0 1.04-.144 1.41-.432.38-.288.66-.677.84-1.168.19-.496.28-1.051.28-1.664 0-.608-.09-1.157-.28-1.648-.18-.491-.46-.88-.84-1.168-.38-.288-.87-.432-1.45-.432-.56 0-1.03.139-1.39.416-.37.272-.65.653-.83 1.144-.18.485-.27 1.048-.27 1.688 0 .629.09 1.192.26 1.688.18.491.46.877.84 1.16.37.277.85.416 1.43.416zm9.54 1.304c-.85 0-1.59-.187-2.22-.56a3.902 3.902 0 01-1.47-1.576c-.36-.677-.53-1.467-.53-2.368 0-.944.17-1.76.52-2.448.35-.693.83-1.227 1.45-1.6.62-.379 1.35-.568 2.19-.568.87 0 1.61.2 2.21.6.62.4 1.08.971 1.38 1.712.31.741.44 1.624.4 2.648h-1.44v-.512c-.02-1.061-.23-1.853-.65-2.376-.41-.528-1.03-.792-1.85-.792-.88 0-1.55.283-2.01.848-.46.565-.69 1.376-.69 2.432 0 1.019.23 1.808.69 2.368.46.56 1.11.84 1.96.84.57 0 1.07-.131 1.49-.392.42-.261.75-.637.99-1.128l1.37.472a3.938 3.938 0 01-1.52 1.776c-.68.416-1.43.624-2.27.624zm-3.19-4.16v-1.144h6.38v1.144h-6.38zm8.89 3.92v-8.64h1.43V386h4.54v-3.64h1.43V391H1133v-3.648h-4.54V391h-1.43zm9.63 0v-8.64h1.42V386h4.55v-3.64h1.42V391h-1.42v-3.648h-4.55V391h-1.42zm13.38.24c-.85 0-1.59-.187-2.23-.56a3.902 3.902 0 01-1.47-1.576c-.35-.677-.53-1.467-.53-2.368 0-.944.18-1.76.52-2.448.35-.693.83-1.227 1.45-1.6.62-.379 1.35-.568 2.19-.568.87 0 1.61.2 2.22.6.61.4 1.07.971 1.37 1.712.31.741.45 1.624.4 2.648h-1.44v-.512c-.01-1.061-.23-1.853-.64-2.376-.42-.528-1.04-.792-1.86-.792-.88 0-1.55.283-2.01.848-.46.565-.69 1.376-.69 2.432 0 1.019.23 1.808.69 2.368.46.56 1.11.84 1.96.84.57 0 1.07-.131 1.49-.392.42-.261.75-.637.99-1.128l1.37.472c-.34.763-.84 1.355-1.52 1.776-.67.416-1.43.624-2.26.624zm-3.2-4.16v-1.144h6.39v1.144h-6.39zm8.91 3.92v-8.64h6v1.352h-4.58V391h-1.42zm11.03.24c-.85 0-1.6-.195-2.22-.584a3.815 3.815 0 01-1.43-1.616c-.34-.688-.51-1.477-.51-2.368 0-.907.18-1.701.52-2.384.34-.683.82-1.213 1.44-1.592.63-.384 1.36-.576 2.2-.576.87 0 1.61.195 2.24.584.62.384 1.1.92 1.43 1.608.33.683.5 1.469.5 2.36 0 .901-.17 1.696-.5 2.384a3.913 3.913 0 01-1.44 1.608c-.63.384-1.37.576-2.23.576zm0-1.352c.9 0 1.57-.299 2-.896.44-.597.66-1.371.66-2.32 0-.976-.22-1.752-.66-2.328-.45-.581-1.11-.872-2-.872-.6 0-1.09.136-1.48.408-.39.272-.68.648-.88 1.128-.19.48-.28 1.035-.28 1.664 0 .971.22 1.749.67 2.336.45.587 1.11.88 1.97.88zm11.59 1.352c-.64 0-1.18-.117-1.62-.352-.43-.24-.76-.555-.99-.944a2.656 2.656 0 01-.32-1.28c0-.453.08-.845.25-1.176a2.3 2.3 0 01.74-.832c.31-.224.69-.4 1.13-.528.41-.112.87-.208 1.37-.288a47.32 47.32 0 011.55-.232c.53-.069 1.02-.136 1.47-.2l-.51.296c.01-.768-.14-1.336-.47-1.704-.32-.368-.87-.552-1.66-.552-.52 0-.98.12-1.38.36-.39.235-.66.619-.82 1.152l-1.35-.408c.2-.757.61-1.352 1.2-1.784.6-.432 1.39-.648 2.36-.648.79 0 1.46.141 2.02.424.57.277.97.699 1.22 1.264.12.267.2.557.23.872.03.309.05.635.05.976V391h-1.27v-2.072l.3.192c-.33.699-.78 1.227-1.37 1.584-.58.357-1.29.536-2.13.536zm.22-1.192c.51 0 .95-.091 1.33-.272.38-.187.68-.429.91-.728.23-.304.38-.635.45-.992.08-.267.12-.563.12-.888.02-.331.02-.584.02-.76l.5.216c-.47.064-.92.125-1.37.184-.45.059-.87.123-1.27.192a9.4 9.4 0 00-1.08.232c-.24.075-.46.171-.67.288-.2.117-.37.269-.49.456-.13.181-.19.408-.19.68 0 .235.06.459.18.672.12.213.31.387.56.52.25.133.59.2 1 .2zm7.04 4.792l1.67-4.544.03 1.344-3.78-9.28h1.5l2.96 7.464h-.51l2.77-7.464h1.45l-4.7 12.48h-1.39zm6.46-1.92v-3.096c.48 0 .83-.157 1.04-.472.21-.32.38-.845.5-1.576.09-.459.16-.949.21-1.472.05-.523.1-1.104.14-1.744.04-.645.08-1.379.12-2.2h5.95v7.464h.84v3.096h-1.36V391h-6.08v1.92h-1.36zm2.19-3.096h4.35v-6.288h-3.24c-.02.379-.04.776-.07 1.192l-.09 1.232c-.04.411-.08.8-.12 1.168-.05.363-.1.688-.16.976-.07.4-.15.739-.24 1.016s-.23.512-.43.704zm15.29-7.464V391h-1.38v-6.368l-4.53 6.368h-1.17v-8.64h1.37v6.28l4.54-6.28h1.17zm4.53 8.64v-7.344h-3.01v-1.296h7.44v1.296h-3.01V391h-1.42zm8.12.24c-.65 0-1.19-.117-1.63-.352-.43-.24-.76-.555-.98-.944a2.556 2.556 0 01-.33-1.28c0-.453.09-.845.26-1.176.17-.336.42-.613.73-.832.32-.224.69-.4 1.13-.528.41-.112.87-.208 1.38-.288a47.32 47.32 0 011.55-.232c.52-.069 1.01-.136 1.46-.2l-.51.296c.02-.768-.14-1.336-.46-1.704-.32-.368-.88-.552-1.67-.552-.52 0-.98.12-1.37.36-.39.235-.67.619-.83 1.152l-1.35-.408c.21-.757.61-1.352 1.21-1.784.6-.432 1.38-.648 2.36-.648.78 0 1.45.141 2.01.424.57.277.98.699 1.22 1.264.12.267.2.557.23.872.03.309.05.635.05.976V391h-1.26v-2.072l.29.192c-.32.699-.78 1.227-1.37 1.584-.58.357-1.29.536-2.12.536zm.21-1.192c.51 0 .96-.091 1.33-.272.38-.187.68-.429.91-.728.23-.304.38-.635.45-.992.08-.267.12-.563.13-.888.01-.331.01-.584.01-.76l.5.216c-.46.064-.92.125-1.37.184-.45.059-.87.123-1.27.192a9.4 9.4 0 00-1.08.232c-.23.075-.46.171-.66.288-.21.117-.37.269-.5.456-.12.181-.18.408-.18.68 0 .235.06.459.17.672.13.213.31.387.56.52.26.133.59.2 1 .2zM3.555 236l1.204-2.499-3.549-7.581h1.393l2.807 6.251 2.87-6.251h1.33L4.906 236H3.555zm10.127.21c-.709 0-1.306-.175-1.792-.525a3.321 3.321 0 01-1.106-1.435c-.247-.607-.37-1.286-.37-2.037 0-.761.123-1.442.37-2.044.252-.602.621-1.076 1.106-1.421.49-.345 1.09-.518 1.8-.518.7 0 1.302.175 1.806.525.508.345.898.819 1.168 1.421.271.602.406 1.281.406 2.037s-.135 1.435-.405 2.037c-.271.602-.66 1.08-1.17 1.435-.503.35-1.108.525-1.813.525zm-3.479 3.15v-10.92h1.114v5.565h.14v5.355h-1.254zm3.325-4.291c.5 0 .913-.126 1.24-.378.326-.252.571-.593.734-1.022.164-.434.245-.919.245-1.456 0-.532-.081-1.013-.245-1.442a2.194 2.194 0 00-.742-1.022c-.33-.252-.753-.378-1.267-.378-.49 0-.896.121-1.218.364-.322.238-.562.572-.72 1.001-.16.425-.239.917-.239 1.477 0 .551.077 1.043.231 1.477.16.429.402.768.728 1.015.327.243.745.364 1.253.364zm8.297 1.141c-.751 0-1.4-.17-1.946-.511a3.388 3.388 0 01-1.253-1.414c-.294-.602-.441-1.293-.441-2.072 0-.793.15-1.489.448-2.086a3.333 3.333 0 011.267-1.393c.546-.336 1.188-.504 1.925-.504.756 0 1.407.17 1.953.511.546.336.964.805 1.253 1.407.294.597.441 1.286.441 2.065 0 .789-.147 1.484-.441 2.086a3.384 3.384 0 01-1.26 1.407c-.546.336-1.195.504-1.946.504zm0-1.183c.784 0 1.367-.261 1.75-.784s.574-1.199.574-2.03c0-.854-.194-1.533-.581-2.037-.387-.509-.968-.763-1.743-.763-.527 0-.961.119-1.302.357-.34.238-.595.567-.763.987-.168.42-.252.905-.252 1.456 0 .849.196 1.531.588 2.044.392.513.968.77 1.729.77zm5.181.973v-7.56h3.22c.192 0 .397.012.616.035.224.019.427.054.61.105.405.107.739.329 1 .665.266.331.4.751.4 1.26 0 .285-.045.532-.134.742-.084.21-.205.392-.364.546a1.51 1.51 0 01-.483.322c.164.028.33.091.497.189.266.145.474.348.623.609.154.261.231.595.231 1.001 0 .513-.123.938-.37 1.274-.248.331-.589.56-1.023.686a3.284 3.284 0 01-.602.105c-.22.014-.431.021-.637.021h-3.584zm1.26-1.015h2.254c.098 0 .215-.009.35-.028.14-.019.264-.042.371-.07a.836.836 0 00.525-.392 1.21 1.21 0 00.168-.623c0-.299-.084-.541-.252-.728a1.077 1.077 0 00-.65-.35 1.387 1.387 0 00-.323-.049 6.757 6.757 0 00-.3-.007h-2.143v2.247zm0-3.276h1.876c.13 0 .268-.007.413-.021a1.62 1.62 0 00.378-.091.838.838 0 00.47-.392c.102-.187.153-.39.153-.609a1.19 1.19 0 00-.168-.637.834.834 0 00-.497-.385 1.547 1.547 0 00-.504-.091 10 10 0 00-.35-.014h-1.77v2.24zm9.638 4.501c-.742 0-1.39-.163-1.946-.49a3.43 3.43 0 01-1.288-1.379c-.308-.593-.462-1.283-.462-2.072 0-.826.152-1.54.455-2.142a3.33 3.33 0 011.267-1.4c.546-.331 1.186-.497 1.918-.497.761 0 1.407.175 1.94.525.536.35.937.849 1.203 1.498.271.649.388 1.421.35 2.317h-1.26v-.448c-.014-.929-.203-1.622-.567-2.079-.364-.462-.905-.693-1.624-.693-.77 0-1.355.247-1.757.742-.4.495-.602 1.204-.602 2.128 0 .891.201 1.582.602 2.072.402.49.973.735 1.715.735.5 0 .934-.114 1.302-.343.37-.229.658-.558.868-.987l1.197.413a3.393 3.393 0 01-1.33 1.554 3.687 3.687 0 01-1.98.546zm-2.793-3.64v-1.001h5.586v1.001h-5.586zm7.782 3.43v-7.56h1.246v3.185h3.976v-3.185h1.246V236h-1.246v-3.192h-3.976V236h-1.246zm8.429 0l-.007-7.56h1.253v2.737h1.63c.22 0 .444.005.673.014.228.009.427.03.595.063.392.075.735.205 1.029.392.294.187.523.441.686.763.163.317.245.712.245 1.183 0 .653-.17 1.171-.511 1.554-.336.378-.777.63-1.323.756-.187.042-.401.07-.644.084a18.04 18.04 0 01-.68.014h-2.946zm1.246-1.029h1.722c.14 0 .296-.005.469-.014.172-.009.327-.033.462-.07.238-.07.45-.208.637-.413.191-.205.287-.499.287-.882 0-.387-.094-.686-.28-.896a1.286 1.286 0 00-.721-.413 2.412 2.412 0 00-.427-.063 7.124 7.124 0 00-.427-.014h-1.722v2.765zm13.343 1.239c-1.003 0-1.855-.222-2.555-.665a4.271 4.271 0 01-1.603-1.848c-.364-.789-.546-1.701-.546-2.737s.182-1.948.546-2.737a4.271 4.271 0 011.603-1.848c.7-.443 1.552-.665 2.555-.665 1.167 0 2.126.296 2.877.889.756.593 1.276 1.391 1.561 2.394l-1.267.336c-.205-.751-.572-1.344-1.099-1.778-.527-.434-1.218-.651-2.072-.651-.751 0-1.377.17-1.876.511-.5.341-.875.817-1.127 1.428-.252.607-.38 1.314-.385 2.121-.005.803.12 1.51.371 2.121.252.607.63 1.083 1.134 1.428.504.341 1.132.511 1.883.511.854 0 1.545-.217 2.072-.651.527-.439.894-1.031 1.1-1.778l1.266.336c-.285.999-.805 1.797-1.56 2.394-.752.593-1.711.889-2.878.889zm9.193 0c-.751 0-1.4-.17-1.946-.511a3.388 3.388 0 01-1.253-1.414c-.294-.602-.44-1.293-.44-2.072 0-.793.149-1.489.447-2.086a3.333 3.333 0 011.267-1.393c.546-.336 1.188-.504 1.925-.504.756 0 1.407.17 1.953.511.546.336.964.805 1.253 1.407.294.597.441 1.286.441 2.065 0 .789-.147 1.484-.44 2.086a3.384 3.384 0 01-1.26 1.407c-.547.336-1.195.504-1.947.504zm0-1.183c.784 0 1.368-.261 1.75-.784.383-.523.574-1.199.574-2.03 0-.854-.193-1.533-.58-2.037-.388-.509-.969-.763-1.744-.763-.527 0-.961.119-1.302.357-.34.238-.595.567-.763.987-.168.42-.252.905-.252 1.456 0 .849.196 1.531.588 2.044.392.513.969.77 1.73.77zm5.181.973v-7.56h3.22c.192 0 .397.012.617.035.224.019.427.054.609.105.406.107.74.329 1 .665.267.331.4.751.4 1.26 0 .285-.045.532-.133.742-.085.21-.206.392-.365.546a1.51 1.51 0 01-.483.322c.164.028.33.091.497.189.266.145.474.348.623.609.154.261.231.595.231 1.001 0 .513-.123.938-.37 1.274-.248.331-.588.56-1.022.686a3.284 3.284 0 01-.602.105c-.22.014-.432.021-.638.021h-3.584zm1.26-1.015H83.8c.098 0 .215-.009.35-.028.14-.019.264-.042.371-.07a.836.836 0 00.526-.392 1.21 1.21 0 00.167-.623c0-.299-.084-.541-.251-.728a1.077 1.077 0 00-.651-.35 1.387 1.387 0 00-.323-.049 6.757 6.757 0 00-.3-.007h-2.142v2.247zm0-3.276h1.876c.131 0 .269-.007.413-.021a1.62 1.62 0 00.379-.091.838.838 0 00.469-.392c.102-.187.153-.39.153-.609a1.19 1.19 0 00-.167-.637.834.834 0 00-.498-.385 1.547 1.547 0 00-.504-.091 10 10 0 00-.35-.014h-1.77v2.24zm9.639 4.501c-.742 0-1.39-.163-1.946-.49a3.43 3.43 0 01-1.288-1.379c-.308-.593-.462-1.283-.462-2.072 0-.826.151-1.54.455-2.142a3.33 3.33 0 011.267-1.4c.546-.331 1.185-.497 1.918-.497.76 0 1.407.175 1.939.525.536.35.938.849 1.204 1.498.27.649.387 1.421.35 2.317h-1.26v-.448c-.014-.929-.203-1.622-.567-2.079-.364-.462-.906-.693-1.624-.693-.77 0-1.356.247-1.757.742-.402.495-.602 1.204-.602 2.128 0 .891.2 1.582.602 2.072.401.49.973.735 1.715.735.5 0 .933-.114 1.302-.343.368-.229.658-.558.868-.987l1.197.413a3.393 3.393 0 01-1.33 1.554 3.687 3.687 0 01-1.981.546zm-2.793-3.64v-1.001h5.586v1.001H88.39zm9.653 3.43v-6.426h-2.632v-1.134h6.511v1.134H99.29V236h-1.246zm7.106.21c-.564 0-1.038-.103-1.421-.308a2.192 2.192 0 01-.861-.826 2.253 2.253 0 01-.287-1.12c0-.397.075-.74.224-1.029.154-.294.369-.537.644-.728.276-.196.605-.35.987-.462.36-.098.761-.182 1.204-.252.448-.075.901-.142 1.358-.203.458-.061.885-.119 1.281-.175l-.448.259c.014-.672-.121-1.169-.406-1.491-.28-.322-.765-.483-1.456-.483-.457 0-.858.105-1.204.315-.34.205-.581.541-.721 1.008l-1.183-.357c.182-.663.535-1.183 1.057-1.561.523-.378 1.211-.567 2.065-.567.686 0 1.274.124 1.764.371.495.243.85.611 1.064 1.106.108.233.175.488.203.763.028.271.042.555.042.854V236h-1.106v-1.813l.259.168c-.284.611-.683 1.073-1.197 1.386-.508.313-1.129.469-1.862.469zm.189-1.043c.448 0 .836-.079 1.162-.238.332-.163.598-.376.798-.637.201-.266.332-.555.392-.868.07-.233.108-.492.112-.777.01-.289.014-.511.014-.665l.434.189c-.406.056-.805.11-1.197.161-.392.051-.763.107-1.113.168a8.36 8.36 0 00-.945.203 3.045 3.045 0 00-.581.252 1.33 1.33 0 00-.434.399 1.042 1.042 0 00-.161.595c0 .205.052.401.154.588.108.187.271.338.49.455.224.117.516.175.875.175zm7.78 2.513v-2.709c.425 0 .728-.138.91-.413.182-.28.329-.74.441-1.379.075-.401.136-.831.182-1.288.047-.457.087-.966.119-1.526.038-.565.073-1.206.105-1.925h5.208v6.531h.735v2.709h-1.19V236h-5.32v1.68h-1.19zm1.918-2.709h3.801v-5.502h-2.835a44.237 44.237 0 01-.14 2.121c-.028.359-.063.7-.105 1.022-.037.317-.081.602-.133.854-.06.35-.13.646-.21.889a1.481 1.481 0 01-.378.616zm13.375-6.531V236h-1.204v-5.572L123.246 236h-1.029v-7.56h1.204v5.495l3.969-5.495h1.022zm5.433 7.77c-.71 0-1.307-.175-1.792-.525-.486-.355-.854-.833-1.106-1.435-.248-.607-.371-1.286-.371-2.037 0-.761.123-1.442.371-2.044.252-.602.62-1.076 1.106-1.421.49-.345 1.089-.518 1.799-.518.7 0 1.302.175 1.806.525.508.345.898.819 1.169 1.421.27.602.406 1.281.406 2.037s-.136 1.435-.406 2.037a3.424 3.424 0 01-1.169 1.435c-.504.35-1.109.525-1.813.525zm-3.479 3.15v-10.92h1.113v5.565h.14v5.355h-1.253zm3.325-4.291c.499 0 .912-.126 1.239-.378.326-.252.571-.593.735-1.022.163-.434.245-.919.245-1.456 0-.532-.082-1.013-.245-1.442a2.196 2.196 0 00-.742-1.022c-.332-.252-.754-.378-1.267-.378-.49 0-.896.121-1.218.364-.322.238-.563.572-.721 1.001-.159.425-.238.917-.238 1.477 0 .551.077 1.043.231 1.477.158.429.401.768.728 1.015.326.243.744.364 1.253.364zm8.352 1.141c-.742 0-1.391-.163-1.946-.49a3.428 3.428 0 01-1.288-1.379c-.308-.593-.462-1.283-.462-2.072 0-.826.152-1.54.455-2.142a3.329 3.329 0 011.267-1.4c.546-.331 1.185-.497 1.918-.497.761 0 1.407.175 1.939.525.537.35.938.849 1.204 1.498.271.649.387 1.421.35 2.317h-1.26v-.448c-.014-.929-.203-1.622-.567-2.079-.364-.462-.905-.693-1.624-.693-.77 0-1.356.247-1.757.742-.401.495-.602 1.204-.602 2.128 0 .891.201 1.582.602 2.072.401.49.973.735 1.715.735.499 0 .933-.114 1.302-.343.369-.229.658-.558.868-.987l1.197.413a3.392 3.392 0 01-1.33 1.554 3.686 3.686 0 01-1.981.546zm-2.793-3.64v-1.001h5.586v1.001h-5.586zm7.782 3.43l.007-7.56h1.26v3.64l3.171-3.64h1.617l-3.339 3.78 3.731 3.78h-1.743l-3.437-3.64V236h-1.267zm9.145 0v-6.426h-2.632v-1.134h6.51v1.134h-2.632V236h-1.246zm8.287.21c-.752 0-1.4-.17-1.946-.511a3.384 3.384 0 01-1.253-1.414c-.294-.602-.441-1.293-.441-2.072 0-.793.149-1.489.448-2.086a3.328 3.328 0 011.267-1.393c.546-.336 1.187-.504 1.925-.504.756 0 1.407.17 1.953.511.546.336.963.805 1.253 1.407.294.597.441 1.286.441 2.065 0 .789-.147 1.484-.441 2.086a3.384 3.384 0 01-1.26 1.407c-.546.336-1.195.504-1.946.504zm0-1.183c.784 0 1.367-.261 1.75-.784.382-.523.574-1.199.574-2.03 0-.854-.194-1.533-.581-2.037-.388-.509-.969-.763-1.743-.763-.528 0-.962.119-1.302.357a2.136 2.136 0 00-.763.987c-.168.42-.252.905-.252 1.456 0 .849.196 1.531.588 2.044.392.513.968.77 1.729.77zm8.66 1.183c-.709 0-1.307-.175-1.792-.525a3.324 3.324 0 01-1.106-1.435c-.247-.607-.371-1.286-.371-2.037 0-.761.124-1.442.371-2.044.252-.602.621-1.076 1.106-1.421.49-.345 1.09-.518 1.799-.518.7 0 1.302.175 1.806.525.509.345.898.819 1.169 1.421.271.602.406 1.281.406 2.037s-.135 1.435-.406 2.037a3.416 3.416 0 01-1.169 1.435c-.504.35-1.108.525-1.813.525zm-3.479 3.15v-10.92h1.113v5.565h.14v5.355h-1.253zm3.325-4.291c.499 0 .912-.126 1.239-.378.327-.252.572-.593.735-1.022.163-.434.245-.919.245-1.456 0-.532-.082-1.013-.245-1.442a2.196 2.196 0 00-.742-1.022c-.331-.252-.754-.378-1.267-.378-.49 0-.896.121-1.218.364-.322.238-.562.572-.721 1.001-.159.425-.238.917-.238 1.477 0 .551.077 1.043.231 1.477.159.429.401.768.728 1.015.327.243.744.364 1.253.364zm8.296 1.141c-.751 0-1.4-.17-1.946-.511a3.39 3.39 0 01-1.253-1.414c-.294-.602-.441-1.293-.441-2.072 0-.793.15-1.489.448-2.086a3.335 3.335 0 011.267-1.393c.546-.336 1.188-.504 1.925-.504.756 0 1.407.17 1.953.511.546.336.964.805 1.253 1.407.294.597.441 1.286.441 2.065 0 .789-.147 1.484-.441 2.086a3.384 3.384 0 01-1.26 1.407c-.546.336-1.194.504-1.946.504zm0-1.183c.784 0 1.368-.261 1.75-.784.383-.523.574-1.199.574-2.03 0-.854-.193-1.533-.581-2.037-.387-.509-.968-.763-1.743-.763-.527 0-.961.119-1.302.357-.34.238-.595.567-.763.987-.168.42-.252.905-.252 1.456 0 .849.196 1.531.588 2.044.392.513.969.77 1.729.77zm5.182.973v-7.56h3.22c.191 0 .396.012.616.035.224.019.427.054.609.105a1.83 1.83 0 011.001.665c.266.331.399.751.399 1.26 0 .285-.045.532-.133.742-.084.21-.206.392-.364.546a1.51 1.51 0 01-.483.322c.163.028.329.091.497.189.266.145.473.348.623.609.154.261.231.595.231 1.001 0 .513-.124.938-.371 1.274-.248.331-.588.56-1.022.686a3.288 3.288 0 01-.602.105c-.22.014-.432.021-.637.021h-3.584zm1.26-1.015h2.254c.098 0 .214-.009.35-.028.14-.019.263-.042.371-.07a.84.84 0 00.525-.392 1.21 1.21 0 00.168-.623c0-.299-.084-.541-.252-.728a1.081 1.081 0 00-.651-.35 1.393 1.393 0 00-.322-.049 6.78 6.78 0 00-.301-.007h-2.142v2.247zm0-3.276h1.876c.13 0 .268-.007.413-.021.144-.019.27-.049.378-.091a.84.84 0 00.469-.392c.102-.187.154-.39.154-.609a1.19 1.19 0 00-.168-.637.836.836 0 00-.497-.385 1.553 1.553 0 00-.504-.091 10.027 10.027 0 00-.35-.014h-1.771v2.24zM3.555 483l1.204-2.499-3.549-7.581h1.393l2.807 6.251 2.87-6.251h1.33L4.906 483H3.555zm10.127.21c-.709 0-1.306-.175-1.792-.525a3.321 3.321 0 01-1.106-1.435c-.247-.607-.37-1.286-.37-2.037 0-.761.123-1.442.37-2.044.252-.602.621-1.076 1.106-1.421.49-.345 1.09-.518 1.8-.518.7 0 1.302.175 1.806.525.508.345.898.819 1.168 1.421.271.602.406 1.281.406 2.037s-.135 1.435-.405 2.037c-.271.602-.66 1.08-1.17 1.435-.503.35-1.108.525-1.813.525zm-3.479 3.15v-10.92h1.114v5.565h.14v5.355h-1.254zm3.325-4.291c.5 0 .913-.126 1.24-.378.326-.252.571-.593.734-1.022.164-.434.245-.919.245-1.456 0-.532-.081-1.013-.245-1.442a2.194 2.194 0 00-.742-1.022c-.33-.252-.753-.378-1.267-.378-.49 0-.896.121-1.218.364-.322.238-.562.572-.72 1.001-.16.425-.239.917-.239 1.477 0 .551.077 1.043.231 1.477.16.429.402.768.728 1.015.327.243.745.364 1.253.364zm8.297 1.141c-.751 0-1.4-.17-1.946-.511a3.388 3.388 0 01-1.253-1.414c-.294-.602-.441-1.293-.441-2.072 0-.793.15-1.489.448-2.086a3.333 3.333 0 011.267-1.393c.546-.336 1.188-.504 1.925-.504.756 0 1.407.17 1.953.511.546.336.964.805 1.253 1.407.294.597.441 1.286.441 2.065 0 .789-.147 1.484-.441 2.086a3.384 3.384 0 01-1.26 1.407c-.546.336-1.195.504-1.946.504zm0-1.183c.784 0 1.367-.261 1.75-.784s.574-1.199.574-2.03c0-.854-.194-1.533-.581-2.037-.387-.509-.968-.763-1.743-.763-.527 0-.961.119-1.302.357-.34.238-.595.567-.763.987-.168.42-.252.905-.252 1.456 0 .849.196 1.531.588 2.044.392.513.968.77 1.729.77zm5.181.973v-7.56h3.22c.192 0 .397.012.616.035.224.019.427.054.61.105.405.107.739.329 1 .665.266.331.4.751.4 1.26 0 .285-.045.532-.134.742-.084.21-.205.392-.364.546a1.51 1.51 0 01-.483.322c.164.028.33.091.497.189.266.145.474.348.623.609.154.261.231.595.231 1.001 0 .513-.123.938-.37 1.274-.248.331-.589.56-1.023.686a3.284 3.284 0 01-.602.105c-.22.014-.431.021-.637.021h-3.584zm1.26-1.015h2.254c.098 0 .215-.009.35-.028.14-.019.264-.042.371-.07a.836.836 0 00.525-.392 1.21 1.21 0 00.168-.623c0-.299-.084-.541-.252-.728a1.077 1.077 0 00-.65-.35 1.387 1.387 0 00-.323-.049 6.757 6.757 0 00-.3-.007h-2.143v2.247zm0-3.276h1.876c.13 0 .268-.007.413-.021a1.62 1.62 0 00.378-.091.838.838 0 00.47-.392c.102-.187.153-.39.153-.609a1.19 1.19 0 00-.168-.637.834.834 0 00-.497-.385 1.547 1.547 0 00-.504-.091 10 10 0 00-.35-.014h-1.77v2.24zm9.638 4.501c-.742 0-1.39-.163-1.946-.49a3.43 3.43 0 01-1.288-1.379c-.308-.593-.462-1.283-.462-2.072 0-.826.152-1.54.455-2.142a3.33 3.33 0 011.267-1.4c.546-.331 1.186-.497 1.918-.497.761 0 1.407.175 1.94.525.536.35.937.849 1.203 1.498.271.649.388 1.421.35 2.317h-1.26v-.448c-.014-.929-.203-1.622-.567-2.079-.364-.462-.905-.693-1.624-.693-.77 0-1.355.247-1.757.742-.4.495-.602 1.204-.602 2.128 0 .891.201 1.582.602 2.072.402.49.973.735 1.715.735.5 0 .934-.114 1.302-.343.37-.229.658-.558.868-.987l1.197.413a3.393 3.393 0 01-1.33 1.554 3.687 3.687 0 01-1.98.546zm-2.793-3.64v-1.001h5.586v1.001h-5.586zm7.782 3.43v-7.56h1.246v3.185h3.976v-3.185h1.246V483h-1.246v-3.192h-3.976V483h-1.246zm8.429 0l-.007-7.56h1.253v2.737h1.63c.22 0 .444.005.673.014.228.009.427.03.595.063.392.075.735.205 1.029.392.294.187.523.441.686.763.163.317.245.712.245 1.183 0 .653-.17 1.171-.511 1.554-.336.378-.777.63-1.323.756-.187.042-.401.07-.644.084a18.04 18.04 0 01-.68.014h-2.946zm1.246-1.029h1.722c.14 0 .296-.005.469-.014.172-.009.327-.033.462-.07.238-.07.45-.208.637-.413.191-.205.287-.499.287-.882 0-.387-.094-.686-.28-.896a1.286 1.286 0 00-.721-.413 2.412 2.412 0 00-.427-.063 7.124 7.124 0 00-.427-.014h-1.722v2.765zm10.25 4.389l1.462-3.976.021 1.176-3.304-8.12h1.31l2.59 6.531h-.449l2.43-6.531h1.266l-4.116 10.92h-1.21zm6.475-3.36v-7.56h6.195V483h-1.246v-6.377H70.54V483h-1.246zm11.628.21c-.71 0-1.307-.175-1.792-.525a3.321 3.321 0 01-1.106-1.435c-.248-.607-.371-1.286-.371-2.037 0-.761.123-1.442.37-2.044.253-.602.621-1.076 1.107-1.421.49-.345 1.09-.518 1.799-.518.7 0 1.302.175 1.806.525.508.345.898.819 1.169 1.421.27.602.406 1.281.406 2.037s-.136 1.435-.406 2.037c-.27.602-.66 1.08-1.17 1.435-.503.35-1.108.525-1.812.525zm-3.48 3.15v-10.92h1.114v5.565h.14v5.355h-1.253zm3.326-4.291c.5 0 .912-.126 1.239-.378.326-.252.571-.593.735-1.022.163-.434.245-.919.245-1.456 0-.532-.082-1.013-.245-1.442a2.194 2.194 0 00-.742-1.022c-.332-.252-.754-.378-1.267-.378-.49 0-.896.121-1.218.364-.322.238-.563.572-.721 1.001-.159.425-.238.917-.238 1.477 0 .551.077 1.043.23 1.477.16.429.402.768.729 1.015.326.243.744.364 1.253.364zm7.225 1.141c-.564 0-1.038-.103-1.42-.308a2.192 2.192 0 01-.862-.826 2.248 2.248 0 01-.287-1.12c0-.397.075-.74.224-1.029.154-.294.369-.537.644-.728.276-.196.605-.35.987-.462.36-.098.76-.182 1.204-.252.448-.075.9-.142 1.358-.203.458-.061.885-.119 1.281-.175l-.448.259c.014-.672-.121-1.169-.406-1.491-.28-.322-.765-.483-1.456-.483a2.27 2.27 0 00-1.204.315c-.34.205-.58.541-.72 1.008l-1.184-.357c.182-.663.535-1.183 1.057-1.561.523-.378 1.211-.567 2.065-.567.686 0 1.274.124 1.764.371.495.243.85.611 1.064 1.106.108.233.175.488.203.763.028.271.042.555.042.854V483h-1.106v-1.813l.26.168c-.285.611-.684 1.073-1.198 1.386-.508.313-1.13.469-1.862.469zm.19-1.043c.447 0 .835-.079 1.161-.238.332-.163.598-.376.798-.637.2-.266.332-.555.392-.868a2.86 2.86 0 00.112-.777c.01-.289.014-.511.014-.665l.434.189c-.406.056-.805.11-1.197.161-.392.051-.763.107-1.113.168a8.36 8.36 0 00-.945.203 3.035 3.035 0 00-.58.252 1.327 1.327 0 00-.435.399 1.039 1.039 0 00-.16.595c0 .205.05.401.153.588.108.187.27.338.49.455.224.117.516.175.875.175zm5.53.833v-7.56h3.22c.19 0 .396.012.615.035.224.019.427.054.61.105.405.107.739.329 1 .665.266.331.4.751.4 1.26 0 .285-.045.532-.134.742-.084.21-.205.392-.364.546a1.51 1.51 0 01-.483.322c.164.028.33.091.497.189.266.145.474.348.623.609.154.261.231.595.231 1.001 0 .513-.123.938-.37 1.274-.248.331-.589.56-1.023.686a3.284 3.284 0 01-.602.105c-.22.014-.431.021-.637.021h-3.584zm1.26-1.015h2.253c.098 0 .215-.009.35-.028.14-.019.264-.042.371-.07a.837.837 0 00.525-.392 1.21 1.21 0 00.168-.623c0-.299-.084-.541-.252-.728a1.078 1.078 0 00-.65-.35 1.388 1.388 0 00-.323-.049 6.76 6.76 0 00-.3-.007H94.97v2.247zm0-3.276h1.875c.13 0 .269-.007.413-.021.145-.019.27-.049.378-.091a.838.838 0 00.47-.392c.102-.187.153-.39.153-.609a1.19 1.19 0 00-.168-.637.834.834 0 00-.497-.385 1.548 1.548 0 00-.504-.091 10 10 0 00-.35-.014h-1.77v2.24zm5.662 4.291v-1.071c.28.051.492.042.637-.028a.683.683 0 00.329-.385c.074-.187.135-.42.182-.7.079-.443.147-.938.203-1.484.06-.546.114-1.143.161-1.792.051-.653.098-1.353.14-2.1h5.285V483h-1.246v-6.377h-2.905c-.028.429-.063.87-.105 1.323a95.87 95.87 0 01-.119 1.323 30.88 30.88 0 01-.14 1.19c-.047.364-.098.679-.154.945-.089.457-.213.824-.371 1.099a1.094 1.094 0 01-.686.525c-.299.084-.703.075-1.211-.028zm12.179.21c-.742 0-1.391-.163-1.946-.49a3.428 3.428 0 01-1.288-1.379c-.308-.593-.462-1.283-.462-2.072 0-.826.151-1.54.455-2.142a3.323 3.323 0 011.267-1.4c.546-.331 1.185-.497 1.918-.497.76 0 1.407.175 1.939.525.536.35.938.849 1.204 1.498.27.649.387 1.421.35 2.317h-1.26v-.448c-.014-.929-.203-1.622-.567-2.079-.364-.462-.906-.693-1.624-.693-.77 0-1.356.247-1.757.742-.402.495-.602 1.204-.602 2.128 0 .891.2 1.582.602 2.072.401.49.973.735 1.715.735.499 0 .933-.114 1.302-.343.368-.229.658-.558.868-.987l1.197.413a3.397 3.397 0 01-1.33 1.554 3.689 3.689 0 01-1.981.546zm-2.793-3.64v-1.001h5.586v1.001h-5.586zm7.781 3.43v-7.56h1.246v3.185h3.976v-3.185h1.246V483h-1.246v-3.192h-3.976V483h-1.246zm14.617-7.56V483h-1.204v-5.572L127.252 483h-1.029v-7.56h1.204v5.495l3.969-5.495h1.022zm6.629 7.56v-2.737h-1.631c-.191 0-.403-.007-.637-.021a8.193 8.193 0 01-.644-.077 2.59 2.59 0 01-1.386-.721c-.373-.378-.56-.901-.56-1.568 0-.649.175-1.169.525-1.561a2.434 2.434 0 011.309-.77c.234-.056.469-.086.707-.091.243-.009.448-.014.616-.014h2.947l.007 7.56h-1.253zm-5.089 0l2.009-3.08h1.344l-2.009 3.08h-1.344zm3.367-3.766h1.722v-2.765h-1.722c-.107 0-.249.005-.427.014a2.144 2.144 0 00-.497.084 1.303 1.303 0 00-.441.231c-.14.112-.256.257-.35.434-.093.177-.14.387-.14.63 0 .35.098.635.294.854.196.215.434.359.714.434.154.037.306.061.455.07.154.009.285.014.392.014z"/>
</svg>
